<?xml version="1.0" encoding="UTF-8" standalone="no"?>
<!DOCTYPE svg PUBLIC "-//W3C//DTD SVG 1.1//EN"
 "http://www.w3.org/Graphics/SVG/1.1/DTD/svg11.dtd">
<!-- Generated by graphviz version 15.0.0 (20260523.1842)
 -->
<!-- Title: metaparams Pages: 1 -->
<svg width="711pt" height="420pt"
 viewBox="0.00 0.00 711.00 420.00" xmlns="http://www.w3.org/2000/svg" xmlns:xlink="http://www.w3.org/1999/xlink">
<g id="graph0" class="graph" transform="scale(1 1) rotate(0) translate(4 415.88)">
<title>metaparams</title>
<polygon fill="white" stroke="none" points="-4,4 -4,-415.88 707,-415.88 707,4 -4,4"/>
<text xml:space="preserve" text-anchor="middle" x="351.5" y="-394.57" font-family="Helvetica,sans-Serif" font-size="14.00">A7.4 &#160;META&#45;PARAMETERS &#160;— &#160;the 12&#45;value state the tuner mutates (defaults shown)</text>
<!-- P -->
<g id="node1" class="node">
<title>P</title>
<polygon fill="#dde6ff" stroke="none" points="8,-363.62 8,-384.88 213,-384.88 213,-363.62 8,-363.62"/>
<polygon fill="none" stroke="black" points="8,-363.62 8,-384.88 213,-384.88 213,-363.62 8,-363.62"/>
<text xml:space="preserve" text-anchor="start" x="13" y="-371.38" font-family="Helvetica,sans-Serif" font-weight="bold" font-size="10.00">PERSONALITY (gradient&#45;UP with activity)</text>
<polygon fill="#dde6ff" stroke="none" points="213,-363.62 213,-384.88 269.5,-384.88 269.5,-363.62 213,-363.62"/>
<polygon fill="none" stroke="black" points="213,-363.62 213,-384.88 269.5,-384.88 269.5,-363.62 213,-363.62"/>
<text xml:space="preserve" text-anchor="start" x="228.12" y="-371.38" font-family="Helvetica,sans-Serif" font-weight="bold" font-size="10.00">range</text>
<polygon fill="#dde6ff" stroke="none" points="269.5,-363.62 269.5,-384.88 301.25,-384.88 301.25,-363.62 269.5,-363.62"/>
<polygon fill="none" stroke="black" points="269.5,-363.62 269.5,-384.88 301.25,-384.88 301.25,-363.62 269.5,-363.62"/>
<text xml:space="preserve" text-anchor="start" x="274.5" y="-371.38" font-family="Helvetica,sans-Serif" font-weight="bold" font-size="10.00">floor</text>
<polygon fill="none" stroke="black" points="8,-342.38 8,-363.62 213,-363.62 213,-342.38 8,-342.38"/>
<text xml:space="preserve" text-anchor="start" x="13" y="-350.38" font-family="Helvetica,sans-Serif" font-size="10.00">responsiveness</text>
<polygon fill="none" stroke="black" points="213,-342.38 213,-363.62 269.5,-363.62 269.5,-342.38 213,-342.38"/>
<text xml:space="preserve" text-anchor="start" x="218" y="-350.38" font-family="Helvetica,sans-Serif" font-size="10.00">0.00 &#45; 0.85</text>
<polygon fill="none" stroke="black" points="269.5,-342.38 269.5,-363.62 301.25,-363.62 301.25,-342.38 269.5,-342.38"/>
<text xml:space="preserve" text-anchor="start" x="276" y="-350.38" font-family="Helvetica,sans-Serif" font-size="10.00">0.30</text>
<polygon fill="none" stroke="black" points="8,-321.12 8,-342.38 213,-342.38 213,-321.12 8,-321.12"/>
<text xml:space="preserve" text-anchor="start" x="13" y="-329.12" font-family="Helvetica,sans-Serif" font-size="10.00">energy</text>
<polygon fill="none" stroke="black" points="213,-321.12 213,-342.38 269.5,-342.38 269.5,-321.12 213,-321.12"/>
<text xml:space="preserve" text-anchor="start" x="218" y="-329.12" font-family="Helvetica,sans-Serif" font-size="10.00">0.00 &#45; 0.80</text>
<polygon fill="none" stroke="black" points="269.5,-321.12 269.5,-342.38 301.25,-342.38 301.25,-321.12 269.5,-321.12"/>
<text xml:space="preserve" text-anchor="start" x="276" y="-329.12" font-family="Helvetica,sans-Serif" font-size="10.00">0.25</text>
<polygon fill="none" stroke="black" points="8,-299.88 8,-321.12 213,-321.12 213,-299.88 8,-299.88"/>
<text xml:space="preserve" text-anchor="start" x="13" y="-307.88" font-family="Helvetica,sans-Serif" font-size="10.00">attention_span</text>
<polygon fill="none" stroke="black" points="213,-299.88 213,-321.12 269.5,-321.12 269.5,-299.88 213,-299.88"/>
<text xml:space="preserve" text-anchor="start" x="218" y="-307.88" font-family="Helvetica,sans-Serif" font-size="10.00">0.00 &#45; 0.90</text>
<polygon fill="none" stroke="black" points="269.5,-299.88 269.5,-321.12 301.25,-321.12 301.25,-299.88 269.5,-299.88"/>
<text xml:space="preserve" text-anchor="start" x="276" y="-307.88" font-family="Helvetica,sans-Serif" font-size="10.00">0.10</text>
<polygon fill="none" stroke="black" points="8,-278.62 8,-299.88 213,-299.88 213,-278.62 8,-278.62"/>
<text xml:space="preserve" text-anchor="start" x="13" y="-286.62" font-family="Helvetica,sans-Serif" font-size="10.00">sociability</text>
<polygon fill="none" stroke="black" points="213,-278.62 213,-299.88 269.5,-299.88 269.5,-278.62 213,-278.62"/>
<text xml:space="preserve" text-anchor="start" x="218" y="-286.62" font-family="Helvetica,sans-Serif" font-size="10.00">0.00 &#45; 0.85</text>
<polygon fill="none" stroke="black" points="269.5,-278.62 269.5,-299.88 301.25,-299.88 301.25,-278.62 269.5,-278.62"/>
<text xml:space="preserve" text-anchor="start" x="276" y="-286.62" font-family="Helvetica,sans-Serif" font-size="10.00">0.20</text>
<polygon fill="none" stroke="black" points="8,-257.38 8,-278.62 213,-278.62 213,-257.38 8,-257.38"/>
<text xml:space="preserve" text-anchor="start" x="13" y="-265.38" font-family="Helvetica,sans-Serif" font-size="10.00">exploration</text>
<polygon fill="none" stroke="black" points="213,-257.38 213,-278.62 269.5,-278.62 269.5,-257.38 213,-257.38"/>
<text xml:space="preserve" text-anchor="start" x="218" y="-265.38" font-family="Helvetica,sans-Serif" font-size="10.00">0.00 &#45; 0.75</text>
<polygon fill="none" stroke="black" points="269.5,-257.38 269.5,-278.62 301.25,-278.62 301.25,-257.38 269.5,-257.38"/>
<text xml:space="preserve" text-anchor="start" x="276" y="-265.38" font-family="Helvetica,sans-Serif" font-size="10.00">0.15</text>
<polygon fill="none" stroke="black" points="8,-236.12 8,-257.38 213,-257.38 213,-236.12 8,-236.12"/>
<text xml:space="preserve" text-anchor="start" x="13" y="-244.12" font-family="Helvetica,sans-Serif" font-size="10.00">memory</text>
<polygon fill="none" stroke="black" points="213,-236.12 213,-257.38 269.5,-257.38 269.5,-236.12 213,-236.12"/>
<text xml:space="preserve" text-anchor="start" x="218" y="-244.12" font-family="Helvetica,sans-Serif" font-size="10.00">0.00 &#45; 0.80</text>
<polygon fill="none" stroke="black" points="269.5,-236.12 269.5,-257.38 301.25,-257.38 301.25,-236.12 269.5,-236.12"/>
<text xml:space="preserve" text-anchor="start" x="283.88" y="-244.12" font-family="Helvetica,sans-Serif" font-size="10.00">&#45;</text>
<polygon fill="none" stroke="black" points="8,-214.88 8,-236.12 213,-236.12 213,-214.88 8,-214.88"/>
<text xml:space="preserve" text-anchor="start" x="13" y="-222.88" font-family="Helvetica,sans-Serif" font-size="10.00">follow_speed_global</text>
<polygon fill="none" stroke="black" points="213,-214.88 213,-236.12 269.5,-236.12 269.5,-214.88 213,-214.88"/>
<text xml:space="preserve" text-anchor="start" x="218" y="-222.88" font-family="Helvetica,sans-Serif" font-size="10.00">0.50 &#45; 2.00</text>
<polygon fill="none" stroke="black" points="269.5,-214.88 269.5,-236.12 301.25,-236.12 301.25,-214.88 269.5,-214.88"/>
<text xml:space="preserve" text-anchor="start" x="276" y="-222.88" font-family="Helvetica,sans-Serif" font-size="10.00">0.60</text>
</g>
<!-- meta -->
<g id="node4" class="node">
<title>meta</title>
<path fill="#fff39a" stroke="black" d="M461.62,-142.88C461.62,-142.88 397.62,-142.88 397.62,-142.88 391.62,-142.88 385.62,-136.88 385.62,-130.88 385.62,-130.88 385.62,-118.88 385.62,-118.88 385.62,-112.88 391.62,-106.88 397.62,-106.88 397.62,-106.88 461.62,-106.88 461.62,-106.88 467.62,-106.88 473.62,-112.88 473.62,-118.88 473.62,-118.88 473.62,-130.88 473.62,-130.88 473.62,-136.88 467.62,-142.88 461.62,-142.88"/>
<text xml:space="preserve" text-anchor="middle" x="429.62" y="-126.62" font-family="Helvetica,sans-Serif" font-size="10.00">MetaParameters</text>
<text xml:space="preserve" text-anchor="middle" x="429.62" y="-115.38" font-family="Helvetica,sans-Serif" font-size="10.00">object (shared)</text>
</g>
<!-- P&#45;&gt;meta -->
<!-- O -->
<g id="node2" class="node">
<title>O</title>
<polygon fill="#ffe6cc" stroke="none" points="12.5,-167.38 12.5,-188.62 208.5,-188.62 208.5,-167.38 12.5,-167.38"/>
<polygon fill="none" stroke="black" points="12.5,-167.38 12.5,-188.62 208.5,-188.62 208.5,-167.38 12.5,-167.38"/>
<text xml:space="preserve" text-anchor="start" x="17.5" y="-175.12" font-family="Helvetica,sans-Serif" font-weight="bold" font-size="10.00">OUTPUT MULTIPLIERS (inverse&#45;adjust)</text>
<polygon fill="#ffe6cc" stroke="none" points="208.5,-167.38 208.5,-188.62 265,-188.62 265,-167.38 208.5,-167.38"/>
<polygon fill="none" stroke="black" points="208.5,-167.38 208.5,-188.62 265,-188.62 265,-167.38 208.5,-167.38"/>
<text xml:space="preserve" text-anchor="start" x="223.62" y="-175.12" font-family="Helvetica,sans-Serif" font-weight="bold" font-size="10.00">range</text>
<polygon fill="#ffe6cc" stroke="none" points="265,-167.38 265,-188.62 296.75,-188.62 296.75,-167.38 265,-167.38"/>
<polygon fill="none" stroke="black" points="265,-167.38 265,-188.62 296.75,-188.62 296.75,-167.38 265,-167.38"/>
<text xml:space="preserve" text-anchor="start" x="270" y="-175.12" font-family="Helvetica,sans-Serif" font-weight="bold" font-size="10.00">floor</text>
<polygon fill="none" stroke="black" points="12.5,-146.12 12.5,-167.38 208.5,-167.38 208.5,-146.12 12.5,-146.12"/>
<text xml:space="preserve" text-anchor="start" x="17.5" y="-154.12" font-family="Helvetica,sans-Serif" font-size="10.00">brightness_global</text>
<polygon fill="none" stroke="black" points="208.5,-146.12 208.5,-167.38 265,-167.38 265,-146.12 208.5,-146.12"/>
<text xml:space="preserve" text-anchor="start" x="213.5" y="-154.12" font-family="Helvetica,sans-Serif" font-size="10.00">0.20 &#45; 2.50</text>
<polygon fill="none" stroke="black" points="265,-146.12 265,-167.38 296.75,-167.38 296.75,-146.12 265,-146.12"/>
<text xml:space="preserve" text-anchor="start" x="271.5" y="-154.12" font-family="Helvetica,sans-Serif" font-size="10.00">0.60</text>
<polygon fill="none" stroke="black" points="12.5,-124.88 12.5,-146.12 208.5,-146.12 208.5,-124.88 12.5,-124.88"/>
<text xml:space="preserve" text-anchor="start" x="17.5" y="-132.88" font-family="Helvetica,sans-Serif" font-size="10.00">speed_global</text>
<polygon fill="none" stroke="black" points="208.5,-124.88 208.5,-146.12 265,-146.12 265,-124.88 208.5,-124.88"/>
<text xml:space="preserve" text-anchor="start" x="213.5" y="-132.88" font-family="Helvetica,sans-Serif" font-size="10.00">0.20 &#45; 1.50</text>
<polygon fill="none" stroke="black" points="265,-124.88 265,-146.12 296.75,-146.12 296.75,-124.88 265,-124.88"/>
<text xml:space="preserve" text-anchor="start" x="271.5" y="-132.88" font-family="Helvetica,sans-Serif" font-size="10.00">0.35</text>
<polygon fill="none" stroke="black" points="12.5,-103.62 12.5,-124.88 208.5,-124.88 208.5,-103.62 12.5,-103.62"/>
<text xml:space="preserve" text-anchor="start" x="17.5" y="-111.62" font-family="Helvetica,sans-Serif" font-size="10.00">pulse_global</text>
<polygon fill="none" stroke="black" points="208.5,-103.62 208.5,-124.88 265,-124.88 265,-103.62 208.5,-103.62"/>
<text xml:space="preserve" text-anchor="start" x="213.5" y="-111.62" font-family="Helvetica,sans-Serif" font-size="10.00">0.30 &#45; 2.00</text>
<polygon fill="none" stroke="black" points="265,-103.62 265,-124.88 296.75,-124.88 296.75,-103.62 265,-103.62"/>
<text xml:space="preserve" text-anchor="start" x="271.5" y="-111.62" font-family="Helvetica,sans-Serif" font-size="10.00">0.35</text>
<polygon fill="none" stroke="black" points="12.5,-82.38 12.5,-103.62 208.5,-103.62 208.5,-82.38 12.5,-82.38"/>
<text xml:space="preserve" text-anchor="start" x="17.5" y="-90.38" font-family="Helvetica,sans-Serif" font-size="10.00">dwell_influence</text>
<polygon fill="none" stroke="black" points="208.5,-82.38 208.5,-103.62 265,-103.62 265,-82.38 208.5,-82.38"/>
<text xml:space="preserve" text-anchor="start" x="213.5" y="-90.38" font-family="Helvetica,sans-Serif" font-size="10.00">0.00 &#45; 1.50</text>
<polygon fill="none" stroke="black" points="265,-82.38 265,-103.62 296.75,-103.62 296.75,-82.38 265,-82.38"/>
<text xml:space="preserve" text-anchor="start" x="279.38" y="-90.38" font-family="Helvetica,sans-Serif" font-size="10.00">&#45;</text>
<polygon fill="none" stroke="black" points="12.5,-61.12 12.5,-82.38 208.5,-82.38 208.5,-61.12 12.5,-61.12"/>
<text xml:space="preserve" text-anchor="start" x="17.5" y="-69.12" font-family="Helvetica,sans-Serif" font-size="10.00">idle_trend_weight</text>
<polygon fill="none" stroke="black" points="208.5,-61.12 208.5,-82.38 265,-82.38 265,-61.12 208.5,-61.12"/>
<text xml:space="preserve" text-anchor="start" x="213.5" y="-69.12" font-family="Helvetica,sans-Serif" font-size="10.00">0.00 &#45; 0.75</text>
<polygon fill="none" stroke="black" points="265,-61.12 265,-82.38 296.75,-82.38 296.75,-61.12 265,-61.12"/>
<text xml:space="preserve" text-anchor="start" x="271.5" y="-69.12" font-family="Helvetica,sans-Serif" font-size="10.00">0.20</text>
</g>
<!-- O&#45;&gt;meta -->
<!-- tuner -->
<g id="node3" class="node">
<title>tuner</title>
<path fill="#f0f0f0" stroke="black" d="M184,-38.88C184,-38.88 125.25,-38.88 125.25,-38.88 119.25,-38.88 113.25,-32.88 113.25,-26.88 113.25,-26.88 113.25,-14.87 113.25,-14.87 113.25,-8.87 119.25,-2.88 125.25,-2.88 125.25,-2.88 184,-2.88 184,-2.88 190,-2.88 196,-8.88 196,-14.88 196,-14.88 196,-26.88 196,-26.88 196,-32.88 190,-38.88 184,-38.88"/>
<text xml:space="preserve" text-anchor="middle" x="154.62" y="-22.62" font-family="Helvetica,sans-Serif" font-size="10.00">TUNER writes</text>
<text xml:space="preserve" text-anchor="middle" x="154.62" y="-11.38" font-family="Helvetica,sans-Serif" font-size="10.00">(clamped delta)</text>
</g>
<!-- tuner&#45;&gt;meta -->
<g id="edge1" class="edge">
<title>tuner&#45;&gt;meta</title>
<path fill="none" stroke="black" d="M196.28,-23.59C227.95,-26.74 272.56,-33.5 309.25,-47.88 341.54,-60.53 374.38,-82.51 397.42,-99.76"/>
<polygon fill="black" stroke="black" points="395.08,-102.38 405.15,-105.67 399.33,-96.82 395.08,-102.38"/>
</g>
<!-- jrny -->
<g id="node7" class="node">
<title>jrny</title>
<polygon fill="#fff6e6" stroke="black" points="507,-41.75 346.25,-41.75 346.25,0 513,0 513,-35.75 507,-41.75"/>
<polyline fill="none" stroke="black" points="507,-41.75 507,-35.75"/>
<polyline fill="none" stroke="black" points="513,-35.75 507,-35.75"/>
<text xml:space="preserve" text-anchor="middle" x="429.62" y="-28.25" font-family="Helvetica,sans-Serif" font-size="10.00">journey per param:</text>
<text xml:space="preserve" text-anchor="middle" x="429.62" y="-17" font-family="Helvetica,sans-Serif" font-size="10.00">start / min / max / total_movement</text>
<text xml:space="preserve" text-anchor="middle" x="429.62" y="-5.75" font-family="Helvetica,sans-Serif" font-size="10.00">(daily learning)</text>
</g>
<!-- tuner&#45;&gt;jrny -->
<g id="edge4" class="edge">
<title>tuner&#45;&gt;jrny</title>
<path fill="none" stroke="black" stroke-dasharray="5,2" d="M196.5,-20.88C232.84,-20.88 287.37,-20.88 334.44,-20.88"/>
<polygon fill="black" stroke="black" points="334.41,-24.38 344.41,-20.88 334.41,-17.38 334.41,-24.38"/>
</g>
<!-- sliders -->
<g id="node5" class="node">
<title>sliders</title>
<path fill="#e8ecff" stroke="black" d="M664,-169.88C664,-169.88 612.75,-169.88 612.75,-169.88 606.75,-169.88 600.75,-163.88 600.75,-157.88 600.75,-157.88 600.75,-145.88 600.75,-145.88 600.75,-139.88 606.75,-133.88 612.75,-133.88 612.75,-133.88 664,-133.88 664,-133.88 670,-133.88 676,-139.88 676,-145.88 676,-145.88 676,-157.88 676,-157.88 676,-163.88 670,-169.88 664,-169.88"/>
<text xml:space="preserve" text-anchor="middle" x="638.38" y="-153.62" font-family="Helvetica,sans-Serif" font-size="10.00">GUI sliders</text>
<text xml:space="preserve" text-anchor="middle" x="638.38" y="-142.38" font-family="Helvetica,sans-Serif" font-size="10.00">(kept in sync)</text>
</g>
<!-- meta&#45;&gt;sliders -->
<g id="edge2" class="edge">
<title>meta&#45;&gt;sliders</title>
<path fill="none" stroke="black" d="M485.36,-132.02C517.54,-136.23 557.88,-141.49 588.92,-145.55"/>
<polygon fill="black" stroke="black" points="485.84,-128.56 475.47,-130.73 484.93,-135.5 485.84,-128.56"/>
<polygon fill="black" stroke="black" points="588.45,-149.02 598.82,-146.84 589.36,-142.07 588.45,-149.02"/>
<text xml:space="preserve" text-anchor="middle" x="543.38" y="-143.99" font-family="Times,serif" font-size="14.00">sync</text>
</g>
<!-- beh -->
<g id="node6" class="node">
<title>beh</title>
<path fill="#dff0e6" stroke="black" d="M691,-115.88C691,-115.88 585.75,-115.88 585.75,-115.88 579.75,-115.88 573.75,-109.88 573.75,-103.88 573.75,-103.88 573.75,-91.88 573.75,-91.88 573.75,-85.88 579.75,-79.88 585.75,-79.88 585.75,-79.88 691,-79.88 691,-79.88 697,-79.88 703,-85.88 703,-91.88 703,-91.88 703,-103.88 703,-103.88 703,-109.88 697,-115.88 691,-115.88"/>
<text xml:space="preserve" text-anchor="middle" x="638.38" y="-99.62" font-family="Helvetica,sans-Serif" font-size="10.00">BehaviorSystem</text>
<text xml:space="preserve" text-anchor="middle" x="638.38" y="-88.38" font-family="Helvetica,sans-Serif" font-size="10.00">reads every frame &#45;&gt; A7.6</text>
</g>
<!-- meta&#45;&gt;beh -->
<g id="edge3" class="edge">
<title>meta&#45;&gt;beh</title>
<path fill="none" stroke="black" d="M473.97,-119.21C499.48,-115.88 532.46,-111.58 562.1,-107.7"/>
<polygon fill="black" stroke="black" points="562.32,-111.21 571.78,-106.44 561.41,-104.27 562.32,-111.21"/>
<text xml:space="preserve" text-anchor="middle" x="543.38" y="-114.58" font-family="Times,serif" font-size="14.00">read</text>
</g>
</g>
</svg>
