<?xml version="1.0" encoding="UTF-8" standalone="no"?>
<!DOCTYPE svg PUBLIC "-//W3C//DTD SVG 1.1//EN"
 "http://www.w3.org/Graphics/SVG/1.1/DTD/svg11.dtd">
<!-- Generated by graphviz version 15.0.0 (20260523.1842)
 -->
<!-- Title: adjustments Pages: 1 -->
<svg width="810pt" height="212pt"
 viewBox="0.00 0.00 810.00 212.00" xmlns="http://www.w3.org/2000/svg" xmlns:xlink="http://www.w3.org/1999/xlink">
<g id="graph0" class="graph" transform="scale(1 1) rotate(0) translate(4 208.25)">
<title>adjustments</title>
<polygon fill="white" stroke="none" points="-4,4 -4,-208.25 806,-208.25 806,4 -4,4"/>
<text xml:space="preserve" text-anchor="middle" x="401" y="-186.95" font-family="Helvetica,sans-Serif" font-size="14.00">A7.5 &#160;behavior_adjustments &#160;— &#160;one row logged per tuning cycle (the audit trail)</text>
<!-- producer -->
<g id="node1" class="node">
<title>producer</title>
<path fill="#dff0e6" stroke="black" d="M145.75,-111.5C145.75,-111.5 12,-111.5 12,-111.5 6,-111.5 0,-105.5 0,-99.5 0,-99.5 0,-81.75 0,-81.75 0,-75.75 6,-69.75 12,-69.75 12,-69.75 145.75,-69.75 145.75,-69.75 151.75,-69.75 157.75,-75.75 157.75,-81.75 157.75,-81.75 157.75,-99.5 157.75,-99.5 157.75,-105.5 151.75,-111.5 145.75,-111.5"/>
<text xml:space="preserve" text-anchor="middle" x="78.88" y="-98" font-family="Helvetica,sans-Serif" font-size="10.00">PRODUCER</text>
<text xml:space="preserve" text-anchor="middle" x="78.88" y="-86.75" font-family="Helvetica,sans-Serif" font-size="10.00">SmartAutoTuner, each cycle</text>
<text xml:space="preserve" text-anchor="middle" x="78.88" y="-75.5" font-family="Helvetica,sans-Serif" font-size="10.00">db.record_behavior_adjustment()</text>
</g>
<!-- rec -->
<g id="node2" class="node">
<title>rec</title>
<polygon fill="#eef2ff" stroke="none" points="249,-158 249,-177.25 535.75,-177.25 535.75,-158 249,-158"/>
<polygon fill="none" stroke="black" points="249,-158 249,-177.25 535.75,-177.25 535.75,-158 249,-158"/>
<text xml:space="preserve" text-anchor="start" x="327.88" y="-164.75" font-family="Helvetica,sans-Serif" font-weight="bold" font-size="10.00">behavior_adjustments (row)</text>
<polygon fill="none" stroke="black" points="249,-138.75 249,-158 393.5,-158 393.5,-138.75 249,-138.75"/>
<text xml:space="preserve" text-anchor="start" x="253" y="-145.75" font-family="Helvetica,sans-Serif" font-size="10.00">timestamp / datetime</text>
<polygon fill="none" stroke="black" points="393.5,-138.75 393.5,-158 535.75,-158 535.75,-138.75 393.5,-138.75"/>
<text xml:space="preserve" text-anchor="start" x="397.5" y="-145.75" font-family="Helvetica,sans-Serif" font-size="10.00">when</text>
<polygon fill="none" stroke="black" points="249,-119.5 249,-138.75 393.5,-138.75 393.5,-119.5 249,-119.5"/>
<text xml:space="preserve" text-anchor="start" x="253" y="-126.5" font-family="Helvetica,sans-Serif" font-size="10.00">enabled / reason</text>
<polygon fill="none" stroke="black" points="393.5,-119.5 393.5,-138.75 535.75,-138.75 535.75,-119.5 393.5,-119.5"/>
<text xml:space="preserve" text-anchor="start" x="397.5" y="-126.5" font-family="Helvetica,sans-Serif" font-size="10.00">was tuning active, why</text>
<polygon fill="none" stroke="black" points="249,-100.25 249,-119.5 393.5,-119.5 393.5,-100.25 249,-100.25"/>
<text xml:space="preserve" text-anchor="start" x="253" y="-107.25" font-family="Helvetica,sans-Serif" font-size="10.00">short / medium / long_activity</text>
<polygon fill="none" stroke="black" points="393.5,-100.25 393.5,-119.5 535.75,-119.5 535.75,-100.25 393.5,-100.25"/>
<text xml:space="preserve" text-anchor="start" x="397.5" y="-107.25" font-family="Helvetica,sans-Serif" font-size="10.00">trend context</text>
<polygon fill="none" stroke="black" points="249,-81 249,-100.25 393.5,-100.25 393.5,-81 249,-81"/>
<text xml:space="preserve" text-anchor="start" x="253" y="-88" font-family="Helvetica,sans-Serif" font-size="10.00">energy_level / aggression_level</text>
<polygon fill="none" stroke="black" points="393.5,-81 393.5,-100.25 535.75,-100.25 535.75,-81 393.5,-81"/>
<text xml:space="preserve" text-anchor="start" x="397.5" y="-88" font-family="Helvetica,sans-Serif" font-size="10.00">state context</text>
<polygon fill="#fff6e6" stroke="none" points="249,-61.75 249,-81 535.75,-81 535.75,-61.75 249,-61.75"/>
<polygon fill="none" stroke="black" points="249,-61.75 249,-81 535.75,-81 535.75,-61.75 249,-61.75"/>
<text xml:space="preserve" text-anchor="start" x="253" y="-68.5" font-family="Helvetica,sans-Serif" font-weight="bold" font-size="10.00">adjustments_json</text>
<polygon fill="none" stroke="black" points="249,-42.5 249,-61.75 393.5,-61.75 393.5,-42.5 249,-42.5"/>
<text xml:space="preserve" text-anchor="start" x="253" y="-49.5" font-family="Helvetica,sans-Serif" font-size="10.00">old_values / new_values</text>
<polygon fill="none" stroke="black" points="393.5,-42.5 393.5,-61.75 535.75,-61.75 535.75,-42.5 393.5,-42.5"/>
<text xml:space="preserve" text-anchor="start" x="397.5" y="-49.5" font-family="Helvetica,sans-Serif" font-size="10.00">12&#45;param before/after</text>
<polygon fill="none" stroke="black" points="249,-23.25 249,-42.5 393.5,-42.5 393.5,-23.25 249,-23.25"/>
<text xml:space="preserve" text-anchor="start" x="253" y="-30.25" font-family="Helvetica,sans-Serif" font-size="10.00">deltas / gradients</text>
<polygon fill="none" stroke="black" points="393.5,-23.25 393.5,-42.5 535.75,-42.5 535.75,-23.25 393.5,-23.25"/>
<text xml:space="preserve" text-anchor="start" x="397.5" y="-30.25" font-family="Helvetica,sans-Serif" font-size="10.00">what moved + estimated slope</text>
<polygon fill="none" stroke="black" points="249,-4 249,-23.25 393.5,-23.25 393.5,-4 249,-4"/>
<text xml:space="preserve" text-anchor="start" x="253" y="-11" font-family="Helvetica,sans-Serif" font-size="10.00">budget_before / after / cost</text>
<polygon fill="none" stroke="black" points="393.5,-4 393.5,-23.25 535.75,-23.25 535.75,-4 393.5,-4"/>
<text xml:space="preserve" text-anchor="start" x="397.5" y="-11" font-family="Helvetica,sans-Serif" font-size="10.00">friction accounting</text>
</g>
<!-- producer&#45;&gt;rec -->
<g id="edge1" class="edge">
<title>producer&#45;&gt;rec</title>
<path fill="none" stroke="black" d="M158.08,-90.62C180.04,-90.62 204.75,-90.62 229.68,-90.62"/>
<polygon fill="black" stroke="black" points="229.62,-94.13 239.62,-90.63 229.62,-87.13 229.62,-94.13"/>
<text xml:space="preserve" text-anchor="middle" x="199.38" y="-93.83" font-family="Times,serif" font-size="14.00">INSERT</text>
</g>
<!-- c1 -->
<g id="node3" class="node">
<title>c1</title>
<path fill="#ffe6e6" stroke="black" d="M790,-153.12C790,-153.12 648,-153.12 648,-153.12 642,-153.12 636,-147.12 636,-141.12 636,-141.12 636,-112.12 636,-112.12 636,-106.12 642,-100.12 648,-100.12 648,-100.12 790,-100.12 790,-100.12 796,-100.12 802,-106.12 802,-112.12 802,-112.12 802,-141.12 802,-141.12 802,-147.12 796,-153.12 790,-153.12"/>
<text xml:space="preserve" text-anchor="middle" x="719" y="-139.62" font-family="Helvetica,sans-Serif" font-size="10.00">CONSUMER</text>
<text xml:space="preserve" text-anchor="middle" x="719" y="-128.38" font-family="Helvetica,sans-Serif" font-size="10.00">meta&#45;review (A7.7), 8 h window</text>
<text xml:space="preserve" text-anchor="middle" x="719" y="-117.12" font-family="Helvetica,sans-Serif" font-size="10.00">get_param_values / floor&#45;ceiling %</text>
<text xml:space="preserve" text-anchor="middle" x="719" y="-105.88" font-family="Helvetica,sans-Serif" font-size="10.00">get_budget_stats</text>
</g>
<!-- rec&#45;&gt;c1 -->
<g id="edge2" class="edge">
<title>rec&#45;&gt;c1</title>
<path fill="none" stroke="black" d="M543.33,-107.26C570.85,-110.31 598.84,-113.41 624.12,-116.21"/>
<polygon fill="black" stroke="black" points="623.71,-119.69 634.03,-117.31 624.48,-112.73 623.71,-119.69"/>
<text xml:space="preserve" text-anchor="middle" x="589.88" y="-118.18" font-family="Times,serif" font-size="14.00">reads 8 h</text>
</g>
<!-- c2 -->
<g id="node4" class="node">
<title>c2</title>
<path fill="#e8ecff" stroke="black" d="M766.75,-82.12C766.75,-82.12 671.25,-82.12 671.25,-82.12 665.25,-82.12 659.25,-76.12 659.25,-70.12 659.25,-70.12 659.25,-41.12 659.25,-41.12 659.25,-35.12 665.25,-29.12 671.25,-29.12 671.25,-29.12 766.75,-29.12 766.75,-29.12 772.75,-29.12 778.75,-35.12 778.75,-41.12 778.75,-41.12 778.75,-70.12 778.75,-70.12 778.75,-76.12 772.75,-82.12 766.75,-82.12"/>
<text xml:space="preserve" text-anchor="middle" x="719" y="-68.62" font-family="Helvetica,sans-Serif" font-size="10.00">CONSUMER</text>
<text xml:space="preserve" text-anchor="middle" x="719" y="-57.38" font-family="Helvetica,sans-Serif" font-size="10.00">daily report</text>
<text xml:space="preserve" text-anchor="middle" x="719" y="-46.12" font-family="Helvetica,sans-Serif" font-size="10.00">get_daily_adjustments()</text>
<text xml:space="preserve" text-anchor="middle" x="719" y="-34.88" font-family="Helvetica,sans-Serif" font-size="10.00">&#45;&gt; param journeys</text>
</g>
<!-- rec&#45;&gt;c2 -->
<g id="edge3" class="edge">
<title>rec&#45;&gt;c2</title>
<path fill="none" stroke="black" d="M543.33,-74.46C579.72,-70.53 616.94,-66.52 647.62,-63.21"/>
<polygon fill="black" stroke="black" points="647.97,-66.7 657.54,-62.14 647.22,-59.74 647.97,-66.7"/>
<text xml:space="preserve" text-anchor="middle" x="589.88" y="-75.28" font-family="Times,serif" font-size="14.00">reads 24 h</text>
</g>
</g>
</svg>
