<svg id="my-svg" width="100%" xmlns="http://www.w3.org/2000/svg" xmlns:xlink="http://www.w3.org/1999/xlink" class="flowchart" style="max-width: 515.402px; background-color: transparent;" viewBox="0 -50 515.4018249511719 1488" role="graphics-document document" aria-roledescription="flowchart-v2"><style>#my-svg{font-family:"trebuchet ms",verdana,arial,sans-serif;font-size:16px;fill:#333;}@keyframes edge-animation-frame{from{stroke-dashoffset:0;}}@keyframes dash{to{stroke-dashoffset:0;}}#my-svg .edge-animation-slow{stroke-dasharray:9,5!important;stroke-dashoffset:900;animation:dash 50s linear infinite;stroke-linecap:round;}#my-svg .edge-animation-fast{stroke-dasharray:9,5!important;stroke-dashoffset:900;animation:dash 20s linear infinite;stroke-linecap:round;}#my-svg .error-icon{fill:#552222;}#my-svg .error-text{fill:#552222;stroke:#552222;}#my-svg .edge-thickness-normal{stroke-width:1px;}#my-svg .edge-thickness-thick{stroke-width:3.5px;}#my-svg .edge-pattern-solid{stroke-dasharray:0;}#my-svg .edge-thickness-invisible{stroke-width:0;fill:none;}#my-svg .edge-pattern-dashed{stroke-dasharray:3;}#my-svg .edge-pattern-dotted{stroke-dasharray:2;}#my-svg .marker{fill:#333333;stroke:#333333;}#my-svg .marker.cross{stroke:#333333;}#my-svg svg{font-family:"trebuchet ms",verdana,arial,sans-serif;font-size:16px;}#my-svg p{margin:0;}#my-svg .label{font-family:"trebuchet ms",verdana,arial,sans-serif;color:#333;}#my-svg .cluster-label text{fill:#333;}#my-svg .cluster-label span{color:#333;}#my-svg .cluster-label span p{background-color:transparent;}#my-svg .label text,#my-svg span{fill:#333;color:#333;}#my-svg .node rect,#my-svg .node circle,#my-svg .node ellipse,#my-svg .node polygon,#my-svg .node path{fill:#ECECFF;stroke:#9370DB;stroke-width:1px;}#my-svg .rough-node .label text,#my-svg .node .label text,#my-svg .image-shape .label,#my-svg .icon-shape .label{text-anchor:middle;}#my-svg .node .katex path{fill:#000;stroke:#000;stroke-width:1px;}#my-svg .rough-node .label,#my-svg .node .label,#my-svg .image-shape .label,#my-svg .icon-shape .label{text-align:center;}#my-svg .node.clickable{cursor:pointer;}#my-svg .root .anchor path{fill:#333333!important;stroke-width:0;stroke:#333333;}#my-svg .arrowheadPath{fill:#333333;}#my-svg .edgePath .path{stroke:#333333;stroke-width:2.0px;}#my-svg .flowchart-link{stroke:#333333;fill:none;}#my-svg .edgeLabel{background-color:rgba(232,232,232, 0.8);text-align:center;}#my-svg .edgeLabel p{background-color:rgba(232,232,232, 0.8);}#my-svg .edgeLabel rect{opacity:0.5;background-color:rgba(232,232,232, 0.8);fill:rgba(232,232,232, 0.8);}#my-svg .labelBkg{background-color:rgba(232, 232, 232, 0.5);}#my-svg .cluster rect{fill:#ffffde;stroke:#aaaa33;stroke-width:1px;}#my-svg .cluster text{fill:#333;}#my-svg .cluster span{color:#333;}#my-svg div.mermaidTooltip{position:absolute;text-align:center;max-width:200px;padding:2px;font-family:"trebuchet ms",verdana,arial,sans-serif;font-size:12px;background:hsl(80, 100%, 96.2745098039%);border:1px solid #aaaa33;border-radius:2px;pointer-events:none;z-index:100;}#my-svg .flowchartTitleText{text-anchor:middle;font-size:18px;fill:#333;}#my-svg rect.text{fill:none;stroke-width:0;}#my-svg .icon-shape,#my-svg .image-shape{background-color:rgba(232,232,232, 0.8);text-align:center;}#my-svg .icon-shape p,#my-svg .image-shape p{background-color:rgba(232,232,232, 0.8);padding:2px;}#my-svg .icon-shape rect,#my-svg .image-shape rect{opacity:0.5;background-color:rgba(232,232,232, 0.8);fill:rgba(232,232,232, 0.8);}#my-svg .label-icon{display:inline-block;height:1em;overflow:visible;vertical-align:-0.125em;}#my-svg .node .label-icon path{fill:currentColor;stroke:revert;stroke-width:revert;}#my-svg :root{--mermaid-font-family:"trebuchet ms",verdana,arial,sans-serif;}#my-svg .meta&gt;*{fill:#3a1f1f!important;stroke:#ff9d9d!important;color:#fff!important;}#my-svg .meta span{fill:#3a1f1f!important;stroke:#ff9d9d!important;color:#fff!important;}#my-svg .meta tspan{fill:#fff!important;}</style><g><marker id="my-svg_flowchart-v2-pointEnd" class="marker flowchart-v2" viewBox="0 0 10 10" refX="5" refY="5" markerUnits="userSpaceOnUse" markerWidth="8" markerHeight="8" orient="auto"><path d="M 0 0 L 10 5 L 0 10 z" class="arrowMarkerPath" style="stroke-width: 1; stroke-dasharray: 1, 0;"/></marker><marker id="my-svg_flowchart-v2-pointStart" class="marker flowchart-v2" viewBox="0 0 10 10" refX="4.5" refY="5" markerUnits="userSpaceOnUse" markerWidth="8" markerHeight="8" orient="auto"><path d="M 0 5 L 10 10 L 10 0 z" class="arrowMarkerPath" style="stroke-width: 1; stroke-dasharray: 1, 0;"/></marker><marker id="my-svg_flowchart-v2-circleEnd" class="marker flowchart-v2" viewBox="0 0 10 10" refX="11" refY="5" markerUnits="userSpaceOnUse" markerWidth="11" markerHeight="11" orient="auto"><circle cx="5" cy="5" r="5" class="arrowMarkerPath" style="stroke-width: 1; stroke-dasharray: 1, 0;"/></marker><marker id="my-svg_flowchart-v2-circleStart" class="marker flowchart-v2" viewBox="0 0 10 10" refX="-1" refY="5" markerUnits="userSpaceOnUse" markerWidth="11" markerHeight="11" orient="auto"><circle cx="5" cy="5" r="5" class="arrowMarkerPath" style="stroke-width: 1; stroke-dasharray: 1, 0;"/></marker><marker id="my-svg_flowchart-v2-crossEnd" class="marker cross flowchart-v2" viewBox="0 0 11 11" refX="12" refY="5.2" markerUnits="userSpaceOnUse" markerWidth="11" markerHeight="11" orient="auto"><path d="M 1,1 l 9,9 M 10,1 l -9,9" class="arrowMarkerPath" style="stroke-width: 2; stroke-dasharray: 1, 0;"/></marker><marker id="my-svg_flowchart-v2-crossStart" class="marker cross flowchart-v2" viewBox="0 0 11 11" refX="-1" refY="5.2" markerUnits="userSpaceOnUse" markerWidth="11" markerHeight="11" orient="auto"><path d="M 1,1 l 9,9 M 10,1 l -9,9" class="arrowMarkerPath" style="stroke-width: 2; stroke-dasharray: 1, 0;"/></marker><g class="root"><g class="clusters"/><g class="edgePaths"><path d="M272.686,110L272.686,114.167C272.686,118.333,272.686,126.667,272.686,134.333C272.686,142,272.686,149,272.686,152.5L272.686,156" id="L_trig_read_0" class="edge-thickness-normal edge-pattern-solid edge-thickness-normal edge-pattern-solid flowchart-link" style=";" data-edge="true" data-et="edge" data-id="L_trig_read_0" data-points="W3sieCI6MjcyLjY4NjM5NzU1MjQ5MDIzLCJ5IjoxMTB9LHsieCI6MjcyLjY4NjM5NzU1MjQ5MDIzLCJ5IjoxMzV9LHsieCI6MjcyLjY4NjM5NzU1MjQ5MDIzLCJ5IjoxNjB9XQ==" marker-end="url(#my-svg_flowchart-v2-pointEnd)"/><path d="M272.686,358L272.686,362.167C272.686,366.333,272.686,374.667,272.686,382.333C272.686,390,272.686,397,272.686,400.5L272.686,404" id="L_read_diag_0" class="edge-thickness-normal edge-pattern-solid edge-thickness-normal edge-pattern-solid flowchart-link" style=";" data-edge="true" data-et="edge" data-id="L_read_diag_0" data-points="W3sieCI6MjcyLjY4NjM5NzU1MjQ5MDIzLCJ5IjozNTh9LHsieCI6MjcyLjY4NjM5NzU1MjQ5MDIzLCJ5IjozODN9LHsieCI6MjcyLjY4NjM5NzU1MjQ5MDIzLCJ5Ijo0MDh9XQ==" marker-end="url(#my-svg_flowchart-v2-pointEnd)"/><path d="M272.686,830L272.686,834.167C272.686,838.333,272.686,846.667,272.686,854.333C272.686,862,272.686,869,272.686,872.5L272.686,876" id="L_diag_comp_0" class="edge-thickness-normal edge-pattern-solid edge-thickness-normal edge-pattern-solid flowchart-link" style=";" data-edge="true" data-et="edge" data-id="L_diag_comp_0" data-points="W3sieCI6MjcyLjY4NjM5NzU1MjQ5MDIzLCJ5Ijo4MzB9LHsieCI6MjcyLjY4NjM5NzU1MjQ5MDIzLCJ5Ijo4NTV9LHsieCI6MjcyLjY4NjM5NzU1MjQ5MDIzLCJ5Ijo4ODB9XQ==" marker-end="url(#my-svg_flowchart-v2-pointEnd)"/><path d="M272.686,1054L272.686,1058.167C272.686,1062.333,272.686,1070.667,272.686,1078.333C272.686,1086,272.686,1093,272.686,1096.5L272.686,1100" id="L_comp_write_0" class="edge-thickness-normal edge-pattern-solid edge-thickness-normal edge-pattern-solid flowchart-link" style=";" data-edge="true" data-et="edge" data-id="L_comp_write_0" data-points="W3sieCI6MjcyLjY4NjM5NzU1MjQ5MDIzLCJ5IjoxMDU0fSx7IngiOjI3Mi42ODYzOTc1NTI0OTAyMywieSI6MTA3OX0seyJ4IjoyNzIuNjg2Mzk3NTUyNDkwMjMsInkiOjExMDR9XQ==" marker-end="url(#my-svg_flowchart-v2-pointEnd)"/><path d="M203.996,1206L192.997,1214.167C181.998,1222.333,159.999,1238.667,148.999,1254.333C138,1270,138,1285,138,1292.5L138,1300" id="L_write_log_0" class="edge-thickness-normal edge-pattern-solid edge-thickness-normal edge-pattern-solid flowchart-link" style=";" data-edge="true" data-et="edge" data-id="L_write_log_0" data-points="W3sieCI6MjAzLjk5NjMzNDgwMDcyMDIsInkiOjEyMDZ9LHsieCI6MTM4LCJ5IjoxMjU1fSx7IngiOjEzOCwieSI6MTMwNH1d" marker-end="url(#my-svg_flowchart-v2-pointEnd)"/><path d="M341.376,1206L352.376,1214.167C363.375,1222.333,385.374,1238.667,396.453,1261.667C407.532,1284.667,407.692,1314.333,407.772,1329.167L407.851,1344" id="L_write_back_0" class="edge-thickness-normal edge-pattern-dotted edge-thickness-normal edge-pattern-solid flowchart-link" style=";" data-edge="true" data-et="edge" data-id="L_write_back_0" data-points="W3sieCI6MzQxLjM3NjQ2MDMwNDI2MDI2LCJ5IjoxMjA2fSx7IngiOjQwNy4zNzI3OTUxMDQ5ODA0NywieSI6MTI1NX0seyJ4Ijo0MDcuODcyNzk1MTA0OTgwNDcsInkiOjEzNDguMDAwMDAwMDAwMDAwNX1d" marker-end="url(#my-svg_flowchart-v2-pointEnd)"/></g><g class="edgeLabels"><g class="edgeLabel"><g class="label" data-id="L_trig_read_0" transform="translate(0, 0)"><foreignObject width="0" height="0"><div xmlns="http://www.w3.org/1999/xhtml" class="labelBkg" style="display: table-cell; white-space: nowrap; line-height: 1.5; max-width: 200px; text-align: center;"><span class="edgeLabel"></span></div></foreignObject></g></g><g class="edgeLabel"><g class="label" data-id="L_read_diag_0" transform="translate(0, 0)"><foreignObject width="0" height="0"><div xmlns="http://www.w3.org/1999/xhtml" class="labelBkg" style="display: table-cell; white-space: nowrap; line-height: 1.5; max-width: 200px; text-align: center;"><span class="edgeLabel"></span></div></foreignObject></g></g><g class="edgeLabel"><g class="label" data-id="L_diag_comp_0" transform="translate(0, 0)"><foreignObject width="0" height="0"><div xmlns="http://www.w3.org/1999/xhtml" class="labelBkg" style="display: table-cell; white-space: nowrap; line-height: 1.5; max-width: 200px; text-align: center;"><span class="edgeLabel"></span></div></foreignObject></g></g><g class="edgeLabel"><g class="label" data-id="L_comp_write_0" transform="translate(0, 0)"><foreignObject width="0" height="0"><div xmlns="http://www.w3.org/1999/xhtml" class="labelBkg" style="display: table-cell; white-space: nowrap; line-height: 1.5; max-width: 200px; text-align: center;"><span class="edgeLabel"></span></div></foreignObject></g></g><g class="edgeLabel"><g class="label" data-id="L_write_log_0" transform="translate(0, 0)"><foreignObject width="0" height="0"><div xmlns="http://www.w3.org/1999/xhtml" class="labelBkg" style="display: table-cell; white-space: nowrap; line-height: 1.5; max-width: 200px; text-align: center;"><span class="edgeLabel"></span></div></foreignObject></g></g><g class="edgeLabel" transform="translate(407.40184, 1260.40158)"><g class="label" data-id="L_write_back_0" transform="translate(-100, -24)"><foreignObject width="200" height="48"><div xmlns="http://www.w3.org/1999/xhtml" class="labelBkg" style="display: table; white-space: break-spaces; line-height: 1.5; max-width: 200px; text-align: center; width: 200px;"><span class="edgeLabel"><p>tuner hot-reloads every 30 s</p></span></div></foreignObject></g></g></g><g class="nodes"><g class="node default meta" id="flowchart-trig-0" transform="translate(272.68639755249023, 59)"><rect class="basic label-container" style="fill:#3a1f1f !important;stroke:#ff9d9d !important" x="-130" y="-51" width="260" height="102"/><g class="label" style="color:#fff !important" transform="translate(-100, -36)"><rect/><foreignObject width="200" height="72"><div style="color: rgb(255, 255, 255) !important; display: table; white-space: break-spaces; line-height: 1.5; max-width: 200px; text-align: center; width: 200px;" xmlns="http://www.w3.org/1999/xhtml"><span style="color:#fff !important" class="nodeLabel"><p>systemd timer . 06:00 / 14:00 / 22:00<br />analysis window = 8 h</p></span></div></foreignObject></g></g><g class="node default" id="flowchart-read-1" transform="translate(272.68639755249023, 259)"><rect class="basic label-container" style="" x="-130" y="-99" width="260" height="198"/><g class="label" style="" transform="translate(-100, -84)"><rect/><foreignObject width="200" height="168"><div xmlns="http://www.w3.org/1999/xhtml" style="display: table; white-space: break-spaces; line-height: 1.5; max-width: 200px; text-align: center; width: 200px;"><span class="nodeLabel"><p>read DB (last 8 h):<br />adjustment stats . activity distribution<br />param stats (avg/median/p10/p90)<br />floor + ceiling % . mode distribution . budget stats</p></span></div></foreignObject></g></g><g class="node default meta" id="flowchart-diag-3" transform="translate(272.68639755249023, 619)"><polygon points="211,0 422,-211 211,-422 0,-211" class="label-container" transform="translate(-210.5, 211)" style="fill:#3a1f1f !important;stroke:#ff9d9d !important"/><g class="label" style="color:#fff !important" transform="translate(-100, -96)"><rect/><foreignObject width="200" height="192"><div style="color: rgb(255, 255, 255) !important; display: table; white-space: break-spaces; line-height: 1.5; max-width: 200px; text-align: center; width: 200px;" xmlns="http://www.w3.org/1999/xhtml"><span style="color:#fff !important" class="nodeLabel"><p>diagnose():<br />floor/ceiling-stuck &gt;80% . activity too low<br />mode starvation (engaged &lt;1%) . over-engaged &gt;30%<br />budget full/depleted/throttled . static params</p></span></div></foreignObject></g></g><g class="node default" id="flowchart-comp-5" transform="translate(272.68639755249023, 967)"><rect class="basic label-container" style="" x="-130" y="-87" width="260" height="174"/><g class="label" style="" transform="translate(-100, -72)"><rect/><foreignObject width="200" height="144"><div xmlns="http://www.w3.org/1999/xhtml" style="display: table; white-space: break-spaces; line-height: 1.5; max-width: 200px; text-align: center; width: 200px;"><span class="nodeLabel"><p>compute_adjustments() . max 25 changes:<br />home_values . safe_floors . caps<br />curiosity . reversion . budget (once/day)</p></span></div></foreignObject></g></g><g class="node default" id="flowchart-write-7" transform="translate(272.68639755249023, 1155)"><rect class="basic label-container" style="" x="-130" y="-51" width="260" height="102"/><g class="label" style="" transform="translate(-100, -36)"><rect/><foreignObject width="200" height="72"><div xmlns="http://www.w3.org/1999/xhtml" style="display: table; white-space: break-spaces; line-height: 1.5; max-width: 200px; text-align: center; width: 200px;"><span class="nodeLabel"><p>write autotune_overrides.json<br />(atomic: tmp + rename)</p></span></div></foreignObject></g></g><g class="node default" id="flowchart-log-9" transform="translate(138, 1367)"><rect class="basic label-container" style="" x="-130" y="-63" width="260" height="126"/><g class="label" style="" transform="translate(-100, -48)"><rect/><foreignObject width="200" height="96"><div xmlns="http://www.w3.org/1999/xhtml" style="display: table; white-space: break-spaces; line-height: 1.5; max-width: 200px; text-align: center; width: 200px;"><span class="nodeLabel"><p>save_meta_tuning_review -&gt; DB<br />(full audit: diagnosis, old-&gt;new config)</p></span></div></foreignObject></g></g><g class="node default meta" id="flowchart-back-12" transform="translate(407.37279510498047, 1367)"><g class="basic label-container outer-path"><path d="M-69.8828125 -19.5 C-23.35182358742334 -19.5, 23.17916532515332 -19.5, 69.8828125 -19.5 C69.8828125 -19.5, 69.8828125 -19.5, 69.8828125 -19.5 C70.34932740532388 -19.48503977500244, 70.81584231064774 -19.470079550004883, 71.1321817896239 -19.45993515863156 C71.55422862664064 -19.419220807850138, 71.97627546365739 -19.378506457068717, 72.37641715284786 -19.3399052695533 C72.74631223292221 -19.28010350158607, 73.11620731299655 -19.220301733618836, 73.61040575967675 -19.140403561325776 C74.0846560193248 -19.032159034333276, 74.55890627897283 -18.923914507340776, 74.82907688623538 -18.862249829261074 C75.08612945075471 -18.785957977408184, 75.34318201527402 -18.709666125555298, 76.0274227514606 -18.50658706670804 C76.44920700609764 -18.3513665620707, 76.87099126073467 -18.196146057433364, 77.2005190951478 -18.074876768247425 C77.46461105513826 -17.957971091569295, 77.72870301512873 -17.84106541489117, 78.34354541279238 -17.568892924097174 C78.6046691707847 -17.43266482681033, 78.86579292877703 -17.29643672952349, 79.45180476407678 -16.990714730406097 C79.72224723837087 -16.826770913192636, 79.99268971266495 -16.662827095979175, 80.5207430736057 -16.342718045390892 C80.8743793179619 -16.096036709994298, 81.22801556231809 -15.849355374597701, 81.54596784457871 -15.627565626425154 C81.82949646450496 -15.40145909704742, 82.1130250844312 -15.175352567669686, 82.52326620850187 -14.848196188198123 C82.73045920008397 -14.660028995269412, 82.93765219166606 -14.471861802340703, 83.44862223676799 -14.007812326905688 C83.68215156551032 -13.766674121864762, 83.91568089425266 -13.525535916823834, 84.31823344296865 -13.10986736009568 C84.53411060241952 -12.85628576484634, 84.74998776187037 -12.602704169597, 85.12852640812658 -12.158051136245305 C85.3684587037282 -11.83656371842093, 85.60839099932981 -11.515076300596553, 85.87617146464063 -11.156274872382312 C86.01259687363418 -10.946688808816473, 86.14902228262773 -10.737102745250635, 86.55809637860425 -10.108655082055241 C86.70103891447975 -9.854846135106953, 86.84398145035527 -9.601037188158667, 87.1714989742735 -9.019496659696287 C87.34054364546634 -8.668471782987831, 87.50958831665918 -8.317446906279375, 87.71385864880834 -7.893275190886684 C87.87581399707511 -7.493242349474099, 88.0377693453419 -7.0932095080615145, 88.18294672997033 -6.734618561215508 C88.29084692550339 -6.4096403638314445, 88.39874712103644 -6.08466216644738, 88.57683563421489 -5.548287939305138 C88.67323044175575 -5.180692760377977, 88.76962524929661 -4.813097581450817, 88.89390678754556 -4.339158212148133 C88.98224616840434 -3.8855541619730585, 89.07058554926311 -3.431950111797984, 89.13285727658177 -3.1121979531509023 C89.17850824671942 -2.758138043567024, 89.22415921685706 -2.4040781339831456, 89.29270520250937 -1.872449005199798 C89.31068520839449 -1.5923959003395285, 89.32866521427961 -1.3123427954792588, 89.37279371591342 -0.6250057626472757 C89.37279371591342 -0.21527975034375357, 89.37279371591342 0.19444626195976855, 89.37279371591342 0.625005762647271 C89.35670830365858 0.8755490424275347, 89.34062289140373 1.1260923222077983, 89.29270520250937 1.8724490051997846 C89.23338810097435 2.3325007312187456, 89.17407099943934 2.7925524572377065, 89.13285727658177 3.1121979531508885 C89.06701247025933 3.4502971173118886, 89.0011676639369 3.788396281472888, 88.89390678754556 4.339158212148129 C88.81221634902892 4.650679259072094, 88.73052591051228 4.962200305996059, 88.57683563421489 5.548287939305125 C88.48566242071814 5.822887131878495, 88.39448920722138 6.097486324451865, 88.18294672997033 6.734618561215495 C88.0588867848254 7.041049024259315, 87.93482683968048 7.347479487303135, 87.71385864880834 7.893275190886679 C87.60055634390496 8.128549851299521, 87.48725403900157 8.363824511712364, 87.1714989742735 9.019496659696284 C87.00511411582238 9.314929824170141, 86.83872925737126 9.610362988644, 86.55809637860425 10.108655082055236 C86.35507925207027 10.420543906143113, 86.15206212553629 10.73243273023099, 85.87617146464065 11.156274872382301 C85.71101122241932 11.377574550551294, 85.54585098019797 11.598874228720286, 85.12852640812659 12.158051136245302 C84.92818943789919 12.39337834097094, 84.7278524676718 12.62870554569658, 84.31823344296866 13.10986736009567 C84.01904200363826 13.418807085278303, 83.71985056430786 13.727746810460935, 83.44862223676799 14.007812326905684 C83.13530877158261 14.292355326167025, 82.82199530639724 14.576898325428365, 82.5232662085019 14.848196188198111 C82.24469964717167 15.070345607891444, 81.96613308584143 15.292495027584776, 81.54596784457871 15.627565626425152 C81.17636440453316 15.885384986325882, 80.80676096448761 16.14320434622661, 80.5207430736057 16.34271804539089 C80.10935602253593 16.592103293328037, 79.69796897146618 16.841488541265186, 79.45180476407678 16.990714730406093 C79.17817821790226 17.133465524279178, 78.90455167172772 17.27621631815226, 78.34354541279238 17.56889292409717 C77.98362373037995 17.728219576203788, 77.62370204796751 17.88754622831041, 77.2005190951478 18.07487676824742 C76.86765848728311 18.197372548871353, 76.53479787941843 18.31986832949529, 76.02742275146062 18.506587066708033 C75.62110312670166 18.62718059852126, 75.21478350194269 18.747774130334488, 74.82907688623541 18.86224982926107 C74.45649587316719 18.947289014175563, 74.08391486009897 19.032328199090056, 73.61040575967677 19.140403561325773 C73.29235373559015 19.191823746049813, 72.97430171150354 19.24324393077385, 72.37641715284788 19.3399052695533 C72.06513343049784 19.36993443587496, 71.75384970814778 19.399963602196618, 71.1321817896239 19.45993515863156 C70.66673521464652 19.474861124354284, 70.20128863966914 19.489787090077012, 69.8828125 19.5 C69.8828125 19.5, 69.8828125 19.5, 69.8828125 19.5 C24.363997432336085 19.5, -21.15481763532783 19.5, -69.8828125 19.5 C-70.30494168474969 19.48646313866969, -70.72707086949937 19.472926277339383, -71.1321817896239 19.45993515863156 C-71.47292329132559 19.42706423576401, -71.81366479302727 19.39419331289646, -72.37641715284786 19.3399052695533 C-72.80283824351773 19.27096481455874, -73.22925933418757 19.202024359564188, -73.61040575967675 19.140403561325773 C-73.89041022955159 19.076494368276766, -74.17041469942643 19.012585175227763, -74.82907688623538 18.862249829261074 C-75.20671275513735 18.7501694856221, -75.58434862403931 18.638089141983123, -76.02742275146059 18.506587066708043 C-76.45653453535651 18.348669963568497, -76.88564631925243 18.19075286042895, -77.2005190951478 18.074876768247425 C-77.57489667746562 17.909150918071724, -77.94927425978344 17.743425067896023, -78.34354541279238 17.568892924097174 C-78.71388828870496 17.37568528294951, -79.08423116461755 17.18247764180185, -79.45180476407678 16.990714730406097 C-79.70492354304302 16.837272639105706, -79.95804232200926 16.683830547805314, -80.52074307360569 16.3427180453909 C-80.92728322919768 16.05913323168961, -81.3338233847897 15.775548417988324, -81.54596784457871 15.627565626425156 C-81.89589117119088 15.348511085302745, -82.24581449780305 15.069456544180332, -82.52326620850187 14.848196188198125 C-82.8883025272463 14.516679861846162, -83.25333884599074 14.1851635354942, -83.44862223676797 14.007812326905697 C-83.72497625529513 13.722454113689524, -84.00133027382229 13.437095900473352, -84.31823344296865 13.109867360095677 C-84.63209771612864 12.741184525458875, -84.94596198928863 12.372501690822073, -85.12852640812658 12.158051136245307 C-85.33829798349998 11.876976335828596, -85.5480695588734 11.595901535411885, -85.87617146464063 11.156274872382316 C-86.09599296727767 10.818570013993346, -86.31581446991471 10.480865155604375, -86.55809637860425 10.108655082055249 C-86.77788694975398 9.718394666770202, -86.9976775209037 9.328134251485157, -87.1714989742735 9.019496659696289 C-87.35372026468069 8.64111025125474, -87.53594155508787 8.262723842813193, -87.71385864880834 7.893275190886686 C-87.81039641021033 7.654825053793121, -87.90693417161232 7.416374916699556, -88.18294672997033 6.73461856121551 C-88.32259572393967 6.314018041425403, -88.46224471790903 5.893417521635295, -88.57683563421489 5.5482879393051325 C-88.64298882360274 5.296017157195615, -88.70914201299058 5.043746375086098, -88.89390678754556 4.339158212148136 C-88.96654383058693 3.9661823479751894, -89.0391808736283 3.593206483802243, -89.13285727658177 3.112197953150904 C-89.19295194278253 2.6461155891319836, -89.25304660898328 2.1800332251130627, -89.29270520250937 1.872449005199809 C-89.32430446466148 1.380264990715274, -89.3559037268136 0.8880809762307388, -89.37279371591342 0.6250057626472781 C-89.37279371591342 0.14929482655532234, -89.37279371591342 -0.32641610953663347, -89.37279371591342 -0.6250057626472687 C-89.34078348158275 -1.1235910005436276, -89.30877324725206 -1.6221762384399863, -89.29270520250937 -1.8724490051997822 C-89.24534440418972 -2.23977000451944, -89.19798360587009 -2.6070910038390984, -89.13285727658177 -3.112197953150895 C-89.06048071350762 -3.483836307744669, -88.98810415043346 -3.8554746623384424, -88.89390678754556 -4.339158212148126 C-88.80598672332972 -4.6744355218, -88.71806665911387 -5.009712831451874, -88.57683563421489 -5.548287939305123 C-88.48862306620055 -5.8139701394002685, -88.4004104981862 -6.079652339495414, -88.18294672997033 -6.734618561215485 C-88.0231342134008 -7.129358566907047, -87.86332169683126 -7.52409857259861, -87.71385864880834 -7.893275190886676 C-87.57428919208319 -8.183094154084454, -87.43471973535802 -8.472913117282234, -87.1714989742735 -9.019496659696282 C-86.96048344508192 -9.39417609941529, -86.74946791589035 -9.768855539134298, -86.55809637860425 -10.108655082055243 C-86.3456318139305 -10.43505770811815, -86.13316724925674 -10.761460334181056, -85.87617146464063 -11.156274872382308 C-85.58811186271278 -11.542248496196041, -85.30005226078492 -11.928222120009776, -85.12852640812659 -12.158051136245302 C-84.850622404073 -12.48449299259246, -84.57271840001938 -12.810934848939617, -84.31823344296866 -13.10986736009567 C-84.03607972720408 -13.401214236873471, -83.7539260114395 -13.692561113651275, -83.44862223676799 -14.007812326905677 C-83.13159939860844 -14.29572408055753, -82.8145765604489 -14.583635834209383, -82.5232662085019 -14.848196188198107 C-82.19601410226979 -15.109171034373933, -81.86876199603766 -15.370145880549758, -81.54596784457871 -15.627565626425149 C-81.27212227385073 -15.818588441981301, -80.99827670312274 -16.009611257537454, -80.52074307360571 -16.342718045390885 C-80.20432670090388 -16.53453150999174, -79.88791032820204 -16.726344974592596, -79.45180476407678 -16.99071473040609 C-79.02223008289093 -17.214823566425036, -78.59265540170509 -17.43893240244398, -78.3435454127924 -17.56889292409717 C-77.96099854368217 -17.738235075202585, -77.57845167457194 -17.907577226308003, -77.20051909514781 -18.07487676824742 C-76.94411171151941 -18.169237055626542, -76.68770432789101 -18.263597343005664, -76.02742275146062 -18.506587066708033 C-75.548711741241 -18.64866598173585, -75.07000073102137 -18.790744896763663, -74.82907688623541 -18.862249829261067 C-74.54002596459287 -18.928223815892437, -74.25097504295032 -18.994197802523807, -73.61040575967677 -19.140403561325773 C-73.34203118469267 -19.183792281333286, -73.07365660970859 -19.227181001340803, -72.37641715284788 -19.3399052695533 C-72.01002103407532 -19.375251062475485, -71.64362491530277 -19.41059685539767, -71.1321817896239 -19.45993515863156 C-70.7018964459843 -19.473733572102468, -70.27161110234472 -19.487531985573376, -69.8828125 -19.5 C-69.8828125 -19.5, -69.8828125 -19.5, -69.8828125 -19.5" stroke="none" stroke-width="0" fill="#3a1f1f" style="fill:#3a1f1f !important;stroke:#ff9d9d !important"/><path d="M-69.8828125 -19.5 C-21.480673571281706 -19.5, 26.92146535743659 -19.5, 69.8828125 -19.5 M-69.8828125 -19.5 C-15.787960445096651 -19.5, 38.3068916098067 -19.5, 69.8828125 -19.5 M69.8828125 -19.5 C69.8828125 -19.5, 69.8828125 -19.5, 69.8828125 -19.5 M69.8828125 -19.5 C69.8828125 -19.5, 69.8828125 -19.5, 69.8828125 -19.5 M69.8828125 -19.5 C70.18034158942638 -19.490458821207337, 70.47787067885275 -19.480917642414674, 71.1321817896239 -19.45993515863156 M69.8828125 -19.5 C70.38048845533363 -19.484040500779933, 70.87816441066728 -19.468081001559863, 71.1321817896239 -19.45993515863156 M71.1321817896239 -19.45993515863156 C71.46762366315451 -19.427575484519938, 71.80306553668511 -19.395215810408317, 72.37641715284786 -19.3399052695533 M71.1321817896239 -19.45993515863156 C71.41634570974276 -19.432522207014806, 71.70050962986161 -19.405109255398056, 72.37641715284786 -19.3399052695533 M72.37641715284786 -19.3399052695533 C72.69796800395844 -19.287919421609836, 73.01951885506901 -19.235933573666372, 73.61040575967675 -19.140403561325776 M72.37641715284786 -19.3399052695533 C72.84889346003781 -19.263518964315313, 73.32136976722775 -19.18713265907733, 73.61040575967675 -19.140403561325776 M73.61040575967675 -19.140403561325776 C73.94253466490046 -19.064597306052118, 74.27466357012419 -18.98879105077846, 74.82907688623538 -18.862249829261074 M73.61040575967675 -19.140403561325776 C73.92706811906989 -19.068127444209303, 74.24373047846304 -18.99585132709283, 74.82907688623538 -18.862249829261074 M74.82907688623538 -18.862249829261074 C75.15784913087599 -18.76467195281247, 75.4866213755166 -18.667094076363867, 76.0274227514606 -18.50658706670804 M74.82907688623538 -18.862249829261074 C75.21280640404612 -18.748360922612193, 75.59653592185686 -18.634472015963308, 76.0274227514606 -18.50658706670804 M76.0274227514606 -18.50658706670804 C76.32950432527905 -18.3954182551314, 76.63158589909747 -18.284249443554756, 77.2005190951478 -18.074876768247425 M76.0274227514606 -18.50658706670804 C76.39210909045046 -18.37237912283621, 76.7567954294403 -18.238171178964382, 77.2005190951478 -18.074876768247425 M77.2005190951478 -18.074876768247425 C77.62815165647517 -17.88557651861702, 78.05578421780254 -17.696276268986615, 78.34354541279238 -17.568892924097174 M77.2005190951478 -18.074876768247425 C77.56844444980656 -17.912007127857855, 77.93636980446533 -17.749137487468285, 78.34354541279238 -17.568892924097174 M78.34354541279238 -17.568892924097174 C78.66533402423127 -17.401016011624947, 78.98712263567016 -17.23313909915272, 79.45180476407678 -16.990714730406097 M78.34354541279238 -17.568892924097174 C78.70587461995379 -17.379866008804, 79.0682038271152 -17.19083909351083, 79.45180476407678 -16.990714730406097 M79.45180476407678 -16.990714730406097 C79.7213989127657 -16.827285173159805, 79.99099306145462 -16.663855615913512, 80.5207430736057 -16.342718045390892 M79.45180476407678 -16.990714730406097 C79.87304047136999 -16.735359169189163, 80.29427617866321 -16.480003607972233, 80.5207430736057 -16.342718045390892 M80.5207430736057 -16.342718045390892 C80.74308048222044 -16.18762509397255, 80.96541789083516 -16.03253214255421, 81.54596784457871 -15.627565626425154 M80.5207430736057 -16.342718045390892 C80.77870044827911 -16.162778147613498, 81.0366578229525 -15.982838249836105, 81.54596784457871 -15.627565626425154 M81.54596784457871 -15.627565626425154 C81.91799661145268 -15.330882584944428, 82.29002537832665 -15.034199543463702, 82.52326620850187 -14.848196188198123 M81.54596784457871 -15.627565626425154 C81.8969766656661 -15.347645432344969, 82.2479854867535 -15.067725238264783, 82.52326620850187 -14.848196188198123 M82.52326620850187 -14.848196188198123 C82.8321386355432 -14.567686422275775, 83.14101106258454 -14.287176656353427, 83.44862223676799 -14.007812326905688 M82.52326620850187 -14.848196188198123 C82.78259839594585 -14.61267755711518, 83.04193058338983 -14.377158926032237, 83.44862223676799 -14.007812326905688 M83.44862223676799 -14.007812326905688 C83.70503285957834 -13.743047307150364, 83.96144348238867 -13.47828228739504, 84.31823344296865 -13.10986736009568 M83.44862223676799 -14.007812326905688 C83.63481446999303 -13.815553559434191, 83.82100670321807 -13.623294791962696, 84.31823344296865 -13.10986736009568 M84.31823344296865 -13.10986736009568 C84.58073416437249 -12.801519076020547, 84.84323488577633 -12.493170791945412, 85.12852640812658 -12.158051136245305 M84.31823344296865 -13.10986736009568 C84.5842069267125 -12.797439771770188, 84.85018041045636 -12.485012183444693, 85.12852640812658 -12.158051136245305 M85.12852640812658 -12.158051136245305 C85.31593189758429 -11.90694485336328, 85.50333738704201 -11.655838570481254, 85.87617146464063 -11.156274872382312 M85.12852640812658 -12.158051136245305 C85.31267935112488 -11.911302969305808, 85.4968322941232 -11.664554802366313, 85.87617146464063 -11.156274872382312 M85.87617146464063 -11.156274872382312 C86.11635932510443 -10.787281819238622, 86.35654718556822 -10.418288766094932, 86.55809637860425 -10.108655082055241 M85.87617146464063 -11.156274872382312 C86.03750559703258 -10.90842232074777, 86.19883972942452 -10.660569769113227, 86.55809637860425 -10.108655082055241 M86.55809637860425 -10.108655082055241 C86.7186195214078 -9.823629987276716, 86.87914266421136 -9.538604892498189, 87.1714989742735 -9.019496659696287 M86.55809637860425 -10.108655082055241 C86.78008591313171 -9.71449018462382, 87.0020754476592 -9.3203252871924, 87.1714989742735 -9.019496659696287 M87.1714989742735 -9.019496659696287 C87.31820163571047 -8.714865444288327, 87.46490429714743 -8.410234228880366, 87.71385864880834 -7.893275190886684 M87.1714989742735 -9.019496659696287 C87.28036034823232 -8.793443687410539, 87.38922172219114 -8.567390715124791, 87.71385864880834 -7.893275190886684 M87.71385864880834 -7.893275190886684 C87.87173396726456 -7.503320101988182, 88.02960928572078 -7.113365013089679, 88.18294672997033 -6.734618561215508 M87.71385864880834 -7.893275190886684 C87.86642035503606 -7.516444826924283, 88.01898206126378 -7.13961446296188, 88.18294672997033 -6.734618561215508 M88.18294672997033 -6.734618561215508 C88.30490792547045 -6.367290872246756, 88.42686912097057 -5.999963183278004, 88.57683563421489 -5.548287939305138 M88.18294672997033 -6.734618561215508 C88.30121865740723 -6.378402359848129, 88.41949058484413 -6.02218615848075, 88.57683563421489 -5.548287939305138 M88.57683563421489 -5.548287939305138 C88.68132918438076 -5.149808744731573, 88.78582273454661 -4.751329550158008, 88.89390678754556 -4.339158212148133 M88.57683563421489 -5.548287939305138 C88.64900458113256 -5.273076466488576, 88.72117352805024 -4.997864993672015, 88.89390678754556 -4.339158212148133 M88.89390678754556 -4.339158212148133 C88.94351909003956 -4.084409524405298, 88.99313139253356 -3.829660836662463, 89.13285727658177 -3.1121979531509023 M88.89390678754556 -4.339158212148133 C88.96360561154962 -3.981269481738962, 89.03330443555367 -3.6233807513297904, 89.13285727658177 -3.1121979531509023 M89.13285727658177 -3.1121979531509023 C89.19646430678927 -2.618874387490419, 89.26007133699676 -2.125550821829935, 89.29270520250937 -1.872449005199798 M89.13285727658177 -3.1121979531509023 C89.19430990317632 -2.635583516477292, 89.25576252977088 -2.158969079803682, 89.29270520250937 -1.872449005199798 M89.29270520250937 -1.872449005199798 C89.31977864031869 -1.4507583580340622, 89.346852078128 -1.0290677108683264, 89.37279371591342 -0.6250057626472757 M89.29270520250937 -1.872449005199798 C89.3238274923893 -1.387694218859684, 89.35494978226923 -0.9029394325195697, 89.37279371591342 -0.6250057626472757 M89.37279371591342 -0.6250057626472757 C89.37279371591342 -0.3333310590839316, 89.37279371591342 -0.04165635552058755, 89.37279371591342 0.625005762647271 M89.37279371591342 -0.6250057626472757 C89.37279371591342 -0.20141060213823436, 89.37279371591342 0.22218455837080697, 89.37279371591342 0.625005762647271 M89.37279371591342 0.625005762647271 C89.34340078910185 1.0828243232809418, 89.31400786229028 1.5406428839146125, 89.29270520250937 1.8724490051997846 M89.37279371591342 0.625005762647271 C89.35395225805556 0.9184766773344062, 89.33511080019771 1.2119475920215415, 89.29270520250937 1.8724490051997846 M89.29270520250937 1.8724490051997846 C89.25866591817699 2.1364509726647505, 89.22462663384461 2.4004529401297168, 89.13285727658177 3.1121979531508885 M89.29270520250937 1.8724490051997846 C89.25680820336058 2.150859041933575, 89.22091120421177 2.429269078667365, 89.13285727658177 3.1121979531508885 M89.13285727658177 3.1121979531508885 C89.07006604575288 3.4346176525259526, 89.00727481492397 3.7570373519010163, 88.89390678754556 4.339158212148129 M89.13285727658177 3.1121979531508885 C89.05937595727973 3.4895089974845948, 88.98589463797767 3.866820041818301, 88.89390678754556 4.339158212148129 M88.89390678754556 4.339158212148129 C88.82579483613044 4.598898602800457, 88.75768288471532 4.858638993452786, 88.57683563421489 5.548287939305125 M88.89390678754556 4.339158212148129 C88.80586491384464 4.674900034159165, 88.71782304014373 5.010641856170202, 88.57683563421489 5.548287939305125 M88.57683563421489 5.548287939305125 C88.49582040440718 5.79229290346198, 88.4148051745995 6.036297867618833, 88.18294672997033 6.734618561215495 M88.57683563421489 5.548287939305125 C88.49711936302394 5.788380647069272, 88.417403091833 6.028473354833419, 88.18294672997033 6.734618561215495 M88.18294672997033 6.734618561215495 C88.06425872697427 7.027780223292184, 87.94557072397822 7.320941885368874, 87.71385864880834 7.893275190886679 M88.18294672997033 6.734618561215495 C88.01680242882456 7.144998197227078, 87.8506581276788 7.555377833238663, 87.71385864880834 7.893275190886679 M87.71385864880834 7.893275190886679 C87.4979534713842 8.341606911438632, 87.28204829396009 8.789938631990584, 87.1714989742735 9.019496659696284 M87.71385864880834 7.893275190886679 C87.50779631192115 8.321168042460616, 87.30173397503397 8.749060894034555, 87.1714989742735 9.019496659696284 M87.1714989742735 9.019496659696284 C87.03943171456325 9.253995452572028, 86.907364454853 9.488494245447773, 86.55809637860425 10.108655082055236 M87.1714989742735 9.019496659696284 C87.02436304770224 9.280751396451738, 86.87722712113097 9.542006133207192, 86.55809637860425 10.108655082055236 M86.55809637860425 10.108655082055236 C86.42011344032544 10.32063392885841, 86.28213050204663 10.532612775661581, 85.87617146464065 11.156274872382301 M86.55809637860425 10.108655082055236 C86.31632757390041 10.480076890094628, 86.07455876919656 10.85149869813402, 85.87617146464065 11.156274872382301 M85.87617146464065 11.156274872382301 C85.59297382850548 11.535733904968033, 85.3097761923703 11.915192937553767, 85.12852640812659 12.158051136245302 M85.87617146464065 11.156274872382301 C85.62485595521518 11.493014759698518, 85.37354044578971 11.829754647014735, 85.12852640812659 12.158051136245302 M85.12852640812659 12.158051136245302 C84.8113457508062 12.530629584424515, 84.4941650934858 12.903208032603727, 84.31823344296866 13.10986736009567 M85.12852640812659 12.158051136245302 C84.93356870986929 12.38705954202561, 84.73861101161201 12.616067947805922, 84.31823344296866 13.10986736009567 M84.31823344296866 13.10986736009567 C83.98199524291356 13.45706090732218, 83.64575704285846 13.804254454548692, 83.44862223676799 14.007812326905684 M84.31823344296866 13.10986736009567 C84.1053162902393 13.32972180111207, 83.89239913750994 13.549576242128472, 83.44862223676799 14.007812326905684 M83.44862223676799 14.007812326905684 C83.19585877802646 14.237365412380104, 82.94309531928492 14.466918497854524, 82.5232662085019 14.848196188198111 M83.44862223676799 14.007812326905684 C83.25427736657534 14.184311195931164, 83.05993249638269 14.360810064956645, 82.5232662085019 14.848196188198111 M82.5232662085019 14.848196188198111 C82.29556929808031 15.02977841499006, 82.06787238765874 15.21136064178201, 81.54596784457871 15.627565626425152 M82.5232662085019 14.848196188198111 C82.20438679317823 15.102494036181115, 81.88550737785455 15.356791884164119, 81.54596784457871 15.627565626425152 M81.54596784457871 15.627565626425152 C81.17775660871234 15.88441384495803, 80.80954537284597 16.141262063490906, 80.5207430736057 16.34271804539089 M81.54596784457871 15.627565626425152 C81.27562354349418 15.81614610784555, 81.00527924240964 16.004726589265946, 80.5207430736057 16.34271804539089 M80.5207430736057 16.34271804539089 C80.30652074279746 16.472580881236993, 80.09229841198923 16.6024437170831, 79.45180476407678 16.990714730406093 M80.5207430736057 16.34271804539089 C80.17830433607067 16.55030642047802, 79.83586559853563 16.75789479556515, 79.45180476407678 16.990714730406093 M79.45180476407678 16.990714730406093 C79.13431760470479 17.156347578090227, 78.81683044533281 17.32198042577436, 78.34354541279238 17.56889292409717 M79.45180476407678 16.990714730406093 C79.11482552225095 17.166516585021125, 78.77784628042511 17.342318439636156, 78.34354541279238 17.56889292409717 M78.34354541279238 17.56889292409717 C77.96354083665663 17.737109677517225, 77.58353626052089 17.905326430937276, 77.2005190951478 18.07487676824742 M78.34354541279238 17.56889292409717 C77.9744904494397 17.732262608746883, 77.60543548608702 17.8956322933966, 77.2005190951478 18.07487676824742 M77.2005190951478 18.07487676824742 C76.92006027245604 18.178088207530923, 76.6396014497643 18.281299646814425, 76.02742275146062 18.506587066708033 M77.2005190951478 18.07487676824742 C76.92464380442692 18.176401425395937, 76.64876851370605 18.277926082544454, 76.02742275146062 18.506587066708033 M76.02742275146062 18.506587066708033 C75.76322587327586 18.584999313355556, 75.49902899509111 18.66341156000308, 74.82907688623541 18.86224982926107 M76.02742275146062 18.506587066708033 C75.56085217158655 18.64506276573571, 75.09428159171247 18.783538464763385, 74.82907688623541 18.86224982926107 M74.82907688623541 18.86224982926107 C74.49021532148396 18.939592770137224, 74.15135375673249 19.01693571101338, 73.61040575967677 19.140403561325773 M74.82907688623541 18.86224982926107 C74.37167333598298 18.966649204769073, 73.91426978573055 19.07104858027708, 73.61040575967677 19.140403561325773 M73.61040575967677 19.140403561325773 C73.18636181769769 19.208959697355066, 72.76231787571861 19.277515833384363, 72.37641715284788 19.3399052695533 M73.61040575967677 19.140403561325773 C73.21794457977447 19.20385364131047, 72.82548339987217 19.267303721295168, 72.37641715284788 19.3399052695533 M72.37641715284788 19.3399052695533 C72.0618242676109 19.37025366683881, 71.74723138237394 19.40060206412432, 71.1321817896239 19.45993515863156 M72.37641715284788 19.3399052695533 C72.0466910128921 19.371713553721133, 71.7169648729363 19.403521837888967, 71.1321817896239 19.45993515863156 M71.1321817896239 19.45993515863156 C70.72484642121893 19.47299761106611, 70.31751105281397 19.48606006350066, 69.8828125 19.5 M71.1321817896239 19.45993515863156 C70.76528423036673 19.47170084923416, 70.39838667110955 19.483466539836762, 69.8828125 19.5 M69.8828125 19.5 C69.8828125 19.5, 69.8828125 19.5, 69.8828125 19.5 M69.8828125 19.5 C69.8828125 19.5, 69.8828125 19.5, 69.8828125 19.5 M69.8828125 19.5 C35.947894875407364 19.5, 2.0129772508147283 19.5, -69.8828125 19.5 M69.8828125 19.5 C41.76347617058694 19.5, 13.644139841173875 19.5, -69.8828125 19.5 M-69.8828125 19.5 C-70.14042853934481 19.491738755037414, -70.39804457868962 19.483477510074827, -71.1321817896239 19.45993515863156 M-69.8828125 19.5 C-70.33467364436632 19.485509692594533, -70.78653478873264 19.47101938518907, -71.1321817896239 19.45993515863156 M-71.1321817896239 19.45993515863156 C-71.49920945624909 19.424528441047578, -71.86623712287428 19.389121723463596, -72.37641715284786 19.3399052695533 M-71.1321817896239 19.45993515863156 C-71.5682007685033 19.417872932128606, -72.00421974738272 19.37581070562565, -72.37641715284786 19.3399052695533 M-72.37641715284786 19.3399052695533 C-72.82536774075406 19.267322420164433, -73.27431832866024 19.194739570775567, -73.61040575967675 19.140403561325773 M-72.37641715284786 19.3399052695533 C-72.69560471856906 19.288301499264037, -73.01479228429024 19.23669772897478, -73.61040575967675 19.140403561325773 M-73.61040575967675 19.140403561325773 C-73.95200874988784 19.06243490797793, -74.29361174009892 18.984466254630085, -74.82907688623538 18.862249829261074 M-73.61040575967675 19.140403561325773 C-73.90558997183162 19.07302969115843, -74.20077418398648 19.005655820991084, -74.82907688623538 18.862249829261074 M-74.82907688623538 18.862249829261074 C-75.18082685279842 18.75785228555842, -75.53257681936145 18.653454741855764, -76.02742275146059 18.506587066708043 M-74.82907688623538 18.862249829261074 C-75.08464484417391 18.786398600848507, -75.34021280211243 18.710547372435943, -76.02742275146059 18.506587066708043 M-76.02742275146059 18.506587066708043 C-76.3892859082741 18.373418079974318, -76.75114906508763 18.24024909324059, -77.2005190951478 18.074876768247425 M-76.02742275146059 18.506587066708043 C-76.36152121547686 18.38363574357771, -76.69561967949313 18.260684420447376, -77.2005190951478 18.074876768247425 M-77.2005190951478 18.074876768247425 C-77.54530109076897 17.922252006380447, -77.89008308639013 17.769627244513465, -78.34354541279238 17.568892924097174 M-77.2005190951478 18.074876768247425 C-77.47857653836085 17.951788986417995, -77.75663398157391 17.828701204588565, -78.34354541279238 17.568892924097174 M-78.34354541279238 17.568892924097174 C-78.6889111354181 17.388715847820638, -79.03427685804382 17.208538771544106, -79.45180476407678 16.990714730406097 M-78.34354541279238 17.568892924097174 C-78.68775993396999 17.389316428878743, -79.03197445514759 17.20973993366031, -79.45180476407678 16.990714730406097 M-79.45180476407678 16.990714730406097 C-79.71628923826522 16.830382687869772, -79.98077371245365 16.67005064533345, -80.52074307360569 16.3427180453909 M-79.45180476407678 16.990714730406097 C-79.73971397069576 16.81618247741137, -80.02762317731474 16.641650224416644, -80.52074307360569 16.3427180453909 M-80.52074307360569 16.3427180453909 C-80.78733818698731 16.156752835012337, -81.05393330036893 15.970787624633772, -81.54596784457871 15.627565626425156 M-80.52074307360569 16.3427180453909 C-80.7915433774708 16.153819476170813, -81.06234368133592 15.964920906950729, -81.54596784457871 15.627565626425156 M-81.54596784457871 15.627565626425156 C-81.81756990526611 15.410970210661327, -82.08917196595351 15.1943747948975, -82.52326620850187 14.848196188198125 M-81.54596784457871 15.627565626425156 C-81.75027981488446 15.464632267076189, -81.9545917851902 15.301698907727221, -82.52326620850187 14.848196188198125 M-82.52326620850187 14.848196188198125 C-82.73325503397997 14.657489892898777, -82.94324385945806 14.466783597599429, -83.44862223676797 14.007812326905697 M-82.52326620850187 14.848196188198125 C-82.81035398136352 14.587470668811394, -83.09744175422519 14.326745149424664, -83.44862223676797 14.007812326905697 M-83.44862223676797 14.007812326905697 C-83.74744382605944 13.699254502253519, -84.04626541535089 13.39069667760134, -84.31823344296865 13.109867360095677 M-83.44862223676797 14.007812326905697 C-83.65703252631684 13.7926115921435, -83.8654428158657 13.577410857381302, -84.31823344296865 13.109867360095677 M-84.31823344296865 13.109867360095677 C-84.56689611814893 12.817774032521859, -84.81555879332923 12.525680704948043, -85.12852640812658 12.158051136245307 M-84.31823344296865 13.109867360095677 C-84.49087822033792 12.907068980831601, -84.66352299770719 12.704270601567526, -85.12852640812658 12.158051136245307 M-85.12852640812658 12.158051136245307 C-85.37376686608351 11.829451264448355, -85.61900732404044 11.500851392651404, -85.87617146464063 11.156274872382316 M-85.12852640812658 12.158051136245307 C-85.36119900839704 11.846291048792843, -85.59387160866748 11.534530961340378, -85.87617146464063 11.156274872382316 M-85.87617146464063 11.156274872382316 C-86.13307440035564 10.761602975026586, -86.38997733607064 10.366931077670857, -86.55809637860425 10.108655082055249 M-85.87617146464063 11.156274872382316 C-86.05477022599732 10.881899214455935, -86.23336898735398 10.607523556529554, -86.55809637860425 10.108655082055249 M-86.55809637860425 10.108655082055249 C-86.7549803323082 9.75906768559172, -86.95186428601214 9.409480289128194, -87.1714989742735 9.019496659696289 M-86.55809637860425 10.108655082055249 C-86.69892719723462 9.85859570291025, -86.839758015865 9.608536323765252, -87.1714989742735 9.019496659696289 M-87.1714989742735 9.019496659696289 C-87.29689873211038 8.759101379423031, -87.42229848994725 8.498706099149773, -87.71385864880834 7.893275190886686 M-87.1714989742735 9.019496659696289 C-87.32652037166433 8.697591411087682, -87.48154176905517 8.375686162479075, -87.71385864880834 7.893275190886686 M-87.71385864880834 7.893275190886686 C-87.90009980377435 7.43325593739285, -88.08634095874038 6.973236683899014, -88.18294672997033 6.73461856121551 M-87.71385864880834 7.893275190886686 C-87.86921157018165 7.50955047155021, -88.02456449155495 7.125825752213734, -88.18294672997033 6.73461856121551 M-88.18294672997033 6.73461856121551 C-88.32844184770948 6.296410448084088, -88.47393696544863 5.858202334952666, -88.57683563421489 5.5482879393051325 M-88.18294672997033 6.73461856121551 C-88.31184565569174 6.346395534197417, -88.44074458141316 5.958172507179324, -88.57683563421489 5.5482879393051325 M-88.57683563421489 5.5482879393051325 C-88.684022579783 5.139537660737855, -88.7912095253511 4.730787382170578, -88.89390678754556 4.339158212148136 M-88.57683563421489 5.5482879393051325 C-88.65563132525999 5.24780581908161, -88.7344270163051 4.947323698858087, -88.89390678754556 4.339158212148136 M-88.89390678754556 4.339158212148136 C-88.96319181689681 3.9833942298255867, -89.03247684624806 3.627630247503037, -89.13285727658177 3.112197953150904 M-88.89390678754556 4.339158212148136 C-88.9816506426504 3.88861206085516, -89.06939449775523 3.438065909562184, -89.13285727658177 3.112197953150904 M-89.13285727658177 3.112197953150904 C-89.16942549772844 2.8285820511493833, -89.2059937188751 2.544966149147863, -89.29270520250937 1.872449005199809 M-89.13285727658177 3.112197953150904 C-89.166385550343 2.8521592827653865, -89.19991382410423 2.5921206123798686, -89.29270520250937 1.872449005199809 M-89.29270520250937 1.872449005199809 C-89.32449543094688 1.377290536675022, -89.3562856593844 0.8821320681502351, -89.37279371591342 0.6250057626472781 M-89.29270520250937 1.872449005199809 C-89.30999573096656 1.603135067815622, -89.32728625942376 1.3338211304314351, -89.37279371591342 0.6250057626472781 M-89.37279371591342 0.6250057626472781 C-89.37279371591342 0.3066379957052355, -89.37279371591342 -0.011729771236807185, -89.37279371591342 -0.6250057626472687 M-89.37279371591342 0.6250057626472781 C-89.37279371591342 0.21072441240092588, -89.37279371591342 -0.2035569378454264, -89.37279371591342 -0.6250057626472687 M-89.37279371591342 -0.6250057626472687 C-89.34126672721202 -1.1160640597987153, -89.30973973851063 -1.6071223569501618, -89.29270520250937 -1.8724490051997822 M-89.37279371591342 -0.6250057626472687 C-89.35620648136045 -0.8833653297845092, -89.33961924680747 -1.1417248969217497, -89.29270520250937 -1.8724490051997822 M-89.29270520250937 -1.8724490051997822 C-89.2460035682929 -2.2346576579018276, -89.19930193407646 -2.5968663106038727, -89.13285727658177 -3.112197953150895 M-89.29270520250937 -1.8724490051997822 C-89.23150891881296 -2.3470752969759623, -89.17031263511657 -2.8217015887521426, -89.13285727658177 -3.112197953150895 M-89.13285727658177 -3.112197953150895 C-89.03960453179033 -3.5910310886804027, -88.94635178699887 -4.06986422420991, -88.89390678754556 -4.339158212148126 M-89.13285727658177 -3.112197953150895 C-89.05114870895801 -3.531754178787054, -88.96944014133425 -3.9513104044232126, -88.89390678754556 -4.339158212148126 M-88.89390678754556 -4.339158212148126 C-88.80837448271146 -4.665329960415953, -88.72284217787737 -4.991501708683779, -88.57683563421489 -5.548287939305123 M-88.89390678754556 -4.339158212148126 C-88.77567282240237 -4.790035564163756, -88.65743885725918 -5.2409129161793855, -88.57683563421489 -5.548287939305123 M-88.57683563421489 -5.548287939305123 C-88.48868642966721 -5.813779298734271, -88.40053722511954 -6.07927065816342, -88.18294672997033 -6.734618561215485 M-88.57683563421489 -5.548287939305123 C-88.45478894105818 -5.915873133593315, -88.33274224790148 -6.283458327881506, -88.18294672997033 -6.734618561215485 M-88.18294672997033 -6.734618561215485 C-88.04855937055471 -7.066557937174891, -87.9141720111391 -7.398497313134298, -87.71385864880834 -7.893275190886676 M-88.18294672997033 -6.734618561215485 C-88.05285036165589 -7.055959106194344, -87.92275399334143 -7.377299651173202, -87.71385864880834 -7.893275190886676 M-87.71385864880834 -7.893275190886676 C-87.51817490727257 -8.29961666714704, -87.32249116573679 -8.705958143407404, -87.1714989742735 -9.019496659696282 M-87.71385864880834 -7.893275190886676 C-87.52761679967284 -8.280010375553754, -87.34137495053733 -8.666745560220832, -87.1714989742735 -9.019496659696282 M-87.1714989742735 -9.019496659696282 C-87.04030781192066 -9.25243985299948, -86.9091166495678 -9.485383046302676, -86.55809637860425 -10.108655082055243 M-87.1714989742735 -9.019496659696282 C-86.99990804235507 -9.324173734783452, -86.82831711043663 -9.628850809870624, -86.55809637860425 -10.108655082055243 M-86.55809637860425 -10.108655082055243 C-86.33334785865239 -10.453929162129171, -86.10859933870054 -10.799203242203097, -85.87617146464063 -11.156274872382308 M-86.55809637860425 -10.108655082055243 C-86.33687356077048 -10.4485127368922, -86.11565074293672 -10.788370391729158, -85.87617146464063 -11.156274872382308 M-85.87617146464063 -11.156274872382308 C-85.69797988466362 -11.39503535596461, -85.51978830468661 -11.633795839546915, -85.12852640812659 -12.158051136245302 M-85.87617146464063 -11.156274872382308 C-85.66142611358809 -11.444014079088772, -85.44668076253555 -11.731753285795238, -85.12852640812659 -12.158051136245302 M-85.12852640812659 -12.158051136245302 C-84.944494648976 -12.374225312247324, -84.76046288982542 -12.590399488249346, -84.31823344296866 -13.10986736009567 M-85.12852640812659 -12.158051136245302 C-84.91033333919711 -12.41435313054721, -84.69214027026763 -12.670655124849121, -84.31823344296866 -13.10986736009567 M-84.31823344296866 -13.10986736009567 C-84.07785915589885 -13.35807354659124, -83.83748486882904 -13.606279733086811, -83.44862223676799 -14.007812326905677 M-84.31823344296866 -13.10986736009567 C-84.05247951653848 -13.384280107937967, -83.78672559010829 -13.658692855780261, -83.44862223676799 -14.007812326905677 M-83.44862223676799 -14.007812326905677 C-83.0945491163541 -14.329372166604177, -82.7404759959402 -14.650932006302678, -82.5232662085019 -14.848196188198107 M-83.44862223676799 -14.007812326905677 C-83.18891013568523 -14.243675985503394, -82.92919803460248 -14.47953964410111, -82.5232662085019 -14.848196188198107 M-82.5232662085019 -14.848196188198107 C-82.26561333810919 -15.053667495905449, -82.0079604677165 -15.259138803612792, -81.54596784457871 -15.627565626425149 M-82.5232662085019 -14.848196188198107 C-82.184314544161 -15.118501120627373, -81.8453628798201 -15.388806053056639, -81.54596784457871 -15.627565626425149 M-81.54596784457871 -15.627565626425149 C-81.15564490495693 -15.899838012297579, -80.76532196533515 -16.17211039817001, -80.52074307360571 -16.342718045390885 M-81.54596784457871 -15.627565626425149 C-81.33494105273029 -15.774768781216027, -81.12391426088186 -15.921971936006907, -80.52074307360571 -16.342718045390885 M-80.52074307360571 -16.342718045390885 C-80.10528040012163 -16.59457395958661, -79.68981772663754 -16.846429873782334, -79.45180476407678 -16.99071473040609 M-80.52074307360571 -16.342718045390885 C-80.11156404855463 -16.590764774979707, -79.70238502350355 -16.838811504568525, -79.45180476407678 -16.99071473040609 M-79.45180476407678 -16.99071473040609 C-79.10537027413302 -17.17144938190787, -78.75893578418926 -17.35218403340965, -78.3435454127924 -17.56889292409717 M-79.45180476407678 -16.99071473040609 C-79.04608974456276 -17.202375996213686, -78.64037472504873 -17.414037262021285, -78.3435454127924 -17.56889292409717 M-78.3435454127924 -17.56889292409717 C-77.98900377859101 -17.725837988454213, -77.63446214438964 -17.88278305281126, -77.20051909514781 -18.07487676824742 M-78.3435454127924 -17.56889292409717 C-77.98971631482232 -17.725522569801257, -77.63588721685224 -17.882152215505343, -77.20051909514781 -18.07487676824742 M-77.20051909514781 -18.07487676824742 C-76.9177068873008 -18.178954275022512, -76.6348946794538 -18.283031781797604, -76.02742275146062 -18.506587066708033 M-77.20051909514781 -18.07487676824742 C-76.89801962622359 -18.18619936908597, -76.59552015729938 -18.29752196992452, -76.02742275146062 -18.506587066708033 M-76.02742275146062 -18.506587066708033 C-75.68301560878409 -18.608805298824443, -75.33860846610756 -18.711023530940853, -74.82907688623541 -18.862249829261067 M-76.02742275146062 -18.506587066708033 C-75.77239584933311 -18.58227771259595, -75.5173689472056 -18.65796835848387, -74.82907688623541 -18.862249829261067 M-74.82907688623541 -18.862249829261067 C-74.46573829465382 -18.945179491783673, -74.10239970307222 -19.028109154306282, -73.61040575967677 -19.140403561325773 M-74.82907688623541 -18.862249829261067 C-74.35757628475211 -18.969866764720663, -73.8860756832688 -19.07748370018026, -73.61040575967677 -19.140403561325773 M-73.61040575967677 -19.140403561325773 C-73.17720868127807 -19.210439505467757, -72.74401160287937 -19.280475449609742, -72.37641715284788 -19.3399052695533 M-73.61040575967677 -19.140403561325773 C-73.11806827063475 -19.220000868419834, -72.62573078159274 -19.299598175513896, -72.37641715284788 -19.3399052695533 M-72.37641715284788 -19.3399052695533 C-71.90455083178487 -19.385425646043966, -71.43268451072187 -19.430946022534634, -71.1321817896239 -19.45993515863156 M-72.37641715284788 -19.3399052695533 C-72.01459474230067 -19.374809842343673, -71.65277233175348 -19.409714415134047, -71.1321817896239 -19.45993515863156 M-71.1321817896239 -19.45993515863156 C-70.76706979929662 -19.471643589513977, -70.40195780896936 -19.483352020396396, -69.8828125 -19.5 M-71.1321817896239 -19.45993515863156 C-70.66870028089254 -19.474798108504544, -70.20521877216117 -19.489661058377532, -69.8828125 -19.5 M-69.8828125 -19.5 C-69.8828125 -19.5, -69.8828125 -19.5, -69.8828125 -19.5 M-69.8828125 -19.5 C-69.8828125 -19.5, -69.8828125 -19.5, -69.8828125 -19.5" stroke="#ff9d9d" stroke-width="1.3" fill="none" stroke-dasharray="0 0" style="fill:#3a1f1f !important;stroke:#ff9d9d !important"/></g><g class="label" style="color:#fff !important" transform="translate(-77.0078125, -12)"><rect/><foreignObject width="154.015625" height="24"><div style="color: rgb(255, 255, 255) !important; display: table-cell; white-space: nowrap; line-height: 1.5; max-width: 200px; text-align: center;" xmlns="http://www.w3.org/1999/xhtml"><span style="color:#fff !important" class="nodeLabel"><p>back to TUNER (A7.2)</p></span></div></foreignObject></g></g></g></g></g><text text-anchor="middle" x="257.70091247558594" y="-25" class="flowchartTitleText">A7.7  META  —  meta-review retunes the rules (3x/day)</text></svg>