<?xml version="1.0" encoding="UTF-8" standalone="no"?>
<!DOCTYPE svg PUBLIC "-//W3C//DTD SVG 1.1//EN"
 "http://www.w3.org/Graphics/SVG/1.1/DTD/svg11.dtd">
<!-- Generated by graphviz version 15.0.0 (20260523.1842)
 -->
<!-- Title: db Pages: 1 -->
<svg width="674pt" height="231pt"
 viewBox="0.00 0.00 674.00 231.00" xmlns="http://www.w3.org/2000/svg" xmlns:xlink="http://www.w3.org/1999/xlink">
<g id="graph0" class="graph" transform="scale(1 1) rotate(0) translate(4 227)">
<title>db</title>
<polygon fill="white" stroke="none" points="-4,4 -4,-227 670.25,-227 670.25,4 -4,4"/>
<!-- te -->
<g id="node1" class="node">
<title>te</title>
<path fill="#eef2ff" stroke="black" d="M128.88,-38C128.88,-38 37.87,-38 37.87,-38 31.88,-38 25.88,-32 25.88,-26 25.88,-26 25.88,-12 25.88,-12 25.88,-6 31.88,0 37.88,0 37.88,0 128.88,0 128.88,0 134.88,0 140.88,-6 140.88,-12 140.88,-12 140.88,-26 140.88,-26 140.88,-32 134.88,-38 128.88,-38"/>
<text xml:space="preserve" text-anchor="middle" x="83.38" y="-20.7" font-family="Helvetica,sans-Serif" font-size="14.00">tracking_events</text>
<text xml:space="preserve" text-anchor="middle" x="83.38" y="-5.7" font-family="Helvetica,sans-Serif" font-size="14.00">x,z,vel,zone,flow</text>
</g>
<!-- hs -->
<g id="node5" class="node">
<title>hs</title>
<path fill="#e6ffe6" stroke="black" d="M403.62,-37C403.62,-37 308.12,-37 308.12,-37 302.12,-37 296.12,-31 296.12,-25 296.12,-25 296.12,-13 296.12,-13 296.12,-7 302.12,-1 308.12,-1 308.12,-1 403.62,-1 403.62,-1 409.62,-1 415.62,-7 415.62,-13 415.62,-13 415.62,-25 415.62,-25 415.62,-31 409.62,-37 403.62,-37"/>
<text xml:space="preserve" text-anchor="middle" x="355.88" y="-13.2" font-family="Helvetica,sans-Serif" font-size="14.00">hourly_stats &#160;(inf)</text>
</g>
<!-- te&#45;&gt;hs -->
<g id="edge1" class="edge">
<title>te&#45;&gt;hs</title>
<path fill="none" stroke="black" d="M141.08,-19C182.84,-19 239.88,-19 284.54,-19"/>
<polygon fill="black" stroke="black" points="284.39,-22.5 294.39,-19 284.39,-15.5 284.39,-22.5"/>
</g>
<!-- lb -->
<g id="node2" class="node">
<title>lb</title>
<path fill="#eef2ff" stroke="black" d="M152.5,-94C152.5,-94 14.25,-94 14.25,-94 8.25,-94 2.25,-88 2.25,-82 2.25,-82 2.25,-68 2.25,-68 2.25,-62 8.25,-56 14.25,-56 14.25,-56 152.5,-56 152.5,-56 158.5,-56 164.5,-62 164.5,-68 164.5,-68 164.5,-82 164.5,-82 164.5,-88 158.5,-94 152.5,-94"/>
<text xml:space="preserve" text-anchor="middle" x="83.38" y="-76.7" font-family="Helvetica,sans-Serif" font-size="14.00">light_behavior</text>
<text xml:space="preserve" text-anchor="middle" x="83.38" y="-61.7" font-family="Helvetica,sans-Serif" font-size="14.00">mode,pos,bright,gesture</text>
</g>
<!-- sa -->
<g id="node9" class="node">
<title>sa</title>
<polygon fill="#fff6e6" stroke="black" points="398.75,-94 307,-94 307,-56 404.75,-56 404.75,-88 398.75,-94"/>
<polyline fill="none" stroke="black" points="398.75,-94 398.75,-88"/>
<polyline fill="none" stroke="black" points="404.75,-88 398.75,-88"/>
<text xml:space="preserve" text-anchor="middle" x="355.88" y="-76.7" font-family="Helvetica,sans-Serif" font-size="14.00">anti&#45;repetition</text>
<text xml:space="preserve" text-anchor="middle" x="355.88" y="-61.7" font-family="Helvetica,sans-Serif" font-size="14.00">metrics</text>
</g>
<!-- lb&#45;&gt;sa -->
<g id="edge5" class="edge">
<title>lb&#45;&gt;sa</title>
<path fill="none" stroke="black" stroke-dasharray="5,2" d="M164.8,-75C206.58,-75 256.75,-75 295.06,-75"/>
<polygon fill="black" stroke="black" points="295.03,-78.5 305.03,-75 295.03,-71.5 295.03,-78.5"/>
<text xml:space="preserve" text-anchor="middle" x="212.12" y="-76.75" font-family="Helvetica,sans-Serif" font-size="10.00">self&#45;analysis</text>
</g>
<!-- ba -->
<g id="node3" class="node">
<title>ba</title>
<path fill="#eef2ff" stroke="black" d="M154.75,-169C154.75,-169 12,-169 12,-169 6,-169 0,-163 0,-157 0,-157 0,-143 0,-143 0,-137 6,-131 12,-131 12,-131 154.75,-131 154.75,-131 160.75,-131 166.75,-137 166.75,-143 166.75,-143 166.75,-157 166.75,-157 166.75,-163 160.75,-169 154.75,-169"/>
<text xml:space="preserve" text-anchor="middle" x="83.38" y="-151.7" font-family="Helvetica,sans-Serif" font-size="14.00">behavior_adjustments</text>
<text xml:space="preserve" text-anchor="middle" x="83.38" y="-136.7" font-family="Helvetica,sans-Serif" font-size="14.00">+budget before/after/cost</text>
</g>
<!-- adl -->
<g id="node6" class="node">
<title>adl</title>
<path fill="#e6ffe6" stroke="black" d="M442.25,-186C442.25,-186 269.5,-186 269.5,-186 263.5,-186 257.5,-180 257.5,-174 257.5,-174 257.5,-162 257.5,-162 257.5,-156 263.5,-150 269.5,-150 269.5,-150 442.25,-150 442.25,-150 448.25,-150 454.25,-156 454.25,-162 454.25,-162 454.25,-174 454.25,-174 454.25,-180 448.25,-186 442.25,-186"/>
<text xml:space="preserve" text-anchor="middle" x="355.88" y="-162.2" font-family="Helvetica,sans-Serif" font-size="14.00">autotune_daily_learnings &#160;(inf)</text>
</g>
<!-- ba&#45;&gt;adl -->
<g id="edge3" class="edge">
<title>ba&#45;&gt;adl</title>
<path fill="none" stroke="black" d="M167,-155.5C191.88,-157.15 219.58,-159 245.89,-160.75"/>
<polygon fill="black" stroke="black" points="245.35,-164.22 255.56,-161.39 245.81,-157.23 245.35,-164.22"/>
</g>
<!-- mtr -->
<g id="node8" class="node">
<title>mtr</title>
<path fill="#e6ffe6" stroke="black" d="M654.25,-140C654.25,-140 503.25,-140 503.25,-140 497.25,-140 491.25,-134 491.25,-128 491.25,-128 491.25,-116 491.25,-116 491.25,-110 497.25,-104 503.25,-104 503.25,-104 654.25,-104 654.25,-104 660.25,-104 666.25,-110 666.25,-116 666.25,-116 666.25,-128 666.25,-128 666.25,-134 660.25,-140 654.25,-140"/>
<text xml:space="preserve" text-anchor="middle" x="578.75" y="-116.2" font-family="Helvetica,sans-Serif" font-size="14.00">meta_tuning_reviews &#160;(inf)</text>
</g>
<!-- ba&#45;&gt;mtr -->
<g id="edge4" class="edge">
<title>ba&#45;&gt;mtr</title>
<path fill="none" stroke="black" d="M167.23,-145.3C253.3,-140.41 387.94,-132.77 479.36,-127.58"/>
<polygon fill="black" stroke="black" points="479.55,-131.08 489.34,-127.02 479.15,-124.09 479.55,-131.08"/>
</g>
<!-- ps -->
<g id="node4" class="node">
<title>ps</title>
<path fill="#eef2ff" stroke="black" d="M130,-223C130,-223 36.75,-223 36.75,-223 30.75,-223 24.75,-217 24.75,-211 24.75,-211 24.75,-199 24.75,-199 24.75,-193 30.75,-187 36.75,-187 36.75,-187 130,-187 130,-187 136,-187 142,-193 142,-199 142,-199 142,-211 142,-211 142,-217 136,-223 130,-223"/>
<text xml:space="preserve" text-anchor="middle" x="83.38" y="-199.2" font-family="Helvetica,sans-Serif" font-size="14.00">person_sessions</text>
</g>
<!-- ds -->
<g id="node7" class="node">
<title>ds</title>
<path fill="#e6ffe6" stroke="black" d="M632.88,-37C632.88,-37 524.62,-37 524.62,-37 518.62,-37 512.62,-31 512.62,-25 512.62,-25 512.62,-13 512.62,-13 512.62,-7 518.62,-1 524.62,-1 524.62,-1 632.88,-1 632.88,-1 638.88,-1 644.88,-7 644.88,-13 644.88,-13 644.88,-25 644.88,-25 644.88,-31 638.88,-37 632.88,-37"/>
<text xml:space="preserve" text-anchor="middle" x="578.75" y="-13.2" font-family="Helvetica,sans-Serif" font-size="14.00">daily_stats_v2 &#160;(inf)</text>
</g>
<!-- hs&#45;&gt;ds -->
<g id="edge2" class="edge">
<title>hs&#45;&gt;ds</title>
<path fill="none" stroke="black" d="M416.07,-19C442.12,-19 473.07,-19 500.88,-19"/>
<polygon fill="black" stroke="black" points="500.66,-22.5 510.66,-19 500.66,-15.5 500.66,-22.5"/>
</g>
</g>
</svg>
