<?xml version="1.0" encoding="UTF-8" standalone="no"?>
<!DOCTYPE svg PUBLIC "-//W3C//DTD SVG 1.1//EN"
 "http://www.w3.org/Graphics/SVG/1.1/DTD/svg11.dtd">
<!-- Generated by graphviz version 15.0.0 (20260523.1842)
 -->
<!-- Title: loops Pages: 1 -->
<svg width="468pt" height="251pt"
 viewBox="0.00 0.00 468.00 251.00" xmlns="http://www.w3.org/2000/svg" xmlns:xlink="http://www.w3.org/1999/xlink">
<g id="graph0" class="graph" transform="scale(1 1) rotate(0) translate(4 246.8)">
<title>loops</title>
<polygon fill="white" stroke="none" points="-4,4 -4,-246.8 464,-246.8 464,4 -4,4"/>
<g id="clust1" class="cluster">
<title>cluster_L3</title>
<polygon fill="#e8ecff" stroke="black" points="8,-8 8,-234.8 452,-234.8 452,-8 8,-8"/>
<text xml:space="preserve" text-anchor="middle" x="230" y="-217.5" font-family="Helvetica,sans-Serif" font-weight="bold" font-size="14.00">LOOP 3 . SELF&#45;TUNING . hours to days</text>
<text xml:space="preserve" text-anchor="middle" x="230" y="-202.5" font-family="Helvetica,sans-Serif" font-weight="bold" font-size="14.00">(meta&#45;review 3x/day + daily learning . friction = interaction budget)</text>
</g>
<g id="clust2" class="cluster">
<title>cluster_L2</title>
<polygon fill="#dff0e6" stroke="black" points="41,-16 41,-188.8 418,-188.8 418,-16 41,-16"/>
<text xml:space="preserve" text-anchor="middle" x="229.5" y="-171.5" font-family="Helvetica,sans-Serif" font-weight="bold" font-size="14.00">LOOP 2 . ANTICIPATION . seconds to hours</text>
<text xml:space="preserve" text-anchor="middle" x="229.5" y="-156.5" font-family="Helvetica,sans-Serif" font-weight="bold" font-size="14.00">(trends 1/5/30/60 min + 30 s flow . pre&#45;position light)</text>
</g>
<g id="clust3" class="cluster">
<title>cluster_L1</title>
<polygon fill="#ffe9d6" stroke="black" points="49,-24 49,-142.8 410,-142.8 410,-24 49,-24"/>
<text xml:space="preserve" text-anchor="middle" x="229.5" y="-125.5" font-family="Helvetica,sans-Serif" font-weight="bold" font-size="14.00">LOOP 1 . REACTION . ~33 ms</text>
<text xml:space="preserve" text-anchor="middle" x="229.5" y="-110.5" font-family="Helvetica,sans-Serif" font-weight="bold" font-size="14.00">(mode + gestures follow who is present NOW . 30 Hz)</text>
</g>
<!-- core -->
<g id="node1" class="node">
<title>core</title>
<ellipse fill="#fff3b0" stroke="black" cx="229" cy="-64.4" rx="32.4" ry="32.4"/>
<text xml:space="preserve" text-anchor="middle" x="229" y="-59.35" font-family="Times,serif" font-size="14.00">LIGHT</text>
</g>
</g>
</svg>
