<?xml version="1.0" encoding="UTF-8" standalone="no"?>
<!DOCTYPE svg PUBLIC "-//W3C//DTD SVG 1.1//EN"
 "http://www.w3.org/Graphics/SVG/1.1/DTD/svg11.dtd">
<!-- Generated by graphviz version 15.0.0 (20260523.1842)
 -->
<!-- Title: plan Pages: 1 -->
<svg width="596pt" height="986pt"
 viewBox="0.00 0.00 596.00 986.00" xmlns="http://www.w3.org/2000/svg" xmlns:xlink="http://www.w3.org/1999/xlink">
<g id="graph0" class="graph" transform="scale(1 1) rotate(0) translate(4 981.65)">
<title>plan</title>
<polygon fill="white" stroke="none" points="-4,4 -4,-981.65 591.7,-981.65 591.7,4 -4,4"/>
<!-- U0 -->
<g id="node1" class="node">
<title>U0</title>
<polygon fill="#c9d4ff" stroke="black" points="428.35,-36 374.35,-36 374.35,0 428.35,0 428.35,-36"/>
<text xml:space="preserve" text-anchor="middle" x="401.35" y="-14.32" font-family="Helvetica,sans-Serif" font-size="9.00">U0</text>
</g>
<!-- U1 -->
<g id="node2" class="node">
<title>U1</title>
<polygon fill="#c9d4ff" stroke="black" points="313.15,-36 259.15,-36 259.15,0 313.15,0 313.15,-36"/>
<text xml:space="preserve" text-anchor="middle" x="286.15" y="-14.32" font-family="Helvetica,sans-Serif" font-size="9.00">U1</text>
</g>
<!-- U2 -->
<g id="node3" class="node">
<title>U2</title>
<polygon fill="#c9d4ff" stroke="black" points="197.95,-36 143.95,-36 143.95,0 197.95,0 197.95,-36"/>
<text xml:space="preserve" text-anchor="middle" x="170.95" y="-14.32" font-family="Helvetica,sans-Serif" font-size="9.00">U2</text>
</g>
<!-- U3 -->
<g id="node4" class="node">
<title>U3</title>
<polygon fill="#c9d4ff" stroke="black" points="82.75,-36 28.75,-36 28.75,0 82.75,0 82.75,-36"/>
<text xml:space="preserve" text-anchor="middle" x="55.75" y="-14.32" font-family="Helvetica,sans-Serif" font-size="9.00">U3</text>
</g>
<!-- C1 -->
<g id="node5" class="node">
<title>C1</title>
<polygon fill="#ffd0d0" stroke="black" points="401.35,-157.82 350.85,-130.32 401.35,-102.82 451.85,-130.32 401.35,-157.82"/>
<text xml:space="preserve" text-anchor="middle" x="401.35" y="-131.52" font-family="Helvetica,sans-Serif" font-size="9.00">Cam 1</text>
<text xml:space="preserve" text-anchor="middle" x="401.35" y="-121.77" font-family="Helvetica,sans-Serif" font-size="9.00">(&#45;30, 78)</text>
</g>
<!-- C2 -->
<g id="node6" class="node">
<title>C2</title>
<polygon fill="#d0d0ff" stroke="black" points="55.75,-157.82 0,-130.32 55.75,-102.82 111.5,-130.32 55.75,-157.82"/>
<text xml:space="preserve" text-anchor="middle" x="55.75" y="-131.52" font-family="Helvetica,sans-Serif" font-size="9.00">Cam 2</text>
<text xml:space="preserve" text-anchor="middle" x="55.75" y="-121.77" font-family="Helvetica,sans-Serif" font-size="9.00">(&#45;270, 78)</text>
</g>
<!-- M0 -->
<g id="node7" class="node">
<title>M0</title>
<ellipse fill="#fff0c0" stroke="black" cx="401.35" cy="-259.92" rx="18" ry="18"/>
<text xml:space="preserve" text-anchor="middle" x="401.35" y="-256.24" font-family="Helvetica,sans-Serif" font-size="9.00">0</text>
</g>
<!-- M1 -->
<g id="node8" class="node">
<title>M1</title>
<ellipse fill="#fff0c0" stroke="black" cx="228.55" cy="-259.92" rx="18" ry="18"/>
<text xml:space="preserve" text-anchor="middle" x="228.55" y="-256.24" font-family="Helvetica,sans-Serif" font-size="9.00">1</text>
</g>
<!-- M2 -->
<g id="node9" class="node">
<title>M2</title>
<ellipse fill="#fff0c0" stroke="black" cx="55.75" cy="-259.92" rx="18" ry="18"/>
<text xml:space="preserve" text-anchor="middle" x="55.75" y="-256.24" font-family="Helvetica,sans-Serif" font-size="9.00">2</text>
</g>
<!-- M3 -->
<g id="node10" class="node">
<title>M3</title>
<ellipse fill="#fff0c0" stroke="black" cx="401.35" cy="-333.36" rx="18" ry="18"/>
<text xml:space="preserve" text-anchor="middle" x="401.35" y="-329.68" font-family="Helvetica,sans-Serif" font-size="9.00">3</text>
</g>
<!-- M6 -->
<g id="node11" class="node">
<title>M6</title>
<ellipse fill="#fff0c0" stroke="black" cx="228.55" cy="-333.36" rx="18" ry="18"/>
<text xml:space="preserve" text-anchor="middle" x="228.55" y="-329.68" font-family="Helvetica,sans-Serif" font-size="9.00">6</text>
</g>
<!-- M4 -->
<g id="node12" class="node">
<title>M4</title>
<ellipse fill="#fff0c0" stroke="black" cx="55.75" cy="-333.36" rx="18" ry="18"/>
<text xml:space="preserve" text-anchor="middle" x="55.75" y="-329.68" font-family="Helvetica,sans-Serif" font-size="9.00">4</text>
</g>
<!-- M5 -->
<g id="node13" class="node">
<title>M5</title>
<ellipse fill="#fff0c0" stroke="black" cx="228.55" cy="-922.32" rx="55.33" ry="55.33"/>
<text xml:space="preserve" text-anchor="middle" x="228.55" y="-923.52" font-family="Helvetica,sans-Serif" font-size="9.00">5 . subway wall</text>
<text xml:space="preserve" text-anchor="middle" x="228.55" y="-913.77" font-family="Helvetica,sans-Serif" font-size="9.00">(&#45;150, 628)</text>
</g>
<!-- L -->
<g id="node14" class="node">
<title>L</title>
<polygon fill="#fff39a" stroke="black" points="263.18,-38.08 263.18,-55.52 242.9,-67.85 214.2,-67.85 193.92,-55.52 193.92,-38.08 214.2,-25.75 242.9,-25.75 263.18,-38.08"/>
<text xml:space="preserve" text-anchor="middle" x="228.55" y="-48" font-family="Helvetica,sans-Serif" font-size="9.00">light</text>
<text xml:space="preserve" text-anchor="middle" x="228.55" y="-38.25" font-family="Helvetica,sans-Serif" font-size="9.00">(home)</text>
</g>
<!-- AZ -->
<g id="node15" class="node">
<title>AZ</title>
<polygon fill="none" stroke="none" points="560.85,-180 457.85,-180 457.85,-144 560.85,-144 560.85,-180"/>
<text xml:space="preserve" text-anchor="middle" x="509.35" y="-163.2" font-family="Helvetica,sans-Serif" font-size="9.00">ACTIVE ZONE</text>
<text xml:space="preserve" text-anchor="middle" x="509.35" y="-153.45" font-family="Helvetica,sans-Serif" font-size="9.00">X &#45;350..50 . Z 78..283</text>
</g>
<!-- PZ -->
<g id="node16" class="node">
<title>PZ</title>
<polygon fill="none" stroke="none" points="587.7,-432 474.2,-432 474.2,-396 587.7,-396 587.7,-432"/>
<text xml:space="preserve" text-anchor="middle" x="530.95" y="-415.2" font-family="Helvetica,sans-Serif" font-size="9.00">PASSIVE ZONE</text>
<text xml:space="preserve" text-anchor="middle" x="530.95" y="-405.45" font-family="Helvetica,sans-Serif" font-size="9.00">X &#45;475..175 . Z 283..633</text>
</g>
</g>
</svg>
