<?xml version="1.0" encoding="UTF-8" standalone="no"?>
<!DOCTYPE svg PUBLIC "-//W3C//DTD SVG 1.1//EN"
 "http://www.w3.org/Graphics/SVG/1.1/DTD/svg11.dtd">
<!-- Generated by graphviz version 15.0.0 (20260523.1842)
 -->
<!-- Title: pinch Pages: 1 -->
<svg width="992pt" height="208pt"
 viewBox="0.00 0.00 992.00 208.00" xmlns="http://www.w3.org/2000/svg" xmlns:xlink="http://www.w3.org/1999/xlink">
<g id="graph0" class="graph" transform="scale(1 1) rotate(0) translate(4 204)">
<title>pinch</title>
<polygon fill="white" stroke="none" points="-4,4 -4,-204 987.5,-204 987.5,4 -4,4"/>
<text xml:space="preserve" text-anchor="middle" x="491.75" y="-182.7" font-family="Helvetica,sans-Serif" font-size="14.00">C2 &#160;The pinch point &#160;— &#160;the PointLight state read at render time, and who writes each field</text>
<!-- writers -->
<g id="node1" class="node">
<title>writers</title>
<polygon fill="#2a2030" stroke="none" points="8,-151.75 8,-173 357,-173 357,-151.75 8,-151.75"/>
<polygon fill="none" stroke="black" points="8,-151.75 8,-173 357,-173 357,-151.75 8,-151.75"/>
<text xml:space="preserve" text-anchor="start" x="112" y="-159.5" font-family="Helvetica,sans-Serif" font-weight="bold" font-size="10.00" fill="white">UPSTREAM SYSTEM writes...</text>
<polygon fill="none" stroke="black" points="8,-129 8,-151.75 357,-151.75 357,-129 8,-129"/>
<text xml:space="preserve" text-anchor="start" x="13" y="-137" font-family="Helvetica,sans-Serif" font-size="10.00">mode + wander + follow + gestures → position / target</text>
<polygon fill="none" stroke="black" points="8,-95 8,-129 357,-129 357,-95 8,-95"/>
<text xml:space="preserve" text-anchor="start" x="13" y="-115.75" font-family="Helvetica,sans-Serif" font-size="10.00">mode base x brightness_global x time&#45;of&#45;day x proximity</text>
<text xml:space="preserve" text-anchor="start" x="13" y="-103" font-family="Helvetica,sans-Serif" font-size="10.00">x dwell x breathing x bloom x entry&#45;pulse (cap 600) → brightness</text>
<polygon fill="none" stroke="black" points="8,-72.25 8,-95 357,-95 357,-72.25 8,-72.25"/>
<text xml:space="preserve" text-anchor="start" x="13" y="-80.25" font-family="Helvetica,sans-Serif" font-size="10.00">mode base x pulse_global x time&#45;of&#45;day → pulse_speed</text>
<polygon fill="none" stroke="black" points="8,-49.5 8,-72.25 357,-72.25 357,-49.5 8,-49.5"/>
<text xml:space="preserve" text-anchor="start" x="13" y="-57.5" font-family="Helvetica,sans-Serif" font-size="10.00">mode base x breathing → falloff_radius</text>
<polygon fill="none" stroke="black" points="8,-26.75 8,-49.5 357,-49.5 357,-26.75 8,-26.75"/>
<text xml:space="preserve" text-anchor="start" x="13" y="-34.75" font-family="Helvetica,sans-Serif" font-size="10.00">gestures (SWEEP/FOCUS) x ambient osc x V6 falloff mgr → scale + rotation</text>
<polygon fill="none" stroke="black" points="8,-4 8,-26.75 357,-26.75 357,-4 8,-4"/>
<text xml:space="preserve" text-anchor="start" x="13" y="-12" font-family="Helvetica,sans-Serif" font-size="10.00">mode base x speed_global x proximity x speed&#45;match → move_speed</text>
</g>
<!-- light -->
<g id="node2" class="node">
<title>light</title>
<polygon fill="#fff39a" stroke="none" points="475,-126.62 475,-147.88 789,-147.88 789,-126.62 475,-126.62"/>
<polygon fill="none" stroke="black" points="475,-126.62 475,-147.88 789,-147.88 789,-126.62 475,-126.62"/>
<text xml:space="preserve" text-anchor="start" x="509.38" y="-134.38" font-family="Helvetica,sans-Serif" font-weight="bold" font-size="10.00">PointLight &#160;(the few values that matter at this instant)</text>
<polygon fill="#e8ecff" stroke="none" points="475,-105.38 475,-126.62 538.25,-126.62 538.25,-105.38 475,-105.38"/>
<polygon fill="none" stroke="black" points="475,-105.38 475,-126.62 538.25,-126.62 538.25,-105.38 475,-105.38"/>
<text xml:space="preserve" text-anchor="start" x="480" y="-113.12" font-family="Helvetica,sans-Serif" font-weight="bold" font-size="10.00">POSITION</text>
<polygon fill="none" stroke="black" points="538.25,-105.38 538.25,-126.62 789,-126.62 789,-105.38 538.25,-105.38"/>
<text xml:space="preserve" text-anchor="start" x="543.25" y="-113.38" font-family="Helvetica,sans-Serif" font-size="10.00">position [x, y, z] &#160;(cm)</text>
<polygon fill="#ffe6cc" stroke="none" points="475,-72.88 475,-105.38 538.25,-105.38 538.25,-72.88 475,-72.88"/>
<polygon fill="none" stroke="black" points="475,-72.88 475,-105.38 538.25,-105.38 538.25,-72.88 475,-72.88"/>
<text xml:space="preserve" text-anchor="start" x="480" y="-86.25" font-family="Helvetica,sans-Serif" font-weight="bold" font-size="10.00">INTENSITY</text>
<polygon fill="none" stroke="black" points="538.25,-72.88 538.25,-105.38 789,-105.38 789,-72.88 538.25,-72.88"/>
<text xml:space="preserve" text-anchor="start" x="543.25" y="-92.12" font-family="Helvetica,sans-Serif" font-size="10.00">current_brightness</text>
<text xml:space="preserve" text-anchor="start" x="543.25" y="-80.88" font-family="Helvetica,sans-Serif" font-size="10.00">= brightness_min + (max&#45;min) x (sin(pulse_phase)+1)/2</text>
<polygon fill="#e6ffe6" stroke="none" points="475,-29.12 475,-72.88 538.25,-72.88 538.25,-29.12 475,-29.12"/>
<polygon fill="none" stroke="black" points="475,-29.12 475,-72.88 538.25,-72.88 538.25,-29.12 475,-29.12"/>
<text xml:space="preserve" text-anchor="start" x="480" y="-48.12" font-family="Helvetica,sans-Serif" font-weight="bold" font-size="10.00">FALLOFF</text>
<polygon fill="none" stroke="black" points="538.25,-29.12 538.25,-72.88 789,-72.88 789,-29.12 538.25,-29.12"/>
<text xml:space="preserve" text-anchor="start" x="543.25" y="-59.62" font-family="Helvetica,sans-Serif" font-size="10.00">falloff_radius (cm)</text>
<text xml:space="preserve" text-anchor="start" x="543.25" y="-48.38" font-family="Helvetica,sans-Serif" font-size="10.00">falloff_scale [sx, sy, sz]</text>
<text xml:space="preserve" text-anchor="start" x="553" y="-37.12" font-family="Helvetica,sans-Serif" font-size="10.00">falloff_rotation (rad)</text>
</g>
<!-- writers&#45;&gt;light -->
<g id="edge1" class="edge">
<title>writers&#45;&gt;light</title>
<path fill="none" stroke="black" d="M364.87,-88.5C394.84,-88.5 425.86,-88.5 455.68,-88.5"/>
<polygon fill="black" stroke="black" points="455.53,-92 465.53,-88.5 455.53,-85 455.53,-92"/>
<text xml:space="preserve" text-anchor="middle" x="416" y="-91.7" font-family="Times,serif" font-size="14.00">every frame</text>
</g>
<!-- consumer -->
<g id="node3" class="node">
<title>consumer</title>
<path fill="#dff0e6" stroke="black" d="M971.5,-106.5C971.5,-106.5 846,-106.5 846,-106.5 840,-106.5 834,-100.5 834,-94.5 834,-94.5 834,-82.5 834,-82.5 834,-76.5 840,-70.5 846,-70.5 846,-70.5 971.5,-70.5 971.5,-70.5 977.5,-70.5 983.5,-76.5 983.5,-82.5 983.5,-82.5 983.5,-94.5 983.5,-94.5 983.5,-100.5 977.5,-106.5 971.5,-106.5"/>
<text xml:space="preserve" text-anchor="middle" x="908.75" y="-90.25" font-family="Helvetica,sans-Serif" font-size="10.00">read by get_panel_brightness()</text>
<text xml:space="preserve" text-anchor="middle" x="908.75" y="-79" font-family="Helvetica,sans-Serif" font-size="10.00">(C3) for each of 12 panels</text>
</g>
<!-- light&#45;&gt;consumer -->
<g id="edge2" class="edge">
<title>light&#45;&gt;consumer</title>
<path fill="none" stroke="black" d="M796.79,-88.5C805.46,-88.5 813.99,-88.5 822.22,-88.5"/>
<polygon fill="black" stroke="black" points="822.14,-92 832.14,-88.5 822.14,-85 822.14,-92"/>
</g>
</g>
</svg>
