<svg id="my-svg" width="100%" xmlns="http://www.w3.org/2000/svg" xmlns:xlink="http://www.w3.org/1999/xlink" class="flowchart" style="max-width: 664.078px; background-color: transparent;" viewBox="-78.1640625 -50 664.078125 1841" role="graphics-document document" aria-roledescription="flowchart-v2"><style>#my-svg{font-family:"trebuchet ms",verdana,arial,sans-serif;font-size:16px;fill:#333;}@keyframes edge-animation-frame{from{stroke-dashoffset:0;}}@keyframes dash{to{stroke-dashoffset:0;}}#my-svg .edge-animation-slow{stroke-dasharray:9,5!important;stroke-dashoffset:900;animation:dash 50s linear infinite;stroke-linecap:round;}#my-svg .edge-animation-fast{stroke-dasharray:9,5!important;stroke-dashoffset:900;animation:dash 20s linear infinite;stroke-linecap:round;}#my-svg .error-icon{fill:#552222;}#my-svg .error-text{fill:#552222;stroke:#552222;}#my-svg .edge-thickness-normal{stroke-width:1px;}#my-svg .edge-thickness-thick{stroke-width:3.5px;}#my-svg .edge-pattern-solid{stroke-dasharray:0;}#my-svg .edge-thickness-invisible{stroke-width:0;fill:none;}#my-svg .edge-pattern-dashed{stroke-dasharray:3;}#my-svg .edge-pattern-dotted{stroke-dasharray:2;}#my-svg .marker{fill:#333333;stroke:#333333;}#my-svg .marker.cross{stroke:#333333;}#my-svg svg{font-family:"trebuchet ms",verdana,arial,sans-serif;font-size:16px;}#my-svg p{margin:0;}#my-svg .label{font-family:"trebuchet ms",verdana,arial,sans-serif;color:#333;}#my-svg .cluster-label text{fill:#333;}#my-svg .cluster-label span{color:#333;}#my-svg .cluster-label span p{background-color:transparent;}#my-svg .label text,#my-svg span{fill:#333;color:#333;}#my-svg .node rect,#my-svg .node circle,#my-svg .node ellipse,#my-svg .node polygon,#my-svg .node path{fill:#ECECFF;stroke:#9370DB;stroke-width:1px;}#my-svg .rough-node .label text,#my-svg .node .label text,#my-svg .image-shape .label,#my-svg .icon-shape .label{text-anchor:middle;}#my-svg .node .katex path{fill:#000;stroke:#000;stroke-width:1px;}#my-svg .rough-node .label,#my-svg .node .label,#my-svg .image-shape .label,#my-svg .icon-shape .label{text-align:center;}#my-svg .node.clickable{cursor:pointer;}#my-svg .root .anchor path{fill:#333333!important;stroke-width:0;stroke:#333333;}#my-svg .arrowheadPath{fill:#333333;}#my-svg .edgePath .path{stroke:#333333;stroke-width:2.0px;}#my-svg .flowchart-link{stroke:#333333;fill:none;}#my-svg .edgeLabel{background-color:rgba(232,232,232, 0.8);text-align:center;}#my-svg .edgeLabel p{background-color:rgba(232,232,232, 0.8);}#my-svg .edgeLabel rect{opacity:0.5;background-color:rgba(232,232,232, 0.8);fill:rgba(232,232,232, 0.8);}#my-svg .labelBkg{background-color:rgba(232, 232, 232, 0.5);}#my-svg .cluster rect{fill:#ffffde;stroke:#aaaa33;stroke-width:1px;}#my-svg .cluster text{fill:#333;}#my-svg .cluster span{color:#333;}#my-svg div.mermaidTooltip{position:absolute;text-align:center;max-width:200px;padding:2px;font-family:"trebuchet ms",verdana,arial,sans-serif;font-size:12px;background:hsl(80, 100%, 96.2745098039%);border:1px solid #aaaa33;border-radius:2px;pointer-events:none;z-index:100;}#my-svg .flowchartTitleText{text-anchor:middle;font-size:18px;fill:#333;}#my-svg rect.text{fill:none;stroke-width:0;}#my-svg .icon-shape,#my-svg .image-shape{background-color:rgba(232,232,232, 0.8);text-align:center;}#my-svg .icon-shape p,#my-svg .image-shape p{background-color:rgba(232,232,232, 0.8);padding:2px;}#my-svg .icon-shape rect,#my-svg .image-shape rect{opacity:0.5;background-color:rgba(232,232,232, 0.8);fill:rgba(232,232,232, 0.8);}#my-svg .label-icon{display:inline-block;height:1em;overflow:visible;vertical-align:-0.125em;}#my-svg .node .label-icon path{fill:currentColor;stroke:revert;stroke-width:revert;}#my-svg :root{--mermaid-font-family:"trebuchet ms",verdana,arial,sans-serif;}#my-svg .io&gt;*{fill:#1f2a44!important;stroke:#9db2ff!important;color:#fff!important;}#my-svg .io span{fill:#1f2a44!important;stroke:#9db2ff!important;color:#fff!important;}#my-svg .io tspan{fill:#fff!important;}#my-svg .res&gt;*{fill:#1f3a2a!important;stroke:#9dffc0!important;color:#fff!important;}#my-svg .res span{fill:#1f3a2a!important;stroke:#9dffc0!important;color:#fff!important;}#my-svg .res tspan{fill:#fff!important;}</style><g><marker id="my-svg_flowchart-v2-pointEnd" class="marker flowchart-v2" viewBox="0 0 10 10" refX="5" refY="5" markerUnits="userSpaceOnUse" markerWidth="8" markerHeight="8" orient="auto"><path d="M 0 0 L 10 5 L 0 10 z" class="arrowMarkerPath" style="stroke-width: 1; stroke-dasharray: 1, 0;"/></marker><marker id="my-svg_flowchart-v2-pointStart" class="marker flowchart-v2" viewBox="0 0 10 10" refX="4.5" refY="5" markerUnits="userSpaceOnUse" markerWidth="8" markerHeight="8" orient="auto"><path d="M 0 5 L 10 10 L 10 0 z" class="arrowMarkerPath" style="stroke-width: 1; stroke-dasharray: 1, 0;"/></marker><marker id="my-svg_flowchart-v2-circleEnd" class="marker flowchart-v2" viewBox="0 0 10 10" refX="11" refY="5" markerUnits="userSpaceOnUse" markerWidth="11" markerHeight="11" orient="auto"><circle cx="5" cy="5" r="5" class="arrowMarkerPath" style="stroke-width: 1; stroke-dasharray: 1, 0;"/></marker><marker id="my-svg_flowchart-v2-circleStart" class="marker flowchart-v2" viewBox="0 0 10 10" refX="-1" refY="5" markerUnits="userSpaceOnUse" markerWidth="11" markerHeight="11" orient="auto"><circle cx="5" cy="5" r="5" class="arrowMarkerPath" style="stroke-width: 1; stroke-dasharray: 1, 0;"/></marker><marker id="my-svg_flowchart-v2-crossEnd" class="marker cross flowchart-v2" viewBox="0 0 11 11" refX="12" refY="5.2" markerUnits="userSpaceOnUse" markerWidth="11" markerHeight="11" orient="auto"><path d="M 1,1 l 9,9 M 10,1 l -9,9" class="arrowMarkerPath" style="stroke-width: 2; stroke-dasharray: 1, 0;"/></marker><marker id="my-svg_flowchart-v2-crossStart" class="marker cross flowchart-v2" viewBox="0 0 11 11" refX="-1" refY="5.2" markerUnits="userSpaceOnUse" markerWidth="11" markerHeight="11" orient="auto"><path d="M 1,1 l 9,9 M 10,1 l -9,9" class="arrowMarkerPath" style="stroke-width: 2; stroke-dasharray: 1, 0;"/></marker><g class="root"><g class="clusters"/><g class="edgePaths"><path d="M138,430L138,434.167C138,438.333,138,446.667,143.854,454.637C149.707,462.607,161.415,470.214,167.269,474.017L173.122,477.821" id="L_inL_s1_0" class="edge-thickness-normal edge-pattern-solid edge-thickness-normal edge-pattern-solid flowchart-link" style=";" data-edge="true" data-et="edge" data-id="L_inL_s1_0" data-points="W3sieCI6MTM4LCJ5Ijo0MzB9LHsieCI6MTM4LCJ5Ijo0NTV9LHsieCI6MTc2LjQ3NjU2MjUsInkiOjQ4MH1d" marker-end="url(#my-svg_flowchart-v2-pointEnd)"/><path d="M408.875,382L408.875,394.167C408.875,406.333,408.875,430.667,403.021,446.637C397.168,462.607,385.46,470.214,379.606,474.017L373.753,477.821" id="L_inP_s1_0" class="edge-thickness-normal edge-pattern-solid edge-thickness-normal edge-pattern-solid flowchart-link" style=";" data-edge="true" data-et="edge" data-id="L_inP_s1_0" data-points="W3sieCI6NDA4Ljg3NSwieSI6MzgyfSx7IngiOjQwOC44NzUsInkiOjQ1NX0seyJ4IjozNzAuMzk4NDM3NSwieSI6NDgwfV0=" marker-end="url(#my-svg_flowchart-v2-pointEnd)"/><path d="M273.438,606L273.438,610.167C273.438,614.333,273.438,622.667,273.438,630.333C273.438,638,273.438,645,273.438,648.5L273.438,652" id="L_s1_s2_0" class="edge-thickness-normal edge-pattern-solid edge-thickness-normal edge-pattern-solid flowchart-link" style=";" data-edge="true" data-et="edge" data-id="L_s1_s2_0" data-points="W3sieCI6MjczLjQzNzUsInkiOjYwNn0seyJ4IjoyNzMuNDM3NSwieSI6NjMxfSx7IngiOjI3My40Mzc1LCJ5Ijo2NTZ9XQ==" marker-end="url(#my-svg_flowchart-v2-pointEnd)"/><path d="M273.438,782L273.438,786.167C273.438,790.333,273.438,798.667,273.438,806.333C273.438,814,273.438,821,273.438,824.5L273.438,828" id="L_s2_s3_0" class="edge-thickness-normal edge-pattern-solid edge-thickness-normal edge-pattern-solid flowchart-link" style=";" data-edge="true" data-et="edge" data-id="L_s2_s3_0" data-points="W3sieCI6MjczLjQzNzUsInkiOjc4Mn0seyJ4IjoyNzMuNDM3NSwieSI6ODA3fSx7IngiOjI3My40Mzc1LCJ5Ijo4MzJ9XQ==" marker-end="url(#my-svg_flowchart-v2-pointEnd)"/><path d="M273.438,958L273.438,962.167C273.438,966.333,273.438,974.667,273.438,982.333C273.438,990,273.438,997,273.438,1000.5L273.438,1004" id="L_s3_s4_0" class="edge-thickness-normal edge-pattern-solid edge-thickness-normal edge-pattern-solid flowchart-link" style=";" data-edge="true" data-et="edge" data-id="L_s3_s4_0" data-points="W3sieCI6MjczLjQzNzUsInkiOjk1OH0seyJ4IjoyNzMuNDM3NSwieSI6OTgzfSx7IngiOjI3My40Mzc1LCJ5IjoxMDA4fV0=" marker-end="url(#my-svg_flowchart-v2-pointEnd)"/><path d="M273.438,1110L273.438,1114.167C273.438,1118.333,273.438,1126.667,273.438,1134.333C273.438,1142,273.438,1149,273.438,1152.5L273.438,1156" id="L_s4_s5_0" class="edge-thickness-normal edge-pattern-solid edge-thickness-normal edge-pattern-solid flowchart-link" style=";" data-edge="true" data-et="edge" data-id="L_s4_s5_0" data-points="W3sieCI6MjczLjQzNzUsInkiOjExMTB9LHsieCI6MjczLjQzNzUsInkiOjExMzV9LHsieCI6MjczLjQzNzUsInkiOjExNjB9XQ==" marker-end="url(#my-svg_flowchart-v2-pointEnd)"/><path d="M273.438,1262L273.438,1266.167C273.438,1270.333,273.438,1278.667,273.438,1286.333C273.438,1294,273.438,1301,273.438,1304.5L273.438,1308" id="L_s5_s6_0" class="edge-thickness-normal edge-pattern-solid edge-thickness-normal edge-pattern-solid flowchart-link" style=";" data-edge="true" data-et="edge" data-id="L_s5_s6_0" data-points="W3sieCI6MjczLjQzNzUsInkiOjEyNjJ9LHsieCI6MjczLjQzNzUsInkiOjEyODd9LHsieCI6MjczLjQzNzUsInkiOjEzMTJ9XQ==" marker-end="url(#my-svg_flowchart-v2-pointEnd)"/><path d="M273.438,1414L273.438,1418.167C273.438,1422.333,273.438,1430.667,273.438,1438.333C273.438,1446,273.438,1453,273.438,1456.5L273.438,1460" id="L_s6_s7_0" class="edge-thickness-normal edge-pattern-solid edge-thickness-normal edge-pattern-solid flowchart-link" style=";" data-edge="true" data-et="edge" data-id="L_s6_s7_0" data-points="W3sieCI6MjczLjQzNzUsInkiOjE0MTR9LHsieCI6MjczLjQzNzUsInkiOjE0Mzl9LHsieCI6MjczLjQzNzUsInkiOjE0NjR9XQ==" marker-end="url(#my-svg_flowchart-v2-pointEnd)"/><path d="M273.438,1566L273.438,1570.167C273.438,1574.333,273.438,1582.667,273.508,1590.417C273.578,1598.167,273.719,1605.334,273.789,1608.917L273.859,1612.501" id="L_s7_out_0" class="edge-thickness-normal edge-pattern-solid edge-thickness-normal edge-pattern-solid flowchart-link" style=";" data-edge="true" data-et="edge" data-id="L_s7_out_0" data-points="W3sieCI6MjczLjQzNzUsInkiOjE1NjZ9LHsieCI6MjczLjQzNzUsInkiOjE1OTF9LHsieCI6MjczLjkzNzUsInkiOjE2MTYuNX1d" marker-end="url(#my-svg_flowchart-v2-pointEnd)"/><path d="M273.938,1655.5L273.854,1661.583C273.771,1667.667,273.604,1679.833,273.521,1691.417C273.438,1703,273.438,1714,273.438,1719.5L273.438,1725" id="L_out_frame_0" class="edge-thickness-normal edge-pattern-dotted edge-thickness-normal edge-pattern-solid flowchart-link" style=";" data-edge="true" data-et="edge" data-id="L_out_frame_0" data-points="W3sieCI6MjczLjkzNzUsInkiOjE2NTUuNX0seyJ4IjoyNzMuNDM3NSwieSI6MTY5Mn0seyJ4IjoyNzMuNDM3NSwieSI6MTcyOX1d" marker-end="url(#my-svg_flowchart-v2-pointEnd)"/><path d="M138,206L138,210.167C138,214.333,138,222.667,138,230.333C138,238,138,245,138,248.5L138,252" id="L_note_inL_0" class="edge-thickness-normal edge-pattern-dotted edge-thickness-normal edge-pattern-solid flowchart-link" style=";" data-edge="true" data-et="edge" data-id="L_note_inL_0" data-points="W3sieCI6MTM4LCJ5IjoyMDZ9LHsieCI6MTM4LCJ5IjoyMzF9LHsieCI6MTM4LCJ5IjoyNTZ9XQ==" marker-end="url(#my-svg_flowchart-v2-pointEnd)"/></g><g class="edgeLabels"><g class="edgeLabel"><g class="label" data-id="L_inL_s1_0" transform="translate(0, 0)"><foreignObject width="0" height="0"><div xmlns="http://www.w3.org/1999/xhtml" class="labelBkg" style="display: table-cell; white-space: nowrap; line-height: 1.5; max-width: 200px; text-align: center;"><span class="edgeLabel"></span></div></foreignObject></g></g><g class="edgeLabel"><g class="label" data-id="L_inP_s1_0" transform="translate(0, 0)"><foreignObject width="0" height="0"><div xmlns="http://www.w3.org/1999/xhtml" class="labelBkg" style="display: table-cell; white-space: nowrap; line-height: 1.5; max-width: 200px; text-align: center;"><span class="edgeLabel"></span></div></foreignObject></g></g><g class="edgeLabel"><g class="label" data-id="L_s1_s2_0" transform="translate(0, 0)"><foreignObject width="0" height="0"><div xmlns="http://www.w3.org/1999/xhtml" class="labelBkg" style="display: table-cell; white-space: nowrap; line-height: 1.5; max-width: 200px; text-align: center;"><span class="edgeLabel"></span></div></foreignObject></g></g><g class="edgeLabel"><g class="label" data-id="L_s2_s3_0" transform="translate(0, 0)"><foreignObject width="0" height="0"><div xmlns="http://www.w3.org/1999/xhtml" class="labelBkg" style="display: table-cell; white-space: nowrap; line-height: 1.5; max-width: 200px; text-align: center;"><span class="edgeLabel"></span></div></foreignObject></g></g><g class="edgeLabel"><g class="label" data-id="L_s3_s4_0" transform="translate(0, 0)"><foreignObject width="0" height="0"><div xmlns="http://www.w3.org/1999/xhtml" class="labelBkg" style="display: table-cell; white-space: nowrap; line-height: 1.5; max-width: 200px; text-align: center;"><span class="edgeLabel"></span></div></foreignObject></g></g><g class="edgeLabel"><g class="label" data-id="L_s4_s5_0" transform="translate(0, 0)"><foreignObject width="0" height="0"><div xmlns="http://www.w3.org/1999/xhtml" class="labelBkg" style="display: table-cell; white-space: nowrap; line-height: 1.5; max-width: 200px; text-align: center;"><span class="edgeLabel"></span></div></foreignObject></g></g><g class="edgeLabel"><g class="label" data-id="L_s5_s6_0" transform="translate(0, 0)"><foreignObject width="0" height="0"><div xmlns="http://www.w3.org/1999/xhtml" class="labelBkg" style="display: table-cell; white-space: nowrap; line-height: 1.5; max-width: 200px; text-align: center;"><span class="edgeLabel"></span></div></foreignObject></g></g><g class="edgeLabel"><g class="label" data-id="L_s6_s7_0" transform="translate(0, 0)"><foreignObject width="0" height="0"><div xmlns="http://www.w3.org/1999/xhtml" class="labelBkg" style="display: table-cell; white-space: nowrap; line-height: 1.5; max-width: 200px; text-align: center;"><span class="edgeLabel"></span></div></foreignObject></g></g><g class="edgeLabel"><g class="label" data-id="L_s7_out_0" transform="translate(0, 0)"><foreignObject width="0" height="0"><div xmlns="http://www.w3.org/1999/xhtml" class="labelBkg" style="display: table-cell; white-space: nowrap; line-height: 1.5; max-width: 200px; text-align: center;"><span class="edgeLabel"></span></div></foreignObject></g></g><g class="edgeLabel" transform="translate(273.4375, 1692)"><g class="label" data-id="L_out_frame_0" transform="translate(-83.9765625, -12)"><foreignObject width="167.953125" height="24"><div xmlns="http://www.w3.org/1999/xhtml" class="labelBkg" style="display: table-cell; white-space: nowrap; line-height: 1.5; max-width: 200px; text-align: center;"><span class="edgeLabel"><p>repeat for all 12 panels</p></span></div></foreignObject></g></g><g class="edgeLabel"><g class="label" data-id="L_note_inL_0" transform="translate(0, 0)"><foreignObject width="0" height="0"><div xmlns="http://www.w3.org/1999/xhtml" class="labelBkg" style="display: table-cell; white-space: nowrap; line-height: 1.5; max-width: 200px; text-align: center;"><span class="edgeLabel"></span></div></foreignObject></g></g></g><g class="nodes"><g class="node default io" id="flowchart-inL-0" transform="translate(138, 343)"><rect class="basic label-container" style="fill:#1f2a44 !important;stroke:#9db2ff !important" x="-130" y="-87" width="260" height="174"/><g class="label" style="color:#fff !important" transform="translate(-100, -72)"><rect/><foreignObject width="200" height="144"><div style="color: rgb(255, 255, 255) !important; display: table; white-space: break-spaces; line-height: 1.5; max-width: 200px; text-align: center; width: 200px;" xmlns="http://www.w3.org/1999/xhtml"><span style="color:#fff !important" class="nodeLabel"><p>LIGHT state in:<br />position (x,y,z) . current_brightness<br />falloff_radius . falloff_scale (sx,sy,sz) . falloff_rotation</p></span></div></foreignObject></g></g><g class="node default io" id="flowchart-inP-1" transform="translate(408.875, 343)"><rect class="basic label-container" style="fill:#1f2a44 !important;stroke:#9db2ff !important" x="-90.875" y="-39" width="181.75" height="78"/><g class="label" style="color:#fff !important" transform="translate(-60.875, -24)"><rect/><foreignObject width="121.75" height="48"><div style="color: rgb(255, 255, 255) !important; display: table-cell; white-space: nowrap; line-height: 1.5; max-width: 200px; text-align: center;" xmlns="http://www.w3.org/1999/xhtml"><span style="color:#fff !important" class="nodeLabel"><p>PANEL in (fixed):<br />panel_pos (x,y,z)</p></span></div></foreignObject></g></g><g class="node default" id="flowchart-s1-3" transform="translate(273.4375, 543)"><rect class="basic label-container" style="" x="-130" y="-63" width="260" height="126"/><g class="label" style="" transform="translate(-100, -48)"><rect/><foreignObject width="200" height="96"><div xmlns="http://www.w3.org/1999/xhtml" style="display: table; white-space: break-spaces; line-height: 1.5; max-width: 200px; text-align: center; width: 200px;"><span class="nodeLabel"><p>1 . displacement<br />d = panel_pos - light.position  -&gt;  (dx, dy, dz)</p></span></div></foreignObject></g></g><g class="node default" id="flowchart-s2-8" transform="translate(273.4375, 719)"><rect class="basic label-container" style="" x="-130" y="-63" width="260" height="126"/><g class="label" style="" transform="translate(-100, -48)"><rect/><foreignObject width="200" height="96"><div xmlns="http://www.w3.org/1999/xhtml" style="display: table; white-space: break-spaces; line-height: 1.5; max-width: 200px; text-align: center; width: 200px;"><span class="nodeLabel"><p>2 . rotate dx,dz around Y by falloff_rotation<br />(beam can be steered: SWEEP / FOCUS gestures)</p></span></div></foreignObject></g></g><g class="node default" id="flowchart-s3-10" transform="translate(273.4375, 895)"><rect class="basic label-container" style="" x="-130" y="-63" width="260" height="126"/><g class="label" style="" transform="translate(-100, -48)"><rect/><foreignObject width="200" height="96"><div xmlns="http://www.w3.org/1999/xhtml" style="display: table; white-space: break-spaces; line-height: 1.5; max-width: 200px; text-align: center; width: 200px;"><span class="nodeLabel"><p>3 . anisotropic scale (stretch the field per axis)<br />sdx = dx/sx . sdy = dy/sy . sdz = dz/sz</p></span></div></foreignObject></g></g><g class="node default" id="flowchart-s4-12" transform="translate(273.4375, 1059)"><rect class="basic label-container" style="" x="-130" y="-51" width="260" height="102"/><g class="label" style="" transform="translate(-100, -36)"><rect/><foreignObject width="200" height="72"><div xmlns="http://www.w3.org/1999/xhtml" style="display: table; white-space: break-spaces; line-height: 1.5; max-width: 200px; text-align: center; width: 200px;"><span class="nodeLabel"><p>4 . scaled distance<br />r = sqrt(sdx^2 + sdy^2 + sdz^2)</p></span></div></foreignObject></g></g><g class="node default" id="flowchart-s5-14" transform="translate(273.4375, 1211)"><rect class="basic label-container" style="" x="-130" y="-51" width="260" height="102"/><g class="label" style="" transform="translate(-100, -36)"><rect/><foreignObject width="200" height="72"><div xmlns="http://www.w3.org/1999/xhtml" style="display: table; white-space: break-spaces; line-height: 1.5; max-width: 200px; text-align: center; width: 200px;"><span class="nodeLabel"><p>5 . linear falloff<br />f = max(0, 1 - r / falloff_radius)</p></span></div></foreignObject></g></g><g class="node default" id="flowchart-s6-16" transform="translate(273.4375, 1363)"><rect class="basic label-container" style="" x="-130" y="-51" width="260" height="102"/><g class="label" style="" transform="translate(-100, -36)"><rect/><foreignObject width="200" height="72"><div xmlns="http://www.w3.org/1999/xhtml" style="display: table; white-space: break-spaces; line-height: 1.5; max-width: 200px; text-align: center; width: 200px;"><span class="nodeLabel"><p>6 . apply intensity<br />brightness = current_brightness x f</p></span></div></foreignObject></g></g><g class="node default" id="flowchart-s7-18" transform="translate(273.4375, 1515)"><rect class="basic label-container" style="" x="-130" y="-51" width="260" height="102"/><g class="label" style="" transform="translate(-100, -36)"><rect/><foreignObject width="200" height="72"><div xmlns="http://www.w3.org/1999/xhtml" style="display: table; white-space: break-spaces; line-height: 1.5; max-width: 200px; text-align: center; width: 200px;"><span class="nodeLabel"><p>7 . clamp to DMX byte<br />int( max(0, min(255, brightness)) )</p></span></div></foreignObject></g></g><g class="node default res" id="flowchart-out-20" transform="translate(273.4375, 1635.5)"><g class="basic label-container outer-path"><path d="M-74.7578125 -19.5 C-25.192583959343942 -19.5, 24.372644581312116 -19.5, 74.7578125 -19.5 C74.7578125 -19.5, 74.7578125 -19.5, 74.7578125 -19.5 C75.05572274961705 -19.490446598141904, 75.35363299923411 -19.48089319628381, 76.0071817896239 -19.45993515863156 C76.2870487375876 -19.43293673075075, 76.5669156855513 -19.40593830286994, 77.25141715284786 -19.3399052695533 C77.71052601628604 -19.265680108955028, 78.1696348797242 -19.191454948356757, 78.48540575967675 -19.140403561325776 C78.87529454437495 -19.051413990480505, 79.26518332907314 -18.962424419635237, 79.70407688623538 -18.862249829261074 C80.07410198613928 -18.752428321910983, 80.44412708604318 -18.642606814560892, 80.9024227514606 -18.50658706670804 C81.31857945650813 -18.353437552340136, 81.73473616155567 -18.200288037972232, 82.0755190951478 -18.074876768247425 C82.48760743960362 -17.89245748232325, 82.89969578405943 -17.71003819639907, 83.21854541279238 -17.568892924097174 C83.64472263522869 -17.346556540131694, 84.070899857665 -17.12422015616621, 84.32680476407678 -16.990714730406097 C84.61571163957669 -16.815577684672796, 84.9046185150766 -16.6404406389395, 85.3957430736057 -16.342718045390892 C85.62319642541239 -16.184056433467454, 85.85064977721906 -16.02539482154402, 86.42096784457871 -15.627565626425154 C86.73604355364952 -15.37630113295793, 87.05111926272032 -15.125036639490705, 87.39826620850187 -14.848196188198123 C87.67931211242492 -14.592957734322336, 87.96035801634798 -14.33771928044655, 88.32362223676799 -14.007812326905688 C88.60964785932654 -13.712467388473645, 88.89567348188508 -13.417122450041603, 89.19323344296865 -13.10986736009568 C89.49591631455611 -12.754318835985734, 89.79859918614359 -12.398770311875786, 90.00352640812658 -12.158051136245305 C90.22209346026544 -11.865191198247294, 90.44066051240432 -11.572331260249282, 90.75117146464063 -11.156274872382312 C91.00884922059791 -10.760412643066077, 91.2665269765552 -10.364550413749843, 91.43309637860425 -10.108655082055241 C91.6264502298985 -9.765335739881762, 91.81980408119274 -9.422016397708282, 92.0464989742735 -9.019496659696287 C92.2206147132595 -8.65794160221186, 92.3947304522455 -8.296386544727433, 92.58885864880834 -7.893275190886684 C92.69770026795644 -7.624434287281335, 92.80654188710453 -7.355593383675985, 93.05794672997033 -6.734618561215508 C93.19754293972908 -6.314177019057723, 93.33713914948781 -5.893735476899939, 93.45183563421489 -5.548287939305138 C93.565294196247 -5.115621269024862, 93.6787527582791 -4.682954598744585, 93.76890678754556 -4.339158212148133 C93.83717896613877 -3.988595004402046, 93.90545114473198 -3.6380317966559583, 94.00785727658177 -3.1121979531509023 C94.04163575069956 -2.8502187782075796, 94.07541422481734 -2.588239603264257, 94.16770520250937 -1.872449005199798 C94.18991502539028 -1.5265130863833318, 94.21212484827117 -1.1805771675668657, 94.24779371591342 -0.6250057626472757 C94.24779371591342 -0.25398442199329446, 94.24779371591342 0.11703691866068677, 94.24779371591342 0.625005762647271 C94.22163358765752 1.0324708763082369, 94.19547345940164 1.4399359899692028, 94.16770520250937 1.8724490051997846 C94.13033538741692 2.1622819115520717, 94.09296557232449 2.452114817904359, 94.00785727658177 3.1121979531508885 C93.94788312468062 3.4201525476218615, 93.88790897277946 3.728107142092835, 93.76890678754556 4.339158212148129 C93.68313004079643 4.666262123379803, 93.59735329404728 4.993366034611476, 93.45183563421489 5.548287939305125 C93.30003710386681 6.005480926902188, 93.14823857351875 6.462673914499251, 93.05794672997033 6.734618561215495 C92.90472866382754 7.113070146857971, 92.75151059768474 7.491521732500446, 92.58885864880834 7.893275190886679 C92.43605277871345 8.21057984966057, 92.28324690861857 8.527884508434461, 92.0464989742735 9.019496659696284 C91.83485744308396 9.395287629352241, 91.62321591189442 9.771078599008199, 91.43309637860425 10.108655082055236 C91.18729832378328 10.486266900279679, 90.94150026896232 10.86387871850412, 90.75117146464065 11.156274872382301 C90.55908527098065 11.413652872474461, 90.36699907732066 11.67103087256662, 90.00352640812659 12.158051136245302 C89.8174601235389 12.376615181593529, 89.6313938389512 12.595179226941754, 89.19323344296866 13.10986736009567 C88.92245640397104 13.38946688406906, 88.65167936497342 13.669066408042452, 88.32362223676799 14.007812326905684 C88.11638798873646 14.196016987850184, 87.90915374070494 14.384221648794682, 87.3982662085019 14.848196188198111 C87.17168257938968 15.028890602771499, 86.94509895027747 15.209585017344885, 86.42096784457871 15.627565626425152 C86.16218312977212 15.808082640864484, 85.90339841496552 15.988599655303815, 85.3957430736057 16.34271804539089 C84.98497854013783 16.59172591949945, 84.57421400666998 16.84073379360801, 84.32680476407678 16.990714730406093 C83.93007880617773 17.197686408526923, 83.53335284827868 17.404658086647753, 83.21854541279238 17.56889292409717 C82.97818437724071 17.67529362447911, 82.73782334168902 17.78169432486105, 82.0755190951478 18.07487676824742 C81.78460763864331 18.181934873397097, 81.49369618213882 18.288992978546773, 80.90242275146062 18.506587066708033 C80.45624974778607 18.63900887218875, 80.01007674411153 18.77143067766947, 79.70407688623541 18.86224982926107 C79.28761531914417 18.957304464283943, 78.87115375205293 19.052359099306813, 78.48540575967677 19.140403561325773 C78.17792674840797 19.190114383332368, 77.87044773713916 19.239825205338963, 77.25141715284788 19.3399052695533 C76.95468358190467 19.36853080026786, 76.65795001096147 19.397156330982416, 76.0071817896239 19.45993515863156 C75.71846699495293 19.469193680147402, 75.42975220028195 19.47845220166324, 74.7578125 19.5 C74.7578125 19.5, 74.7578125 19.5, 74.7578125 19.5 C32.2438288687432 19.5, -10.270154762513599 19.5, -74.7578125 19.5 C-75.23250873894332 19.484777415557264, -75.70720497788666 19.46955483111453, -76.0071817896239 19.45993515863156 C-76.4767740702613 19.414634156085814, -76.9463663508987 19.36933315354007, -77.25141715284786 19.3399052695533 C-77.65665114863823 19.274390179750483, -78.0618851444286 19.20887508994767, -78.48540575967675 19.140403561325773 C-78.73732174921743 19.082905380618577, -78.98923773875812 19.025407199911378, -79.70407688623538 18.862249829261074 C-80.07624896496422 18.75179110986546, -80.44842104369306 18.641332390469852, -80.90242275146059 18.506587066708043 C-81.23736386510781 18.383325640724156, -81.57230497875501 18.260064214740268, -82.0755190951478 18.074876768247425 C-82.38843143248158 17.93635975872445, -82.70134376981535 17.797842749201475, -83.21854541279238 17.568892924097174 C-83.6128714401372 17.363173288209254, -84.00719746748203 17.157453652321337, -84.32680476407678 16.990714730406097 C-84.54569701414088 16.85802096206359, -84.764589264205 16.725327193721085, -85.39574307360569 16.3427180453909 C-85.67175719167174 16.15018254508662, -85.94777130973779 15.957647044782338, -86.42096784457871 15.627565626425156 C-86.65335027474528 15.442246822323492, -86.88573270491186 15.256928018221826, -87.39826620850187 14.848196188198125 C-87.59829074275575 14.666539198547916, -87.79831527700962 14.484882208897707, -88.32362223676797 14.007812326905697 C-88.50818117956179 13.817240065900075, -88.69274012235562 13.626667804894453, -89.19323344296865 13.109867360095677 C-89.41322384608242 12.851454114789702, -89.63321424919617 12.593040869483726, -90.00352640812658 12.158051136245307 C-90.24535761258025 11.834019353553344, -90.48718881703391 11.509987570861384, -90.75117146464063 11.156274872382316 C-90.92937362923222 10.882508493588256, -91.10757579382381 10.608742114794197, -91.43309637860425 10.108655082055249 C-91.67302329976681 9.682640538295855, -91.91295022092939 9.25662599453646, -92.0464989742735 9.019496659696289 C-92.15540038736405 8.793360545296803, -92.2643018004546 8.567224430897319, -92.58885864880834 7.893275190886686 C-92.77037431346831 7.4449279898099325, -92.95188997812828 6.996580788733178, -93.05794672997033 6.73461856121551 C-93.13899078383238 6.490526783599411, -93.22003483769444 6.2464350059833125, -93.45183563421489 5.5482879393051325 C-93.56190957720806 5.128528288323519, -93.67198352020122 4.708768637341905, -93.76890678754556 4.339158212148136 C-93.828551274399 4.032896378022446, -93.88819576125245 3.726634543896756, -94.00785727658177 3.112197953150904 C-94.07148843209121 2.6186872764126004, -94.13511958760066 2.125176599674296, -94.16770520250937 1.872449005199809 C-94.18823662400355 1.5526555427626854, -94.20876804549775 1.2328620803255617, -94.24779371591342 0.6250057626472781 C-94.24779371591342 0.1689218119244546, -94.24779371591342 -0.28716213879836894, -94.24779371591342 -0.6250057626472687 C-94.22228086201012 -1.0223890557959647, -94.19676800810684 -1.4197723489446608, -94.16770520250937 -1.8724490051997822 C-94.13171440817625 -2.15158649886121, -94.09572361384313 -2.430723992522638, -94.00785727658177 -3.112197953150895 C-93.9423277534966 -3.4486782045236986, -93.87679823041141 -3.7851584558965023, -93.76890678754556 -4.339158212148126 C-93.64812244236421 -4.799761268590956, -93.52733809718286 -5.260364325033785, -93.45183563421489 -5.548287939305123 C-93.34584558506388 -5.867513080126918, -93.2398555359129 -6.186738220948714, -93.05794672997033 -6.734618561215485 C-92.96159379295912 -6.972612178490467, -92.86524085594792 -7.210605795765449, -92.58885864880834 -7.893275190886676 C-92.44456882777037 -8.192896091579632, -92.30027900673238 -8.49251699227259, -92.0464989742735 -9.019496659696282 C-91.82137356983884 -9.419229611689184, -91.59624816540418 -9.818962563682087, -91.43309637860425 -10.108655082055243 C-91.27305260952959 -10.354525289123373, -91.11300884045492 -10.600395496191501, -90.75117146464063 -11.156274872382308 C-90.55680127335646 -11.416713221214401, -90.36243108207229 -11.677151570046492, -90.00352640812659 -12.158051136245302 C-89.80822813502996 -12.387459600611155, -89.61292986193332 -12.616868064977007, -89.19323344296866 -13.10986736009567 C-88.87046288437229 -13.443154461802116, -88.54769232577591 -13.776441563508563, -88.32362223676799 -14.007812326905677 C-88.08502756443215 -14.224497695451994, -87.8464328920963 -14.441183063998313, -87.3982662085019 -14.848196188198107 C-87.12928858680868 -15.062698683703315, -86.86031096511549 -15.277201179208523, -86.42096784457871 -15.627565626425149 C-86.1435316912226 -15.821093076988863, -85.86609553786649 -16.014620527552577, -85.39574307360571 -16.342718045390885 C-85.04274420208073 -16.556708035760963, -84.68974533055574 -16.770698026131036, -84.32680476407678 -16.99071473040609 C-83.98681730245453 -17.16808597136206, -83.64682984083227 -17.34545721231803, -83.2185454127924 -17.56889292409717 C-82.78104894752076 -17.762559631401388, -82.34355248224911 -17.95622633870561, -82.07551909514781 -18.07487676824742 C-81.68395702626314 -18.218975229157067, -81.29239495737846 -18.36307369006671, -80.90242275146062 -18.506587066708033 C-80.5550977550815 -18.609671302487243, -80.20777275870239 -18.712755538266453, -79.70407688623541 -18.862249829261067 C-79.38386459083563 -18.93533619610556, -79.06365229543583 -19.008422562950052, -78.48540575967677 -19.140403561325773 C-78.20812998628098 -19.185231358062666, -77.9308542128852 -19.23005915479956, -77.25141715284788 -19.3399052695533 C-76.99538325704201 -19.364604551555882, -76.73934936123614 -19.38930383355846, -76.0071817896239 -19.45993515863156 C-75.73119684924579 -19.468785458497386, -75.45521190886768 -19.477635758363213, -74.7578125 -19.5 C-74.7578125 -19.5, -74.7578125 -19.5, -74.7578125 -19.5" stroke="none" stroke-width="0" fill="#1f3a2a" style="fill:#1f3a2a !important;stroke:#9dffc0 !important"/><path d="M-74.7578125 -19.5 C-34.29425834629287 -19.5, 6.169295807414258 -19.5, 74.7578125 -19.5 M-74.7578125 -19.5 C-19.942199091316333 -19.5, 34.873414317367335 -19.5, 74.7578125 -19.5 M74.7578125 -19.5 C74.7578125 -19.5, 74.7578125 -19.5, 74.7578125 -19.5 M74.7578125 -19.5 C74.7578125 -19.5, 74.7578125 -19.5, 74.7578125 -19.5 M74.7578125 -19.5 C75.25208488476027 -19.48414964666357, 75.74635726952053 -19.468299293327142, 76.0071817896239 -19.45993515863156 M74.7578125 -19.5 C75.21080424210986 -19.485473436525474, 75.66379598421973 -19.47094687305095, 76.0071817896239 -19.45993515863156 M76.0071817896239 -19.45993515863156 C76.29457343187879 -19.43221083254225, 76.58196507413368 -19.404486506452937, 77.25141715284786 -19.3399052695533 M76.0071817896239 -19.45993515863156 C76.31955226752997 -19.429801154308425, 76.63192274543604 -19.399667149985287, 77.25141715284786 -19.3399052695533 M77.25141715284786 -19.3399052695533 C77.50608787851161 -19.29873208162896, 77.76075860417535 -19.25755889370462, 78.48540575967675 -19.140403561325776 M77.25141715284786 -19.3399052695533 C77.59354116331723 -19.284593312751937, 77.9356651737866 -19.22928135595058, 78.48540575967675 -19.140403561325776 M78.48540575967675 -19.140403561325776 C78.96660657133276 -19.03057261619405, 79.44780738298876 -18.920741671062324, 79.70407688623538 -18.862249829261074 M78.48540575967675 -19.140403561325776 C78.7578931559524 -19.078210091272297, 79.03038055222805 -19.016016621218814, 79.70407688623538 -18.862249829261074 M79.70407688623538 -18.862249829261074 C80.15146339993099 -18.72946786037595, 80.59884991362661 -18.59668589149083, 80.9024227514606 -18.50658706670804 M79.70407688623538 -18.862249829261074 C79.95089107735096 -18.7889966728921, 80.19770526846654 -18.715743516523123, 80.9024227514606 -18.50658706670804 M80.9024227514606 -18.50658706670804 C81.30765337090301 -18.35745845284245, 81.71288399034542 -18.208329838976862, 82.0755190951478 -18.074876768247425 M80.9024227514606 -18.50658706670804 C81.16584742170592 -18.409644352986803, 81.42927209195125 -18.312701639265565, 82.0755190951478 -18.074876768247425 M82.0755190951478 -18.074876768247425 C82.38350577271541 -17.938540202188427, 82.69149245028301 -17.802203636129434, 83.21854541279238 -17.568892924097174 M82.0755190951478 -18.074876768247425 C82.4339477683277 -17.916211027039502, 82.7923764415076 -17.757545285831576, 83.21854541279238 -17.568892924097174 M83.21854541279238 -17.568892924097174 C83.5396019633081 -17.401397927339655, 83.86065851382382 -17.23390293058214, 84.32680476407678 -16.990714730406097 M83.21854541279238 -17.568892924097174 C83.55149446494029 -17.395193616855657, 83.8844435170882 -17.22149430961414, 84.32680476407678 -16.990714730406097 M84.32680476407678 -16.990714730406097 C84.73916356616327 -16.74074040129197, 85.15152236824974 -16.49076607217784, 85.3957430736057 -16.342718045390892 M84.32680476407678 -16.990714730406097 C84.72247814722472 -16.75085520030692, 85.11815153037267 -16.510995670207738, 85.3957430736057 -16.342718045390892 M85.3957430736057 -16.342718045390892 C85.67267170929821 -16.149544617179217, 85.94960034499074 -15.956371188967543, 86.42096784457871 -15.627565626425154 M85.3957430736057 -16.342718045390892 C85.60689921158854 -16.195424664335953, 85.81805534957138 -16.048131283281016, 86.42096784457871 -15.627565626425154 M86.42096784457871 -15.627565626425154 C86.67890769645187 -15.42186545862404, 86.93684754832503 -15.216165290822925, 87.39826620850187 -14.848196188198123 M86.42096784457871 -15.627565626425154 C86.79608872194464 -15.32841670911161, 87.17120959931056 -15.029267791798063, 87.39826620850187 -14.848196188198123 M87.39826620850187 -14.848196188198123 C87.66418934371744 -14.606691832735946, 87.930112478933 -14.36518747727377, 88.32362223676799 -14.007812326905688 M87.39826620850187 -14.848196188198123 C87.68435451391073 -14.588378358707557, 87.9704428193196 -14.328560529216988, 88.32362223676799 -14.007812326905688 M88.32362223676799 -14.007812326905688 C88.52790639439385 -13.796872162115719, 88.73219055201973 -13.58593199732575, 89.19323344296865 -13.10986736009568 M88.32362223676799 -14.007812326905688 C88.53743618621488 -13.787031869650065, 88.75125013566175 -13.56625141239444, 89.19323344296865 -13.10986736009568 M89.19323344296865 -13.10986736009568 C89.48548338368515 -12.766573950237357, 89.77773332440165 -12.423280540379032, 90.00352640812658 -12.158051136245305 M89.19323344296865 -13.10986736009568 C89.4527235936002 -12.805055463755998, 89.71221374423176 -12.500243567416314, 90.00352640812658 -12.158051136245305 M90.00352640812658 -12.158051136245305 C90.30107165372684 -11.759367614070468, 90.59861689932711 -11.36068409189563, 90.75117146464063 -11.156274872382312 M90.00352640812658 -12.158051136245305 C90.27528885082114 -11.793914221102435, 90.54705129351571 -11.429777305959567, 90.75117146464063 -11.156274872382312 M90.75117146464063 -11.156274872382312 C91.01765425159009 -10.746885750980217, 91.28413703853954 -10.337496629578125, 91.43309637860425 -10.108655082055241 M90.75117146464063 -11.156274872382312 C91.01086632820595 -10.757313824110911, 91.27056119177125 -10.358352775839512, 91.43309637860425 -10.108655082055241 M91.43309637860425 -10.108655082055241 C91.56963418497726 -9.866218380887831, 91.70617199135027 -9.623781679720421, 92.0464989742735 -9.019496659696287 M91.43309637860425 -10.108655082055241 C91.57705603204106 -9.853040139882538, 91.72101568547788 -9.597425197709835, 92.0464989742735 -9.019496659696287 M92.0464989742735 -9.019496659696287 C92.22265651252955 -8.653701762340074, 92.39881405078562 -8.287906864983862, 92.58885864880834 -7.893275190886684 M92.0464989742735 -9.019496659696287 C92.2537276185419 -8.589181945890289, 92.46095626281029 -8.158867232084289, 92.58885864880834 -7.893275190886684 M92.58885864880834 -7.893275190886684 C92.72960639624942 -7.545625533534648, 92.87035414369049 -7.197975876182612, 93.05794672997033 -6.734618561215508 M92.58885864880834 -7.893275190886684 C92.75778705224884 -7.476018768380151, 92.92671545568935 -7.058762345873618, 93.05794672997033 -6.734618561215508 M93.05794672997033 -6.734618561215508 C93.2124907148858 -6.269156701890172, 93.3670346998013 -5.803694842564837, 93.45183563421489 -5.548287939305138 M93.05794672997033 -6.734618561215508 C93.2058991107061 -6.289009563449958, 93.35385149144187 -5.843400565684409, 93.45183563421489 -5.548287939305138 M93.45183563421489 -5.548287939305138 C93.55947193335386 -5.137824080821078, 93.66710823249284 -4.727360222337019, 93.76890678754556 -4.339158212148133 M93.45183563421489 -5.548287939305138 C93.52268338230516 -5.278114770228683, 93.59353113039542 -5.007941601152228, 93.76890678754556 -4.339158212148133 M93.76890678754556 -4.339158212148133 C93.82665345119334 -4.042641299078461, 93.88440011484113 -3.7461243860087885, 94.00785727658177 -3.1121979531509023 M93.76890678754556 -4.339158212148133 C93.83639143164758 -3.9926388275688036, 93.90387607574961 -3.646119442989474, 94.00785727658177 -3.1121979531509023 M94.00785727658177 -3.1121979531509023 C94.06983634776157 -2.63150051623237, 94.13181541894136 -2.150803079313838, 94.16770520250937 -1.872449005199798 M94.00785727658177 -3.1121979531509023 C94.0676271730012 -2.64863443942291, 94.12739706942062 -2.1850709256949177, 94.16770520250937 -1.872449005199798 M94.16770520250937 -1.872449005199798 C94.19326672876909 -1.474307600811934, 94.21882825502882 -1.0761661964240703, 94.24779371591342 -0.6250057626472757 M94.16770520250937 -1.872449005199798 C94.18969955238641 -1.5298692523452104, 94.21169390226345 -1.187289499490623, 94.24779371591342 -0.6250057626472757 M94.24779371591342 -0.6250057626472757 C94.24779371591342 -0.27965804862418175, 94.24779371591342 0.06568966539891219, 94.24779371591342 0.625005762647271 M94.24779371591342 -0.6250057626472757 C94.24779371591342 -0.30679558632633286, 94.24779371591342 0.01141458999460998, 94.24779371591342 0.625005762647271 M94.24779371591342 0.625005762647271 C94.21754320683529 1.0961818593106363, 94.18729269775714 1.5673579559740014, 94.16770520250937 1.8724490051997846 M94.24779371591342 0.625005762647271 C94.21593729462334 1.1211952382805355, 94.18408087333327 1.6173847139138, 94.16770520250937 1.8724490051997846 M94.16770520250937 1.8724490051997846 C94.11955888157723 2.2458623627829577, 94.0714125606451 2.6192757203661303, 94.00785727658177 3.1121979531508885 M94.16770520250937 1.8724490051997846 C94.1322296555517 2.147590341964306, 94.09675410859404 2.4227316787288267, 94.00785727658177 3.1121979531508885 M94.00785727658177 3.1121979531508885 C93.9226745282233 3.5495933625914624, 93.8374917798648 3.9869887720320367, 93.76890678754556 4.339158212148129 M94.00785727658177 3.1121979531508885 C93.94239575377254 3.448329037478527, 93.87693423096331 3.7844601218061653, 93.76890678754556 4.339158212148129 M93.76890678754556 4.339158212148129 C93.67949707986082 4.680116177962456, 93.5900873721761 5.021074143776784, 93.45183563421489 5.548287939305125 M93.76890678754556 4.339158212148129 C93.69344519613419 4.626925965460308, 93.61798360472281 4.9146937187724875, 93.45183563421489 5.548287939305125 M93.45183563421489 5.548287939305125 C93.30438842285231 5.992375447406394, 93.15694121148975 6.436462955507661, 93.05794672997033 6.734618561215495 M93.45183563421489 5.548287939305125 C93.34567752214384 5.8680192588649085, 93.2395194100728 6.187750578424691, 93.05794672997033 6.734618561215495 M93.05794672997033 6.734618561215495 C92.87248897078017 7.192702811997047, 92.68703121159 7.650787062778599, 92.58885864880834 7.893275190886679 M93.05794672997033 6.734618561215495 C92.87063406744171 7.1972844591051315, 92.6833214049131 7.659950356994768, 92.58885864880834 7.893275190886679 M92.58885864880834 7.893275190886679 C92.45946486927946 8.161964142661777, 92.33007108975056 8.430653094436876, 92.0464989742735 9.019496659696284 M92.58885864880834 7.893275190886679 C92.40406140326378 8.277010625287602, 92.21926415771921 8.660746059688526, 92.0464989742735 9.019496659696284 M92.0464989742735 9.019496659696284 C91.90150510221758 9.276947961753189, 91.75651123016168 9.534399263810094, 91.43309637860425 10.108655082055236 M92.0464989742735 9.019496659696284 C91.84965301446488 9.369016594151361, 91.65280705465626 9.718536528606439, 91.43309637860425 10.108655082055236 M91.43309637860425 10.108655082055236 C91.19030729101694 10.481644318587943, 90.94751820342964 10.85463355512065, 90.75117146464065 11.156274872382301 M91.43309637860425 10.108655082055236 C91.22567074708464 10.427316553650378, 91.01824511556504 10.745978025245519, 90.75117146464065 11.156274872382301 M90.75117146464065 11.156274872382301 C90.49881399215411 11.494410895275562, 90.24645651966757 11.832546918168822, 90.00352640812659 12.158051136245302 M90.75117146464065 11.156274872382301 C90.52355251966324 11.461263522139559, 90.29593357468582 11.766252171896815, 90.00352640812659 12.158051136245302 M90.00352640812659 12.158051136245302 C89.68101260368721 12.536894202495143, 89.35849879924783 12.915737268744984, 89.19323344296866 13.10986736009567 M90.00352640812659 12.158051136245302 C89.76231587671444 12.441390751710063, 89.5211053453023 12.724730367174823, 89.19323344296866 13.10986736009567 M89.19323344296866 13.10986736009567 C88.9236445467221 13.388240029130248, 88.65405565047556 13.666612698164826, 88.32362223676799 14.007812326905684 M89.19323344296866 13.10986736009567 C88.85268733230083 13.461509178715863, 88.512141221633 13.813150997336056, 88.32362223676799 14.007812326905684 M88.32362223676799 14.007812326905684 C88.08979645434611 14.220166715810056, 87.85597067192423 14.432521104714427, 87.3982662085019 14.848196188198111 M88.32362223676799 14.007812326905684 C87.99154850822626 14.309392900977903, 87.65947477968452 14.61097347505012, 87.3982662085019 14.848196188198111 M87.3982662085019 14.848196188198111 C87.04324414891627 15.131316833183863, 86.68822208933065 15.414437478169615, 86.42096784457871 15.627565626425152 M87.3982662085019 14.848196188198111 C87.08021077887048 15.101836929518724, 86.76215534923907 15.355477670839335, 86.42096784457871 15.627565626425152 M86.42096784457871 15.627565626425152 C86.16791296526803 15.804085755663113, 85.91485808595735 15.980605884901076, 85.3957430736057 16.34271804539089 M86.42096784457871 15.627565626425152 C86.1366693166759 15.825879972405234, 85.85237078877309 16.024194318385316, 85.3957430736057 16.34271804539089 M85.3957430736057 16.34271804539089 C85.06406382167019 16.543783957077835, 84.73238456973468 16.74484986876478, 84.32680476407678 16.990714730406093 M85.3957430736057 16.34271804539089 C85.16847237224778 16.480490880144956, 84.94120167088984 16.618263714899022, 84.32680476407678 16.990714730406093 M84.32680476407678 16.990714730406093 C84.04920679524412 17.135537412936106, 83.77160882641147 17.28036009546612, 83.21854541279238 17.56889292409717 M84.32680476407678 16.990714730406093 C84.00217549040873 17.160073614543744, 83.67754621674067 17.329432498681395, 83.21854541279238 17.56889292409717 M83.21854541279238 17.56889292409717 C82.87187342654258 17.722354328750868, 82.52520144029278 17.87581573340456, 82.0755190951478 18.07487676824742 M83.21854541279238 17.56889292409717 C82.78312478579146 17.761640719376494, 82.34770415879053 17.95438851465582, 82.0755190951478 18.07487676824742 M82.0755190951478 18.07487676824742 C81.61427776611498 18.244617840999606, 81.15303643708216 18.41435891375179, 80.90242275146062 18.506587066708033 M82.0755190951478 18.07487676824742 C81.83584025042134 18.16308079867371, 81.59616140569489 18.2512848291, 80.90242275146062 18.506587066708033 M80.90242275146062 18.506587066708033 C80.55911720692401 18.60847835027892, 80.21581166238742 18.71036963384981, 79.70407688623541 18.86224982926107 M80.90242275146062 18.506587066708033 C80.54120473329587 18.613794678427265, 80.17998671513111 18.721002290146494, 79.70407688623541 18.86224982926107 M79.70407688623541 18.86224982926107 C79.37146163752921 18.93816708926092, 79.038846388823 19.014084349260763, 78.48540575967677 19.140403561325773 M79.70407688623541 18.86224982926107 C79.32896030869749 18.947867740219667, 78.95384373115955 19.033485651178268, 78.48540575967677 19.140403561325773 M78.48540575967677 19.140403561325773 C78.10233271127831 19.202335841014975, 77.71925966287986 19.26426812070418, 77.25141715284788 19.3399052695533 M78.48540575967677 19.140403561325773 C78.03578796998573 19.213094278724984, 77.5861701802947 19.285784996124196, 77.25141715284788 19.3399052695533 M77.25141715284788 19.3399052695533 C76.9121496670448 19.372633995879873, 76.57288218124172 19.405362722206448, 76.0071817896239 19.45993515863156 M77.25141715284788 19.3399052695533 C76.7714051599269 19.3862114492115, 76.29139316700592 19.432517628869707, 76.0071817896239 19.45993515863156 M76.0071817896239 19.45993515863156 C75.64371416082385 19.471590858040354, 75.2802465320238 19.483246557449153, 74.7578125 19.5 M76.0071817896239 19.45993515863156 C75.53845406039781 19.47496634458466, 75.06972633117172 19.489997530537764, 74.7578125 19.5 M74.7578125 19.5 C74.7578125 19.5, 74.7578125 19.5, 74.7578125 19.5 M74.7578125 19.5 C74.7578125 19.5, 74.7578125 19.5, 74.7578125 19.5 M74.7578125 19.5 C24.131435958244758 19.5, -26.494940583510484 19.5, -74.7578125 19.5 M74.7578125 19.5 C17.336790979120757 19.5, -40.08423054175849 19.5, -74.7578125 19.5 M-74.7578125 19.5 C-75.09191883936766 19.489285859995018, -75.42602517873533 19.478571719990036, -76.0071817896239 19.45993515863156 M-74.7578125 19.5 C-75.09162825572994 19.489295178446692, -75.42544401145989 19.478590356893385, -76.0071817896239 19.45993515863156 M-76.0071817896239 19.45993515863156 C-76.34611137937064 19.427239028731158, -76.68504096911738 19.39454289883076, -77.25141715284786 19.3399052695533 M-76.0071817896239 19.45993515863156 C-76.3368071337086 19.428136598120183, -76.66643247779331 19.396338037608807, -77.25141715284786 19.3399052695533 M-77.25141715284786 19.3399052695533 C-77.5755328056962 19.287504764355205, -77.89964845854455 19.235104259157115, -78.48540575967675 19.140403561325773 M-77.25141715284786 19.3399052695533 C-77.57995872983955 19.286789215263266, -77.90850030683124 19.23367316097323, -78.48540575967675 19.140403561325773 M-78.48540575967675 19.140403561325773 C-78.85634051006237 19.055740125125716, -79.227275260448 18.97107668892566, -79.70407688623538 18.862249829261074 M-78.48540575967675 19.140403561325773 C-78.76443915029553 19.07671601078008, -79.04347254091431 19.013028460234384, -79.70407688623538 18.862249829261074 M-79.70407688623538 18.862249829261074 C-79.97662897268033 18.781357800659315, -80.24918105912526 18.70046577205755, -80.90242275146059 18.506587066708043 M-79.70407688623538 18.862249829261074 C-80.02578126277726 18.766769658964176, -80.34748563931915 18.67128948866728, -80.90242275146059 18.506587066708043 M-80.90242275146059 18.506587066708043 C-81.33376755745331 18.347848190795045, -81.76511236344605 18.189109314882042, -82.0755190951478 18.074876768247425 M-80.90242275146059 18.506587066708043 C-81.16671084807192 18.40932660410269, -81.43099894468324 18.312066141497343, -82.0755190951478 18.074876768247425 M-82.0755190951478 18.074876768247425 C-82.49472505837639 17.8893067236292, -82.91393102160497 17.703736679010976, -83.21854541279238 17.568892924097174 M-82.0755190951478 18.074876768247425 C-82.50739545152672 17.883697916435406, -82.93927180790566 17.692519064623387, -83.21854541279238 17.568892924097174 M-83.21854541279238 17.568892924097174 C-83.63901302849237 17.34953523830885, -84.05948064419236 17.13017755252053, -84.32680476407678 16.990714730406097 M-83.21854541279238 17.568892924097174 C-83.5120144373505 17.415790321961087, -83.80548346190862 17.262687719824996, -84.32680476407678 16.990714730406097 M-84.32680476407678 16.990714730406097 C-84.7206428117194 16.75196779147587, -85.11448085936203 16.513220852545643, -85.39574307360569 16.3427180453909 M-84.32680476407678 16.990714730406097 C-84.6531719208747 16.792869042008896, -84.97953907767263 16.595023353611694, -85.39574307360569 16.3427180453909 M-85.39574307360569 16.3427180453909 C-85.69936826889816 16.130922252877742, -86.00299346419062 15.919126460364582, -86.42096784457871 15.627565626425156 M-85.39574307360569 16.3427180453909 C-85.78804022518088 16.06906853472203, -86.18033737675607 15.795419024053166, -86.42096784457871 15.627565626425156 M-86.42096784457871 15.627565626425156 C-86.70399597284303 15.401858225829168, -86.98702410110734 15.176150825233178, -87.39826620850187 14.848196188198125 M-86.42096784457871 15.627565626425156 C-86.6458414137047 15.448234939184168, -86.87071498283069 15.26890425194318, -87.39826620850187 14.848196188198125 M-87.39826620850187 14.848196188198125 C-87.7491660662109 14.529518221728246, -88.10006592391994 14.210840255258368, -88.32362223676797 14.007812326905697 M-87.39826620850187 14.848196188198125 C-87.61969492316327 14.647100488225384, -87.84112363782467 14.446004788252642, -88.32362223676797 14.007812326905697 M-88.32362223676797 14.007812326905697 C-88.55350561649588 13.770438863560143, -88.7833889962238 13.53306540021459, -89.19323344296865 13.109867360095677 M-88.32362223676797 14.007812326905697 C-88.66704333795299 13.653201844535403, -89.01046443913799 13.29859136216511, -89.19323344296865 13.109867360095677 M-89.19323344296865 13.109867360095677 C-89.51437517796825 12.732636004682758, -89.83551691296785 12.355404649269841, -90.00352640812658 12.158051136245307 M-89.19323344296865 13.109867360095677 C-89.4196980079569 12.843849195861681, -89.64616257294514 12.577831031627685, -90.00352640812658 12.158051136245307 M-90.00352640812658 12.158051136245307 C-90.2719332001027 11.798410487359089, -90.54033999207881 11.43876983847287, -90.75117146464063 11.156274872382316 M-90.00352640812658 12.158051136245307 C-90.26805196619536 11.80361098720724, -90.53257752426414 11.449170838169172, -90.75117146464063 11.156274872382316 M-90.75117146464063 11.156274872382316 C-90.9698056447913 10.820394060173141, -91.18843982494197 10.484513247963967, -91.43309637860425 10.108655082055249 M-90.75117146464063 11.156274872382316 C-90.92387685210723 10.890953019343572, -91.09658223957383 10.625631166304828, -91.43309637860425 10.108655082055249 M-91.43309637860425 10.108655082055249 C-91.59101871576385 9.828247981057698, -91.74894105292344 9.547840880060148, -92.0464989742735 9.019496659696289 M-91.43309637860425 10.108655082055249 C-91.56955940440218 9.866351161371233, -91.70602243020012 9.624047240687215, -92.0464989742735 9.019496659696289 M-92.0464989742735 9.019496659696289 C-92.20508370428576 8.690192074656197, -92.363668434298 8.360887489616106, -92.58885864880834 7.893275190886686 M-92.0464989742735 9.019496659696289 C-92.16983769978326 8.763381157149322, -92.29317642529301 8.507265654602355, -92.58885864880834 7.893275190886686 M-92.58885864880834 7.893275190886686 C-92.72979634202161 7.545156363804959, -92.8707340352349 7.197037536723231, -93.05794672997033 6.73461856121551 M-92.58885864880834 7.893275190886686 C-92.77428209235615 7.4352757004052235, -92.95970553590394 6.977276209923761, -93.05794672997033 6.73461856121551 M-93.05794672997033 6.73461856121551 C-93.2015436958694 6.302127378996987, -93.34514066176847 5.869636196778464, -93.45183563421489 5.5482879393051325 M-93.05794672997033 6.73461856121551 C-93.1864240893917 6.347665224725654, -93.31490144881307 5.960711888235799, -93.45183563421489 5.5482879393051325 M-93.45183563421489 5.5482879393051325 C-93.57562729439837 5.076216687380596, -93.69941895458186 4.604145435456059, -93.76890678754556 4.339158212148136 M-93.45183563421489 5.5482879393051325 C-93.52787478464354 5.25831770314438, -93.60391393507221 4.968347466983627, -93.76890678754556 4.339158212148136 M-93.76890678754556 4.339158212148136 C-93.83270073985487 4.0115897498963955, -93.8964946921642 3.684021287644655, -94.00785727658177 3.112197953150904 M-93.76890678754556 4.339158212148136 C-93.83915018923847 3.978473190403246, -93.90939359093137 3.6177881686583566, -94.00785727658177 3.112197953150904 M-94.00785727658177 3.112197953150904 C-94.04086717870024 2.8561796708625864, -94.0738770808187 2.6001613885742687, -94.16770520250937 1.872449005199809 M-94.00785727658177 3.112197953150904 C-94.05713088282089 2.7300415933344953, -94.10640448906 2.3478852335180864, -94.16770520250937 1.872449005199809 M-94.16770520250937 1.872449005199809 C-94.19484776626955 1.4496816655518534, -94.22199033002973 1.0269143259038978, -94.24779371591342 0.6250057626472781 M-94.16770520250937 1.872449005199809 C-94.19225963974833 1.4899938252179794, -94.21681407698729 1.1075386452361495, -94.24779371591342 0.6250057626472781 M-94.24779371591342 0.6250057626472781 C-94.24779371591342 0.31927499312279206, -94.24779371591342 0.013544223598305982, -94.24779371591342 -0.6250057626472687 M-94.24779371591342 0.6250057626472781 C-94.24779371591342 0.23793359450962148, -94.24779371591342 -0.14913857362803518, -94.24779371591342 -0.6250057626472687 M-94.24779371591342 -0.6250057626472687 C-94.22237939351118 -1.0208543481340902, -94.19696507110892 -1.4167029336209116, -94.16770520250937 -1.8724490051997822 M-94.24779371591342 -0.6250057626472687 C-94.22243104906478 -1.0200497711909908, -94.19706838221614 -1.4150937797347132, -94.16770520250937 -1.8724490051997822 M-94.16770520250937 -1.8724490051997822 C-94.12463221126879 -2.2065146195375105, -94.08155922002821 -2.5405802338752395, -94.00785727658177 -3.112197953150895 M-94.16770520250937 -1.8724490051997822 C-94.11483120837029 -2.282529262591298, -94.06195721423123 -2.6926095199828133, -94.00785727658177 -3.112197953150895 M-94.00785727658177 -3.112197953150895 C-93.91385986477952 -3.594854796395462, -93.81986245297726 -4.077511639640028, -93.76890678754556 -4.339158212148126 M-94.00785727658177 -3.112197953150895 C-93.94502979797046 -3.434803777227671, -93.88220231935915 -3.757409601304447, -93.76890678754556 -4.339158212148126 M-93.76890678754556 -4.339158212148126 C-93.6605492889946 -4.752372316559867, -93.55219179044364 -5.165586420971607, -93.45183563421489 -5.548287939305123 M-93.76890678754556 -4.339158212148126 C-93.64247120569092 -4.82131188328766, -93.51603562383629 -5.303465554427193, -93.45183563421489 -5.548287939305123 M-93.45183563421489 -5.548287939305123 C-93.34679514749271 -5.864653149383542, -93.24175466077052 -6.1810183594619605, -93.05794672997033 -6.734618561215485 M-93.45183563421489 -5.548287939305123 C-93.35377543154301 -5.843629645981255, -93.25571522887114 -6.1389713526573875, -93.05794672997033 -6.734618561215485 M-93.05794672997033 -6.734618561215485 C-92.89776754324927 -7.13026424927039, -92.73758835652822 -7.525909937325295, -92.58885864880834 -7.893275190886676 M-93.05794672997033 -6.734618561215485 C-92.95884959323287 -6.979390404869793, -92.85975245649543 -7.2241622485241015, -92.58885864880834 -7.893275190886676 M-92.58885864880834 -7.893275190886676 C-92.47924622404605 -8.120887736235757, -92.36963379928375 -8.348500281584835, -92.0464989742735 -9.019496659696282 M-92.58885864880834 -7.893275190886676 C-92.47382220038628 -8.132150837420765, -92.35878575196423 -8.371026483954855, -92.0464989742735 -9.019496659696282 M-92.0464989742735 -9.019496659696282 C-91.89302831458966 -9.291999356554413, -91.73955765490581 -9.564502053412543, -91.43309637860425 -10.108655082055243 M-92.0464989742735 -9.019496659696282 C-91.8856344076756 -9.305127986994593, -91.72476984107769 -9.590759314292905, -91.43309637860425 -10.108655082055243 M-91.43309637860425 -10.108655082055243 C-91.2684883497304 -10.361537217850291, -91.10388032085655 -10.614419353645339, -90.75117146464063 -11.156274872382308 M-91.43309637860425 -10.108655082055243 C-91.22403608665047 -10.429827831045046, -91.0149757946967 -10.751000580034848, -90.75117146464063 -11.156274872382308 M-90.75117146464063 -11.156274872382308 C-90.4952512778646 -11.49918460785355, -90.23933109108857 -11.842094343324792, -90.00352640812659 -12.158051136245302 M-90.75117146464063 -11.156274872382308 C-90.56241039619718 -11.409197507609445, -90.37364932775372 -11.662120142836581, -90.00352640812659 -12.158051136245302 M-90.00352640812659 -12.158051136245302 C-89.80263793329037 -12.394026169665963, -89.60174945845415 -12.630001203086625, -89.19323344296866 -13.10986736009567 M-90.00352640812659 -12.158051136245302 C-89.71908492940047 -12.492172282335654, -89.43464345067433 -12.826293428426007, -89.19323344296866 -13.10986736009567 M-89.19323344296866 -13.10986736009567 C-88.89496636960264 -13.41785260152822, -88.59669929623664 -13.725837842960768, -88.32362223676799 -14.007812326905677 M-89.19323344296866 -13.10986736009567 C-88.86232872383401 -13.45155365038489, -88.53142400469935 -13.79323994067411, -88.32362223676799 -14.007812326905677 M-88.32362223676799 -14.007812326905677 C-88.12918572222205 -14.184394424908037, -87.9347492076761 -14.360976522910397, -87.3982662085019 -14.848196188198107 M-88.32362223676799 -14.007812326905677 C-87.96078494100348 -14.33733155877023, -87.59794764523897 -14.666850790634786, -87.3982662085019 -14.848196188198107 M-87.3982662085019 -14.848196188198107 C-87.15266389285729 -15.044057499172572, -86.90706157721269 -15.239918810147035, -86.42096784457871 -15.627565626425149 M-87.3982662085019 -14.848196188198107 C-87.03062111586387 -15.141383366130135, -86.66297602322585 -15.434570544062161, -86.42096784457871 -15.627565626425149 M-86.42096784457871 -15.627565626425149 C-86.0575069578779 -15.881100207019436, -85.6940460711771 -16.134634787613724, -85.39574307360571 -16.342718045390885 M-86.42096784457871 -15.627565626425149 C-86.2046764739547 -15.778441123469936, -85.98838510333069 -15.92931662051472, -85.39574307360571 -16.342718045390885 M-85.39574307360571 -16.342718045390885 C-85.03305287778987 -16.562582973498625, -84.67036268197401 -16.782447901606364, -84.32680476407678 -16.99071473040609 M-85.39574307360571 -16.342718045390885 C-85.165385448464 -16.482362191483467, -84.93502782332226 -16.622006337576046, -84.32680476407678 -16.99071473040609 M-84.32680476407678 -16.99071473040609 C-83.98426689401846 -17.169416517809537, -83.64172902396015 -17.34811830521299, -83.2185454127924 -17.56889292409717 M-84.32680476407678 -16.99071473040609 C-83.94907246747113 -17.18777742759618, -83.57134017086547 -17.38484012478627, -83.2185454127924 -17.56889292409717 M-83.2185454127924 -17.56889292409717 C-82.91533502835296 -17.70311516687203, -82.6121246439135 -17.837337409646892, -82.07551909514781 -18.07487676824742 M-83.2185454127924 -17.56889292409717 C-82.92444310554836 -17.699083291279134, -82.63034079830433 -17.829273658461094, -82.07551909514781 -18.07487676824742 M-82.07551909514781 -18.07487676824742 C-81.69826196386127 -18.213710879887557, -81.32100483257473 -18.352544991527697, -80.90242275146062 -18.506587066708033 M-82.07551909514781 -18.07487676824742 C-81.773635635484 -18.185972671983816, -81.47175217582019 -18.29706857572021, -80.90242275146062 -18.506587066708033 M-80.90242275146062 -18.506587066708033 C-80.52523272738027 -18.61853508594424, -80.14804270329991 -18.730483105180454, -79.70407688623541 -18.862249829261067 M-80.90242275146062 -18.506587066708033 C-80.64435087806706 -18.583181444084335, -80.3862790046735 -18.659775821460634, -79.70407688623541 -18.862249829261067 M-79.70407688623541 -18.862249829261067 C-79.31411579633532 -18.951255903296836, -78.92415470643522 -19.040261977332605, -78.48540575967677 -19.140403561325773 M-79.70407688623541 -18.862249829261067 C-79.32827792039564 -18.948023490896563, -78.95247895455586 -19.03379715253206, -78.48540575967677 -19.140403561325773 M-78.48540575967677 -19.140403561325773 C-78.22308366582328 -19.182813763121782, -77.96076157196981 -19.22522396491779, -77.25141715284788 -19.3399052695533 M-78.48540575967677 -19.140403561325773 C-78.17095550982317 -19.191241439123992, -77.85650525996958 -19.242079316922215, -77.25141715284788 -19.3399052695533 M-77.25141715284788 -19.3399052695533 C-76.89079650840182 -19.37469390941323, -76.53017586395575 -19.409482549273164, -76.0071817896239 -19.45993515863156 M-77.25141715284788 -19.3399052695533 C-76.93487023612093 -19.370442169906582, -76.61832331939397 -19.400979070259865, -76.0071817896239 -19.45993515863156 M-76.0071817896239 -19.45993515863156 C-75.75593619821518 -19.467992115728162, -75.50469060680645 -19.47604907282476, -74.7578125 -19.5 M-76.0071817896239 -19.45993515863156 C-75.51199507867285 -19.475814832629297, -75.01680836772182 -19.491694506627034, -74.7578125 -19.5 M-74.7578125 -19.5 C-74.7578125 -19.5, -74.7578125 -19.5, -74.7578125 -19.5 M-74.7578125 -19.5 C-74.7578125 -19.5, -74.7578125 -19.5, -74.7578125 -19.5" stroke="#9dffc0" stroke-width="1.3" fill="none" stroke-dasharray="0 0" style="fill:#1f3a2a !important;stroke:#9dffc0 !important"/></g><g class="label" style="color:#fff !important" transform="translate(-81.8828125, -12)"><rect/><foreignObject width="163.765625" height="24"><div style="color: rgb(255, 255, 255) !important; display: table-cell; white-space: nowrap; line-height: 1.5; max-width: 200px; text-align: center;" xmlns="http://www.w3.org/1999/xhtml"><span style="color:#fff !important" class="nodeLabel"><p>one panel value: 0-255</p></span></div></foreignObject></g></g><g class="node default res" id="flowchart-frame-22" transform="translate(273.4375, 1756)"><rect class="basic label-container" style="fill:#1f3a2a !important;stroke:#9dffc0 !important" x="-89.671875" y="-27" width="179.34375" height="54"/><g class="label" style="color:#fff !important" transform="translate(-59.671875, -12)"><rect/><foreignObject width="119.34375" height="24"><div style="color: rgb(255, 255, 255) !important; display: table-cell; white-space: nowrap; line-height: 1.5; max-width: 200px; text-align: center;" xmlns="http://www.w3.org/1999/xhtml"><span style="color:#fff !important" class="nodeLabel"><p>dmx_data[0..11]</p></span></div></foreignObject></g></g><g class="node default" id="flowchart-note-23" transform="translate(138, 107)"><rect class="basic label-container" style="" x="-130" y="-99" width="260" height="198"/><g class="label" style="" transform="translate(-100, -84)"><rect/><foreignObject width="200" height="168"><div xmlns="http://www.w3.org/1999/xhtml" style="display: table; white-space: break-spaces; line-height: 1.5; max-width: 200px; text-align: center; width: 200px;"><span class="nodeLabel"><p>current_brightness = brightness_min<br />+ (brightness_max - brightness_min) x (sin(pulse_phase)+1)/2<br />(the pulse / breathing, updated each frame)</p></span></div></foreignObject></g></g></g></g></g><text text-anchor="middle" x="253.875" y="-25" class="flowchartTitleText">C3  Light state to one panel value  —  get_panel_brightness() (runs x12 per frame)</text></svg>