<?xml version="1.0" encoding="UTF-8" standalone="no"?>
<!DOCTYPE svg PUBLIC "-//W3C//DTD SVG 1.1//EN"
 "http://www.w3.org/Graphics/SVG/1.1/DTD/svg11.dtd">
<!-- Generated by graphviz version 15.0.0 (20260523.1842)
 -->
<!-- Title: panelmap Pages: 1 -->
<svg width="545pt" height="462pt"
 viewBox="0.00 0.00 545.00 462.00" xmlns="http://www.w3.org/2000/svg" xmlns:xlink="http://www.w3.org/1999/xlink">
<g id="graph0" class="graph" transform="scale(1 1) rotate(0) translate(4 458.35)">
<title>panelmap</title>
<polygon fill="white" stroke="none" points="-4,4 -4,-458.35 540.5,-458.35 540.5,4 -4,4"/>
<text xml:space="preserve" text-anchor="middle" x="268.25" y="-437.05" font-family="Helvetica,sans-Serif" font-size="14.00">C4 &#160;The 12 panels &#160;— &#160;4 units x 3 panels, fixed positions, mapped to 12 DMX channels</text>
<!-- grid -->
<g id="node1" class="node">
<title>grid</title>
<polygon fill="#eef2ff" stroke="none" points="10.38,-240 10.38,-259.75 69.12,-259.75 69.12,-240 10.38,-240"/>
<polygon fill="none" stroke="black" points="10.38,-240 10.38,-259.75 69.12,-259.75 69.12,-240 10.38,-240"/>
<text xml:space="preserve" text-anchor="start" x="16.88" y="-247.2" font-family="Helvetica,sans-Serif" font-weight="bold" font-size="9.00">unit (X cm)</text>
<polygon fill="#c9d4ff" stroke="none" points="69.12,-240 69.12,-259.75 128.62,-259.75 128.62,-240 69.12,-240"/>
<polygon fill="none" stroke="black" points="69.12,-240 69.12,-259.75 128.62,-259.75 128.62,-240 69.12,-240"/>
<text xml:space="preserve" text-anchor="start" x="74.12" y="-247.2" font-family="Helvetica,sans-Serif" font-weight="bold" font-size="9.00">panel 1 (up)</text>
<polygon fill="#c9d4ff" stroke="none" points="128.62,-240 128.62,-259.75 204.62,-259.75 204.62,-240 128.62,-240"/>
<polygon fill="none" stroke="black" points="128.62,-240 128.62,-259.75 204.62,-259.75 204.62,-240 128.62,-240"/>
<text xml:space="preserve" text-anchor="start" x="133.62" y="-247.2" font-family="Helvetica,sans-Serif" font-weight="bold" font-size="9.00">panel 2 (+22.5°)</text>
<polygon fill="#c9d4ff" stroke="none" points="204.62,-240 204.62,-259.75 278.38,-259.75 278.38,-240 204.62,-240"/>
<polygon fill="none" stroke="black" points="204.62,-240 204.62,-259.75 278.38,-259.75 278.38,-240 204.62,-240"/>
<text xml:space="preserve" text-anchor="start" x="209.62" y="-247.2" font-family="Helvetica,sans-Serif" font-weight="bold" font-size="9.00">panel 3 (&#45;22.5°)</text>
<polygon fill="none" stroke="black" points="10.38,-210.5 10.38,-240 69.12,-240 69.12,-210.5 10.38,-210.5"/>
<text xml:space="preserve" text-anchor="start" x="15.38" y="-222.62" font-family="Helvetica,sans-Serif" font-size="9.00">U0 (x=&#45;30)</text>
<polygon fill="none" stroke="black" points="69.12,-210.5 69.12,-240 128.62,-240 128.62,-210.5 69.12,-210.5"/>
<text xml:space="preserve" text-anchor="start" x="90.25" y="-227.5" font-family="Helvetica,sans-Serif" font-size="9.00">ch 0</text>
<text xml:space="preserve" text-anchor="start" x="80.12" y="-217.75" font-family="Helvetica,sans-Serif" font-size="9.00">y=24 z=0</text>
<polygon fill="none" stroke="black" points="128.62,-210.5 128.62,-240 204.62,-240 204.62,-210.5 128.62,-210.5"/>
<text xml:space="preserve" text-anchor="start" x="158" y="-227.5" font-family="Helvetica,sans-Serif" font-size="9.00">ch 1</text>
<text xml:space="preserve" text-anchor="start" x="143.75" y="-217.75" font-family="Helvetica,sans-Serif" font-size="9.00">y=&#45;36 z=12</text>
<polygon fill="none" stroke="black" points="204.62,-210.5 204.62,-240 278.38,-240 278.38,-210.5 204.62,-210.5"/>
<text xml:space="preserve" text-anchor="start" x="232.88" y="-227.5" font-family="Helvetica,sans-Serif" font-size="9.00">ch 2</text>
<text xml:space="preserve" text-anchor="start" x="217.12" y="-217.75" font-family="Helvetica,sans-Serif" font-size="9.00">y=&#45;36 z=&#45;12</text>
<polygon fill="none" stroke="black" points="10.38,-190.75 10.38,-210.5 69.12,-210.5 69.12,-190.75 10.38,-190.75"/>
<text xml:space="preserve" text-anchor="start" x="15.38" y="-198" font-family="Helvetica,sans-Serif" font-size="9.00">U1 (x=&#45;110)</text>
<polygon fill="none" stroke="black" points="69.12,-190.75 69.12,-210.5 128.62,-210.5 128.62,-190.75 69.12,-190.75"/>
<text xml:space="preserve" text-anchor="start" x="90.25" y="-198" font-family="Helvetica,sans-Serif" font-size="9.00">ch 3</text>
<polygon fill="none" stroke="black" points="128.62,-190.75 128.62,-210.5 204.62,-210.5 204.62,-190.75 128.62,-190.75"/>
<text xml:space="preserve" text-anchor="start" x="158" y="-198" font-family="Helvetica,sans-Serif" font-size="9.00">ch 4</text>
<polygon fill="none" stroke="black" points="204.62,-190.75 204.62,-210.5 278.38,-210.5 278.38,-190.75 204.62,-190.75"/>
<text xml:space="preserve" text-anchor="start" x="232.88" y="-198" font-family="Helvetica,sans-Serif" font-size="9.00">ch 5</text>
<polygon fill="none" stroke="black" points="10.38,-171 10.38,-190.75 69.12,-190.75 69.12,-171 10.38,-171"/>
<text xml:space="preserve" text-anchor="start" x="15.38" y="-178.25" font-family="Helvetica,sans-Serif" font-size="9.00">U2 (x=&#45;190)</text>
<polygon fill="none" stroke="black" points="69.12,-171 69.12,-190.75 128.62,-190.75 128.62,-171 69.12,-171"/>
<text xml:space="preserve" text-anchor="start" x="90.25" y="-178.25" font-family="Helvetica,sans-Serif" font-size="9.00">ch 6</text>
<polygon fill="none" stroke="black" points="128.62,-171 128.62,-190.75 204.62,-190.75 204.62,-171 128.62,-171"/>
<text xml:space="preserve" text-anchor="start" x="158" y="-178.25" font-family="Helvetica,sans-Serif" font-size="9.00">ch 7</text>
<polygon fill="none" stroke="black" points="204.62,-171 204.62,-190.75 278.38,-190.75 278.38,-171 204.62,-171"/>
<text xml:space="preserve" text-anchor="start" x="232.88" y="-178.25" font-family="Helvetica,sans-Serif" font-size="9.00">ch 8</text>
<polygon fill="none" stroke="black" points="10.38,-151.25 10.38,-171 69.12,-171 69.12,-151.25 10.38,-151.25"/>
<text xml:space="preserve" text-anchor="start" x="15.38" y="-158.5" font-family="Helvetica,sans-Serif" font-size="9.00">U3 (x=&#45;270)</text>
<polygon fill="none" stroke="black" points="69.12,-151.25 69.12,-171 128.62,-171 128.62,-151.25 69.12,-151.25"/>
<text xml:space="preserve" text-anchor="start" x="90.25" y="-158.5" font-family="Helvetica,sans-Serif" font-size="9.00">ch 9</text>
<polygon fill="none" stroke="black" points="128.62,-151.25 128.62,-171 204.62,-171 204.62,-151.25 128.62,-151.25"/>
<text xml:space="preserve" text-anchor="start" x="155.38" y="-158.5" font-family="Helvetica,sans-Serif" font-size="9.00">ch 10</text>
<polygon fill="none" stroke="black" points="204.62,-151.25 204.62,-171 278.38,-171 278.38,-151.25 204.62,-151.25"/>
<text xml:space="preserve" text-anchor="start" x="231" y="-158.5" font-family="Helvetica,sans-Serif" font-size="9.00">ch 11</text>
</g>
<!-- light -->
<g id="node2" class="node">
<title>light</title>
<polygon fill="#fff39a" stroke="black" points="204.19,-401.58 204.19,-419.02 178.52,-431.35 142.23,-431.35 116.56,-419.02 116.56,-401.58 142.23,-389.25 178.52,-389.25 204.19,-401.58"/>
<text xml:space="preserve" text-anchor="middle" x="160.38" y="-411.5" font-family="Helvetica,sans-Serif" font-size="9.00">PointLight</text>
<text xml:space="preserve" text-anchor="middle" x="160.38" y="-401.75" font-family="Helvetica,sans-Serif" font-size="9.00">(C2 state)</text>
</g>
<!-- calc -->
<g id="node3" class="node">
<title>calc</title>
<path fill="#dff0e6" stroke="black" d="M239.62,-352.25C239.62,-352.25 81.12,-352.25 81.12,-352.25 75.12,-352.25 69.12,-346.25 69.12,-340.25 69.12,-340.25 69.12,-328.25 69.12,-328.25 69.12,-322.25 75.12,-316.25 81.12,-316.25 81.12,-316.25 239.62,-316.25 239.62,-316.25 245.62,-316.25 251.62,-322.25 251.62,-328.25 251.62,-328.25 251.62,-340.25 251.62,-340.25 251.62,-346.25 245.62,-352.25 239.62,-352.25"/>
<text xml:space="preserve" text-anchor="middle" x="160.38" y="-335.45" font-family="Helvetica,sans-Serif" font-size="9.00">update_panels(light):</text>
<text xml:space="preserve" text-anchor="middle" x="160.38" y="-325.7" font-family="Helvetica,sans-Serif" font-size="9.00">for each panel &#45;&gt; get_panel_brightness()</text>
</g>
<!-- light&#45;&gt;calc -->
<!-- light&#45;&gt;calc -->
<g id="edge3" class="edge">
<title>light&#45;&gt;calc</title>
<path fill="none" stroke="black" d="M166.47,-389.06C167.12,-381.26 167.29,-372.2 166.96,-363.76"/>
<polygon fill="black" stroke="black" points="170.47,-363.69 166.28,-353.96 163.48,-364.18 170.47,-363.69"/>
</g>
<!-- calc&#45;&gt;grid -->
<!-- frame -->
<g id="node4" class="node">
<title>frame</title>
<polygon fill="#1f3a2a" stroke="none" points="312.62,-205.5 312.62,-223.25 526.12,-223.25 526.12,-205.5 312.62,-205.5"/>
<polygon fill="none" stroke="black" points="312.62,-205.5 312.62,-223.25 526.12,-223.25 526.12,-205.5 312.62,-205.5"/>
<text xml:space="preserve" text-anchor="start" x="361.25" y="-211.7" font-family="Helvetica,sans-Serif" font-weight="bold" font-size="9.00" fill="white">DMX frame (bytearray 512)</text>
<polygon fill="none" stroke="black" points="312.62,-187.75 312.62,-205.5 526.12,-205.5 526.12,-187.75 312.62,-187.75"/>
<text xml:space="preserve" text-anchor="start" x="316.62" y="-194" font-family="Helvetica,sans-Serif" font-size="9.00">bytes 0..11 = the 12 panel values  (13..511 unused)</text>
</g>
<!-- calc&#45;&gt;frame -->
<g id="edge4" class="edge">
<title>calc&#45;&gt;frame</title>
<path fill="none" stroke="black" d="M196.12,-315.76C240.39,-294.09 316.17,-257.01 367,-232.13"/>
<polygon fill="black" stroke="black" points="368.33,-235.38 375.77,-227.84 365.25,-229.09 368.33,-235.38"/>
<text xml:space="preserve" text-anchor="middle" x="300.31" y="-284.95" font-family="Times,serif" font-size="14.00">writes 12 bytes</text>
</g>
<!-- art -->
<g id="node5" class="node">
<title>art</title>
<path fill="#1f2a44" stroke="black" d="M510.25,-110.25C510.25,-110.25 328.5,-110.25 328.5,-110.25 322.5,-110.25 316.5,-104.25 316.5,-98.25 316.5,-98.25 316.5,-85 316.5,-85 316.5,-79 322.5,-73 328.5,-73 328.5,-73 510.25,-73 510.25,-73 516.25,-73 522.25,-79 522.25,-85 522.25,-85 522.25,-98.25 522.25,-98.25 522.25,-104.25 516.25,-110.25 510.25,-110.25"/>
<text xml:space="preserve" text-anchor="middle" x="419.38" y="-97.7" font-family="Helvetica,sans-Serif" font-size="9.00" fill="white">StupidArtnet.set_single_value(i, dmx[i]) &#160;i=0..11</text>
<text xml:space="preserve" text-anchor="middle" x="419.38" y="-87.95" font-family="Helvetica,sans-Serif" font-size="9.00" fill="white">show() &#160;&#45;&gt; &#160;Art&#45;Net/UDP :6454 &#160;universe 0</text>
<text xml:space="preserve" text-anchor="middle" x="419.38" y="-78.2" font-family="Helvetica,sans-Serif" font-size="9.00" fill="white">target 10.42.0.200 &#160;@ 30 fps</text>
</g>
<!-- frame&#45;&gt;art -->
<g id="edge5" class="edge">
<title>frame&#45;&gt;art</title>
<path fill="none" stroke="black" d="M419.38,-183.98C419.38,-166.53 419.38,-141.28 419.38,-121.74"/>
<polygon fill="black" stroke="black" points="422.88,-121.95 419.38,-111.95 415.88,-121.95 422.88,-121.95"/>
</g>
<!-- leds -->
<g id="node6" class="node">
<title>leds</title>
<path fill="#c9d4ff" stroke="black" d="M460.38,-36C460.38,-36 378.38,-36 378.38,-36 372.38,-36 366.38,-30 366.38,-24 366.38,-24 366.38,-12 366.38,-12 366.38,-6 372.38,0 378.38,0 378.38,0 460.38,0 460.38,0 466.38,0 472.38,-6 472.38,-12 472.38,-12 472.38,-24 472.38,-24 472.38,-30 466.38,-36 460.38,-36"/>
<text xml:space="preserve" text-anchor="middle" x="419.38" y="-14.32" font-family="Helvetica,sans-Serif" font-size="9.00">LED panels (physical)</text>
</g>
<!-- art&#45;&gt;leds -->
<g id="edge6" class="edge">
<title>art&#45;&gt;leds</title>
<path fill="none" stroke="black" d="M419.38,-72.55C419.38,-65 419.38,-56.05 419.38,-47.64"/>
<polygon fill="black" stroke="black" points="422.88,-47.84 419.38,-37.84 415.88,-47.84 422.88,-47.84"/>
</g>
</g>
</svg>
