<?xml version="1.0" encoding="utf-8" standalone="no"?>
<!DOCTYPE svg PUBLIC "-//W3C//DTD SVG 1.1//EN"
  "http://www.w3.org/Graphics/SVG/1.1/DTD/svg11.dtd">
<svg xmlns:xlink="http://www.w3.org/1999/xlink" width="743.695514pt" height="435.78291pt" viewBox="0 0 743.695514 435.78291" xmlns="http://www.w3.org/2000/svg" version="1.1">
 <metadata>
  <rdf:RDF xmlns:dc="http://purl.org/dc/elements/1.1/" xmlns:cc="http://creativecommons.org/ns#" xmlns:rdf="http://www.w3.org/1999/02/22-rdf-syntax-ns#">
   <cc:Work>
    <dc:type rdf:resource="http://purl.org/dc/dcmitype/StillImage"/>
    <dc:date>2026-06-06T19:06:14.876119</dc:date>
    <dc:format>image/svg+xml</dc:format>
    <dc:creator>
     <cc:Agent>
      <dc:title>Matplotlib v3.9.4, https://matplotlib.org/</dc:title>
     </cc:Agent>
    </dc:creator>
   </cc:Work>
  </rdf:RDF>
 </metadata>
 <defs>
  <style type="text/css">*{stroke-linejoin: round; stroke-linecap: butt}</style>
 </defs>
 <g id="figure_1">
  <g id="patch_1">
   <path d="M 0 435.78291 
L 743.695514 435.78291 
L 743.695514 0 
L 0 0 
L 0 435.78291 
z
" style="fill: none"/>
  </g>
  <g id="axes_1">
   <g id="line2d_1">
    <defs>
     <path id="ma21d3de3dc" d="M 0 4.5 
C 1.193414 4.5 2.338109 4.025852 3.181981 3.181981 
C 4.025852 2.338109 4.5 1.193414 4.5 0 
C 4.5 -1.193414 4.025852 -2.338109 3.181981 -3.181981 
C 2.338109 -4.025852 1.193414 -4.5 0 -4.5 
C -1.193414 -4.5 -2.338109 -4.025852 -3.181981 -3.181981 
C -4.025852 -2.338109 -4.5 -1.193414 -4.5 0 
C -4.5 1.193414 -4.025852 2.338109 -3.181981 3.181981 
C -2.338109 4.025852 -1.193414 4.5 0 4.5 
z
" style="stroke: #d4d4d4"/>
    </defs>
    <g clip-path="url(#pe5d773629d)">
     <use xlink:href="#ma21d3de3dc" x="70.033907" y="123.039194" style="fill: #d4d4d4; stroke: #d4d4d4"/>
    </g>
   </g>
   <g id="text_1">
    <text style="fill: #555555; font: 8.5px 'DejaVu Sans'; text-anchor: middle" x="70.033907" y="205.803363" transform="rotate(-0 70.033907 205.803363)">12 cm vertical bob</text>
   </g>
   <g id="text_2">
    <text style="fill: #9a9a9a; font: italic 7.5px 'DejaVu Sans'; text-anchor: middle" x="70.033907" y="221.229533" transform="rotate(-0 70.033907 221.229533)">dwell: greet</text>
   </g>
   <g id="text_3">
    <text style="fill: #1a1a1a; font: 700 13px 'DejaVu Sans'; text-anchor: middle" x="70.033907" y="59.232" transform="rotate(-0 70.033907 59.232)">NOD</text>
   </g>
   <g id="patch_2">
    <path d="M 70.033907 156.228874 
Q 70.033907 123.040065 70.033907 92.534537 
" clip-path="url(#pe5d773629d)" style="fill: none; stroke: #e8a23d; stroke-width: 2.4; stroke-linecap: round"/>
    <path d="M 67.233907 98.134537 
L 70.033907 92.534537 
L 72.833907 98.134537 
z
" clip-path="url(#pe5d773629d)" style="fill: #e8a23d; stroke: #e8a23d; stroke-width: 2.4; stroke-linecap: round"/>
   </g>
   <g id="patch_3">
    <path d="M 70.033907 89.849515 
Q 70.033907 123.038324 70.033907 153.543851 
" clip-path="url(#pe5d773629d)" style="fill: none; stroke: #e8a23d; stroke-width: 2.4; stroke-linecap: round"/>
    <path d="M 72.833907 147.943851 
L 70.033907 153.543851 
L 67.233907 147.943851 
z
" clip-path="url(#pe5d773629d)" style="fill: #e8a23d; stroke: #e8a23d; stroke-width: 2.4; stroke-linecap: round"/>
   </g>
   <g id="line2d_2">
    <defs>
     <path id="m9626e868a6" d="M 0 5.5 
C 1.458617 5.5 2.857689 4.920485 3.889087 3.889087 
C 4.920485 2.857689 5.5 1.458617 5.5 0 
C 5.5 -1.458617 4.920485 -2.857689 3.889087 -3.889087 
C 2.857689 -4.920485 1.458617 -5.5 0 -5.5 
C -1.458617 -5.5 -2.857689 -4.920485 -3.889087 -3.889087 
C -4.920485 -2.857689 -5.5 -1.458617 -5.5 0 
C -5.5 1.458617 -4.920485 2.857689 -3.889087 3.889087 
C -2.857689 4.920485 -1.458617 5.5 0 5.5 
z
" style="stroke: #e8a23d"/>
    </defs>
    <g clip-path="url(#pe5d773629d)">
     <use xlink:href="#m9626e868a6" x="70.033907" y="123.039194" style="fill: #e8a23d; stroke: #e8a23d"/>
    </g>
   </g>
  </g>
  <g id="axes_2">
   <g id="line2d_3">
    <g clip-path="url(#p91a0ecb95b)">
     <use xlink:href="#ma21d3de3dc" x="271.24314" y="123.039194" style="fill: #d4d4d4; stroke: #d4d4d4"/>
    </g>
   </g>
   <g id="patch_4">
    <path d="M 271.24314 145.659401 
C 282.574488 145.659401 293.443259 143.275993 301.455732 139.034096 
C 309.468205 134.792198 313.970197 129.038143 313.970197 123.039194 
C 313.970197 117.040245 309.468205 111.28619 301.455732 107.044293 
C 293.443259 102.802395 282.574488 100.418988 271.24314 100.418988 
C 259.911792 100.418988 249.043022 102.802395 241.030549 107.044293 
C 233.018076 111.28619 228.516084 117.040245 228.516084 123.039194 
C 228.516084 129.038143 233.018076 134.792198 241.030549 139.034096 
C 249.043022 143.275993 259.911792 145.659401 271.24314 145.659401 
z
" clip-path="url(#p91a0ecb95b)" style="fill: #e8a23d; opacity: 0.18"/>
   </g>
   <g id="text_4">
    <text style="fill: #555555; font: 8.5px 'DejaVu Sans'; text-anchor: middle" x="271.24314" y="205.803363" transform="rotate(-0 271.24314 205.803363)">15 cm forward + stretch</text>
   </g>
   <g id="text_5">
    <text style="fill: #9a9a9a; font: italic 7.5px 'DejaVu Sans'; text-anchor: middle" x="271.24314" y="221.229533" transform="rotate(-0 271.24314 221.229533)">dwell: greet</text>
   </g>
   <g id="text_6">
    <text style="fill: #1a1a1a; font: 700 13px 'DejaVu Sans'; text-anchor: middle" x="271.24314" y="59.232" transform="rotate(-0 271.24314 59.232)">LEAN</text>
   </g>
   <g id="patch_5">
    <path d="M 245.28028 139.561014 
Q 271.242609 123.039532 294.941156 107.958639 
" clip-path="url(#p91a0ecb95b)" style="fill: none; stroke: #e8a23d; stroke-width: 2.4; stroke-linecap: round"/>
    <path d="M 288.7134 108.602889 
L 294.941156 107.958639 
L 291.719903 113.327394 
z
" clip-path="url(#p91a0ecb95b)" style="fill: #e8a23d; stroke: #e8a23d; stroke-width: 2.4; stroke-linecap: round"/>
   </g>
   <g id="line2d_4">
    <g clip-path="url(#p91a0ecb95b)">
     <use xlink:href="#m9626e868a6" x="298.890059" y="105.4457" style="fill: #e8a23d; stroke: #e8a23d"/>
    </g>
   </g>
  </g>
  <g id="axes_3">
   <g id="line2d_5">
    <g clip-path="url(#p8cd97d9ec8)">
     <use xlink:href="#ma21d3de3dc" x="472.452374" y="123.039194" style="fill: #d4d4d4; stroke: #d4d4d4"/>
    </g>
   </g>
   <g id="patch_6">
    <path d="M 472.452374 140.632688 
C 485.783371 140.632688 498.57016 138.778927 507.996599 135.479673 
C 517.423038 132.18042 522.719499 127.705043 522.719499 123.039194 
C 522.719499 118.373345 517.423038 113.897969 507.996599 110.598715 
C 498.57016 107.299462 485.783371 105.4457 472.452374 105.4457 
C 459.121376 105.4457 446.334587 107.299462 436.908148 110.598715 
C 427.48171 113.897969 422.185248 118.373345 422.185248 123.039194 
C 422.185248 127.705043 427.48171 132.18042 436.908148 135.479673 
C 446.334587 138.778927 459.121376 140.632688 472.452374 140.632688 
z
" clip-path="url(#p8cd97d9ec8)" style="fill: #e8a23d; opacity: 0.16"/>
   </g>
   <g id="line2d_6">
    <path d="M 472.452374 132.087277 
L 470.197439 132.074668 
L 467.948788 132.036875 
L 465.71269 131.974004 
L 463.495377 131.88623 
L 461.303028 131.773798 
L 459.141755 131.637021 
L 457.017581 131.47628 
L 454.936426 131.292024 
L 452.904091 131.084765 
L 450.926241 130.855082 
L 449.008388 130.603615 
L 447.155878 130.331064 
L 445.373874 130.03819 
L 443.667342 129.725808 
L 442.041039 129.394789 
L 440.499498 129.046056 
L 439.047016 128.680581 
L 437.68764 128.299383 
L 436.42516 127.903523 
L 435.263094 127.494106 
L 434.204681 127.072272 
L 433.252872 126.639197 
L 432.410318 126.196088 
L 431.679369 125.74418 
L 431.062062 125.284733 
L 430.560116 124.819028 
L 430.174932 124.348361 
L 429.907583 123.874046 
L 429.758814 123.397404 
L 429.729039 122.919763 
L 429.818342 122.442456 
L 430.026474 121.966811 
L 430.352854 121.494156 
L 430.796574 121.025806 
L 431.356395 120.563069 
L 432.030758 120.107233 
L 432.817784 119.659569 
L 433.715278 119.221324 
L 434.72074 118.79372 
L 435.831366 118.37795 
L 437.044062 117.975171 
L 438.355446 117.586506 
L 439.761866 117.213039 
L 441.259399 116.855811 
L 442.843873 116.515817 
L 444.510871 116.194004 
L 446.255747 115.891271 
L 448.073638 115.60846 
L 449.959477 115.346359 
L 451.908007 115.1057 
L 453.913799 114.887154 
L 455.97126 114.691328 
L 458.074658 114.518769 
L 460.218128 114.369958 
L 462.395698 114.24531 
L 464.601298 114.145172 
L 466.82878 114.069824 
L 469.071935 114.019474 
L 471.324513 113.994265 
L 473.580234 113.994265 
L 475.832812 114.019474 
L 478.075968 114.069824 
L 480.30345 114.145172 
L 482.509049 114.24531 
L 484.686619 114.369958 
L 486.83009 114.518769 
L 488.933487 114.691328 
L 490.990949 114.887154 
L 492.99674 115.1057 
L 494.945271 115.346359 
L 496.831109 115.60846 
L 498.649 115.891271 
L 500.393876 116.194004 
L 502.060874 116.515817 
L 503.645348 116.855811 
L 505.142882 117.213039 
L 506.549301 117.586506 
L 507.860686 117.975171 
L 509.073382 118.37795 
L 510.184008 118.79372 
L 511.189469 119.221324 
L 512.086964 119.659569 
L 512.873989 120.107233 
L 513.548352 120.563069 
L 514.108174 121.025806 
L 514.551893 121.494156 
L 514.878273 121.966811 
L 515.086405 122.442456 
L 515.175708 122.919763 
L 515.145933 123.397404 
L 514.997164 123.874046 
L 514.729815 124.348361 
L 514.344631 124.819028 
L 513.842686 125.284733 
L 513.225379 125.74418 
L 512.494429 126.196088 
L 511.651876 126.639197 
L 510.700066 127.072272 
L 509.641654 127.494106 
L 508.479588 127.903523 
L 507.217108 128.299383 
L 505.857732 128.680581 
L 504.405249 129.046056 
L 502.863708 129.394789 
L 501.237406 129.725808 
L 499.530874 130.03819 
L 497.748869 130.331064 
L 495.896359 130.603615 
L 493.978506 130.855082 
L 492.000656 131.084765 
L 489.968322 131.292024 
L 487.887167 131.47628 
L 485.762993 131.637021 
L 483.601719 131.773798 
L 481.409371 131.88623 
L 479.192057 131.974004 
L 476.955959 132.036875 
L 474.707309 132.074668 
L 472.452374 132.087277 
" clip-path="url(#p8cd97d9ec8)" style="fill: none; stroke: #e8a23d; stroke-opacity: 0.5; stroke-width: 1.2; stroke-linecap: square"/>
   </g>
   <g id="text_7">
    <text style="fill: #555555; font: 8.5px 'DejaVu Sans'; text-anchor: middle" x="472.452374" y="205.803363" transform="rotate(-0 472.452374 205.803363)">18 cm lateral oscillation</text>
   </g>
   <g id="text_8">
    <text style="fill: #9a9a9a; font: italic 7.5px 'DejaVu Sans'; text-anchor: middle" x="472.452374" y="221.229533" transform="rotate(-0 472.452374 221.229533)">dwell: engage</text>
   </g>
   <g id="text_9">
    <text style="fill: #1a1a1a; font: 700 13px 'DejaVu Sans'; text-anchor: middle" x="472.452374" y="59.232" transform="rotate(-0 472.452374 59.232)">SWAY</text>
   </g>
   <g id="patch_7">
    <path d="M 431.72554 123.039194 
Q 472.452862 123.039194 510.496902 123.039194 
" clip-path="url(#p8cd97d9ec8)" style="fill: none; stroke: #e8a23d; stroke-width: 2.4; stroke-linecap: round"/>
    <path d="M 504.896902 120.239194 
L 510.496902 123.039194 
L 504.896902 125.839194 
z
" clip-path="url(#p8cd97d9ec8)" style="fill: #e8a23d; stroke: #e8a23d; stroke-width: 2.4; stroke-linecap: round"/>
   </g>
   <g id="line2d_7">
    <g clip-path="url(#p8cd97d9ec8)">
     <use xlink:href="#m9626e868a6" x="515.17943" y="123.039194" style="fill: #e8a23d; stroke: #e8a23d"/>
    </g>
   </g>
  </g>
  <g id="axes_4">
   <g id="line2d_8">
    <g clip-path="url(#pb01bf15e40)">
     <use xlink:href="#ma21d3de3dc" x="673.661607" y="123.039194" style="fill: #d4d4d4; stroke: #d4d4d4"/>
    </g>
   </g>
   <g id="text_10">
    <text style="fill: #555555; font: 8.5px 'DejaVu Sans'; text-anchor: middle" x="673.661607" y="205.803363" transform="rotate(-0 673.661607 205.803363)">15/8 cm circle + rotate</text>
   </g>
   <g id="text_11">
    <text style="fill: #9a9a9a; font: italic 7.5px 'DejaVu Sans'; text-anchor: middle" x="673.661607" y="221.229533" transform="rotate(-0 673.661607 221.229533)">dwell: engage</text>
   </g>
   <g id="text_12">
    <text style="fill: #1a1a1a; font: 700 13px 'DejaVu Sans'; text-anchor: middle" x="673.661607" y="59.232" transform="rotate(-0 673.661607 59.232)">ORBIT</text>
   </g>
   <g id="line2d_9">
    <path d="M 708.848595 123.039194 
L 708.787977 121.417072 
L 708.606333 119.800538 
L 708.304287 118.195163 
L 707.882882 116.606478 
L 707.343568 115.039957 
L 706.688204 113.500997 
L 705.919048 111.9949 
L 705.03875 110.526857 
L 704.050343 109.101924 
L 702.957233 107.725011 
L 701.763185 106.400863 
L 700.472315 105.134042 
L 699.089069 103.928912 
L 697.618214 102.789626 
L 696.064817 101.72011 
L 694.43423 100.724047 
L 692.732072 99.804871 
L 690.964208 98.965748 
L 689.136728 98.209569 
L 687.255928 97.53894 
L 685.328291 96.956171 
L 683.360456 96.46327 
L 681.359203 96.061936 
L 679.331429 95.753551 
L 677.28412 95.539177 
L 675.22433 95.419554 
L 673.159155 95.395094 
L 671.095712 95.465881 
L 669.041109 95.63167 
L 667.002426 95.891891 
L 664.986687 96.245647 
L 663.000837 96.69172 
L 661.051719 97.228572 
L 659.146047 97.854353 
L 657.290388 98.566908 
L 655.491136 99.363782 
L 653.75449 100.242228 
L 652.086432 101.199221 
L 650.492712 102.231462 
L 648.978819 103.335396 
L 647.54997 104.507219 
L 646.211087 105.742893 
L 644.966785 107.03816 
L 643.821349 108.388559 
L 642.778727 109.789436 
L 641.842511 111.235965 
L 641.015927 112.723161 
L 640.301822 114.245901 
L 639.702658 115.798938 
L 639.220497 117.376921 
L 638.857003 118.974413 
L 638.613427 120.58591 
L 638.490607 122.20586 
L 638.488969 123.828681 
L 638.608517 125.448782 
L 638.848838 127.060581 
L 639.209107 128.658524 
L 639.68808 130.237106 
L 640.284107 131.790888 
L 640.995136 133.314516 
L 641.818716 134.802741 
L 642.75201 136.250435 
L 643.791801 137.65261 
L 644.934509 139.004435 
L 646.176194 140.301252 
L 647.512579 141.538594 
L 648.93906 142.712196 
L 650.450722 143.818016 
L 652.042356 144.852243 
L 653.708479 145.811314 
L 655.443349 146.691924 
L 657.24099 147.49104 
L 659.095207 148.205907 
L 660.999613 148.834064 
L 662.947645 149.373345 
L 664.932591 149.821893 
L 666.947613 150.178161 
L 668.985768 150.440924 
L 671.040034 150.609274 
L 673.103332 150.682633 
L 675.168553 150.660748 
L 677.228583 150.543693 
L 679.276322 150.331872 
L 681.304716 150.026015 
L 683.306776 149.627176 
L 685.275604 149.136729 
L 687.204416 148.556364 
L 689.086567 147.88808 
L 690.915572 147.134181 
L 692.685129 146.297263 
L 694.389141 145.380209 
L 696.021737 144.386181 
L 697.577292 143.318602 
L 699.050446 142.181152 
L 700.436124 140.977748 
L 701.729551 139.712538 
L 702.92627 138.38988 
L 704.02216 137.014332 
L 705.013443 135.590633 
" clip-path="url(#pb01bf15e40)" style="fill: none; stroke: #e8a23d; stroke-width: 2.4; stroke-linecap: square"/>
   </g>
   <g id="patch_8">
    <path d="M 695.815737 144.052092 
Q 699.679178 140.497907 701.567862 138.760406 
" clip-path="url(#pb01bf15e40)" style="fill: none; stroke: #e8a23d; stroke-width: 2.4; stroke-linecap: round"/>
    <path d="M 695.550846 140.491163 
L 701.567862 138.760406 
L 699.342259 144.612473 
z
" clip-path="url(#pb01bf15e40)" style="fill: #e8a23d; stroke: #e8a23d; stroke-width: 2.4; stroke-linecap: round"/>
   </g>
   <g id="line2d_10">
    <defs>
     <path id="mc01ee87a32" d="M 0 5 
C 1.326016 5 2.597899 4.473168 3.535534 3.535534 
C 4.473168 2.597899 5 1.326016 5 0 
C 5 -1.326016 4.473168 -2.597899 3.535534 -3.535534 
C 2.597899 -4.473168 1.326016 -5 0 -5 
C -1.326016 -5 -2.597899 -4.473168 -3.535534 -3.535534 
C -4.473168 -2.597899 -5 -1.326016 -5 0 
C -5 1.326016 -4.473168 2.597899 -3.535534 3.535534 
C -2.597899 4.473168 -1.326016 5 0 5 
z
" style="stroke: #e8a23d"/>
    </defs>
    <g clip-path="url(#pb01bf15e40)">
     <use xlink:href="#mc01ee87a32" x="708.848595" y="123.039194" style="fill: #e8a23d; stroke: #e8a23d"/>
    </g>
   </g>
  </g>
  <g id="axes_5">
   <g id="line2d_11">
    <g clip-path="url(#p8e6927f215)">
     <use xlink:href="#ma21d3de3dc" x="70.033907" y="328.832806" style="fill: #d4d4d4; stroke: #d4d4d4"/>
    </g>
   </g>
   <g id="text_13">
    <text style="fill: #555555; font: 8.5px 'DejaVu Sans'; text-anchor: middle" x="70.033907" y="411.596974" transform="rotate(-0 70.033907 411.596974)">draw in, tighten beam</text>
   </g>
   <g id="text_14">
    <text style="fill: #9a9a9a; font: italic 7.5px 'DejaVu Sans'; text-anchor: middle" x="70.033907" y="427.023145" transform="rotate(-0 70.033907 427.023145)">dwell: bond</text>
   </g>
   <g id="text_15">
    <text style="fill: #1a1a1a; font: 700 13px 'DejaVu Sans'; text-anchor: middle" x="70.033907" y="265.025612" transform="rotate(-0 70.033907 265.025612)">SETTLE</text>
   </g>
   <g id="patch_9">
    <path d="M 70.033907 379.099931 
C 83.364904 379.099931 96.151693 373.80347 105.578132 364.377031 
C 115.004571 354.950592 120.301032 342.163803 120.301032 328.832806 
C 120.301032 315.501808 115.004571 302.715019 105.578132 293.28858 
C 96.151693 283.862142 83.364904 278.56568 70.033907 278.56568 
C 56.702909 278.56568 43.91612 283.862142 34.489682 293.28858 
C 25.063243 302.715019 19.766781 315.501808 19.766781 328.832806 
C 19.766781 342.163803 25.063243 354.950592 34.489682 364.377031 
C 43.91612 373.80347 56.702909 379.099931 70.033907 379.099931 
L 70.033907 379.099931 
z
" clip-path="url(#p8e6927f215)" style="fill: none; opacity: 0.25; stroke: #e8a23d; stroke-width: 2; stroke-linejoin: miter"/>
   </g>
   <g id="patch_10">
    <path d="M 70.033907 362.009109 
C 78.832365 362.009109 87.271646 358.513444 93.493095 352.291994 
C 99.714545 346.070545 103.21021 337.631264 103.21021 328.832806 
C 103.21021 320.034347 99.714545 311.595067 93.493095 305.373617 
C 87.271646 299.152168 78.832365 295.656503 70.033907 295.656503 
C 61.235448 295.656503 52.796168 299.152168 46.574718 305.373617 
C 40.353269 311.595067 36.857604 320.034347 36.857604 328.832806 
C 36.857604 337.631264 40.353269 346.070545 46.574718 352.291994 
C 52.796168 358.513444 61.235448 362.009109 70.033907 362.009109 
L 70.033907 362.009109 
z
" clip-path="url(#p8e6927f215)" style="fill: none; opacity: 0.45; stroke: #e8a23d; stroke-width: 2; stroke-linejoin: miter"/>
   </g>
   <g id="patch_11">
    <path d="M 70.033907 345.923628 
C 74.566446 345.923628 78.913954 344.122832 82.118943 340.917842 
C 85.323933 337.712853 87.124729 333.365345 87.124729 328.832806 
C 87.124729 324.300267 85.323933 319.952758 82.118943 316.747769 
C 78.913954 313.54278 74.566446 311.741983 70.033907 311.741983 
C 65.501368 311.741983 61.153859 313.54278 57.94887 316.747769 
C 54.743881 319.952758 52.943084 324.300267 52.943084 328.832806 
C 52.943084 333.365345 54.743881 337.712853 57.94887 340.917842 
C 61.153859 344.122832 65.501368 345.923628 70.033907 345.923628 
L 70.033907 345.923628 
z
" clip-path="url(#p8e6927f215)" style="fill: none; opacity: 0.8; stroke: #e8a23d; stroke-width: 2; stroke-linejoin: miter"/>
   </g>
   <g id="patch_12">
    <path d="M 100.609577 298.257136 
Q 93.493701 305.373011 88.275192 310.591521 
" clip-path="url(#p8e6927f215)" style="fill: none; stroke: #e8a23d; stroke-width: 2.4; stroke-linecap: round"/>
    <path d="M 94.214889 308.611622 
L 88.275192 310.591521 
L 90.255091 304.651824 
z
" clip-path="url(#p8e6927f215)" style="fill: #e8a23d; stroke: #e8a23d; stroke-width: 2.4; stroke-linecap: round"/>
   </g>
   <g id="patch_13">
    <path d="M 39.458237 298.257136 
Q 46.574112 305.373011 51.792622 310.591521 
" clip-path="url(#p8e6927f215)" style="fill: none; stroke: #e8a23d; stroke-width: 2.4; stroke-linecap: round"/>
    <path d="M 49.812723 304.651824 
L 51.792622 310.591521 
L 45.852925 308.611622 
z
" clip-path="url(#p8e6927f215)" style="fill: #e8a23d; stroke: #e8a23d; stroke-width: 2.4; stroke-linecap: round"/>
   </g>
   <g id="patch_14">
    <path d="M 39.458237 359.408476 
Q 46.574112 352.2926 51.792622 347.074091 
" clip-path="url(#p8e6927f215)" style="fill: none; stroke: #e8a23d; stroke-width: 2.4; stroke-linecap: round"/>
    <path d="M 45.852925 349.05399 
L 51.792622 347.074091 
L 49.812723 353.013788 
z
" clip-path="url(#p8e6927f215)" style="fill: #e8a23d; stroke: #e8a23d; stroke-width: 2.4; stroke-linecap: round"/>
   </g>
   <g id="patch_15">
    <path d="M 100.609577 359.408476 
Q 93.493701 352.2926 88.275192 347.074091 
" clip-path="url(#p8e6927f215)" style="fill: none; stroke: #e8a23d; stroke-width: 2.4; stroke-linecap: round"/>
    <path d="M 90.255091 353.013788 
L 88.275192 347.074091 
L 94.214889 349.05399 
z
" clip-path="url(#p8e6927f215)" style="fill: #e8a23d; stroke: #e8a23d; stroke-width: 2.4; stroke-linecap: round"/>
   </g>
   <g id="line2d_12">
    <defs>
     <path id="mb58b5bef61" d="M 0 6 
C 1.591219 6 3.117479 5.367802 4.242641 4.242641 
C 5.367802 3.117479 6 1.591219 6 0 
C 6 -1.591219 5.367802 -3.117479 4.242641 -4.242641 
C 3.117479 -5.367802 1.591219 -6 0 -6 
C -1.591219 -6 -3.117479 -5.367802 -4.242641 -4.242641 
C -5.367802 -3.117479 -6 -1.591219 -6 0 
C -6 1.591219 -5.367802 3.117479 -4.242641 4.242641 
C -3.117479 5.367802 -1.591219 6 0 6 
z
" style="stroke: #e8a23d"/>
    </defs>
    <g clip-path="url(#p8e6927f215)">
     <use xlink:href="#mb58b5bef61" x="70.033907" y="328.832806" style="fill: #e8a23d; stroke: #e8a23d"/>
    </g>
   </g>
  </g>
  <g id="axes_6">
   <g id="line2d_13">
    <g clip-path="url(#p822cd5214d)">
     <use xlink:href="#ma21d3de3dc" x="271.24314" y="328.832806" style="fill: #d4d4d4; stroke: #d4d4d4"/>
    </g>
   </g>
   <g id="text_16">
    <text style="fill: #555555; font: 8.5px 'DejaVu Sans'; text-anchor: middle" x="271.24314" y="411.596974" transform="rotate(-0 271.24314 411.596974)">brightness +/-12%, radius</text>
   </g>
   <g id="text_17">
    <text style="fill: #9a9a9a; font: italic 7.5px 'DejaVu Sans'; text-anchor: middle" x="271.24314" y="427.023145" transform="rotate(-0 271.24314 427.023145)">dwell: all</text>
   </g>
   <g id="text_18">
    <text style="fill: #1a1a1a; font: 700 13px 'DejaVu Sans'; text-anchor: middle" x="271.24314" y="265.025612" transform="rotate(-0 271.24314 265.025612)">BREATHE</text>
   </g>
   <g id="patch_16">
    <path d="M 271.24314 381.613287 
C 285.240688 381.613287 298.666816 376.052003 308.564577 366.154242 
C 318.462337 356.256482 324.023622 342.830353 324.023622 328.832806 
C 324.023622 314.835258 318.462337 301.40913 308.564577 291.511369 
C 298.666816 281.613609 285.240688 276.052324 271.24314 276.052324 
C 257.245593 276.052324 243.819464 281.613609 233.921704 291.511369 
C 224.023943 301.40913 218.462659 314.835258 218.462659 328.832806 
C 218.462659 342.830353 224.023943 356.256482 233.921704 366.154242 
C 243.819464 376.052003 257.245593 381.613287 271.24314 381.613287 
L 271.24314 381.613287 
z
" clip-path="url(#p822cd5214d)" style="fill: none; opacity: 0.2; stroke: #e8a23d; stroke-width: 2; stroke-linejoin: miter"/>
   </g>
   <g id="patch_17">
    <path d="M 271.24314 368.041164 
C 281.641318 368.041164 291.615014 363.909924 298.967636 356.557301 
C 306.320258 349.204679 310.451498 339.230984 310.451498 328.832806 
C 310.451498 318.434628 306.320258 308.460932 298.967636 301.10831 
C 291.615014 293.755688 281.641318 289.624448 271.24314 289.624448 
C 260.844962 289.624448 250.871267 293.755688 243.518645 301.10831 
C 236.166022 308.460932 232.034782 318.434628 232.034782 328.832806 
C 232.034782 339.230984 236.166022 349.204679 243.518645 356.557301 
C 250.871267 363.909924 260.844962 368.041164 271.24314 368.041164 
L 271.24314 368.041164 
z
" clip-path="url(#p822cd5214d)" style="fill: none; opacity: 0.4; stroke: #e8a23d; stroke-width: 2; stroke-linejoin: miter"/>
   </g>
   <g id="patch_18">
    <path d="M 271.24314 353.966368 
C 277.908639 353.966368 284.302034 351.318138 289.015253 346.604918 
C 293.728472 341.891699 296.376703 335.498305 296.376703 328.832806 
C 296.376703 322.167307 293.728472 315.773912 289.015253 311.060693 
C 284.302034 306.347474 277.908639 303.699243 271.24314 303.699243 
C 264.577642 303.699243 258.184247 306.347474 253.471028 311.060693 
C 248.757808 315.773912 246.109578 322.167307 246.109578 328.832806 
C 246.109578 335.498305 248.757808 341.891699 253.471028 346.604918 
C 258.184247 351.318138 264.577642 353.966368 271.24314 353.966368 
L 271.24314 353.966368 
z
" clip-path="url(#p822cd5214d)" style="fill: none; opacity: 0.7; stroke: #e8a23d; stroke-width: 2; stroke-linejoin: miter"/>
   </g>
   <g id="line2d_14">
    <g clip-path="url(#p822cd5214d)">
     <use xlink:href="#mb58b5bef61" x="271.24314" y="328.832806" style="fill: #e8a23d; stroke: #e8a23d"/>
    </g>
   </g>
  </g>
  <g id="axes_7">
   <g id="line2d_15">
    <g clip-path="url(#p85cbda0c94)">
     <use xlink:href="#ma21d3de3dc" x="472.452374" y="328.832806" style="fill: #d4d4d4; stroke: #d4d4d4"/>
    </g>
   </g>
   <g id="patch_19">
    <path d="M 472.452374 343.912943 
C 487.783021 343.912943 502.487828 342.324005 513.328233 339.496073 
C 524.168637 336.668142 530.259568 332.832105 530.259568 328.832806 
C 530.259568 324.833507 524.168637 320.99747 513.328233 318.169538 
C 502.487828 315.341607 487.783021 313.752668 472.452374 313.752668 
C 457.121727 313.752668 442.416919 315.341607 431.576515 318.169538 
C 420.73611 320.99747 414.64518 324.833507 414.64518 328.832806 
C 414.64518 332.832105 420.73611 336.668142 431.576515 339.496073 
C 442.416919 342.324005 457.121727 343.912943 472.452374 343.912943 
z
" clip-path="url(#p85cbda0c94)" style="fill: #e8a23d; opacity: 0.16"/>
   </g>
   <g id="line2d_16">
    <path d="M 422.185248 328.832806 
L 423.889219 327.894756 
L 425.593189 326.989052 
L 427.297159 326.115695 
L 429.00113 325.274685 
L 430.7051 324.466021 
L 432.40907 323.689703 
L 434.113041 322.945733 
L 435.817011 322.234108 
L 437.520981 321.554831 
L 439.224952 320.9079 
L 440.928922 320.293315 
L 442.632893 319.711077 
L 444.336863 319.161186 
L 446.040833 318.643641 
L 447.744804 318.158442 
L 449.448774 317.705591 
L 451.152744 317.285085 
L 452.856715 316.896927 
L 454.560685 316.541115 
L 456.264655 316.217649 
L 457.968626 315.92653 
L 459.672596 315.667758 
L 461.376566 315.441332 
L 463.080537 315.247252 
L 464.784507 315.08552 
L 466.488478 314.956133 
L 468.192448 314.859094 
L 469.896418 314.794401 
L 471.600389 314.762054 
L 473.304359 314.762054 
L 475.008329 314.794401 
L 476.7123 314.859094 
L 478.41627 314.956133 
L 480.12024 315.08552 
L 481.824211 315.247252 
L 483.528181 315.441332 
L 485.232151 315.667758 
L 486.936122 315.92653 
L 488.640092 316.217649 
L 490.344062 316.541115 
L 492.048033 316.896927 
L 493.752003 317.285085 
L 495.455974 317.705591 
L 497.159944 318.158442 
L 498.863914 318.643641 
L 500.567885 319.161186 
L 502.271855 319.711077 
L 503.975825 320.293315 
L 505.679796 320.9079 
L 507.383766 321.554831 
L 509.087736 322.234108 
L 510.791707 322.945733 
L 512.495677 323.689703 
L 514.199647 324.466021 
L 515.903618 325.274685 
L 517.607588 326.115695 
L 519.311558 326.989052 
L 521.015529 327.894756 
L 522.719499 328.832806 
" clip-path="url(#p85cbda0c94)" style="fill: none; stroke: #e8a23d; stroke-opacity: 0.5; stroke-linecap: square"/>
   </g>
   <g id="text_19">
    <text style="fill: #555555; font: 8.5px 'DejaVu Sans'; text-anchor: middle" x="472.452374" y="411.596974" transform="rotate(-0 472.452374 411.596974)">25 cm wide scan + stretch</text>
   </g>
   <g id="text_20">
    <text style="fill: #9a9a9a; font: italic 7.5px 'DejaVu Sans'; text-anchor: middle" x="472.452374" y="427.023145" transform="rotate(-0 472.452374 427.023145)">dwell: engage</text>
   </g>
   <g id="text_21">
    <text style="fill: #1a1a1a; font: 700 13px 'DejaVu Sans'; text-anchor: middle" x="472.452374" y="265.025612" transform="rotate(-0 472.452374 265.025612)">SWEEP</text>
   </g>
   <g id="patch_20">
    <path d="M 424.182557 328.832806 
Q 472.451164 328.832806 518.03649 328.832806 
" clip-path="url(#p85cbda0c94)" style="fill: none; stroke: #e8a23d; stroke-width: 2.4; stroke-linecap: round"/>
    <path d="M 512.43649 326.032806 
L 518.03649 328.832806 
L 512.43649 331.632806 
z
" clip-path="url(#p85cbda0c94)" style="fill: #e8a23d; stroke: #e8a23d; stroke-width: 2.4; stroke-linecap: round"/>
   </g>
   <g id="line2d_17">
    <g clip-path="url(#p85cbda0c94)">
     <use xlink:href="#m9626e868a6" x="522.719499" y="328.832806" style="fill: #e8a23d; stroke: #e8a23d"/>
    </g>
   </g>
  </g>
  <g id="axes_8">
   <g id="line2d_18">
    <g clip-path="url(#peb2b18b39f)">
     <use xlink:href="#ma21d3de3dc" x="673.661607" y="328.832806" style="fill: #d4d4d4; stroke: #d4d4d4"/>
    </g>
   </g>
   <g id="patch_21">
    <path d="M 673.661607 374.073219 
C 685.659505 374.073219 697.167615 369.306403 705.65141 360.822608 
C 714.135205 352.338814 718.90202 340.830703 718.90202 328.832806 
C 718.90202 316.834908 714.135205 305.326798 705.65141 296.843003 
C 697.167615 288.359208 685.659505 283.592393 673.661607 283.592393 
C 661.663709 283.592393 650.155599 288.359208 641.671804 296.843003 
C 633.18801 305.326798 628.421194 316.834908 628.421194 328.832806 
C 628.421194 340.830703 633.18801 352.338814 641.671804 360.822608 
C 650.155599 369.306403 661.663709 374.073219 673.661607 374.073219 
L 673.661607 374.073219 
z
" clip-path="url(#peb2b18b39f)" style="fill: none; stroke-dasharray: 4.8,4.8; stroke-dashoffset: 0; stroke: #d4d4d4; stroke-width: 1.6; stroke-linejoin: miter"/>
   </g>
   <g id="text_22">
    <text style="fill: #555555; font: 8.5px 'DejaVu Sans'; text-anchor: middle" x="673.661607" y="411.596974" transform="rotate(-0 673.661607 411.596974)">narrow beam, +brightness</text>
   </g>
   <g id="text_23">
    <text style="fill: #9a9a9a; font: italic 7.5px 'DejaVu Sans'; text-anchor: middle" x="673.661607" y="427.023145" transform="rotate(-0 673.661607 427.023145)">dwell: bond</text>
   </g>
   <g id="text_24">
    <text style="fill: #1a1a1a; font: 700 13px 'DejaVu Sans'; text-anchor: middle" x="673.661607" y="265.025612" transform="rotate(-0 673.661607 265.025612)">FOCUS</text>
   </g>
   <g id="patch_22">
    <path d="M 714.387367 328.832806 
Q 702.564773 328.832806 693.42546 328.832806 
" clip-path="url(#peb2b18b39f)" style="fill: none; stroke: #e8a23d; stroke-width: 2.4; stroke-linecap: round"/>
    <path d="M 699.02546 331.632806 
L 693.42546 328.832806 
L 699.02546 326.032806 
z
" clip-path="url(#peb2b18b39f)" style="fill: #e8a23d; stroke: #e8a23d; stroke-width: 2.4; stroke-linecap: round"/>
   </g>
   <g id="patch_23">
    <path d="M 673.661607 288.107046 
Q 673.661607 299.92964 673.661607 309.068953 
" clip-path="url(#peb2b18b39f)" style="fill: none; stroke: #e8a23d; stroke-width: 2.4; stroke-linecap: round"/>
    <path d="M 676.461607 303.468953 
L 673.661607 309.068953 
L 670.861607 303.468953 
z
" clip-path="url(#peb2b18b39f)" style="fill: #e8a23d; stroke: #e8a23d; stroke-width: 2.4; stroke-linecap: round"/>
   </g>
   <g id="patch_24">
    <path d="M 632.935847 328.832806 
Q 644.758442 328.832806 653.897754 328.832806 
" clip-path="url(#peb2b18b39f)" style="fill: none; stroke: #e8a23d; stroke-width: 2.4; stroke-linecap: round"/>
    <path d="M 648.297754 326.032806 
L 653.897754 328.832806 
L 648.297754 331.632806 
z
" clip-path="url(#peb2b18b39f)" style="fill: #e8a23d; stroke: #e8a23d; stroke-width: 2.4; stroke-linecap: round"/>
   </g>
   <g id="patch_25">
    <path d="M 673.661607 369.558566 
Q 673.661607 357.735971 673.661607 348.596659 
" clip-path="url(#peb2b18b39f)" style="fill: none; stroke: #e8a23d; stroke-width: 2.4; stroke-linecap: round"/>
    <path d="M 670.861607 354.196659 
L 673.661607 348.596659 
L 676.461607 354.196659 
z
" clip-path="url(#peb2b18b39f)" style="fill: #e8a23d; stroke: #e8a23d; stroke-width: 2.4; stroke-linecap: round"/>
   </g>
   <g id="patch_26">
    <path d="M 673.661607 338.886231 
C 676.327807 338.886231 678.885165 337.826939 680.770452 335.941651 
C 682.65574 334.056363 683.715032 331.499005 683.715032 328.832806 
C 683.715032 326.166606 682.65574 323.609248 680.770452 321.723961 
C 678.885165 319.838673 676.327807 318.779381 673.661607 318.779381 
C 670.995408 318.779381 668.43805 319.838673 666.552762 321.723961 
C 664.667474 323.609248 663.608182 326.166606 663.608182 328.832806 
C 663.608182 331.499005 664.667474 334.056363 666.552762 335.941651 
C 668.43805 337.826939 670.995408 338.886231 673.661607 338.886231 
z
" clip-path="url(#peb2b18b39f)" style="fill: #e8a23d"/>
   </g>
   <g id="line2d_19">
    <defs>
     <path id="m45f75df2c2" d="M 0 3 
C 0.795609 3 1.55874 2.683901 2.12132 2.12132 
C 2.683901 1.55874 3 0.795609 3 0 
C 3 -0.795609 2.683901 -1.55874 2.12132 -2.12132 
C 1.55874 -2.683901 0.795609 -3 0 -3 
C -0.795609 -3 -1.55874 -2.683901 -2.12132 -2.12132 
C -2.683901 -1.55874 -3 -0.795609 -3 0 
C -3 0.795609 -2.683901 1.55874 -2.12132 2.12132 
C -1.55874 2.683901 -0.795609 3 0 3 
z
" style="stroke: #fff4e0"/>
    </defs>
    <g clip-path="url(#peb2b18b39f)">
     <use xlink:href="#m45f75df2c2" x="673.661607" y="328.832806" style="fill: #fff4e0; stroke: #fff4e0"/>
    </g>
   </g>
  </g>
  <g id="text_25">
   <text style="fill: #1a1a1a; font: 700 15px 'DejaVu Sans'; text-anchor: middle" x="371.847757" y="18.597656" transform="rotate(-0 371.847757 18.597656)">E1  Gesture vocabulary of the luminous body</text>
  </g>
  <g id="text_26">
   <text style="fill: #555555; font: 9.5px 'DejaVu Sans'; text-anchor: middle" x="371.847757" y="36.216" transform="rotate(-0 371.847757 36.216)">eight ongoing gestures layered on the light while a person is present; the grey dot marks rest, the warm mark the moving body</text>
  </g>
 </g>
 <defs>
  <clipPath id="pe5d773629d">
   <rect x="7.2" y="65.232" width="125.667814" height="115.614388"/>
  </clipPath>
  <clipPath id="p91a0ecb95b">
   <rect x="208.409233" y="65.232" width="125.667814" height="115.614388"/>
  </clipPath>
  <clipPath id="p8cd97d9ec8">
   <rect x="409.618467" y="65.232" width="125.667814" height="115.614388"/>
  </clipPath>
  <clipPath id="pb01bf15e40">
   <rect x="610.8277" y="65.232" width="125.667814" height="115.614388"/>
  </clipPath>
  <clipPath id="p8e6927f215">
   <rect x="7.2" y="271.025612" width="125.667814" height="115.614388"/>
  </clipPath>
  <clipPath id="p822cd5214d">
   <rect x="208.409233" y="271.025612" width="125.667814" height="115.614388"/>
  </clipPath>
  <clipPath id="p85cbda0c94">
   <rect x="409.618467" y="271.025612" width="125.667814" height="115.614388"/>
  </clipPath>
  <clipPath id="peb2b18b39f">
   <rect x="610.8277" y="271.025612" width="125.667814" height="115.614388"/>
  </clipPath>
 </defs>
</svg>
