<?xml version="1.0" encoding="utf-8" standalone="no"?>
<!DOCTYPE svg PUBLIC "-//W3C//DTD SVG 1.1//EN"
  "http://www.w3.org/Graphics/SVG/1.1/DTD/svg11.dtd">
<svg xmlns:xlink="http://www.w3.org/1999/xlink" width="1096.994375pt" height="383.309562pt" viewBox="0 0 1096.994375 383.309562" xmlns="http://www.w3.org/2000/svg" version="1.1">
 <metadata>
  <rdf:RDF xmlns:dc="http://purl.org/dc/elements/1.1/" xmlns:cc="http://creativecommons.org/ns#" xmlns:rdf="http://www.w3.org/1999/02/22-rdf-syntax-ns#">
   <cc:Work>
    <dc:type rdf:resource="http://purl.org/dc/dcmitype/StillImage"/>
    <dc:date>2026-06-09T12:26:10.140160</dc:date>
    <dc:format>image/svg+xml</dc:format>
    <dc:creator>
     <cc:Agent>
      <dc:title>Matplotlib v3.9.4, https://matplotlib.org/</dc:title>
     </cc:Agent>
    </dc:creator>
   </cc:Work>
  </rdf:RDF>
 </metadata>
 <defs>
  <style type="text/css">*{stroke-linejoin: round; stroke-linecap: butt}</style>
 </defs>
 <g id="figure_1">
  <g id="patch_1">
   <path d="M 0 383.309562 
L 1096.994375 383.309562 
L 1096.994375 0 
L 0 0 
L 0 383.309562 
z
" style="fill: none"/>
  </g>
  <g id="axes_1">
   <g id="patch_2">
    <path d="M 53.328125 225.648339 
L 857.064125 225.648339 
L 857.064125 27.837812 
L 53.328125 27.837812 
L 53.328125 225.648339 
z
" style="fill: none"/>
   </g>
   <g id="matplotlib.axis_1">
    <g id="xtick_1">
     <g id="line2d_1">
      <defs>
       <path id="md6c61ef9cf" d="M 0 0 
L 0 3.5 
" style="stroke: #000000; stroke-width: 0.8"/>
      </defs>
      <g>
       <use xlink:href="#md6c61ef9cf" x="70.072625" y="225.648339" style="stroke: #000000; stroke-width: 0.8"/>
      </g>
     </g>
    </g>
    <g id="xtick_2">
     <g id="line2d_2">
      <g>
       <use xlink:href="#md6c61ef9cf" x="137.050625" y="225.648339" style="stroke: #000000; stroke-width: 0.8"/>
      </g>
     </g>
    </g>
    <g id="xtick_3">
     <g id="line2d_3">
      <g>
       <use xlink:href="#md6c61ef9cf" x="204.028625" y="225.648339" style="stroke: #000000; stroke-width: 0.8"/>
      </g>
     </g>
    </g>
    <g id="xtick_4">
     <g id="line2d_4">
      <g>
       <use xlink:href="#md6c61ef9cf" x="271.006625" y="225.648339" style="stroke: #000000; stroke-width: 0.8"/>
      </g>
     </g>
    </g>
    <g id="xtick_5">
     <g id="line2d_5">
      <g>
       <use xlink:href="#md6c61ef9cf" x="337.984625" y="225.648339" style="stroke: #000000; stroke-width: 0.8"/>
      </g>
     </g>
    </g>
    <g id="xtick_6">
     <g id="line2d_6">
      <g>
       <use xlink:href="#md6c61ef9cf" x="404.962625" y="225.648339" style="stroke: #000000; stroke-width: 0.8"/>
      </g>
     </g>
    </g>
    <g id="xtick_7">
     <g id="line2d_7">
      <g>
       <use xlink:href="#md6c61ef9cf" x="471.940625" y="225.648339" style="stroke: #000000; stroke-width: 0.8"/>
      </g>
     </g>
    </g>
    <g id="xtick_8">
     <g id="line2d_8">
      <g>
       <use xlink:href="#md6c61ef9cf" x="538.918625" y="225.648339" style="stroke: #000000; stroke-width: 0.8"/>
      </g>
     </g>
    </g>
    <g id="xtick_9">
     <g id="line2d_9">
      <g>
       <use xlink:href="#md6c61ef9cf" x="605.896625" y="225.648339" style="stroke: #000000; stroke-width: 0.8"/>
      </g>
     </g>
    </g>
    <g id="xtick_10">
     <g id="line2d_10">
      <g>
       <use xlink:href="#md6c61ef9cf" x="672.874625" y="225.648339" style="stroke: #000000; stroke-width: 0.8"/>
      </g>
     </g>
    </g>
    <g id="xtick_11">
     <g id="line2d_11">
      <g>
       <use xlink:href="#md6c61ef9cf" x="739.852625" y="225.648339" style="stroke: #000000; stroke-width: 0.8"/>
      </g>
     </g>
    </g>
    <g id="xtick_12">
     <g id="line2d_12">
      <g>
       <use xlink:href="#md6c61ef9cf" x="806.830625" y="225.648339" style="stroke: #000000; stroke-width: 0.8"/>
      </g>
     </g>
    </g>
   </g>
   <g id="matplotlib.axis_2">
    <g id="ytick_1">
     <g id="line2d_13">
      <path d="M 53.328125 225.648339 
L 857.064125 225.648339 
" clip-path="url(#p2843f0d08f)" style="fill: none; stroke: #eeeeee; stroke-width: 0.7; stroke-linecap: square"/>
     </g>
     <g id="line2d_14">
      <defs>
       <path id="m35b4dbefd8" d="M 0 0 
L -3.5 0 
" style="stroke: #000000; stroke-width: 0.8"/>
      </defs>
      <g>
       <use xlink:href="#m35b4dbefd8" x="53.328125" y="225.648339" style="stroke: #000000; stroke-width: 0.8"/>
      </g>
     </g>
     <g id="text_1">
      <text style="font: 10px 'DejaVu Sans'; text-anchor: end" x="46.328125" y="229.447558" transform="rotate(-0 46.328125 229.447558)">0</text>
     </g>
    </g>
    <g id="ytick_2">
     <g id="line2d_15">
      <path d="M 53.328125 199.215662 
L 857.064125 199.215662 
" clip-path="url(#p2843f0d08f)" style="fill: none; stroke: #eeeeee; stroke-width: 0.7; stroke-linecap: square"/>
     </g>
     <g id="line2d_16">
      <g>
       <use xlink:href="#m35b4dbefd8" x="53.328125" y="199.215662" style="stroke: #000000; stroke-width: 0.8"/>
      </g>
     </g>
     <g id="text_2">
      <text style="font: 10px 'DejaVu Sans'; text-anchor: end" x="46.328125" y="203.01488" transform="rotate(-0 46.328125 203.01488)">500</text>
     </g>
    </g>
    <g id="ytick_3">
     <g id="line2d_17">
      <path d="M 53.328125 172.782984 
L 857.064125 172.782984 
" clip-path="url(#p2843f0d08f)" style="fill: none; stroke: #eeeeee; stroke-width: 0.7; stroke-linecap: square"/>
     </g>
     <g id="line2d_18">
      <g>
       <use xlink:href="#m35b4dbefd8" x="53.328125" y="172.782984" style="stroke: #000000; stroke-width: 0.8"/>
      </g>
     </g>
     <g id="text_3">
      <text style="font: 10px 'DejaVu Sans'; text-anchor: end" x="46.328125" y="176.582203" transform="rotate(-0 46.328125 176.582203)">1000</text>
     </g>
    </g>
    <g id="ytick_4">
     <g id="line2d_19">
      <path d="M 53.328125 146.350307 
L 857.064125 146.350307 
" clip-path="url(#p2843f0d08f)" style="fill: none; stroke: #eeeeee; stroke-width: 0.7; stroke-linecap: square"/>
     </g>
     <g id="line2d_20">
      <g>
       <use xlink:href="#m35b4dbefd8" x="53.328125" y="146.350307" style="stroke: #000000; stroke-width: 0.8"/>
      </g>
     </g>
     <g id="text_4">
      <text style="font: 10px 'DejaVu Sans'; text-anchor: end" x="46.328125" y="150.149526" transform="rotate(-0 46.328125 150.149526)">1500</text>
     </g>
    </g>
    <g id="ytick_5">
     <g id="line2d_21">
      <path d="M 53.328125 119.91763 
L 857.064125 119.91763 
" clip-path="url(#p2843f0d08f)" style="fill: none; stroke: #eeeeee; stroke-width: 0.7; stroke-linecap: square"/>
     </g>
     <g id="line2d_22">
      <g>
       <use xlink:href="#m35b4dbefd8" x="53.328125" y="119.91763" style="stroke: #000000; stroke-width: 0.8"/>
      </g>
     </g>
     <g id="text_5">
      <text style="font: 10px 'DejaVu Sans'; text-anchor: end" x="46.328125" y="123.716848" transform="rotate(-0 46.328125 123.716848)">2000</text>
     </g>
    </g>
    <g id="ytick_6">
     <g id="line2d_23">
      <path d="M 53.328125 93.484952 
L 857.064125 93.484952 
" clip-path="url(#p2843f0d08f)" style="fill: none; stroke: #eeeeee; stroke-width: 0.7; stroke-linecap: square"/>
     </g>
     <g id="line2d_24">
      <g>
       <use xlink:href="#m35b4dbefd8" x="53.328125" y="93.484952" style="stroke: #000000; stroke-width: 0.8"/>
      </g>
     </g>
     <g id="text_6">
      <text style="font: 10px 'DejaVu Sans'; text-anchor: end" x="46.328125" y="97.284171" transform="rotate(-0 46.328125 97.284171)">2500</text>
     </g>
    </g>
    <g id="ytick_7">
     <g id="line2d_25">
      <path d="M 53.328125 67.052275 
L 857.064125 67.052275 
" clip-path="url(#p2843f0d08f)" style="fill: none; stroke: #eeeeee; stroke-width: 0.7; stroke-linecap: square"/>
     </g>
     <g id="line2d_26">
      <g>
       <use xlink:href="#m35b4dbefd8" x="53.328125" y="67.052275" style="stroke: #000000; stroke-width: 0.8"/>
      </g>
     </g>
     <g id="text_7">
      <text style="font: 10px 'DejaVu Sans'; text-anchor: end" x="46.328125" y="70.851494" transform="rotate(-0 46.328125 70.851494)">3000</text>
     </g>
    </g>
    <g id="ytick_8">
     <g id="line2d_27">
      <path d="M 53.328125 40.619598 
L 857.064125 40.619598 
" clip-path="url(#p2843f0d08f)" style="fill: none; stroke: #eeeeee; stroke-width: 0.7; stroke-linecap: square"/>
     </g>
     <g id="line2d_28">
      <g>
       <use xlink:href="#m35b4dbefd8" x="53.328125" y="40.619598" style="stroke: #000000; stroke-width: 0.8"/>
      </g>
     </g>
     <g id="text_8">
      <text style="font: 10px 'DejaVu Sans'; text-anchor: end" x="46.328125" y="44.418817" transform="rotate(-0 46.328125 44.418817)">3500</text>
     </g>
    </g>
    <g id="text_9">
     <text style="fill: #1a1a1a; font: 10px 'DejaVu Sans'; text-anchor: middle" x="14.798438" y="126.743076" transform="rotate(-90 14.798438 126.743076)">people tracked / hour</text>
    </g>
   </g>
   <g id="PolyCollection_1">
    <defs>
     <path id="maa0138f3b5" d="M 70.072625 -157.661224 
L 70.072625 -171.987735 
L 103.561625 -159.511511 
L 137.050625 -158.295608 
L 170.539625 -157.978416 
L 204.028625 -158.6128 
L 237.517625 -160.463087 
L 271.006625 -169.820255 
L 304.495625 -191.547916 
L 337.984625 -251.444363 
L 371.473625 -226.756242 
L 404.962625 -193.821126 
L 438.451625 -217.55767 
L 471.940625 -246.897942 
L 505.429625 -242.14006 
L 538.918625 -238.122293 
L 572.407625 -254.404822 
L 605.896625 -325.297263 
L 639.385625 -308.327484 
L 672.874625 -227.443492 
L 706.363625 -198.10322 
L 739.852625 -188.164533 
L 773.341625 -182.190748 
L 806.830625 -174.842464 
L 840.319625 -163.529278 
L 840.319625 -157.661224 
L 840.319625 -157.661224 
L 806.830625 -157.661224 
L 773.341625 -157.661224 
L 739.852625 -157.661224 
L 706.363625 -157.661224 
L 672.874625 -157.661224 
L 639.385625 -157.661224 
L 605.896625 -157.661224 
L 572.407625 -157.661224 
L 538.918625 -157.661224 
L 505.429625 -157.661224 
L 471.940625 -157.661224 
L 438.451625 -157.661224 
L 404.962625 -157.661224 
L 371.473625 -157.661224 
L 337.984625 -157.661224 
L 304.495625 -157.661224 
L 271.006625 -157.661224 
L 237.517625 -157.661224 
L 204.028625 -157.661224 
L 170.539625 -157.661224 
L 137.050625 -157.661224 
L 103.561625 -157.661224 
L 70.072625 -157.661224 
z
" style="stroke: #d9d9d9"/>
    </defs>
    <g clip-path="url(#p2843f0d08f)">
     <use xlink:href="#maa0138f3b5" x="0" y="383.309562" style="fill: #d9d9d9; stroke: #d9d9d9"/>
    </g>
   </g>
   <g id="patch_3">
    <path d="M 53.328125 225.648339 
L 53.328125 27.837812 
" style="fill: none; stroke: #000000; stroke-width: 0.8; stroke-linejoin: miter; stroke-linecap: square"/>
   </g>
   <g id="patch_4">
    <path d="M 53.328125 225.648339 
L 857.064125 225.648339 
" style="fill: none; stroke: #000000; stroke-width: 0.8; stroke-linejoin: miter; stroke-linecap: square"/>
   </g>
   <g id="line2d_29">
    <path d="M 70.072625 211.321828 
L 103.561625 223.798051 
L 137.050625 225.013955 
L 170.539625 225.331147 
L 204.028625 224.696762 
L 237.517625 222.846475 
L 271.006625 213.489307 
L 304.495625 191.761647 
L 337.984625 131.8652 
L 371.473625 156.55332 
L 404.962625 189.488436 
L 438.451625 165.751892 
L 471.940625 136.41162 
L 505.429625 141.169502 
L 538.918625 145.187269 
L 572.407625 128.90474 
L 605.896625 58.0123 
L 639.385625 74.982078 
L 672.874625 155.866071 
L 706.363625 185.206343 
L 739.852625 195.145029 
L 773.341625 201.118814 
L 806.830625 208.467099 
L 840.319625 219.780284 
" clip-path="url(#p2843f0d08f)" style="fill: none; stroke: #9a9a9a; stroke-width: 1.6; stroke-linecap: square"/>
   </g>
   <g id="patch_5">
    <path d="M 502.704874 74.95564 
Q 553.313487 66.646071 603.9221 58.336502 
" style="fill: none; stroke: #e8a23d; stroke-width: 1.2; stroke-linecap: round"/>
   </g>
   <g id="text_10">
    <text style="fill: #c47f1d; font: 700 9px 'DejaVu Sans'" transform="translate(421.215106 81.614497)">rush-hour peak</text>
    <text style="fill: #c47f1d; font: 700 9px 'DejaVu Sans'" transform="translate(394.4387 91.692528)">3,171 people · 16:00</text>
   </g>
   <g id="text_11">
    <text style="fill: #9a9a9a; font: italic 8.5px 'DejaVu Sans'" transform="translate(276.695878 152.985787)">morning</text>
    <text style="fill: #9a9a9a; font: italic 8.5px 'DejaVu Sans'" transform="translate(274.257441 162.503928)">commute</text>
   </g>
   <g id="text_12">
    <text style="fill: #9a9a9a; font: italic 8.5px 'DejaVu Sans'; text-anchor: middle" x="170.539625" y="151.636842" transform="rotate(-0 170.539625 151.636842)">overnight lull</text>
   </g>
   <g id="text_13">
    <text style="fill: #1a1a1a; font: 700 14px 'DejaVu Sans'; text-anchor: start" x="53.328125" y="17.837812" transform="rotate(-0 53.328125 17.837812)">E4   One day in the life — Tuesday, 24 hours</text>
   </g>
   <g id="line2d_30">
    <defs>
     <path id="mfec023d936" d="M 0 4 
C 1.060812 4 2.078319 3.578535 2.828427 2.828427 
C 3.578535 2.078319 4 1.060812 4 0 
C 4 -1.060812 3.578535 -2.078319 2.828427 -2.828427 
C 2.078319 -3.578535 1.060812 -4 0 -4 
C -1.060812 -4 -2.078319 -3.578535 -2.828427 -2.828427 
C -3.578535 -2.078319 -4 -1.060812 -4 0 
C -4 1.060812 -3.578535 2.078319 -2.828427 2.828427 
C -2.078319 3.578535 -1.060812 4 0 4 
z
" style="stroke: #e8a23d"/>
    </defs>
    <g clip-path="url(#p2843f0d08f)">
     <use xlink:href="#mfec023d936" x="605.896625" y="58.0123" style="fill: #e8a23d; stroke: #e8a23d"/>
    </g>
   </g>
  </g>
  <g id="axes_2">
   <g id="patch_6">
    <path d="M 53.328125 290.925812 
L 857.064125 290.925812 
L 857.064125 238.176339 
L 53.328125 238.176339 
L 53.328125 290.925812 
z
" style="fill: none"/>
   </g>
   <g id="matplotlib.axis_3">
    <g id="xtick_13">
     <g id="line2d_31">
      <g>
       <use xlink:href="#md6c61ef9cf" x="70.072625" y="290.925812" style="stroke: #000000; stroke-width: 0.8"/>
      </g>
     </g>
     <g id="text_14">
      <text style="fill: #1a1a1a; font: 9px 'DejaVu Sans'; text-anchor: middle" x="70.072625" y="304.764406" transform="rotate(-0 70.072625 304.764406)">00:00</text>
     </g>
    </g>
    <g id="xtick_14">
     <g id="line2d_32">
      <g>
       <use xlink:href="#md6c61ef9cf" x="137.050625" y="290.925812" style="stroke: #000000; stroke-width: 0.8"/>
      </g>
     </g>
     <g id="text_15">
      <text style="fill: #1a1a1a; font: 9px 'DejaVu Sans'; text-anchor: middle" x="137.050625" y="304.764406" transform="rotate(-0 137.050625 304.764406)">02:00</text>
     </g>
    </g>
    <g id="xtick_15">
     <g id="line2d_33">
      <g>
       <use xlink:href="#md6c61ef9cf" x="204.028625" y="290.925812" style="stroke: #000000; stroke-width: 0.8"/>
      </g>
     </g>
     <g id="text_16">
      <text style="fill: #1a1a1a; font: 9px 'DejaVu Sans'; text-anchor: middle" x="204.028625" y="304.764406" transform="rotate(-0 204.028625 304.764406)">04:00</text>
     </g>
    </g>
    <g id="xtick_16">
     <g id="line2d_34">
      <g>
       <use xlink:href="#md6c61ef9cf" x="271.006625" y="290.925812" style="stroke: #000000; stroke-width: 0.8"/>
      </g>
     </g>
     <g id="text_17">
      <text style="fill: #1a1a1a; font: 9px 'DejaVu Sans'; text-anchor: middle" x="271.006625" y="304.764406" transform="rotate(-0 271.006625 304.764406)">06:00</text>
     </g>
    </g>
    <g id="xtick_17">
     <g id="line2d_35">
      <g>
       <use xlink:href="#md6c61ef9cf" x="337.984625" y="290.925812" style="stroke: #000000; stroke-width: 0.8"/>
      </g>
     </g>
     <g id="text_18">
      <text style="fill: #1a1a1a; font: 9px 'DejaVu Sans'; text-anchor: middle" x="337.984625" y="304.764406" transform="rotate(-0 337.984625 304.764406)">08:00</text>
     </g>
    </g>
    <g id="xtick_18">
     <g id="line2d_36">
      <g>
       <use xlink:href="#md6c61ef9cf" x="404.962625" y="290.925812" style="stroke: #000000; stroke-width: 0.8"/>
      </g>
     </g>
     <g id="text_19">
      <text style="fill: #1a1a1a; font: 9px 'DejaVu Sans'; text-anchor: middle" x="404.962625" y="304.764406" transform="rotate(-0 404.962625 304.764406)">10:00</text>
     </g>
    </g>
    <g id="xtick_19">
     <g id="line2d_37">
      <g>
       <use xlink:href="#md6c61ef9cf" x="471.940625" y="290.925812" style="stroke: #000000; stroke-width: 0.8"/>
      </g>
     </g>
     <g id="text_20">
      <text style="fill: #1a1a1a; font: 9px 'DejaVu Sans'; text-anchor: middle" x="471.940625" y="304.764406" transform="rotate(-0 471.940625 304.764406)">12:00</text>
     </g>
    </g>
    <g id="xtick_20">
     <g id="line2d_38">
      <g>
       <use xlink:href="#md6c61ef9cf" x="538.918625" y="290.925812" style="stroke: #000000; stroke-width: 0.8"/>
      </g>
     </g>
     <g id="text_21">
      <text style="fill: #1a1a1a; font: 9px 'DejaVu Sans'; text-anchor: middle" x="538.918625" y="304.764406" transform="rotate(-0 538.918625 304.764406)">14:00</text>
     </g>
    </g>
    <g id="xtick_21">
     <g id="line2d_39">
      <g>
       <use xlink:href="#md6c61ef9cf" x="605.896625" y="290.925812" style="stroke: #000000; stroke-width: 0.8"/>
      </g>
     </g>
     <g id="text_22">
      <text style="fill: #1a1a1a; font: 9px 'DejaVu Sans'; text-anchor: middle" x="605.896625" y="304.764406" transform="rotate(-0 605.896625 304.764406)">16:00</text>
     </g>
    </g>
    <g id="xtick_22">
     <g id="line2d_40">
      <g>
       <use xlink:href="#md6c61ef9cf" x="672.874625" y="290.925812" style="stroke: #000000; stroke-width: 0.8"/>
      </g>
     </g>
     <g id="text_23">
      <text style="fill: #1a1a1a; font: 9px 'DejaVu Sans'; text-anchor: middle" x="672.874625" y="304.764406" transform="rotate(-0 672.874625 304.764406)">18:00</text>
     </g>
    </g>
    <g id="xtick_23">
     <g id="line2d_41">
      <g>
       <use xlink:href="#md6c61ef9cf" x="739.852625" y="290.925812" style="stroke: #000000; stroke-width: 0.8"/>
      </g>
     </g>
     <g id="text_24">
      <text style="fill: #1a1a1a; font: 9px 'DejaVu Sans'; text-anchor: middle" x="739.852625" y="304.764406" transform="rotate(-0 739.852625 304.764406)">20:00</text>
     </g>
    </g>
    <g id="xtick_24">
     <g id="line2d_42">
      <g>
       <use xlink:href="#md6c61ef9cf" x="806.830625" y="290.925812" style="stroke: #000000; stroke-width: 0.8"/>
      </g>
     </g>
     <g id="text_25">
      <text style="fill: #1a1a1a; font: 9px 'DejaVu Sans'; text-anchor: middle" x="806.830625" y="304.764406" transform="rotate(-0 806.830625 304.764406)">22:00</text>
     </g>
    </g>
    <g id="text_26">
     <text style="fill: #1a1a1a; font: 10px 'DejaVu Sans'; text-anchor: middle" x="455.196125" y="318.234562" transform="rotate(-0 455.196125 318.234562)">hour of day</text>
    </g>
   </g>
   <g id="matplotlib.axis_4"/>
   <g id="patch_7">
    <path d="M 53.328125 290.925812 
L 86.817125 290.925812 
L 86.817125 238.176339 
L 53.328125 238.176339 
z
" clip-path="url(#p92e12f739f)" style="fill: #ededed; stroke: #ffffff; stroke-width: 0.6; stroke-linejoin: miter"/>
   </g>
   <g id="patch_8">
    <path d="M 86.817125 290.925812 
L 120.306125 290.925812 
L 120.306125 238.176339 
L 86.817125 238.176339 
z
" clip-path="url(#p92e12f739f)" style="fill: #ededed; stroke: #ffffff; stroke-width: 0.6; stroke-linejoin: miter"/>
   </g>
   <g id="patch_9">
    <path d="M 120.306125 290.925812 
L 153.795125 290.925812 
L 153.795125 238.176339 
L 120.306125 238.176339 
z
" clip-path="url(#p92e12f739f)" style="fill: #ededed; stroke: #ffffff; stroke-width: 0.6; stroke-linejoin: miter"/>
   </g>
   <g id="patch_10">
    <path d="M 153.795125 290.925812 
L 187.284125 290.925812 
L 187.284125 238.176339 
L 153.795125 238.176339 
z
" clip-path="url(#p92e12f739f)" style="fill: #ededed; stroke: #ffffff; stroke-width: 0.6; stroke-linejoin: miter"/>
   </g>
   <g id="patch_11">
    <path d="M 187.284125 290.925812 
L 220.773125 290.925812 
L 220.773125 238.176339 
L 187.284125 238.176339 
z
" clip-path="url(#p92e12f739f)" style="fill: #ededed; stroke: #ffffff; stroke-width: 0.6; stroke-linejoin: miter"/>
   </g>
   <g id="patch_12">
    <path d="M 220.773125 290.925812 
L 254.262125 290.925812 
L 254.262125 238.176339 
L 220.773125 238.176339 
z
" clip-path="url(#p92e12f739f)" style="fill: #ededed; stroke: #ffffff; stroke-width: 0.6; stroke-linejoin: miter"/>
   </g>
   <g id="patch_13">
    <path d="M 254.262125 290.925812 
L 287.751125 290.925812 
L 287.751125 238.176339 
L 254.262125 238.176339 
z
" clip-path="url(#p92e12f739f)" style="fill: #ededed; stroke: #ffffff; stroke-width: 0.6; stroke-linejoin: miter"/>
   </g>
   <g id="patch_14">
    <path d="M 287.751125 290.925812 
L 321.240125 290.925812 
L 321.240125 238.176339 
L 287.751125 238.176339 
z
" clip-path="url(#p92e12f739f)" style="fill: #bdbdbd; stroke: #ffffff; stroke-width: 0.6; stroke-linejoin: miter"/>
   </g>
   <g id="patch_15">
    <path d="M 321.240125 290.925812 
L 354.729125 290.925812 
L 354.729125 238.176339 
L 321.240125 238.176339 
z
" clip-path="url(#p92e12f739f)" style="fill: #e8a23d; stroke: #ffffff; stroke-width: 0.6; stroke-linejoin: miter"/>
   </g>
   <g id="patch_16">
    <path d="M 354.729125 290.925812 
L 388.218125 290.925812 
L 388.218125 238.176339 
L 354.729125 238.176339 
z
" clip-path="url(#p92e12f739f)" style="fill: #bdbdbd; stroke: #ffffff; stroke-width: 0.6; stroke-linejoin: miter"/>
   </g>
   <g id="patch_17">
    <path d="M 388.218125 290.925812 
L 421.707125 290.925812 
L 421.707125 238.176339 
L 388.218125 238.176339 
z
" clip-path="url(#p92e12f739f)" style="fill: #bdbdbd; stroke: #ffffff; stroke-width: 0.6; stroke-linejoin: miter"/>
   </g>
   <g id="patch_18">
    <path d="M 421.707125 290.925812 
L 455.196125 290.925812 
L 455.196125 238.176339 
L 421.707125 238.176339 
z
" clip-path="url(#p92e12f739f)" style="fill: #bdbdbd; stroke: #ffffff; stroke-width: 0.6; stroke-linejoin: miter"/>
   </g>
   <g id="patch_19">
    <path d="M 455.196125 290.925812 
L 488.685125 290.925812 
L 488.685125 238.176339 
L 455.196125 238.176339 
z
" clip-path="url(#p92e12f739f)" style="fill: #e8a23d; stroke: #ffffff; stroke-width: 0.6; stroke-linejoin: miter"/>
   </g>
   <g id="patch_20">
    <path d="M 488.685125 290.925812 
L 522.174125 290.925812 
L 522.174125 238.176339 
L 488.685125 238.176339 
z
" clip-path="url(#p92e12f739f)" style="fill: #c47f1d; stroke: #ffffff; stroke-width: 0.6; stroke-linejoin: miter"/>
   </g>
   <g id="patch_21">
    <path d="M 522.174125 290.925812 
L 555.663125 290.925812 
L 555.663125 238.176339 
L 522.174125 238.176339 
z
" clip-path="url(#p92e12f739f)" style="fill: #e8a23d; stroke: #ffffff; stroke-width: 0.6; stroke-linejoin: miter"/>
   </g>
   <g id="patch_22">
    <path d="M 555.663125 290.925812 
L 589.152125 290.925812 
L 589.152125 238.176339 
L 555.663125 238.176339 
z
" clip-path="url(#p92e12f739f)" style="fill: #e8a23d; stroke: #ffffff; stroke-width: 0.6; stroke-linejoin: miter"/>
   </g>
   <g id="patch_23">
    <path d="M 589.152125 290.925812 
L 622.641125 290.925812 
L 622.641125 238.176339 
L 589.152125 238.176339 
z
" clip-path="url(#p92e12f739f)" style="fill: #e8a23d; stroke: #ffffff; stroke-width: 0.6; stroke-linejoin: miter"/>
   </g>
   <g id="patch_24">
    <path d="M 622.641125 290.925812 
L 656.130125 290.925812 
L 656.130125 238.176339 
L 622.641125 238.176339 
z
" clip-path="url(#p92e12f739f)" style="fill: #e8a23d; stroke: #ffffff; stroke-width: 0.6; stroke-linejoin: miter"/>
   </g>
   <g id="patch_25">
    <path d="M 656.130125 290.925812 
L 689.619125 290.925812 
L 689.619125 238.176339 
L 656.130125 238.176339 
z
" clip-path="url(#p92e12f739f)" style="fill: #bdbdbd; stroke: #ffffff; stroke-width: 0.6; stroke-linejoin: miter"/>
   </g>
   <g id="patch_26">
    <path d="M 689.619125 290.925812 
L 723.108125 290.925812 
L 723.108125 238.176339 
L 689.619125 238.176339 
z
" clip-path="url(#p92e12f739f)" style="fill: #bdbdbd; stroke: #ffffff; stroke-width: 0.6; stroke-linejoin: miter"/>
   </g>
   <g id="patch_27">
    <path d="M 723.108125 290.925812 
L 756.597125 290.925812 
L 756.597125 238.176339 
L 723.108125 238.176339 
z
" clip-path="url(#p92e12f739f)" style="fill: #bdbdbd; stroke: #ffffff; stroke-width: 0.6; stroke-linejoin: miter"/>
   </g>
   <g id="patch_28">
    <path d="M 756.597125 290.925812 
L 790.086125 290.925812 
L 790.086125 238.176339 
L 756.597125 238.176339 
z
" clip-path="url(#p92e12f739f)" style="fill: #bdbdbd; stroke: #ffffff; stroke-width: 0.6; stroke-linejoin: miter"/>
   </g>
   <g id="patch_29">
    <path d="M 790.086125 290.925812 
L 823.575125 290.925812 
L 823.575125 238.176339 
L 790.086125 238.176339 
z
" clip-path="url(#p92e12f739f)" style="fill: #ededed; stroke: #ffffff; stroke-width: 0.6; stroke-linejoin: miter"/>
   </g>
   <g id="patch_30">
    <path d="M 823.575125 290.925812 
L 857.064125 290.925812 
L 857.064125 238.176339 
L 823.575125 238.176339 
z
" clip-path="url(#p92e12f739f)" style="fill: #ededed; stroke: #ffffff; stroke-width: 0.6; stroke-linejoin: miter"/>
   </g>
   <g id="patch_31">
    <path d="M 53.328125 290.925812 
L 857.064125 290.925812 
" style="fill: none; stroke: #000000; stroke-width: 0.8; stroke-linejoin: miter; stroke-linecap: square"/>
   </g>
   <g id="text_27">
    <text style="fill: #9a9a9a; font: italic 8.5px 'DejaVu Sans'; text-anchor: start" x="56.677025" y="211.801602" transform="rotate(-0 56.677025 211.801602)">light's dominant mode each hour</text>
   </g>
   <g id="legend_1">
    <g id="patch_32">
     <path d="M 326.971438 366.526301 
L 344.971438 366.526301 
L 344.971438 360.226301 
L 326.971438 360.226301 
z
" style="fill: #ededed; stroke: #ffffff; stroke-linejoin: miter"/>
    </g>
    <g id="text_28">
     <text style="font: 9px 'DejaVu Sans'; text-anchor: start" x="352.171438" y="366.526301" transform="rotate(-0 352.171438 366.526301)">idle</text>
    </g>
    <g id="patch_33">
     <path d="M 386.423469 366.526301 
L 404.423469 366.526301 
L 404.423469 360.226301 
L 386.423469 360.226301 
z
" style="fill: #bdbdbd; stroke: #ffffff; stroke-linejoin: miter"/>
    </g>
    <g id="text_29">
     <text style="font: 9px 'DejaVu Sans'; text-anchor: start" x="411.623469" y="366.526301" transform="rotate(-0 411.623469 366.526301)">flow</text>
    </g>
    <g id="patch_34">
     <path d="M 448.15925 366.526301 
L 466.15925 366.526301 
L 466.15925 360.226301 
L 448.15925 360.226301 
z
" style="fill: #e8a23d; stroke: #ffffff; stroke-linejoin: miter"/>
    </g>
    <g id="text_30">
     <text style="font: 9px 'DejaVu Sans'; text-anchor: start" x="473.35925" y="366.526301" transform="rotate(-0 473.35925 366.526301)">aware</text>
    </g>
    <g id="patch_35">
     <path d="M 518.785344 366.526301 
L 536.785344 366.526301 
L 536.785344 360.226301 
L 518.785344 360.226301 
z
" style="fill: #c47f1d; stroke: #ffffff; stroke-linejoin: miter"/>
    </g>
    <g id="text_31">
     <text style="font: 9px 'DejaVu Sans'; text-anchor: start" x="543.985344" y="366.526301" transform="rotate(-0 543.985344 366.526301)">engaged</text>
    </g>
   </g>
  </g>
  <g id="text_32">
   <text style="fill: #555555; font: 8px 'DejaVu Sans'; text-anchor: start" x="53.328125" y="374.445812" transform="rotate(-0 53.328125 374.445812)">Real data, one representative day. The light idles through the night, follows the morning commute, drifts with midday flow, and rises to its busiest 'aware' and 'engaged' states across the afternoon rush — its behaviour breathing with the rhythm of the street.</text>
  </g>
 </g>
 <defs>
  <clipPath id="p2843f0d08f">
   <rect x="53.328125" y="27.837812" width="803.736" height="197.810526"/>
  </clipPath>
  <clipPath id="p92e12f739f">
   <rect x="53.328125" y="238.176339" width="803.736" height="52.749474"/>
  </clipPath>
 </defs>
</svg>
