<?xml version="1.0" encoding="utf-8" standalone="no"?>
<!DOCTYPE svg PUBLIC "-//W3C//DTD SVG 1.1//EN"
  "http://www.w3.org/Graphics/SVG/1.1/DTD/svg11.dtd">
<svg xmlns:xlink="http://www.w3.org/1999/xlink" width="623.984687pt" height="278.462187pt" viewBox="0 0 623.984687 278.462187" xmlns="http://www.w3.org/2000/svg" version="1.1">
 <metadata>
  <rdf:RDF xmlns:dc="http://purl.org/dc/elements/1.1/" xmlns:cc="http://creativecommons.org/ns#" xmlns:rdf="http://www.w3.org/1999/02/22-rdf-syntax-ns#">
   <cc:Work>
    <dc:type rdf:resource="http://purl.org/dc/dcmitype/StillImage"/>
    <dc:date>2026-06-10T19:09:14.029402</dc:date>
    <dc:format>image/svg+xml</dc:format>
    <dc:creator>
     <cc:Agent>
      <dc:title>Matplotlib v3.9.4, https://matplotlib.org/</dc:title>
     </cc:Agent>
    </dc:creator>
   </cc:Work>
  </rdf:RDF>
 </metadata>
 <defs>
  <style type="text/css">*{stroke-linejoin: round; stroke-linecap: butt}</style>
 </defs>
 <g id="figure_1">
  <g id="patch_1">
   <path d="M 0 278.462187 
L 623.984687 278.462187 
L 623.984687 0 
L 0 0 
z
" style="fill: #ffffff"/>
  </g>
  <g id="axes_1">
   <g id="patch_2">
    <path d="M 45.509375 245.118437 
L 575.609375 245.118437 
L 575.609375 23.358437 
L 45.509375 23.358437 
z
" style="fill: #ffffff"/>
   </g>
   <g id="matplotlib.axis_1">
    <g id="xtick_1">
     <g id="line2d_1">
      <defs>
       <path id="m2409bca298" d="M 0 0 
L 0 3.5 
" style="stroke: #1a1a1a; stroke-width: 0.8"/>
      </defs>
      <g>
       <use xlink:href="#m2409bca298" x="69.60483" y="245.118437" style="fill: #1a1a1a; stroke: #1a1a1a; stroke-width: 0.8"/>
      </g>
     </g>
     <g id="text_1">
      <!-- 00 -->
      <g style="fill: #1a1a1a" transform="translate(65.15108 257.437344) scale(0.07 -0.07)">
       <defs>
        <path id="DejaVuSans-30" d="M 2034 4250 
Q 1547 4250 1301 3770 
Q 1056 3291 1056 2328 
Q 1056 1369 1301 889 
Q 1547 409 2034 409 
Q 2525 409 2770 889 
Q 3016 1369 3016 2328 
Q 3016 3291 2770 3770 
Q 2525 4250 2034 4250 
z
M 2034 4750 
Q 2819 4750 3233 4129 
Q 3647 3509 3647 2328 
Q 3647 1150 3233 529 
Q 2819 -91 2034 -91 
Q 1250 -91 836 529 
Q 422 1150 422 2328 
Q 422 3509 836 4129 
Q 1250 4750 2034 4750 
z
" transform="scale(0.015625)"/>
       </defs>
       <use xlink:href="#DejaVuSans-30"/>
       <use xlink:href="#DejaVuSans-30" x="63.623047"/>
      </g>
     </g>
    </g>
    <g id="xtick_2">
     <g id="line2d_2">
      <g>
       <use xlink:href="#m2409bca298" x="90.557399" y="245.118437" style="fill: #1a1a1a; stroke: #1a1a1a; stroke-width: 0.8"/>
      </g>
     </g>
     <g id="text_2">
      <!-- 01 -->
      <g style="fill: #1a1a1a" transform="translate(86.103649 257.437344) scale(0.07 -0.07)">
       <defs>
        <path id="DejaVuSans-31" d="M 794 531 
L 1825 531 
L 1825 4091 
L 703 3866 
L 703 4441 
L 1819 4666 
L 2450 4666 
L 2450 531 
L 3481 531 
L 3481 0 
L 794 0 
L 794 531 
z
" transform="scale(0.015625)"/>
       </defs>
       <use xlink:href="#DejaVuSans-30"/>
       <use xlink:href="#DejaVuSans-31" x="63.623047"/>
      </g>
     </g>
    </g>
    <g id="xtick_3">
     <g id="line2d_3">
      <g>
       <use xlink:href="#m2409bca298" x="111.509968" y="245.118437" style="fill: #1a1a1a; stroke: #1a1a1a; stroke-width: 0.8"/>
      </g>
     </g>
     <g id="text_3">
      <!-- 02 -->
      <g style="fill: #1a1a1a" transform="translate(107.056218 257.437344) scale(0.07 -0.07)">
       <defs>
        <path id="DejaVuSans-32" d="M 1228 531 
L 3431 531 
L 3431 0 
L 469 0 
L 469 531 
Q 828 903 1448 1529 
Q 2069 2156 2228 2338 
Q 2531 2678 2651 2914 
Q 2772 3150 2772 3378 
Q 2772 3750 2511 3984 
Q 2250 4219 1831 4219 
Q 1534 4219 1204 4116 
Q 875 4013 500 3803 
L 500 4441 
Q 881 4594 1212 4672 
Q 1544 4750 1819 4750 
Q 2544 4750 2975 4387 
Q 3406 4025 3406 3419 
Q 3406 3131 3298 2873 
Q 3191 2616 2906 2266 
Q 2828 2175 2409 1742 
Q 1991 1309 1228 531 
z
" transform="scale(0.015625)"/>
       </defs>
       <use xlink:href="#DejaVuSans-30"/>
       <use xlink:href="#DejaVuSans-32" x="63.623047"/>
      </g>
     </g>
    </g>
    <g id="xtick_4">
     <g id="line2d_4">
      <g>
       <use xlink:href="#m2409bca298" x="132.462537" y="245.118437" style="fill: #1a1a1a; stroke: #1a1a1a; stroke-width: 0.8"/>
      </g>
     </g>
     <g id="text_4">
      <!-- 03 -->
      <g style="fill: #1a1a1a" transform="translate(128.008787 257.437344) scale(0.07 -0.07)">
       <defs>
        <path id="DejaVuSans-33" d="M 2597 2516 
Q 3050 2419 3304 2112 
Q 3559 1806 3559 1356 
Q 3559 666 3084 287 
Q 2609 -91 1734 -91 
Q 1441 -91 1130 -33 
Q 819 25 488 141 
L 488 750 
Q 750 597 1062 519 
Q 1375 441 1716 441 
Q 2309 441 2620 675 
Q 2931 909 2931 1356 
Q 2931 1769 2642 2001 
Q 2353 2234 1838 2234 
L 1294 2234 
L 1294 2753 
L 1863 2753 
Q 2328 2753 2575 2939 
Q 2822 3125 2822 3475 
Q 2822 3834 2567 4026 
Q 2313 4219 1838 4219 
Q 1578 4219 1281 4162 
Q 984 4106 628 3988 
L 628 4550 
Q 988 4650 1302 4700 
Q 1616 4750 1894 4750 
Q 2613 4750 3031 4423 
Q 3450 4097 3450 3541 
Q 3450 3153 3228 2886 
Q 3006 2619 2597 2516 
z
" transform="scale(0.015625)"/>
       </defs>
       <use xlink:href="#DejaVuSans-30"/>
       <use xlink:href="#DejaVuSans-33" x="63.623047"/>
      </g>
     </g>
    </g>
    <g id="xtick_5">
     <g id="line2d_5">
      <g>
       <use xlink:href="#m2409bca298" x="153.415106" y="245.118437" style="fill: #1a1a1a; stroke: #1a1a1a; stroke-width: 0.8"/>
      </g>
     </g>
     <g id="text_5">
      <!-- 04 -->
      <g style="fill: #1a1a1a" transform="translate(148.961356 257.437344) scale(0.07 -0.07)">
       <defs>
        <path id="DejaVuSans-34" d="M 2419 4116 
L 825 1625 
L 2419 1625 
L 2419 4116 
z
M 2253 4666 
L 3047 4666 
L 3047 1625 
L 3713 1625 
L 3713 1100 
L 3047 1100 
L 3047 0 
L 2419 0 
L 2419 1100 
L 313 1100 
L 313 1709 
L 2253 4666 
z
" transform="scale(0.015625)"/>
       </defs>
       <use xlink:href="#DejaVuSans-30"/>
       <use xlink:href="#DejaVuSans-34" x="63.623047"/>
      </g>
     </g>
    </g>
    <g id="xtick_6">
     <g id="line2d_6">
      <g>
       <use xlink:href="#m2409bca298" x="174.367675" y="245.118437" style="fill: #1a1a1a; stroke: #1a1a1a; stroke-width: 0.8"/>
      </g>
     </g>
     <g id="text_6">
      <!-- 05 -->
      <g style="fill: #1a1a1a" transform="translate(169.913925 257.437344) scale(0.07 -0.07)">
       <defs>
        <path id="DejaVuSans-35" d="M 691 4666 
L 3169 4666 
L 3169 4134 
L 1269 4134 
L 1269 2991 
Q 1406 3038 1543 3061 
Q 1681 3084 1819 3084 
Q 2600 3084 3056 2656 
Q 3513 2228 3513 1497 
Q 3513 744 3044 326 
Q 2575 -91 1722 -91 
Q 1428 -91 1123 -41 
Q 819 9 494 109 
L 494 744 
Q 775 591 1075 516 
Q 1375 441 1709 441 
Q 2250 441 2565 725 
Q 2881 1009 2881 1497 
Q 2881 1984 2565 2268 
Q 2250 2553 1709 2553 
Q 1456 2553 1204 2497 
Q 953 2441 691 2322 
L 691 4666 
z
" transform="scale(0.015625)"/>
       </defs>
       <use xlink:href="#DejaVuSans-30"/>
       <use xlink:href="#DejaVuSans-35" x="63.623047"/>
      </g>
     </g>
    </g>
    <g id="xtick_7">
     <g id="line2d_7">
      <g>
       <use xlink:href="#m2409bca298" x="195.320245" y="245.118437" style="fill: #1a1a1a; stroke: #1a1a1a; stroke-width: 0.8"/>
      </g>
     </g>
     <g id="text_7">
      <!-- 06 -->
      <g style="fill: #1a1a1a" transform="translate(190.866495 257.437344) scale(0.07 -0.07)">
       <defs>
        <path id="DejaVuSans-36" d="M 2113 2584 
Q 1688 2584 1439 2293 
Q 1191 2003 1191 1497 
Q 1191 994 1439 701 
Q 1688 409 2113 409 
Q 2538 409 2786 701 
Q 3034 994 3034 1497 
Q 3034 2003 2786 2293 
Q 2538 2584 2113 2584 
z
M 3366 4563 
L 3366 3988 
Q 3128 4100 2886 4159 
Q 2644 4219 2406 4219 
Q 1781 4219 1451 3797 
Q 1122 3375 1075 2522 
Q 1259 2794 1537 2939 
Q 1816 3084 2150 3084 
Q 2853 3084 3261 2657 
Q 3669 2231 3669 1497 
Q 3669 778 3244 343 
Q 2819 -91 2113 -91 
Q 1303 -91 875 529 
Q 447 1150 447 2328 
Q 447 3434 972 4092 
Q 1497 4750 2381 4750 
Q 2619 4750 2861 4703 
Q 3103 4656 3366 4563 
z
" transform="scale(0.015625)"/>
       </defs>
       <use xlink:href="#DejaVuSans-30"/>
       <use xlink:href="#DejaVuSans-36" x="63.623047"/>
      </g>
     </g>
    </g>
    <g id="xtick_8">
     <g id="line2d_8">
      <g>
       <use xlink:href="#m2409bca298" x="216.272814" y="245.118437" style="fill: #1a1a1a; stroke: #1a1a1a; stroke-width: 0.8"/>
      </g>
     </g>
     <g id="text_8">
      <!-- 07 -->
      <g style="fill: #1a1a1a" transform="translate(211.819064 257.437344) scale(0.07 -0.07)">
       <defs>
        <path id="DejaVuSans-37" d="M 525 4666 
L 3525 4666 
L 3525 4397 
L 1831 0 
L 1172 0 
L 2766 4134 
L 525 4134 
L 525 4666 
z
" transform="scale(0.015625)"/>
       </defs>
       <use xlink:href="#DejaVuSans-30"/>
       <use xlink:href="#DejaVuSans-37" x="63.623047"/>
      </g>
     </g>
    </g>
    <g id="xtick_9">
     <g id="line2d_9">
      <g>
       <use xlink:href="#m2409bca298" x="237.225383" y="245.118437" style="fill: #1a1a1a; stroke: #1a1a1a; stroke-width: 0.8"/>
      </g>
     </g>
     <g id="text_9">
      <!-- 08 -->
      <g style="fill: #1a1a1a" transform="translate(232.771633 257.437344) scale(0.07 -0.07)">
       <defs>
        <path id="DejaVuSans-38" d="M 2034 2216 
Q 1584 2216 1326 1975 
Q 1069 1734 1069 1313 
Q 1069 891 1326 650 
Q 1584 409 2034 409 
Q 2484 409 2743 651 
Q 3003 894 3003 1313 
Q 3003 1734 2745 1975 
Q 2488 2216 2034 2216 
z
M 1403 2484 
Q 997 2584 770 2862 
Q 544 3141 544 3541 
Q 544 4100 942 4425 
Q 1341 4750 2034 4750 
Q 2731 4750 3128 4425 
Q 3525 4100 3525 3541 
Q 3525 3141 3298 2862 
Q 3072 2584 2669 2484 
Q 3125 2378 3379 2068 
Q 3634 1759 3634 1313 
Q 3634 634 3220 271 
Q 2806 -91 2034 -91 
Q 1263 -91 848 271 
Q 434 634 434 1313 
Q 434 1759 690 2068 
Q 947 2378 1403 2484 
z
M 1172 3481 
Q 1172 3119 1398 2916 
Q 1625 2713 2034 2713 
Q 2441 2713 2670 2916 
Q 2900 3119 2900 3481 
Q 2900 3844 2670 4047 
Q 2441 4250 2034 4250 
Q 1625 4250 1398 4047 
Q 1172 3844 1172 3481 
z
" transform="scale(0.015625)"/>
       </defs>
       <use xlink:href="#DejaVuSans-30"/>
       <use xlink:href="#DejaVuSans-38" x="63.623047"/>
      </g>
     </g>
    </g>
    <g id="xtick_10">
     <g id="line2d_10">
      <g>
       <use xlink:href="#m2409bca298" x="258.177952" y="245.118437" style="fill: #1a1a1a; stroke: #1a1a1a; stroke-width: 0.8"/>
      </g>
     </g>
     <g id="text_10">
      <!-- 09 -->
      <g style="fill: #1a1a1a" transform="translate(253.724202 257.437344) scale(0.07 -0.07)">
       <defs>
        <path id="DejaVuSans-39" d="M 703 97 
L 703 672 
Q 941 559 1184 500 
Q 1428 441 1663 441 
Q 2288 441 2617 861 
Q 2947 1281 2994 2138 
Q 2813 1869 2534 1725 
Q 2256 1581 1919 1581 
Q 1219 1581 811 2004 
Q 403 2428 403 3163 
Q 403 3881 828 4315 
Q 1253 4750 1959 4750 
Q 2769 4750 3195 4129 
Q 3622 3509 3622 2328 
Q 3622 1225 3098 567 
Q 2575 -91 1691 -91 
Q 1453 -91 1209 -44 
Q 966 3 703 97 
z
M 1959 2075 
Q 2384 2075 2632 2365 
Q 2881 2656 2881 3163 
Q 2881 3666 2632 3958 
Q 2384 4250 1959 4250 
Q 1534 4250 1286 3958 
Q 1038 3666 1038 3163 
Q 1038 2656 1286 2365 
Q 1534 2075 1959 2075 
z
" transform="scale(0.015625)"/>
       </defs>
       <use xlink:href="#DejaVuSans-30"/>
       <use xlink:href="#DejaVuSans-39" x="63.623047"/>
      </g>
     </g>
    </g>
    <g id="xtick_11">
     <g id="line2d_11">
      <g>
       <use xlink:href="#m2409bca298" x="279.130521" y="245.118437" style="fill: #1a1a1a; stroke: #1a1a1a; stroke-width: 0.8"/>
      </g>
     </g>
     <g id="text_11">
      <!-- 10 -->
      <g style="fill: #1a1a1a" transform="translate(274.676771 257.437344) scale(0.07 -0.07)">
       <use xlink:href="#DejaVuSans-31"/>
       <use xlink:href="#DejaVuSans-30" x="63.623047"/>
      </g>
     </g>
    </g>
    <g id="xtick_12">
     <g id="line2d_12">
      <g>
       <use xlink:href="#m2409bca298" x="300.08309" y="245.118437" style="fill: #1a1a1a; stroke: #1a1a1a; stroke-width: 0.8"/>
      </g>
     </g>
     <g id="text_12">
      <!-- 11 -->
      <g style="fill: #1a1a1a" transform="translate(295.62934 257.437344) scale(0.07 -0.07)">
       <use xlink:href="#DejaVuSans-31"/>
       <use xlink:href="#DejaVuSans-31" x="63.623047"/>
      </g>
     </g>
    </g>
    <g id="xtick_13">
     <g id="line2d_13">
      <g>
       <use xlink:href="#m2409bca298" x="321.03566" y="245.118437" style="fill: #1a1a1a; stroke: #1a1a1a; stroke-width: 0.8"/>
      </g>
     </g>
     <g id="text_13">
      <!-- 12 -->
      <g style="fill: #1a1a1a" transform="translate(316.58191 257.437344) scale(0.07 -0.07)">
       <use xlink:href="#DejaVuSans-31"/>
       <use xlink:href="#DejaVuSans-32" x="63.623047"/>
      </g>
     </g>
    </g>
    <g id="xtick_14">
     <g id="line2d_14">
      <g>
       <use xlink:href="#m2409bca298" x="341.988229" y="245.118437" style="fill: #1a1a1a; stroke: #1a1a1a; stroke-width: 0.8"/>
      </g>
     </g>
     <g id="text_14">
      <!-- 13 -->
      <g style="fill: #1a1a1a" transform="translate(337.534479 257.437344) scale(0.07 -0.07)">
       <use xlink:href="#DejaVuSans-31"/>
       <use xlink:href="#DejaVuSans-33" x="63.623047"/>
      </g>
     </g>
    </g>
    <g id="xtick_15">
     <g id="line2d_15">
      <g>
       <use xlink:href="#m2409bca298" x="362.940798" y="245.118437" style="fill: #1a1a1a; stroke: #1a1a1a; stroke-width: 0.8"/>
      </g>
     </g>
     <g id="text_15">
      <!-- 14 -->
      <g style="fill: #1a1a1a" transform="translate(358.487048 257.437344) scale(0.07 -0.07)">
       <use xlink:href="#DejaVuSans-31"/>
       <use xlink:href="#DejaVuSans-34" x="63.623047"/>
      </g>
     </g>
    </g>
    <g id="xtick_16">
     <g id="line2d_16">
      <g>
       <use xlink:href="#m2409bca298" x="383.893367" y="245.118437" style="fill: #1a1a1a; stroke: #1a1a1a; stroke-width: 0.8"/>
      </g>
     </g>
     <g id="text_16">
      <!-- 15 -->
      <g style="fill: #1a1a1a" transform="translate(379.439617 257.437344) scale(0.07 -0.07)">
       <use xlink:href="#DejaVuSans-31"/>
       <use xlink:href="#DejaVuSans-35" x="63.623047"/>
      </g>
     </g>
    </g>
    <g id="xtick_17">
     <g id="line2d_17">
      <g>
       <use xlink:href="#m2409bca298" x="404.845936" y="245.118437" style="fill: #1a1a1a; stroke: #1a1a1a; stroke-width: 0.8"/>
      </g>
     </g>
     <g id="text_17">
      <!-- 16 -->
      <g style="fill: #1a1a1a" transform="translate(400.392186 257.437344) scale(0.07 -0.07)">
       <use xlink:href="#DejaVuSans-31"/>
       <use xlink:href="#DejaVuSans-36" x="63.623047"/>
      </g>
     </g>
    </g>
    <g id="xtick_18">
     <g id="line2d_18">
      <g>
       <use xlink:href="#m2409bca298" x="425.798505" y="245.118437" style="fill: #1a1a1a; stroke: #1a1a1a; stroke-width: 0.8"/>
      </g>
     </g>
     <g id="text_18">
      <!-- 17 -->
      <g style="fill: #1a1a1a" transform="translate(421.344755 257.437344) scale(0.07 -0.07)">
       <use xlink:href="#DejaVuSans-31"/>
       <use xlink:href="#DejaVuSans-37" x="63.623047"/>
      </g>
     </g>
    </g>
    <g id="xtick_19">
     <g id="line2d_19">
      <g>
       <use xlink:href="#m2409bca298" x="446.751075" y="245.118437" style="fill: #1a1a1a; stroke: #1a1a1a; stroke-width: 0.8"/>
      </g>
     </g>
     <g id="text_19">
      <!-- 18 -->
      <g style="fill: #1a1a1a" transform="translate(442.297325 257.437344) scale(0.07 -0.07)">
       <use xlink:href="#DejaVuSans-31"/>
       <use xlink:href="#DejaVuSans-38" x="63.623047"/>
      </g>
     </g>
    </g>
    <g id="xtick_20">
     <g id="line2d_20">
      <g>
       <use xlink:href="#m2409bca298" x="467.703644" y="245.118437" style="fill: #1a1a1a; stroke: #1a1a1a; stroke-width: 0.8"/>
      </g>
     </g>
     <g id="text_20">
      <!-- 19 -->
      <g style="fill: #1a1a1a" transform="translate(463.249894 257.437344) scale(0.07 -0.07)">
       <use xlink:href="#DejaVuSans-31"/>
       <use xlink:href="#DejaVuSans-39" x="63.623047"/>
      </g>
     </g>
    </g>
    <g id="xtick_21">
     <g id="line2d_21">
      <g>
       <use xlink:href="#m2409bca298" x="488.656213" y="245.118437" style="fill: #1a1a1a; stroke: #1a1a1a; stroke-width: 0.8"/>
      </g>
     </g>
     <g id="text_21">
      <!-- 20 -->
      <g style="fill: #1a1a1a" transform="translate(484.202463 257.437344) scale(0.07 -0.07)">
       <use xlink:href="#DejaVuSans-32"/>
       <use xlink:href="#DejaVuSans-30" x="63.623047"/>
      </g>
     </g>
    </g>
    <g id="xtick_22">
     <g id="line2d_22">
      <g>
       <use xlink:href="#m2409bca298" x="509.608782" y="245.118437" style="fill: #1a1a1a; stroke: #1a1a1a; stroke-width: 0.8"/>
      </g>
     </g>
     <g id="text_22">
      <!-- 21 -->
      <g style="fill: #1a1a1a" transform="translate(505.155032 257.437344) scale(0.07 -0.07)">
       <use xlink:href="#DejaVuSans-32"/>
       <use xlink:href="#DejaVuSans-31" x="63.623047"/>
      </g>
     </g>
    </g>
    <g id="xtick_23">
     <g id="line2d_23">
      <g>
       <use xlink:href="#m2409bca298" x="530.561351" y="245.118437" style="fill: #1a1a1a; stroke: #1a1a1a; stroke-width: 0.8"/>
      </g>
     </g>
     <g id="text_23">
      <!-- 22 -->
      <g style="fill: #1a1a1a" transform="translate(526.107601 257.437344) scale(0.07 -0.07)">
       <use xlink:href="#DejaVuSans-32"/>
       <use xlink:href="#DejaVuSans-32" x="63.623047"/>
      </g>
     </g>
    </g>
    <g id="xtick_24">
     <g id="line2d_24">
      <g>
       <use xlink:href="#m2409bca298" x="551.51392" y="245.118437" style="fill: #1a1a1a; stroke: #1a1a1a; stroke-width: 0.8"/>
      </g>
     </g>
     <g id="text_24">
      <!-- 23 -->
      <g style="fill: #1a1a1a" transform="translate(547.06017 257.437344) scale(0.07 -0.07)">
       <use xlink:href="#DejaVuSans-32"/>
       <use xlink:href="#DejaVuSans-33" x="63.623047"/>
      </g>
     </g>
    </g>
    <g id="text_25">
     <!-- Hour of day -->
     <g style="fill: #1a1a1a" transform="translate(284.244219 269.731719) scale(0.09 -0.09)">
      <defs>
       <path id="DejaVuSans-48" d="M 628 4666 
L 1259 4666 
L 1259 2753 
L 3553 2753 
L 3553 4666 
L 4184 4666 
L 4184 0 
L 3553 0 
L 3553 2222 
L 1259 2222 
L 1259 0 
L 628 0 
L 628 4666 
z
" transform="scale(0.015625)"/>
       <path id="DejaVuSans-6f" d="M 1959 3097 
Q 1497 3097 1228 2736 
Q 959 2375 959 1747 
Q 959 1119 1226 758 
Q 1494 397 1959 397 
Q 2419 397 2687 759 
Q 2956 1122 2956 1747 
Q 2956 2369 2687 2733 
Q 2419 3097 1959 3097 
z
M 1959 3584 
Q 2709 3584 3137 3096 
Q 3566 2609 3566 1747 
Q 3566 888 3137 398 
Q 2709 -91 1959 -91 
Q 1206 -91 779 398 
Q 353 888 353 1747 
Q 353 2609 779 3096 
Q 1206 3584 1959 3584 
z
" transform="scale(0.015625)"/>
       <path id="DejaVuSans-75" d="M 544 1381 
L 544 3500 
L 1119 3500 
L 1119 1403 
Q 1119 906 1312 657 
Q 1506 409 1894 409 
Q 2359 409 2629 706 
Q 2900 1003 2900 1516 
L 2900 3500 
L 3475 3500 
L 3475 0 
L 2900 0 
L 2900 538 
Q 2691 219 2414 64 
Q 2138 -91 1772 -91 
Q 1169 -91 856 284 
Q 544 659 544 1381 
z
M 1991 3584 
L 1991 3584 
z
" transform="scale(0.015625)"/>
       <path id="DejaVuSans-72" d="M 2631 2963 
Q 2534 3019 2420 3045 
Q 2306 3072 2169 3072 
Q 1681 3072 1420 2755 
Q 1159 2438 1159 1844 
L 1159 0 
L 581 0 
L 581 3500 
L 1159 3500 
L 1159 2956 
Q 1341 3275 1631 3429 
Q 1922 3584 2338 3584 
Q 2397 3584 2469 3576 
Q 2541 3569 2628 3553 
L 2631 2963 
z
" transform="scale(0.015625)"/>
       <path id="DejaVuSans-20" transform="scale(0.015625)"/>
       <path id="DejaVuSans-66" d="M 2375 4863 
L 2375 4384 
L 1825 4384 
Q 1516 4384 1395 4259 
Q 1275 4134 1275 3809 
L 1275 3500 
L 2222 3500 
L 2222 3053 
L 1275 3053 
L 1275 0 
L 697 0 
L 697 3053 
L 147 3053 
L 147 3500 
L 697 3500 
L 697 3744 
Q 697 4328 969 4595 
Q 1241 4863 1831 4863 
L 2375 4863 
z
" transform="scale(0.015625)"/>
       <path id="DejaVuSans-64" d="M 2906 2969 
L 2906 4863 
L 3481 4863 
L 3481 0 
L 2906 0 
L 2906 525 
Q 2725 213 2448 61 
Q 2172 -91 1784 -91 
Q 1150 -91 751 415 
Q 353 922 353 1747 
Q 353 2572 751 3078 
Q 1150 3584 1784 3584 
Q 2172 3584 2448 3432 
Q 2725 3281 2906 2969 
z
M 947 1747 
Q 947 1113 1208 752 
Q 1469 391 1925 391 
Q 2381 391 2643 752 
Q 2906 1113 2906 1747 
Q 2906 2381 2643 2742 
Q 2381 3103 1925 3103 
Q 1469 3103 1208 2742 
Q 947 2381 947 1747 
z
" transform="scale(0.015625)"/>
       <path id="DejaVuSans-61" d="M 2194 1759 
Q 1497 1759 1228 1600 
Q 959 1441 959 1056 
Q 959 750 1161 570 
Q 1363 391 1709 391 
Q 2188 391 2477 730 
Q 2766 1069 2766 1631 
L 2766 1759 
L 2194 1759 
z
M 3341 1997 
L 3341 0 
L 2766 0 
L 2766 531 
Q 2569 213 2275 61 
Q 1981 -91 1556 -91 
Q 1019 -91 701 211 
Q 384 513 384 1019 
Q 384 1609 779 1909 
Q 1175 2209 1959 2209 
L 2766 2209 
L 2766 2266 
Q 2766 2663 2505 2880 
Q 2244 3097 1772 3097 
Q 1472 3097 1187 3025 
Q 903 2953 641 2809 
L 641 3341 
Q 956 3463 1253 3523 
Q 1550 3584 1831 3584 
Q 2591 3584 2966 3190 
Q 3341 2797 3341 1997 
z
" transform="scale(0.015625)"/>
       <path id="DejaVuSans-79" d="M 2059 -325 
Q 1816 -950 1584 -1140 
Q 1353 -1331 966 -1331 
L 506 -1331 
L 506 -850 
L 844 -850 
Q 1081 -850 1212 -737 
Q 1344 -625 1503 -206 
L 1606 56 
L 191 3500 
L 800 3500 
L 1894 763 
L 2988 3500 
L 3597 3500 
L 2059 -325 
z
" transform="scale(0.015625)"/>
      </defs>
      <use xlink:href="#DejaVuSans-48"/>
      <use xlink:href="#DejaVuSans-6f" x="75.195312"/>
      <use xlink:href="#DejaVuSans-75" x="136.376953"/>
      <use xlink:href="#DejaVuSans-72" x="199.755859"/>
      <use xlink:href="#DejaVuSans-20" x="240.869141"/>
      <use xlink:href="#DejaVuSans-6f" x="272.65625"/>
      <use xlink:href="#DejaVuSans-66" x="333.837891"/>
      <use xlink:href="#DejaVuSans-20" x="369.042969"/>
      <use xlink:href="#DejaVuSans-64" x="400.830078"/>
      <use xlink:href="#DejaVuSans-61" x="464.306641"/>
      <use xlink:href="#DejaVuSans-79" x="525.585938"/>
     </g>
    </g>
   </g>
   <g id="matplotlib.axis_2">
    <g id="ytick_1">
     <g id="line2d_25">
      <defs>
       <path id="mb4e44a5b2d" d="M 0 0 
L -3.5 0 
" style="stroke: #1a1a1a; stroke-width: 0.8"/>
      </defs>
      <g>
       <use xlink:href="#mb4e44a5b2d" x="45.509375" y="223.645422" style="fill: #1a1a1a; stroke: #1a1a1a; stroke-width: 0.8"/>
      </g>
     </g>
     <g id="text_26">
      <!-- 0.04 -->
      <g style="fill: #1a1a1a" transform="translate(18.470312 227.064719) scale(0.09 -0.09)">
       <defs>
        <path id="DejaVuSans-2e" d="M 684 794 
L 1344 794 
L 1344 0 
L 684 0 
L 684 794 
z
" transform="scale(0.015625)"/>
       </defs>
       <use xlink:href="#DejaVuSans-30"/>
       <use xlink:href="#DejaVuSans-2e" x="63.623047"/>
       <use xlink:href="#DejaVuSans-30" x="95.410156"/>
       <use xlink:href="#DejaVuSans-34" x="159.033203"/>
      </g>
     </g>
    </g>
    <g id="ytick_2">
     <g id="line2d_26">
      <g>
       <use xlink:href="#mb4e44a5b2d" x="45.509375" y="193.268067" style="fill: #1a1a1a; stroke: #1a1a1a; stroke-width: 0.8"/>
      </g>
     </g>
     <g id="text_27">
      <!-- 0.06 -->
      <g style="fill: #1a1a1a" transform="translate(18.470312 196.687363) scale(0.09 -0.09)">
       <use xlink:href="#DejaVuSans-30"/>
       <use xlink:href="#DejaVuSans-2e" x="63.623047"/>
       <use xlink:href="#DejaVuSans-30" x="95.410156"/>
       <use xlink:href="#DejaVuSans-36" x="159.033203"/>
      </g>
     </g>
    </g>
    <g id="ytick_3">
     <g id="line2d_27">
      <g>
       <use xlink:href="#mb4e44a5b2d" x="45.509375" y="162.890711" style="fill: #1a1a1a; stroke: #1a1a1a; stroke-width: 0.8"/>
      </g>
     </g>
     <g id="text_28">
      <!-- 0.08 -->
      <g style="fill: #1a1a1a" transform="translate(18.470312 166.310008) scale(0.09 -0.09)">
       <use xlink:href="#DejaVuSans-30"/>
       <use xlink:href="#DejaVuSans-2e" x="63.623047"/>
       <use xlink:href="#DejaVuSans-30" x="95.410156"/>
       <use xlink:href="#DejaVuSans-38" x="159.033203"/>
      </g>
     </g>
    </g>
    <g id="ytick_4">
     <g id="line2d_28">
      <g>
       <use xlink:href="#mb4e44a5b2d" x="45.509375" y="132.513356" style="fill: #1a1a1a; stroke: #1a1a1a; stroke-width: 0.8"/>
      </g>
     </g>
     <g id="text_29">
      <!-- 0.10 -->
      <g style="fill: #1a1a1a" transform="translate(18.470312 135.932653) scale(0.09 -0.09)">
       <use xlink:href="#DejaVuSans-30"/>
       <use xlink:href="#DejaVuSans-2e" x="63.623047"/>
       <use xlink:href="#DejaVuSans-31" x="95.410156"/>
       <use xlink:href="#DejaVuSans-30" x="159.033203"/>
      </g>
     </g>
    </g>
    <g id="ytick_5">
     <g id="line2d_29">
      <g>
       <use xlink:href="#mb4e44a5b2d" x="45.509375" y="102.136" style="fill: #1a1a1a; stroke: #1a1a1a; stroke-width: 0.8"/>
      </g>
     </g>
     <g id="text_30">
      <!-- 0.12 -->
      <g style="fill: #1a1a1a" transform="translate(18.470312 105.555297) scale(0.09 -0.09)">
       <use xlink:href="#DejaVuSans-30"/>
       <use xlink:href="#DejaVuSans-2e" x="63.623047"/>
       <use xlink:href="#DejaVuSans-31" x="95.410156"/>
       <use xlink:href="#DejaVuSans-32" x="159.033203"/>
      </g>
     </g>
    </g>
    <g id="ytick_6">
     <g id="line2d_30">
      <g>
       <use xlink:href="#mb4e44a5b2d" x="45.509375" y="71.758645" style="fill: #1a1a1a; stroke: #1a1a1a; stroke-width: 0.8"/>
      </g>
     </g>
     <g id="text_31">
      <!-- 0.14 -->
      <g style="fill: #1a1a1a" transform="translate(18.470312 75.177942) scale(0.09 -0.09)">
       <use xlink:href="#DejaVuSans-30"/>
       <use xlink:href="#DejaVuSans-2e" x="63.623047"/>
       <use xlink:href="#DejaVuSans-31" x="95.410156"/>
       <use xlink:href="#DejaVuSans-34" x="159.033203"/>
      </g>
     </g>
    </g>
    <g id="ytick_7">
     <g id="line2d_31">
      <g>
       <use xlink:href="#mb4e44a5b2d" x="45.509375" y="41.381289" style="fill: #1a1a1a; stroke: #1a1a1a; stroke-width: 0.8"/>
      </g>
     </g>
     <g id="text_32">
      <!-- 0.16 -->
      <g style="fill: #1a1a1a" transform="translate(18.470312 44.800586) scale(0.09 -0.09)">
       <use xlink:href="#DejaVuSans-30"/>
       <use xlink:href="#DejaVuSans-2e" x="63.623047"/>
       <use xlink:href="#DejaVuSans-31" x="95.410156"/>
       <use xlink:href="#DejaVuSans-36" x="159.033203"/>
      </g>
     </g>
    </g>
    <g id="text_33">
     <!-- Mean aggression level -->
     <g style="fill: #e8a23d" transform="translate(12.598594 184.594141) rotate(-90) scale(0.09 -0.09)">
      <defs>
       <path id="DejaVuSans-4d" d="M 628 4666 
L 1569 4666 
L 2759 1491 
L 3956 4666 
L 4897 4666 
L 4897 0 
L 4281 0 
L 4281 4097 
L 3078 897 
L 2444 897 
L 1241 4097 
L 1241 0 
L 628 0 
L 628 4666 
z
" transform="scale(0.015625)"/>
       <path id="DejaVuSans-65" d="M 3597 1894 
L 3597 1613 
L 953 1613 
Q 991 1019 1311 708 
Q 1631 397 2203 397 
Q 2534 397 2845 478 
Q 3156 559 3463 722 
L 3463 178 
Q 3153 47 2828 -22 
Q 2503 -91 2169 -91 
Q 1331 -91 842 396 
Q 353 884 353 1716 
Q 353 2575 817 3079 
Q 1281 3584 2069 3584 
Q 2775 3584 3186 3129 
Q 3597 2675 3597 1894 
z
M 3022 2063 
Q 3016 2534 2758 2815 
Q 2500 3097 2075 3097 
Q 1594 3097 1305 2825 
Q 1016 2553 972 2059 
L 3022 2063 
z
" transform="scale(0.015625)"/>
       <path id="DejaVuSans-6e" d="M 3513 2113 
L 3513 0 
L 2938 0 
L 2938 2094 
Q 2938 2591 2744 2837 
Q 2550 3084 2163 3084 
Q 1697 3084 1428 2787 
Q 1159 2491 1159 1978 
L 1159 0 
L 581 0 
L 581 3500 
L 1159 3500 
L 1159 2956 
Q 1366 3272 1645 3428 
Q 1925 3584 2291 3584 
Q 2894 3584 3203 3211 
Q 3513 2838 3513 2113 
z
" transform="scale(0.015625)"/>
       <path id="DejaVuSans-67" d="M 2906 1791 
Q 2906 2416 2648 2759 
Q 2391 3103 1925 3103 
Q 1463 3103 1205 2759 
Q 947 2416 947 1791 
Q 947 1169 1205 825 
Q 1463 481 1925 481 
Q 2391 481 2648 825 
Q 2906 1169 2906 1791 
z
M 3481 434 
Q 3481 -459 3084 -895 
Q 2688 -1331 1869 -1331 
Q 1566 -1331 1297 -1286 
Q 1028 -1241 775 -1147 
L 775 -588 
Q 1028 -725 1275 -790 
Q 1522 -856 1778 -856 
Q 2344 -856 2625 -561 
Q 2906 -266 2906 331 
L 2906 616 
Q 2728 306 2450 153 
Q 2172 0 1784 0 
Q 1141 0 747 490 
Q 353 981 353 1791 
Q 353 2603 747 3093 
Q 1141 3584 1784 3584 
Q 2172 3584 2450 3431 
Q 2728 3278 2906 2969 
L 2906 3500 
L 3481 3500 
L 3481 434 
z
" transform="scale(0.015625)"/>
       <path id="DejaVuSans-73" d="M 2834 3397 
L 2834 2853 
Q 2591 2978 2328 3040 
Q 2066 3103 1784 3103 
Q 1356 3103 1142 2972 
Q 928 2841 928 2578 
Q 928 2378 1081 2264 
Q 1234 2150 1697 2047 
L 1894 2003 
Q 2506 1872 2764 1633 
Q 3022 1394 3022 966 
Q 3022 478 2636 193 
Q 2250 -91 1575 -91 
Q 1294 -91 989 -36 
Q 684 19 347 128 
L 347 722 
Q 666 556 975 473 
Q 1284 391 1588 391 
Q 1994 391 2212 530 
Q 2431 669 2431 922 
Q 2431 1156 2273 1281 
Q 2116 1406 1581 1522 
L 1381 1569 
Q 847 1681 609 1914 
Q 372 2147 372 2553 
Q 372 3047 722 3315 
Q 1072 3584 1716 3584 
Q 2034 3584 2315 3537 
Q 2597 3491 2834 3397 
z
" transform="scale(0.015625)"/>
       <path id="DejaVuSans-69" d="M 603 3500 
L 1178 3500 
L 1178 0 
L 603 0 
L 603 3500 
z
M 603 4863 
L 1178 4863 
L 1178 4134 
L 603 4134 
L 603 4863 
z
" transform="scale(0.015625)"/>
       <path id="DejaVuSans-6c" d="M 603 4863 
L 1178 4863 
L 1178 0 
L 603 0 
L 603 4863 
z
" transform="scale(0.015625)"/>
       <path id="DejaVuSans-76" d="M 191 3500 
L 800 3500 
L 1894 563 
L 2988 3500 
L 3597 3500 
L 2284 0 
L 1503 0 
L 191 3500 
z
" transform="scale(0.015625)"/>
      </defs>
      <use xlink:href="#DejaVuSans-4d"/>
      <use xlink:href="#DejaVuSans-65" x="86.279297"/>
      <use xlink:href="#DejaVuSans-61" x="147.802734"/>
      <use xlink:href="#DejaVuSans-6e" x="209.082031"/>
      <use xlink:href="#DejaVuSans-20" x="272.460938"/>
      <use xlink:href="#DejaVuSans-61" x="304.248047"/>
      <use xlink:href="#DejaVuSans-67" x="365.527344"/>
      <use xlink:href="#DejaVuSans-67" x="429.003906"/>
      <use xlink:href="#DejaVuSans-72" x="492.480469"/>
      <use xlink:href="#DejaVuSans-65" x="531.34375"/>
      <use xlink:href="#DejaVuSans-73" x="592.867188"/>
      <use xlink:href="#DejaVuSans-73" x="644.966797"/>
      <use xlink:href="#DejaVuSans-69" x="697.066406"/>
      <use xlink:href="#DejaVuSans-6f" x="724.849609"/>
      <use xlink:href="#DejaVuSans-6e" x="786.03125"/>
      <use xlink:href="#DejaVuSans-20" x="849.410156"/>
      <use xlink:href="#DejaVuSans-6c" x="881.197266"/>
      <use xlink:href="#DejaVuSans-65" x="908.980469"/>
      <use xlink:href="#DejaVuSans-76" x="970.503906"/>
      <use xlink:href="#DejaVuSans-65" x="1029.683594"/>
      <use xlink:href="#DejaVuSans-6c" x="1091.207031"/>
     </g>
    </g>
   </g>
   <g id="line2d_32">
    <path d="M 69.60483 113.22502 
L 90.557399 107.566845 
L 111.509968 72.666758 
L 132.462537 39.408466 
L 153.415106 33.438437 
L 174.367675 44.56767 
L 195.320245 57.289018 
L 216.272814 105.417107 
L 237.225383 205.573616 
L 258.177952 196.954589 
L 279.130521 223.265634 
L 300.08309 225.929911 
L 321.03566 229.507402 
L 341.988229 235.038437 
L 362.940798 234.288851 
L 383.893367 231.332609 
L 404.845936 229.739138 
L 425.798505 233.836389 
L 446.751075 225.906092 
L 467.703644 212.283271 
L 488.656213 196.059694 
L 509.608782 176.270575 
L 530.561351 157.324205 
L 551.51392 154.883264 
" clip-path="url(#p3f58a35c0c)" style="fill: none; stroke: #e8a23d; stroke-width: 2; stroke-linecap: square"/>
   </g>
   <g id="patch_3">
    <path d="M 45.509375 245.118437 
L 45.509375 23.358437 
" style="fill: none; stroke: #1a1a1a; stroke-width: 0.8; stroke-linejoin: miter; stroke-linecap: square"/>
   </g>
   <g id="patch_4">
    <path d="M 575.609375 245.118437 
L 575.609375 23.358437 
" style="fill: none; stroke: #1a1a1a; stroke-width: 0.8; stroke-linejoin: miter; stroke-linecap: square"/>
   </g>
   <g id="patch_5">
    <path d="M 45.509375 245.118437 
L 575.609375 245.118437 
" style="fill: none; stroke: #1a1a1a; stroke-width: 0.8; stroke-linejoin: miter; stroke-linecap: square"/>
   </g>
   <g id="patch_6">
    <path d="M 45.509375 23.358437 
L 575.609375 23.358437 
" style="fill: none; stroke: #1a1a1a; stroke-width: 0.8; stroke-linejoin: miter; stroke-linecap: square"/>
   </g>
   <g id="text_34">
    <!-- Loneliest at 4 AM — aggression vs traffic -->
    <g style="fill: #1a1a1a" transform="translate(208.5125 13.358437) scale(0.1 -0.1)">
     <defs>
      <path id="DejaVuSans-4c" d="M 628 4666 
L 1259 4666 
L 1259 531 
L 3531 531 
L 3531 0 
L 628 0 
L 628 4666 
z
" transform="scale(0.015625)"/>
      <path id="DejaVuSans-74" d="M 1172 4494 
L 1172 3500 
L 2356 3500 
L 2356 3053 
L 1172 3053 
L 1172 1153 
Q 1172 725 1289 603 
Q 1406 481 1766 481 
L 2356 481 
L 2356 0 
L 1766 0 
Q 1100 0 847 248 
Q 594 497 594 1153 
L 594 3053 
L 172 3053 
L 172 3500 
L 594 3500 
L 594 4494 
L 1172 4494 
z
" transform="scale(0.015625)"/>
      <path id="DejaVuSans-41" d="M 2188 4044 
L 1331 1722 
L 3047 1722 
L 2188 4044 
z
M 1831 4666 
L 2547 4666 
L 4325 0 
L 3669 0 
L 3244 1197 
L 1141 1197 
L 716 0 
L 50 0 
L 1831 4666 
z
" transform="scale(0.015625)"/>
      <path id="DejaVuSans-2014" d="M 313 1978 
L 6088 1978 
L 6088 1528 
L 313 1528 
L 313 1978 
z
" transform="scale(0.015625)"/>
      <path id="DejaVuSans-63" d="M 3122 3366 
L 3122 2828 
Q 2878 2963 2633 3030 
Q 2388 3097 2138 3097 
Q 1578 3097 1268 2742 
Q 959 2388 959 1747 
Q 959 1106 1268 751 
Q 1578 397 2138 397 
Q 2388 397 2633 464 
Q 2878 531 3122 666 
L 3122 134 
Q 2881 22 2623 -34 
Q 2366 -91 2075 -91 
Q 1284 -91 818 406 
Q 353 903 353 1747 
Q 353 2603 823 3093 
Q 1294 3584 2113 3584 
Q 2378 3584 2631 3529 
Q 2884 3475 3122 3366 
z
" transform="scale(0.015625)"/>
     </defs>
     <use xlink:href="#DejaVuSans-4c"/>
     <use xlink:href="#DejaVuSans-6f" x="53.962891"/>
     <use xlink:href="#DejaVuSans-6e" x="115.144531"/>
     <use xlink:href="#DejaVuSans-65" x="178.523438"/>
     <use xlink:href="#DejaVuSans-6c" x="240.046875"/>
     <use xlink:href="#DejaVuSans-69" x="267.830078"/>
     <use xlink:href="#DejaVuSans-65" x="295.613281"/>
     <use xlink:href="#DejaVuSans-73" x="357.136719"/>
     <use xlink:href="#DejaVuSans-74" x="409.236328"/>
     <use xlink:href="#DejaVuSans-20" x="448.445312"/>
     <use xlink:href="#DejaVuSans-61" x="480.232422"/>
     <use xlink:href="#DejaVuSans-74" x="541.511719"/>
     <use xlink:href="#DejaVuSans-20" x="580.720703"/>
     <use xlink:href="#DejaVuSans-34" x="612.507812"/>
     <use xlink:href="#DejaVuSans-20" x="676.130859"/>
     <use xlink:href="#DejaVuSans-41" x="707.917969"/>
     <use xlink:href="#DejaVuSans-4d" x="776.326172"/>
     <use xlink:href="#DejaVuSans-20" x="862.605469"/>
     <use xlink:href="#DejaVuSans-2014" x="894.392578"/>
     <use xlink:href="#DejaVuSans-20" x="994.392578"/>
     <use xlink:href="#DejaVuSans-61" x="1026.179688"/>
     <use xlink:href="#DejaVuSans-67" x="1087.458984"/>
     <use xlink:href="#DejaVuSans-67" x="1150.935547"/>
     <use xlink:href="#DejaVuSans-72" x="1214.412109"/>
     <use xlink:href="#DejaVuSans-65" x="1253.275391"/>
     <use xlink:href="#DejaVuSans-73" x="1314.798828"/>
     <use xlink:href="#DejaVuSans-73" x="1366.898438"/>
     <use xlink:href="#DejaVuSans-69" x="1418.998047"/>
     <use xlink:href="#DejaVuSans-6f" x="1446.78125"/>
     <use xlink:href="#DejaVuSans-6e" x="1507.962891"/>
     <use xlink:href="#DejaVuSans-20" x="1571.341797"/>
     <use xlink:href="#DejaVuSans-76" x="1603.128906"/>
     <use xlink:href="#DejaVuSans-73" x="1662.308594"/>
     <use xlink:href="#DejaVuSans-20" x="1714.408203"/>
     <use xlink:href="#DejaVuSans-74" x="1746.195312"/>
     <use xlink:href="#DejaVuSans-72" x="1785.404297"/>
     <use xlink:href="#DejaVuSans-61" x="1826.517578"/>
     <use xlink:href="#DejaVuSans-66" x="1887.796875"/>
     <use xlink:href="#DejaVuSans-66" x="1923.001953"/>
     <use xlink:href="#DejaVuSans-69" x="1958.207031"/>
     <use xlink:href="#DejaVuSans-63" x="1985.990234"/>
    </g>
   </g>
   <g id="legend_1">
    <g id="line2d_33">
     <path d="M 471.553125 33.837187 
L 479.553125 33.837187 
L 487.553125 33.837187 
" style="fill: none; stroke: #e8a23d; stroke-width: 2; stroke-linecap: square"/>
    </g>
    <g id="text_35">
     <!-- Aggression (tuner) -->
     <g style="fill: #1a1a1a" transform="translate(493.953125 36.637187) scale(0.08 -0.08)">
      <defs>
       <path id="DejaVuSans-28" d="M 1984 4856 
Q 1566 4138 1362 3434 
Q 1159 2731 1159 2009 
Q 1159 1288 1364 580 
Q 1569 -128 1984 -844 
L 1484 -844 
Q 1016 -109 783 600 
Q 550 1309 550 2009 
Q 550 2706 781 3412 
Q 1013 4119 1484 4856 
L 1984 4856 
z
" transform="scale(0.015625)"/>
       <path id="DejaVuSans-29" d="M 513 4856 
L 1013 4856 
Q 1481 4119 1714 3412 
Q 1947 2706 1947 2009 
Q 1947 1309 1714 600 
Q 1481 -109 1013 -844 
L 513 -844 
Q 928 -128 1133 580 
Q 1338 1288 1338 2009 
Q 1338 2731 1133 3434 
Q 928 4138 513 4856 
z
" transform="scale(0.015625)"/>
      </defs>
      <use xlink:href="#DejaVuSans-41"/>
      <use xlink:href="#DejaVuSans-67" x="68.408203"/>
      <use xlink:href="#DejaVuSans-67" x="131.884766"/>
      <use xlink:href="#DejaVuSans-72" x="195.361328"/>
      <use xlink:href="#DejaVuSans-65" x="234.224609"/>
      <use xlink:href="#DejaVuSans-73" x="295.748047"/>
      <use xlink:href="#DejaVuSans-73" x="347.847656"/>
      <use xlink:href="#DejaVuSans-69" x="399.947266"/>
      <use xlink:href="#DejaVuSans-6f" x="427.730469"/>
      <use xlink:href="#DejaVuSans-6e" x="488.912109"/>
      <use xlink:href="#DejaVuSans-20" x="552.291016"/>
      <use xlink:href="#DejaVuSans-28" x="584.078125"/>
      <use xlink:href="#DejaVuSans-74" x="623.091797"/>
      <use xlink:href="#DejaVuSans-75" x="662.300781"/>
      <use xlink:href="#DejaVuSans-6e" x="725.679688"/>
      <use xlink:href="#DejaVuSans-65" x="789.058594"/>
      <use xlink:href="#DejaVuSans-72" x="850.582031"/>
      <use xlink:href="#DejaVuSans-29" x="891.695312"/>
     </g>
    </g>
    <g id="line2d_34">
     <path d="M 471.553125 45.579687 
L 479.553125 45.579687 
L 487.553125 45.579687 
" style="fill: none; stroke-dasharray: 7.03,3.04; stroke-dashoffset: 0; stroke: #6e6e6e; stroke-width: 1.9"/>
    </g>
    <g id="text_36">
     <!-- People / hour -->
     <g style="fill: #1a1a1a" transform="translate(493.953125 48.379687) scale(0.08 -0.08)">
      <defs>
       <path id="DejaVuSans-50" d="M 1259 4147 
L 1259 2394 
L 2053 2394 
Q 2494 2394 2734 2622 
Q 2975 2850 2975 3272 
Q 2975 3691 2734 3919 
Q 2494 4147 2053 4147 
L 1259 4147 
z
M 628 4666 
L 2053 4666 
Q 2838 4666 3239 4311 
Q 3641 3956 3641 3272 
Q 3641 2581 3239 2228 
Q 2838 1875 2053 1875 
L 1259 1875 
L 1259 0 
L 628 0 
L 628 4666 
z
" transform="scale(0.015625)"/>
       <path id="DejaVuSans-70" d="M 1159 525 
L 1159 -1331 
L 581 -1331 
L 581 3500 
L 1159 3500 
L 1159 2969 
Q 1341 3281 1617 3432 
Q 1894 3584 2278 3584 
Q 2916 3584 3314 3078 
Q 3713 2572 3713 1747 
Q 3713 922 3314 415 
Q 2916 -91 2278 -91 
Q 1894 -91 1617 61 
Q 1341 213 1159 525 
z
M 3116 1747 
Q 3116 2381 2855 2742 
Q 2594 3103 2138 3103 
Q 1681 3103 1420 2742 
Q 1159 2381 1159 1747 
Q 1159 1113 1420 752 
Q 1681 391 2138 391 
Q 2594 391 2855 752 
Q 3116 1113 3116 1747 
z
" transform="scale(0.015625)"/>
       <path id="DejaVuSans-2f" d="M 1625 4666 
L 2156 4666 
L 531 -594 
L 0 -594 
L 1625 4666 
z
" transform="scale(0.015625)"/>
       <path id="DejaVuSans-68" d="M 3513 2113 
L 3513 0 
L 2938 0 
L 2938 2094 
Q 2938 2591 2744 2837 
Q 2550 3084 2163 3084 
Q 1697 3084 1428 2787 
Q 1159 2491 1159 1978 
L 1159 0 
L 581 0 
L 581 4863 
L 1159 4863 
L 1159 2956 
Q 1366 3272 1645 3428 
Q 1925 3584 2291 3584 
Q 2894 3584 3203 3211 
Q 3513 2838 3513 2113 
z
" transform="scale(0.015625)"/>
      </defs>
      <use xlink:href="#DejaVuSans-50"/>
      <use xlink:href="#DejaVuSans-65" x="56.677734"/>
      <use xlink:href="#DejaVuSans-6f" x="118.201172"/>
      <use xlink:href="#DejaVuSans-70" x="179.382812"/>
      <use xlink:href="#DejaVuSans-6c" x="242.859375"/>
      <use xlink:href="#DejaVuSans-65" x="270.642578"/>
      <use xlink:href="#DejaVuSans-20" x="332.166016"/>
      <use xlink:href="#DejaVuSans-2f" x="363.953125"/>
      <use xlink:href="#DejaVuSans-20" x="397.644531"/>
      <use xlink:href="#DejaVuSans-68" x="429.431641"/>
      <use xlink:href="#DejaVuSans-6f" x="492.810547"/>
      <use xlink:href="#DejaVuSans-75" x="553.992188"/>
      <use xlink:href="#DejaVuSans-72" x="617.371094"/>
     </g>
    </g>
   </g>
  </g>
  <g id="axes_2">
   <g id="matplotlib.axis_3">
    <g id="ytick_8">
     <g id="line2d_35">
      <defs>
       <path id="mccdc7cb916" d="M 0 0 
L 3.5 0 
" style="stroke: #1a1a1a; stroke-width: 0.8"/>
      </defs>
      <g>
       <use xlink:href="#mccdc7cb916" x="575.609375" y="237.190853" style="fill: #1a1a1a; stroke: #1a1a1a; stroke-width: 0.8"/>
      </g>
     </g>
     <g id="text_37">
      <!-- 0 -->
      <g style="fill: #1a1a1a" transform="translate(582.609375 240.61015) scale(0.09 -0.09)">
       <use xlink:href="#DejaVuSans-30"/>
      </g>
     </g>
    </g>
    <g id="ytick_9">
     <g id="line2d_36">
      <g>
       <use xlink:href="#mccdc7cb916" x="575.609375" y="208.252122" style="fill: #1a1a1a; stroke: #1a1a1a; stroke-width: 0.8"/>
      </g>
     </g>
     <g id="text_38">
      <!-- 250 -->
      <g style="fill: #1a1a1a" transform="translate(582.609375 211.671419) scale(0.09 -0.09)">
       <use xlink:href="#DejaVuSans-32"/>
       <use xlink:href="#DejaVuSans-35" x="63.623047"/>
       <use xlink:href="#DejaVuSans-30" x="127.246094"/>
      </g>
     </g>
    </g>
    <g id="ytick_10">
     <g id="line2d_37">
      <g>
       <use xlink:href="#mccdc7cb916" x="575.609375" y="179.31339" style="fill: #1a1a1a; stroke: #1a1a1a; stroke-width: 0.8"/>
      </g>
     </g>
     <g id="text_39">
      <!-- 500 -->
      <g style="fill: #1a1a1a" transform="translate(582.609375 182.732687) scale(0.09 -0.09)">
       <use xlink:href="#DejaVuSans-35"/>
       <use xlink:href="#DejaVuSans-30" x="63.623047"/>
       <use xlink:href="#DejaVuSans-30" x="127.246094"/>
      </g>
     </g>
    </g>
    <g id="ytick_11">
     <g id="line2d_38">
      <g>
       <use xlink:href="#mccdc7cb916" x="575.609375" y="150.374658" style="fill: #1a1a1a; stroke: #1a1a1a; stroke-width: 0.8"/>
      </g>
     </g>
     <g id="text_40">
      <!-- 750 -->
      <g style="fill: #1a1a1a" transform="translate(582.609375 153.793955) scale(0.09 -0.09)">
       <use xlink:href="#DejaVuSans-37"/>
       <use xlink:href="#DejaVuSans-35" x="63.623047"/>
       <use xlink:href="#DejaVuSans-30" x="127.246094"/>
      </g>
     </g>
    </g>
    <g id="ytick_12">
     <g id="line2d_39">
      <g>
       <use xlink:href="#mccdc7cb916" x="575.609375" y="121.435927" style="fill: #1a1a1a; stroke: #1a1a1a; stroke-width: 0.8"/>
      </g>
     </g>
     <g id="text_41">
      <!-- 1000 -->
      <g style="fill: #1a1a1a" transform="translate(582.609375 124.855223) scale(0.09 -0.09)">
       <use xlink:href="#DejaVuSans-31"/>
       <use xlink:href="#DejaVuSans-30" x="63.623047"/>
       <use xlink:href="#DejaVuSans-30" x="127.246094"/>
       <use xlink:href="#DejaVuSans-30" x="190.869141"/>
      </g>
     </g>
    </g>
    <g id="ytick_13">
     <g id="line2d_40">
      <g>
       <use xlink:href="#mccdc7cb916" x="575.609375" y="92.497195" style="fill: #1a1a1a; stroke: #1a1a1a; stroke-width: 0.8"/>
      </g>
     </g>
     <g id="text_42">
      <!-- 1250 -->
      <g style="fill: #1a1a1a" transform="translate(582.609375 95.916492) scale(0.09 -0.09)">
       <use xlink:href="#DejaVuSans-31"/>
       <use xlink:href="#DejaVuSans-32" x="63.623047"/>
       <use xlink:href="#DejaVuSans-35" x="127.246094"/>
       <use xlink:href="#DejaVuSans-30" x="190.869141"/>
      </g>
     </g>
    </g>
    <g id="ytick_14">
     <g id="line2d_41">
      <g>
       <use xlink:href="#mccdc7cb916" x="575.609375" y="63.558463" style="fill: #1a1a1a; stroke: #1a1a1a; stroke-width: 0.8"/>
      </g>
     </g>
     <g id="text_43">
      <!-- 1500 -->
      <g style="fill: #1a1a1a" transform="translate(582.609375 66.97776) scale(0.09 -0.09)">
       <use xlink:href="#DejaVuSans-31"/>
       <use xlink:href="#DejaVuSans-35" x="63.623047"/>
       <use xlink:href="#DejaVuSans-30" x="127.246094"/>
       <use xlink:href="#DejaVuSans-30" x="190.869141"/>
      </g>
     </g>
    </g>
    <g id="ytick_15">
     <g id="line2d_42">
      <g>
       <use xlink:href="#mccdc7cb916" x="575.609375" y="34.619731" style="fill: #1a1a1a; stroke: #1a1a1a; stroke-width: 0.8"/>
      </g>
     </g>
     <g id="text_44">
      <!-- 1750 -->
      <g style="fill: #1a1a1a" transform="translate(582.609375 38.039028) scale(0.09 -0.09)">
       <use xlink:href="#DejaVuSans-31"/>
       <use xlink:href="#DejaVuSans-37" x="63.623047"/>
       <use xlink:href="#DejaVuSans-35" x="127.246094"/>
       <use xlink:href="#DejaVuSans-30" x="190.869141"/>
      </g>
     </g>
    </g>
    <g id="text_45">
     <!-- Mean people per hour -->
     <g style="fill: #6e6e6e" transform="translate(616.352969 183.827734) rotate(-90) scale(0.09 -0.09)">
      <use xlink:href="#DejaVuSans-4d"/>
      <use xlink:href="#DejaVuSans-65" x="86.279297"/>
      <use xlink:href="#DejaVuSans-61" x="147.802734"/>
      <use xlink:href="#DejaVuSans-6e" x="209.082031"/>
      <use xlink:href="#DejaVuSans-20" x="272.460938"/>
      <use xlink:href="#DejaVuSans-70" x="304.248047"/>
      <use xlink:href="#DejaVuSans-65" x="367.724609"/>
      <use xlink:href="#DejaVuSans-6f" x="429.248047"/>
      <use xlink:href="#DejaVuSans-70" x="490.429688"/>
      <use xlink:href="#DejaVuSans-6c" x="553.90625"/>
      <use xlink:href="#DejaVuSans-65" x="581.689453"/>
      <use xlink:href="#DejaVuSans-20" x="643.212891"/>
      <use xlink:href="#DejaVuSans-70" x="675"/>
      <use xlink:href="#DejaVuSans-65" x="738.476562"/>
      <use xlink:href="#DejaVuSans-72" x="800"/>
      <use xlink:href="#DejaVuSans-20" x="841.113281"/>
      <use xlink:href="#DejaVuSans-68" x="872.900391"/>
      <use xlink:href="#DejaVuSans-6f" x="936.279297"/>
      <use xlink:href="#DejaVuSans-75" x="997.460938"/>
      <use xlink:href="#DejaVuSans-72" x="1060.839844"/>
     </g>
    </g>
   </g>
   <g id="line2d_43">
    <path d="M 69.60483 224.579823 
L 90.557399 232.366689 
L 111.509968 233.45693 
L 132.462537 235.029052 
L 153.415106 235.038437 
L 174.367675 230.883774 
L 195.320245 222.195898 
L 216.272814 192.76599 
L 237.225383 131.140569 
L 258.177952 149.305448 
L 279.130521 164.89408 
L 300.08309 143.757856 
L 321.03566 122.840628 
L 341.988229 132.341918 
L 362.940798 136.892255 
L 383.893367 106.410937 
L 404.845936 33.438437 
L 425.798505 36.246557 
L 446.751075 124.511253 
L 467.703644 167.431303 
L 488.656213 184.584932 
L 509.608782 191.204862 
L 530.561351 192.374926 
L 551.51392 216.339324 
" clip-path="url(#p3f58a35c0c)" style="fill: none; stroke-dasharray: 7.03,3.04; stroke-dashoffset: 0; stroke: #6e6e6e; stroke-width: 1.9"/>
   </g>
   <g id="patch_7">
    <path d="M 45.509375 245.118437 
L 45.509375 23.358438 
" style="fill: none; stroke: #1a1a1a; stroke-width: 0.8; stroke-linejoin: miter; stroke-linecap: square"/>
   </g>
   <g id="patch_8">
    <path d="M 575.609375 245.118437 
L 575.609375 23.358438 
" style="fill: none; stroke: #1a1a1a; stroke-width: 0.8; stroke-linejoin: miter; stroke-linecap: square"/>
   </g>
   <g id="patch_9">
    <path d="M 45.509375 245.118437 
L 575.609375 245.118437 
" style="fill: none; stroke: #1a1a1a; stroke-width: 0.8; stroke-linejoin: miter; stroke-linecap: square"/>
   </g>
   <g id="patch_10">
    <path d="M 45.509375 23.358437 
L 575.609375 23.358437 
" style="fill: none; stroke: #1a1a1a; stroke-width: 0.8; stroke-linejoin: miter; stroke-linecap: square"/>
   </g>
  </g>
  <g id="text_46">
   <!-- 217K tuning cycles · opposite phase by design. -->
   <g style="fill: #555555" transform="translate(14.729375 271.038437) scale(0.08 -0.08)">
    <defs>
     <path id="DejaVuSans-4b" d="M 628 4666 
L 1259 4666 
L 1259 2694 
L 3353 4666 
L 4166 4666 
L 1850 2491 
L 4331 0 
L 3500 0 
L 1259 2247 
L 1259 0 
L 628 0 
L 628 4666 
z
" transform="scale(0.015625)"/>
     <path id="DejaVuSans-b7" d="M 684 2619 
L 1344 2619 
L 1344 1825 
L 684 1825 
L 684 2619 
z
" transform="scale(0.015625)"/>
     <path id="DejaVuSans-62" d="M 3116 1747 
Q 3116 2381 2855 2742 
Q 2594 3103 2138 3103 
Q 1681 3103 1420 2742 
Q 1159 2381 1159 1747 
Q 1159 1113 1420 752 
Q 1681 391 2138 391 
Q 2594 391 2855 752 
Q 3116 1113 3116 1747 
z
M 1159 2969 
Q 1341 3281 1617 3432 
Q 1894 3584 2278 3584 
Q 2916 3584 3314 3078 
Q 3713 2572 3713 1747 
Q 3713 922 3314 415 
Q 2916 -91 2278 -91 
Q 1894 -91 1617 61 
Q 1341 213 1159 525 
L 1159 0 
L 581 0 
L 581 4863 
L 1159 4863 
L 1159 2969 
z
" transform="scale(0.015625)"/>
    </defs>
    <use xlink:href="#DejaVuSans-32"/>
    <use xlink:href="#DejaVuSans-31" x="63.623047"/>
    <use xlink:href="#DejaVuSans-37" x="127.246094"/>
    <use xlink:href="#DejaVuSans-4b" x="190.869141"/>
    <use xlink:href="#DejaVuSans-20" x="256.445312"/>
    <use xlink:href="#DejaVuSans-74" x="288.232422"/>
    <use xlink:href="#DejaVuSans-75" x="327.441406"/>
    <use xlink:href="#DejaVuSans-6e" x="390.820312"/>
    <use xlink:href="#DejaVuSans-69" x="454.199219"/>
    <use xlink:href="#DejaVuSans-6e" x="481.982422"/>
    <use xlink:href="#DejaVuSans-67" x="545.361328"/>
    <use xlink:href="#DejaVuSans-20" x="608.837891"/>
    <use xlink:href="#DejaVuSans-63" x="640.625"/>
    <use xlink:href="#DejaVuSans-79" x="695.605469"/>
    <use xlink:href="#DejaVuSans-63" x="754.785156"/>
    <use xlink:href="#DejaVuSans-6c" x="809.765625"/>
    <use xlink:href="#DejaVuSans-65" x="837.548828"/>
    <use xlink:href="#DejaVuSans-73" x="899.072266"/>
    <use xlink:href="#DejaVuSans-20" x="951.171875"/>
    <use xlink:href="#DejaVuSans-b7" x="982.958984"/>
    <use xlink:href="#DejaVuSans-20" x="1014.746094"/>
    <use xlink:href="#DejaVuSans-6f" x="1046.533203"/>
    <use xlink:href="#DejaVuSans-70" x="1107.714844"/>
    <use xlink:href="#DejaVuSans-70" x="1171.191406"/>
    <use xlink:href="#DejaVuSans-6f" x="1234.667969"/>
    <use xlink:href="#DejaVuSans-73" x="1295.849609"/>
    <use xlink:href="#DejaVuSans-69" x="1347.949219"/>
    <use xlink:href="#DejaVuSans-74" x="1375.732422"/>
    <use xlink:href="#DejaVuSans-65" x="1414.941406"/>
    <use xlink:href="#DejaVuSans-20" x="1476.464844"/>
    <use xlink:href="#DejaVuSans-70" x="1508.251953"/>
    <use xlink:href="#DejaVuSans-68" x="1571.728516"/>
    <use xlink:href="#DejaVuSans-61" x="1635.107422"/>
    <use xlink:href="#DejaVuSans-73" x="1696.386719"/>
    <use xlink:href="#DejaVuSans-65" x="1748.486328"/>
    <use xlink:href="#DejaVuSans-20" x="1810.009766"/>
    <use xlink:href="#DejaVuSans-62" x="1841.796875"/>
    <use xlink:href="#DejaVuSans-79" x="1905.273438"/>
    <use xlink:href="#DejaVuSans-20" x="1964.453125"/>
    <use xlink:href="#DejaVuSans-64" x="1996.240234"/>
    <use xlink:href="#DejaVuSans-65" x="2059.716797"/>
    <use xlink:href="#DejaVuSans-73" x="2121.240234"/>
    <use xlink:href="#DejaVuSans-69" x="2173.339844"/>
    <use xlink:href="#DejaVuSans-67" x="2201.123047"/>
    <use xlink:href="#DejaVuSans-6e" x="2264.599609"/>
    <use xlink:href="#DejaVuSans-2e" x="2327.978516"/>
   </g>
  </g>
 </g>
 <defs>
  <clipPath id="p3f58a35c0c">
   <rect x="45.509375" y="23.358437" width="530.1" height="221.76"/>
  </clipPath>
 </defs>
</svg>
