<?xml version="1.0" encoding="utf-8" standalone="no"?>
<!DOCTYPE svg PUBLIC "-//W3C//DTD SVG 1.1//EN"
  "http://www.w3.org/Graphics/SVG/1.1/DTD/svg11.dtd">
<svg xmlns:xlink="http://www.w3.org/1999/xlink" width="1199.67pt" height="303.419396pt" viewBox="0 0 1199.67 303.419396" xmlns="http://www.w3.org/2000/svg" version="1.1">
 <metadata>
  <rdf:RDF xmlns:dc="http://purl.org/dc/elements/1.1/" xmlns:cc="http://creativecommons.org/ns#" xmlns:rdf="http://www.w3.org/1999/02/22-rdf-syntax-ns#">
   <cc:Work>
    <dc:type rdf:resource="http://purl.org/dc/dcmitype/StillImage"/>
    <dc:date>2026-06-10T15:03:09.154639</dc:date>
    <dc:format>image/svg+xml</dc:format>
    <dc:creator>
     <cc:Agent>
      <dc:title>Matplotlib v3.9.4, https://matplotlib.org/</dc:title>
     </cc:Agent>
    </dc:creator>
   </cc:Work>
  </rdf:RDF>
 </metadata>
 <defs>
  <style type="text/css">*{stroke-linejoin: round; stroke-linecap: butt}</style>
 </defs>
 <g id="figure_1">
  <g id="patch_1">
   <path d="M 0 303.419396 
L 1199.67 303.419396 
L 1199.67 0 
L 0 0 
L 0 303.419396 
z
" style="fill: none"/>
  </g>
  <g id="axes_1">
   <g id="patch_2">
    <path d="M 48.015 162.865324 
L 705.735 162.865324 
L 705.735 27.077969 
L 48.015 27.077969 
L 48.015 162.865324 
z
" style="fill: none"/>
   </g>
   <g id="matplotlib.axis_1">
    <g id="xtick_1">
     <g id="line2d_1">
      <path d="M 111.665323 162.865324 
L 111.665323 27.077969 
" clip-path="url(#pb0b76e8c59)" style="fill: none; stroke: #eeeeee; stroke-width: 0.5; stroke-linecap: square"/>
     </g>
     <g id="line2d_2">
      <defs>
       <path id="m42dbd1ac03" d="M 0 0 
L 0 3.5 
" style="stroke: #000000; stroke-width: 0.8"/>
      </defs>
      <g>
       <use xlink:href="#m42dbd1ac03" x="111.665323" y="162.865324" style="stroke: #000000; stroke-width: 0.8"/>
      </g>
     </g>
     <g id="text_1">
      <text style="font: 10px 'DejaVu Sans'; text-anchor: middle" x="111.665323" y="177.463761" transform="rotate(-0 111.665323 177.463761)">−300</text>
     </g>
    </g>
    <g id="xtick_2">
     <g id="line2d_3">
      <path d="M 217.749194 162.865324 
L 217.749194 27.077969 
" clip-path="url(#pb0b76e8c59)" style="fill: none; stroke: #eeeeee; stroke-width: 0.5; stroke-linecap: square"/>
     </g>
     <g id="line2d_4">
      <g>
       <use xlink:href="#m42dbd1ac03" x="217.749194" y="162.865324" style="stroke: #000000; stroke-width: 0.8"/>
      </g>
     </g>
     <g id="text_2">
      <text style="font: 10px 'DejaVu Sans'; text-anchor: middle" x="217.749194" y="177.463761" transform="rotate(-0 217.749194 177.463761)">−250</text>
     </g>
    </g>
    <g id="xtick_3">
     <g id="line2d_5">
      <path d="M 323.833065 162.865324 
L 323.833065 27.077969 
" clip-path="url(#pb0b76e8c59)" style="fill: none; stroke: #eeeeee; stroke-width: 0.5; stroke-linecap: square"/>
     </g>
     <g id="line2d_6">
      <g>
       <use xlink:href="#m42dbd1ac03" x="323.833065" y="162.865324" style="stroke: #000000; stroke-width: 0.8"/>
      </g>
     </g>
     <g id="text_3">
      <text style="font: 10px 'DejaVu Sans'; text-anchor: middle" x="323.833065" y="177.463761" transform="rotate(-0 323.833065 177.463761)">−200</text>
     </g>
    </g>
    <g id="xtick_4">
     <g id="line2d_7">
      <path d="M 429.916935 162.865324 
L 429.916935 27.077969 
" clip-path="url(#pb0b76e8c59)" style="fill: none; stroke: #eeeeee; stroke-width: 0.5; stroke-linecap: square"/>
     </g>
     <g id="line2d_8">
      <g>
       <use xlink:href="#m42dbd1ac03" x="429.916935" y="162.865324" style="stroke: #000000; stroke-width: 0.8"/>
      </g>
     </g>
     <g id="text_4">
      <text style="font: 10px 'DejaVu Sans'; text-anchor: middle" x="429.916935" y="177.463761" transform="rotate(-0 429.916935 177.463761)">−150</text>
     </g>
    </g>
    <g id="xtick_5">
     <g id="line2d_9">
      <path d="M 536.000806 162.865324 
L 536.000806 27.077969 
" clip-path="url(#pb0b76e8c59)" style="fill: none; stroke: #eeeeee; stroke-width: 0.5; stroke-linecap: square"/>
     </g>
     <g id="line2d_10">
      <g>
       <use xlink:href="#m42dbd1ac03" x="536.000806" y="162.865324" style="stroke: #000000; stroke-width: 0.8"/>
      </g>
     </g>
     <g id="text_5">
      <text style="font: 10px 'DejaVu Sans'; text-anchor: middle" x="536.000806" y="177.463761" transform="rotate(-0 536.000806 177.463761)">−100</text>
     </g>
    </g>
    <g id="xtick_6">
     <g id="line2d_11">
      <path d="M 642.084677 162.865324 
L 642.084677 27.077969 
" clip-path="url(#pb0b76e8c59)" style="fill: none; stroke: #eeeeee; stroke-width: 0.5; stroke-linecap: square"/>
     </g>
     <g id="line2d_12">
      <g>
       <use xlink:href="#m42dbd1ac03" x="642.084677" y="162.865324" style="stroke: #000000; stroke-width: 0.8"/>
      </g>
     </g>
     <g id="text_6">
      <text style="font: 10px 'DejaVu Sans'; text-anchor: middle" x="642.084677" y="177.463761" transform="rotate(-0 642.084677 177.463761)">−50</text>
     </g>
    </g>
    <g id="text_7">
     <text style="fill: #6e6e6e; font: 9px 'DejaVu Sans'; text-anchor: middle" x="376.875" y="190.382042" transform="rotate(-0 376.875 190.382042)">light position x (cm) — panels run along z=0 from x=−290 (left) to x=−30 (right)</text>
    </g>
   </g>
   <g id="matplotlib.axis_2">
    <g id="ytick_1">
     <g id="line2d_13">
      <path d="M 48.015 137.405195 
L 705.735 137.405195 
" clip-path="url(#pb0b76e8c59)" style="fill: none; stroke: #eeeeee; stroke-width: 0.5; stroke-linecap: square"/>
     </g>
     <g id="line2d_14">
      <defs>
       <path id="m785a089492" d="M 0 0 
L -3.5 0 
" style="stroke: #000000; stroke-width: 0.8"/>
      </defs>
      <g>
       <use xlink:href="#m785a089492" x="48.015" y="137.405195" style="stroke: #000000; stroke-width: 0.8"/>
      </g>
     </g>
     <g id="text_8">
      <text style="font: 10px 'DejaVu Sans'; text-anchor: end" x="41.015" y="141.204413" transform="rotate(-0 41.015 141.204413)">−20</text>
     </g>
    </g>
    <g id="ytick_2">
     <g id="line2d_15">
      <path d="M 48.015 94.971646 
L 705.735 94.971646 
" clip-path="url(#pb0b76e8c59)" style="fill: none; stroke: #eeeeee; stroke-width: 0.5; stroke-linecap: square"/>
     </g>
     <g id="line2d_16">
      <g>
       <use xlink:href="#m785a089492" x="48.015" y="94.971646" style="stroke: #000000; stroke-width: 0.8"/>
      </g>
     </g>
     <g id="text_9">
      <text style="font: 10px 'DejaVu Sans'; text-anchor: end" x="41.015" y="98.770865" transform="rotate(-0 41.015 98.770865)">0</text>
     </g>
    </g>
    <g id="ytick_3">
     <g id="line2d_17">
      <path d="M 48.015 52.538098 
L 705.735 52.538098 
" clip-path="url(#pb0b76e8c59)" style="fill: none; stroke: #eeeeee; stroke-width: 0.5; stroke-linecap: square"/>
     </g>
     <g id="line2d_18">
      <g>
       <use xlink:href="#m785a089492" x="48.015" y="52.538098" style="stroke: #000000; stroke-width: 0.8"/>
      </g>
     </g>
     <g id="text_10">
      <text style="font: 10px 'DejaVu Sans'; text-anchor: end" x="41.015" y="56.337317" transform="rotate(-0 41.015 56.337317)">20</text>
     </g>
    </g>
    <g id="text_11">
     <text style="fill: #6e6e6e; font: 9px 'DejaVu Sans'; text-anchor: middle" x="14.038594" y="94.971646" transform="rotate(-90 14.038594 94.971646)">light position z (cm) — z=0 panel face, z&gt;0 away from window</text>
    </g>
   </g>
   <g id="line2d_19">
    <path d="M 132.882097 162.865324 
L 132.882097 27.077969 
" clip-path="url(#pb0b76e8c59)" style="fill: none; stroke: #1a1a1a; stroke-width: 1.5; stroke-linecap: square"/>
   </g>
   <g id="line2d_20">
    <path d="M 48.015 94.971646 
L 705.735 94.971646 
" clip-path="url(#pb0b76e8c59)" style="fill: none; stroke-dasharray: 1,1; stroke-dashoffset: 0; stroke: #1a1a1a; stroke-width: 0.5"/>
   </g>
   <g id="QuadContourSet_1">
    <path d="M 409.761 146.32872 
L 415.939582 145.361485 
L 431.685 144.430304 
L 453.609 143.796748 
L 475.533 144.000844 
L 497.457 142.289473 
L 512.21916 140.057291 
L 519.381 137.891412 
L 541.305 137.670404 
L 553.3632 134.753098 
L 556.0254 129.448904 
L 559.5246 124.144711 
L 563.229 122.145438 
L 578.0277 118.840517 
L 574.883337 113.536324 
L 580.703718 108.23213 
L 576.037232 102.927936 
L 573.925255 97.623743 
L 571.421653 92.319549 
L 566.5176 87.015356 
L 563.229 85.901475 
L 559.463791 81.711162 
L 563.229 77.520849 
L 566.106525 76.406969 
L 564.498284 71.102775 
L 563.229 70.13034 
L 551.2926 65.798582 
L 541.305 63.821564 
L 519.381 61.568827 
L 515.615791 60.494388 
L 497.8224 55.190195 
L 497.457 55.164936 
L 475.533 53.842045 
L 453.609 53.350302 
L 433.3293 55.190195 
L 431.685 55.269757 
L 429.4926 55.190195 
L 409.761 53.471636 
L 387.837 54.015695 
L 379.34145 55.190195 
L 365.913 56.08642 
L 343.989 56.118428 
L 322.065 55.526127 
L 302.812987 60.494388 
L 300.141 61.393795 
L 278.217 63.776358 
L 269.858475 65.798582 
L 263.4966 71.102775 
L 256.293 72.364807 
L 241.610564 76.406969 
L 251.6814 81.711162 
L 245.846859 87.015356 
L 234.369 88.490585 
L 221.70789 92.319549 
L 223.2504 97.623743 
L 234.369 99.977479 
L 238.434075 102.927936 
L 237.14604 108.23213 
L 243.823725 113.536324 
L 251.2992 118.840517 
L 256.293 121.256872 
L 261.176073 124.144711 
L 263.85678 129.448904 
L 278.217 132.757711 
L 293.962418 134.753098 
L 300.141 135.720333 
L 322.065 137.471497 
L 324.656018 140.057291 
L 343.989 143.73234 
L 365.913 142.728332 
L 387.837 144.057537 
L 402.2094 145.361485 
z
M 408.5514 129.448904 
L 387.837 127.902788 
L 365.913 125.661824 
L 350.959708 124.144711 
L 343.989 122.089336 
L 337.274775 118.840517 
L 327.633696 113.536324 
L 322.065 111.690755 
L 308.150568 108.23213 
L 305.3196 102.927936 
L 300.141 100.078233 
L 293.67342 97.623743 
L 300.141 95.120164 
L 305.760355 92.319549 
L 313.01251 87.015356 
L 322.065 82.635119 
L 323.832009 81.711162 
L 331.446433 76.406969 
L 343.989 74.076912 
L 354.745462 71.102775 
L 365.913 69.019441 
L 387.837 67.35351 
L 409.761 69.275065 
L 431.685 68.627485 
L 440.317575 71.102775 
L 453.609 73.202803 
L 475.533 74.533573 
L 484.409546 76.406969 
L 497.457 79.72549 
L 502.164212 81.711162 
L 510.87124 87.015356 
L 506.787447 92.319549 
L 508.046706 97.623743 
L 516.606943 102.927936 
L 512.837529 108.23213 
L 497.457 111.414646 
L 492.038385 113.536324 
L 489.931735 118.840517 
L 475.533 122.471275 
L 462.260092 124.144711 
L 453.609 125.605866 
L 431.685 128.355424 
L 412.09956 129.448904 
L 409.761 129.568435 
z
" clip-path="url(#pb0b76e8c59)" style="fill: #9a9a9a; fill-opacity: 0.35"/>
    <path d="M 409.761 129.568435 
L 412.09956 129.448904 
L 431.685 128.355424 
L 453.609 125.605866 
L 462.260092 124.144711 
L 475.533 122.471275 
L 489.931735 118.840517 
L 492.038385 113.536324 
L 497.457 111.414646 
L 512.837529 108.23213 
L 516.606943 102.927936 
L 508.046706 97.623743 
L 506.787447 92.319549 
L 510.87124 87.015356 
L 502.164212 81.711162 
L 497.457 79.72549 
L 484.409546 76.406969 
L 475.533 74.533573 
L 453.609 73.202803 
L 440.317575 71.102775 
L 431.685 68.627485 
L 409.761 69.275065 
L 387.837 67.35351 
L 365.913 69.019441 
L 354.745462 71.102775 
L 343.989 74.076912 
L 331.446433 76.406969 
L 323.832009 81.711162 
L 322.065 82.635119 
L 313.01251 87.015356 
L 305.760355 92.319549 
L 300.141 95.120164 
L 293.67342 97.623743 
L 300.141 100.078233 
L 305.3196 102.927936 
L 308.150568 108.23213 
L 322.065 111.690755 
L 327.633696 113.536324 
L 337.274775 118.840517 
L 343.989 122.089336 
L 350.959708 124.144711 
L 365.913 125.661824 
L 387.837 127.902788 
L 408.5514 129.448904 
z
M 389.31687 113.536324 
L 387.837 113.434028 
L 365.913 109.095362 
L 363.113474 108.23213 
L 343.989 105.254429 
L 337.556992 102.927936 
L 342.666312 97.623743 
L 343.989 97.00913 
L 354.892275 92.319549 
L 359.725973 87.015356 
L 365.913 85.635437 
L 387.837 82.313677 
L 409.761 83.54602 
L 431.685 83.964311 
L 448.263485 87.015356 
L 453.609 88.933706 
L 464.804856 92.319549 
L 472.2444 97.623743 
L 472.939551 102.927936 
L 457.947153 108.23213 
L 453.609 109.93313 
L 436.997354 113.536324 
L 431.685 114.006977 
L 409.761 115.978872 
z
" clip-path="url(#pb0b76e8c59)" style="fill: #9a9a9a; fill-opacity: 0.35"/>
    <path d="M 409.761 115.978872 
L 431.685 114.006977 
L 436.997354 113.536324 
L 453.609 109.93313 
L 457.947153 108.23213 
L 472.939551 102.927936 
L 472.2444 97.623743 
L 464.804856 92.319549 
L 453.609 88.933706 
L 448.263485 87.015356 
L 431.685 83.964311 
L 409.761 83.54602 
L 387.837 82.313677 
L 365.913 85.635437 
L 359.725973 87.015356 
L 354.892275 92.319549 
L 343.989 97.00913 
L 342.666312 97.623743 
L 337.556992 102.927936 
L 343.989 105.254429 
L 363.113474 108.23213 
L 365.913 109.095362 
L 387.837 113.434028 
L 389.31687 113.536324 
z
" clip-path="url(#pb0b76e8c59)" style="fill: #9a9a9a; fill-opacity: 0.35"/>
   </g>
   <g id="QuadContourSet_2">
    <path d="M 431.685 151.032892 
L 433.65816 150.665678 
L 453.609 146.952743 
L 475.533 148.278791 
L 497.457 147.100082 
L 511.8294 145.361485 
L 519.381 144.265285 
L 534.7278 140.057291 
L 541.305 138.253866 
L 563.229 137.115875 
L 575.1654 134.753098 
L 568.92924 129.448904 
L 584.4222 124.144711 
L 582.13845 118.840517 
L 585.153 117.673595 
L 595.84095 113.536324 
L 607.077 109.186885 
L 616.9428 108.23213 
L 612.77724 102.927936 
L 613.6542 97.623743 
L 616.3164 92.319549 
L 607.077 87.103759 
L 606.93084 87.015356 
L 601.4133 81.711162 
L 607.077 77.600412 
L 609.54345 76.406969 
L 620.12178 71.102775 
L 607.077 66.247398 
L 605.46924 65.798582 
L 598.58145 60.494388 
L 599.6646 55.190195 
L 585.153 51.50378 
L 563.229 53.174601 
L 541.305 52.374892 
L 524.58795 49.886001 
L 519.381 48.969822 
L 497.457 47.733122 
L 480.6486 49.886001 
L 475.533 50.257295 
L 453.609 49.897788 
L 431.685 50.297076 
L 426.8304 49.886001 
L 409.761 46.843069 
L 388.036309 49.886001 
L 387.837 49.902577 
L 387.5934 49.886001 
L 365.913 46.935543 
L 343.989 49.355582 
L 322.065 45.329217 
L 305.490456 49.886001 
L 300.141 51.588926 
L 282.464775 55.190195 
L 278.217 55.905108 
L 256.293 57.730624 
L 240.7896 60.494388 
L 246.4272 65.798582 
L 238.616775 71.102775 
L 234.47862 76.406969 
L 234.369 76.539574 
L 228.2616 81.711162 
L 223.9551 87.015356 
L 234.369 89.534848 
L 236.0133 92.319549 
L 234.369 93.7119 
L 219.0222 92.319549 
L 212.445 90.728291 
L 210.47184 92.319549 
L 212.445 94.706436 
L 215.8902 97.623743 
L 212.445 99.082396 
L 207.9036 102.927936 
L 212.445 105.49163 
L 216.692775 108.23213 
L 234.369 113.495522 
L 234.497965 113.536324 
L 241.357275 118.840517 
L 243.24822 124.144711 
L 245.8791 129.448904 
L 234.369 133.16184 
L 230.42268 134.753098 
L 234.369 135.707853 
L 256.293 136.476961 
L 268.9776 140.057291 
L 278.217 141.704383 
L 300.141 141.648549 
L 322.065 143.717185 
L 335.65788 145.361485 
L 343.989 146.08134 
L 365.913 148.654505 
L 387.837 149.421233 
L 409.761 150.216862 
L 421.8192 150.665678 
z
M 395.0406 134.753098 
L 387.837 134.013725 
L 365.913 134.348969 
L 343.989 132.862876 
L 322.065 129.858774 
L 320.40852 129.448904 
L 308.69136 124.144711 
L 307.099487 118.840517 
L 300.141 113.677769 
L 299.85811 113.536324 
L 300.141 113.300582 
L 302.3334 108.23213 
L 300.141 105.548832 
L 294.38595 102.927936 
L 297.3802 97.623743 
L 288.0828 92.319549 
L 299.0826 87.015356 
L 294.7122 81.711162 
L 299.11788 76.406969 
L 300.141 76.131936 
L 318.84948 71.102775 
L 322.065 69.157904 
L 326.337369 65.798582 
L 343.989 63.154904 
L 365.913 64.269 
L 387.837 62.583424 
L 409.761 60.787812 
L 431.685 61.966572 
L 453.609 62.914426 
L 469.5039 65.798582 
L 475.533 66.498735 
L 497.457 68.77709 
L 505.030745 71.102775 
L 515.67828 76.406969 
L 519.381 77.390185 
L 536.023309 81.711162 
L 541.305 85.225191 
L 543.878687 87.015356 
L 541.305 88.076195 
L 532.8486 92.319549 
L 531.1956 97.623743 
L 531.523523 102.927936 
L 530.741618 108.23213 
L 528.993831 113.536324 
L 519.381 118.575307 
L 518.369123 118.840517 
L 518.6502 124.144711 
L 497.457 129.272098 
L 475.533 128.838118 
L 472.6098 129.448904 
L 453.609 134.392813 
L 448.6761 134.753098 
L 431.685 136.042745 
L 409.761 136.361466 
z
" clip-path="url(#pb0b76e8c59)" style="fill: #bdbdbd; fill-opacity: 0.35"/>
    <path d="M 409.761 136.361466 
L 431.685 136.042745 
L 448.6761 134.753098 
L 453.609 134.392813 
L 472.6098 129.448904 
L 475.533 128.838118 
L 497.457 129.272098 
L 518.6502 124.144711 
L 518.369123 118.840517 
L 519.381 118.575307 
L 528.993831 113.536324 
L 530.741618 108.23213 
L 531.523523 102.927936 
L 531.1956 97.623743 
L 532.8486 92.319549 
L 541.305 88.076195 
L 543.878687 87.015356 
L 541.305 85.225191 
L 536.023309 81.711162 
L 519.381 77.390185 
L 515.67828 76.406969 
L 505.030745 71.102775 
L 497.457 68.77709 
L 475.533 66.498735 
L 469.5039 65.798582 
L 453.609 62.914426 
L 431.685 61.966572 
L 409.761 60.787812 
L 387.837 62.583424 
L 365.913 64.269 
L 343.989 63.154904 
L 326.337369 65.798582 
L 322.065 69.157904 
L 318.84948 71.102775 
L 300.141 76.131936 
L 299.11788 76.406969 
L 294.7122 81.711162 
L 299.0826 87.015356 
L 288.0828 92.319549 
L 297.3802 97.623743 
L 294.38595 102.927936 
L 300.141 105.548832 
L 302.3334 108.23213 
L 300.141 113.300582 
L 299.85811 113.536324 
L 300.141 113.677769 
L 307.099487 118.840517 
L 308.69136 124.144711 
L 320.40852 129.448904 
L 322.065 129.858774 
L 343.989 132.862876 
L 365.913 134.348969 
L 387.837 134.013725 
L 395.0406 134.753098 
z
M 361.900494 118.840517 
L 343.989 113.953888 
L 341.372265 113.536324 
L 330.257653 108.23213 
L 332.794473 102.927936 
L 330.222018 97.623743 
L 335.642495 92.319549 
L 341.3094 87.015356 
L 343.989 86.04292 
L 359.988855 81.711162 
L 365.913 79.216227 
L 383.3304 76.406969 
L 387.837 75.989405 
L 409.761 75.086121 
L 424.415463 76.406969 
L 431.685 77.286348 
L 453.609 78.661251 
L 462.17177 81.711162 
L 475.533 86.606175 
L 476.878336 87.015356 
L 495.439992 92.319549 
L 481.787788 97.623743 
L 482.853386 102.927936 
L 475.533 105.677742 
L 466.61724 108.23213 
L 453.609 113.115646 
L 452.282021 113.536324 
L 431.685 118.044888 
L 409.761 118.150972 
L 402.6357 118.840517 
L 387.837 119.060845 
L 365.913 120.55554 
z
" clip-path="url(#pb0b76e8c59)" style="fill: #bdbdbd; fill-opacity: 0.35"/>
    <path d="M 365.913 120.55554 
L 387.837 119.060845 
L 402.6357 118.840517 
L 409.761 118.150972 
L 431.685 118.044888 
L 452.282021 113.536324 
L 453.609 113.115646 
L 466.61724 108.23213 
L 475.533 105.677742 
L 482.853386 102.927936 
L 481.787788 97.623743 
L 495.439992 92.319549 
L 476.878336 87.015356 
L 475.533 86.606175 
L 462.17177 81.711162 
L 453.609 78.661251 
L 431.685 77.286348 
L 424.415463 76.406969 
L 409.761 75.086121 
L 387.837 75.989405 
L 383.3304 76.406969 
L 365.913 79.216227 
L 359.988855 81.711162 
L 343.989 86.04292 
L 341.3094 87.015356 
L 335.642495 92.319549 
L 330.222018 97.623743 
L 332.794473 102.927936 
L 330.257653 108.23213 
L 341.372265 113.536324 
L 343.989 113.953888 
L 361.900494 118.840517 
z
" clip-path="url(#pb0b76e8c59)" style="fill: #bdbdbd; fill-opacity: 0.35"/>
   </g>
   <g id="QuadContourSet_3">
    <path d="M 234.369 152.522146 
L 256.293 151.372904 
L 259.2162 150.665678 
L 263.9664 145.361485 
L 256.293 143.505017 
L 248.6196 145.361485 
L 234.369 148.809211 
L 226.6956 150.665678 
z
M 387.837 151.372904 
L 409.761 151.372904 
L 418.5306 150.665678 
L 409.761 149.60484 
L 387.837 149.60484 
L 379.0674 150.665678 
z
M 475.533 153.211691 
L 497.457 151.372904 
L 500.3802 150.665678 
L 500.3802 145.361485 
L 519.381 143.637622 
L 541.305 143.982395 
L 559.3314 140.057291 
L 563.229 138.844904 
L 582.9606 134.753098 
L 585.153 131.570582 
L 591.7302 134.753098 
L 607.077 137.228388 
L 617.3082 134.753098 
L 614.7504 129.448904 
L 629.001 126.001178 
L 639.2322 124.144711 
L 637.7706 118.840517 
L 629.001 116.71884 
L 627.5394 113.536324 
L 629.001 112.740695 
L 650.925 109.292969 
L 672.849 109.292969 
L 675.7722 108.23213 
L 672.849 107.524904 
L 661.44852 102.927936 
L 650.925 100.381924 
L 642.7818 97.623743 
L 645.0786 92.319549 
L 650.925 88.076195 
L 655.3098 87.015356 
L 659.6946 81.711162 
L 661.1562 76.406969 
L 650.925 72.694033 
L 648.29412 71.102775 
L 647.41716 65.798582 
L 647.6364 60.494388 
L 629.001 57.488678 
L 617.60052 55.190195 
L 607.077 52.644182 
L 592.8264 49.886001 
L 607.077 45.289033 
L 610.0002 44.581807 
L 607.077 42.46013 
L 593.9226 39.277614 
L 585.153 38.570388 
L 582.2298 39.277614 
L 563.229 42.72534 
L 544.2282 39.277614 
L 541.305 38.570388 
L 536.9202 39.277614 
L 519.381 40.974956 
L 497.457 40.073243 
L 478.8216 44.581807 
L 488.6874 49.886001 
L 475.533 50.522504 
L 453.609 50.522504 
L 450.3204 49.886001 
L 431.685 46.279149 
L 413.0496 49.886001 
L 409.761 50.239614 
L 396.6066 49.886001 
L 387.837 47.764324 
L 365.913 46.11413 
L 350.3226 49.886001 
L 357.1434 55.190195 
L 343.989 55.720614 
L 337.4118 55.190195 
L 322.065 52.714904 
L 314.3916 55.190195 
L 300.141 56.569285 
L 278.217 56.604646 
L 262.1394 60.494388 
L 259.2162 65.798582 
L 256.293 66.85942 
L 250.4466 65.798582 
L 247.5234 60.494388 
L 234.369 57.311872 
L 212.445 59.433549 
L 203.6754 60.494388 
L 190.521 61.555227 
L 179.99748 65.798582 
L 187.5978 71.102775 
L 179.99748 76.406969 
L 168.597 79.854695 
L 158.3658 81.711162 
L 168.597 83.56763 
L 178.0974 87.015356 
L 187.5978 92.319549 
L 178.0974 97.623743 
L 180.2898 102.927936 
L 179.99748 108.23213 
L 186.1362 113.536324 
L 178.0974 118.840517 
L 190.521 123.349082 
L 194.9058 124.144711 
L 190.521 127.327227 
L 187.5978 129.448904 
L 190.521 130.15613 
L 212.445 133.16184 
L 225.5994 134.753098 
L 234.369 135.460324 
L 256.293 135.460324 
L 278.217 138.466033 
L 291.3714 140.057291 
L 300.141 141.11813 
L 311.8338 145.361485 
L 322.065 147.217953 
L 343.989 147.907498 
L 361.5282 145.361485 
L 365.913 144.565856 
L 387.837 143.947033 
L 409.761 143.664143 
L 431.685 144.724982 
L 453.609 144.300646 
L 465.3018 145.361485 
L 462.3786 150.665678 
z
M 321.390415 134.753098 
L 322.065 134.222678 
L 322.739585 134.753098 
L 322.065 134.965266 
z
M 446.15484 134.753098 
L 453.609 131.146246 
L 457.9938 129.448904 
L 453.609 128.741678 
L 444.8394 129.448904 
L 431.685 130.863356 
L 421.16148 129.448904 
L 409.761 126.001178 
L 402.6357 129.448904 
L 387.837 134.222678 
L 379.3806 129.448904 
L 365.913 126.407833 
L 343.989 126.531598 
L 334.882108 124.144711 
L 343.989 121.94143 
L 355.09716 118.840517 
L 347.55165 113.536324 
L 343.989 112.909464 
L 329.7384 113.536324 
L 322.065 114.464557 
L 306.7182 113.536324 
L 300.141 111.945066 
L 278.217 110.808453 
L 272.483031 108.23213 
L 278.217 106.428704 
L 300.141 106.375662 
L 303.70365 102.927936 
L 305.323036 97.623743 
L 300.141 95.89988 
L 286.9866 92.319549 
L 278.217 90.955614 
L 259.2162 87.015356 
L 268.3512 81.711162 
L 256.293 78.793856 
L 239.3802 76.406969 
L 256.293 74.020082 
L 276.9642 71.102775 
L 278.217 70.395549 
L 300.141 67.920259 
L 322.065 69.056872 
L 343.989 67.154098 
L 355.1946 65.798582 
L 365.913 63.464736 
L 387.837 63.177686 
L 401.3046 60.494388 
L 409.761 57.630124 
L 424.5597 60.494388 
L 431.685 61.413782 
L 453.609 65.586414 
L 456.5322 65.798582 
L 475.533 66.488127 
L 497.457 65.997489 
L 519.381 67.330904 
L 527.5242 65.798582 
L 541.305 63.853711 
L 563.229 62.616066 
L 576.3834 65.798582 
L 569.8062 71.102775 
L 563.229 73.224453 
L 558.2961 76.406969 
L 553.14396 81.711162 
L 563.229 84.422195 
L 573.31404 81.711162 
L 585.153 78.846898 
L 596.99196 81.711162 
L 588.9897 87.015356 
L 585.153 88.076195 
L 573.991691 92.319549 
L 585.153 96.562904 
L 600.4998 97.623743 
L 607.077 98.419372 
L 613.853509 102.927936 
L 611.4618 108.23213 
L 607.077 110.050711 
L 585.153 111.838982 
L 573.4602 113.536324 
L 563.229 115.392791 
L 541.305 114.155146 
L 535.16628 113.536324 
L 541.305 112.051149 
L 551.1708 108.23213 
L 546.3162 102.927936 
L 541.305 102.275113 
L 529.6122 102.927936 
L 525.51972 108.23213 
L 519.381 109.717304 
L 497.457 113.337416 
L 495.8127 113.536324 
L 497.457 114.066743 
L 508.219691 118.840517 
L 519.381 123.791098 
L 520.1118 124.144711 
L 520.8426 129.448904 
L 519.381 130.15613 
L 497.457 130.606183 
L 475.533 132.0602 
L 461.06316 134.753098 
L 453.609 136.556524 
z
M 227.7918 129.448904 
L 234.369 128.388066 
L 256.293 128.812401 
L 260.6778 129.448904 
L 256.293 132.63142 
L 234.369 132.63142 
z
M 286.6212 124.144711 
L 300.141 120.219607 
L 310.95684 124.144711 
L 300.141 126.325324 
z
M 562.4982 124.144711 
L 563.229 123.437485 
L 564.4818 124.144711 
L 563.229 124.447807 
z
M 574.62948 118.840517 
L 585.153 115.658001 
L 589.5378 118.840517 
L 585.153 120.254969 
z
M 205.480906 102.927936 
L 212.445 100.541049 
L 219.84435 102.927936 
L 212.445 107.701711 
z
M 276.46308 97.623743 
L 278.217 97.093324 
L 281.1402 97.623743 
L 278.217 97.92684 
z
M 231.8112 81.711162 
L 234.369 79.235872 
L 238.2057 81.711162 
L 234.369 83.56763 
z
M 370.2978 55.190195 
L 387.837 50.94684 
L 391.34484 55.190195 
L 387.837 56.604646 
z
M 563.229 151.372904 
L 567.6138 150.665678 
L 563.229 149.958453 
L 560.3058 150.665678 
z
M 585.153 146.422324 
L 589.5378 145.361485 
L 585.153 143.239807 
L 582.2298 145.361485 
z
M 629.001 146.068711 
L 631.9242 145.361485 
L 629.001 143.239807 
L 624.6162 145.361485 
z
M 497.457 99.74542 
L 514.9962 97.623743 
L 497.457 97.124525 
L 494.268055 97.623743 
z
M 256.293 45.289033 
L 260.6778 44.581807 
L 256.293 43.874582 
L 253.3698 44.581807 
z
M 650.925 46.703485 
L 653.8482 44.581807 
L 650.925 43.520969 
L 648.0018 44.581807 
z
M 300.141 42.990549 
L 307.8144 39.277614 
L 300.141 37.421146 
L 292.4676 39.277614 
z
M 694.773 39.98484 
L 694.773 39.277614 
L 694.773 38.570388 
L 686.0034 39.277614 
z
" clip-path="url(#pb0b76e8c59)" style="fill: #e8a23d; fill-opacity: 0.35"/>
    <path d="M 322.065 134.965266 
L 322.739585 134.753098 
L 322.065 134.222678 
L 321.390415 134.753098 
z
M 453.609 136.556524 
L 461.06316 134.753098 
L 475.533 132.0602 
L 497.457 130.606183 
L 519.381 130.15613 
L 520.8426 129.448904 
L 520.1118 124.144711 
L 519.381 123.791098 
L 508.219691 118.840517 
L 497.457 114.066743 
L 495.8127 113.536324 
L 497.457 113.337416 
L 519.381 109.717304 
L 525.51972 108.23213 
L 529.6122 102.927936 
L 541.305 102.275113 
L 546.3162 102.927936 
L 551.1708 108.23213 
L 541.305 112.051149 
L 535.16628 113.536324 
L 541.305 114.155146 
L 563.229 115.392791 
L 573.4602 113.536324 
L 585.153 111.838982 
L 607.077 110.050711 
L 611.4618 108.23213 
L 613.853509 102.927936 
L 607.077 98.419372 
L 600.4998 97.623743 
L 585.153 96.562904 
L 573.991691 92.319549 
L 585.153 88.076195 
L 588.9897 87.015356 
L 596.99196 81.711162 
L 585.153 78.846898 
L 573.31404 81.711162 
L 563.229 84.422195 
L 553.14396 81.711162 
L 558.2961 76.406969 
L 563.229 73.224453 
L 569.8062 71.102775 
L 576.3834 65.798582 
L 563.229 62.616066 
L 541.305 63.853711 
L 527.5242 65.798582 
L 519.381 67.330904 
L 497.457 65.997489 
L 475.533 66.488127 
L 456.5322 65.798582 
L 453.609 65.586414 
L 431.685 61.413782 
L 424.5597 60.494388 
L 409.761 57.630124 
L 401.3046 60.494388 
L 387.837 63.177686 
L 365.913 63.464736 
L 355.1946 65.798582 
L 343.989 67.154098 
L 322.065 69.056872 
L 300.141 67.920259 
L 278.217 70.395549 
L 276.9642 71.102775 
L 256.293 74.020082 
L 239.3802 76.406969 
L 256.293 78.793856 
L 268.3512 81.711162 
L 259.2162 87.015356 
L 278.217 90.955614 
L 286.9866 92.319549 
L 300.141 95.89988 
L 305.323036 97.623743 
L 303.70365 102.927936 
L 300.141 106.375662 
L 278.217 106.428704 
L 272.483031 108.23213 
L 278.217 110.808453 
L 300.141 111.945066 
L 306.7182 113.536324 
L 322.065 114.464557 
L 329.7384 113.536324 
L 343.989 112.909464 
L 347.55165 113.536324 
L 355.09716 118.840517 
L 343.989 121.94143 
L 334.882108 124.144711 
L 343.989 126.531598 
L 365.913 126.407833 
L 379.3806 129.448904 
L 387.837 134.222678 
L 402.6357 129.448904 
L 409.761 126.001178 
L 421.16148 129.448904 
L 431.685 130.863356 
L 444.8394 129.448904 
L 453.609 128.741678 
L 457.9938 129.448904 
L 453.609 131.146246 
L 446.15484 134.753098 
z
M 415.6074 113.536324 
L 409.761 113.150564 
L 392.559092 108.23213 
L 409.761 105.655807 
L 425.7342 108.23213 
L 431.685 111.591453 
L 435.395215 113.536324 
L 431.685 114.994977 
z
M 341.597291 108.23213 
L 337.0986 102.927936 
L 343.989 102.030304 
L 352.0278 102.927936 
L 350.5662 108.23213 
L 343.989 108.52145 
z
M 360.9018 97.623743 
L 365.47452 92.319549 
L 347.49684 87.015356 
L 365.913 85.777711 
L 387.837 86.237407 
L 393.1962 87.015356 
L 387.837 88.474009 
L 366.6438 92.319549 
L 377.6058 97.623743 
L 365.913 100.048517 
z
M 393.97572 97.623743 
L 409.761 94.441227 
L 431.685 92.542884 
L 453.609 97.505872 
L 454.0962 97.623743 
L 453.609 97.699517 
L 431.685 101.336678 
L 409.761 99.74542 
z
M 494.268055 97.623743 
L 497.457 97.124525 
L 514.9962 97.623743 
L 497.457 99.74542 
z
M 420.4098 87.015356 
L 431.685 83.54352 
L 452.5128 81.711162 
L 453.609 81.614722 
L 454.04748 81.711162 
L 454.2354 87.015356 
L 453.609 87.133227 
L 431.685 91.78913 
z
M 315.886418 81.711162 
L 322.065 80.145162 
L 334.422164 81.711162 
L 322.065 83.277162 
z
M 300.141 126.325324 
L 310.95684 124.144711 
L 300.141 120.219607 
L 286.6212 124.144711 
z
M 563.229 124.447807 
L 564.4818 124.144711 
L 563.229 123.437485 
L 562.4982 124.144711 
z
M 585.153 120.254969 
L 589.5378 118.840517 
L 585.153 115.658001 
L 574.62948 118.840517 
z
M 212.445 107.701711 
L 219.84435 102.927936 
L 212.445 100.541049 
L 205.480906 102.927936 
z
M 278.217 97.92684 
L 281.1402 97.623743 
L 278.217 97.093324 
L 276.46308 97.623743 
z
M 234.369 83.56763 
L 238.2057 81.711162 
L 234.369 79.235872 
L 231.8112 81.711162 
z
" clip-path="url(#pb0b76e8c59)" style="fill: #e8a23d; fill-opacity: 0.35"/>
    <path d="M 431.685 114.994977 
L 435.395215 113.536324 
L 431.685 111.591453 
L 425.7342 108.23213 
L 409.761 105.655807 
L 392.559092 108.23213 
L 409.761 113.150564 
L 415.6074 113.536324 
z
M 343.989 108.52145 
L 350.5662 108.23213 
L 352.0278 102.927936 
L 343.989 102.030304 
L 337.0986 102.927936 
L 341.597291 108.23213 
z
M 365.913 100.048517 
L 377.6058 97.623743 
L 366.6438 92.319549 
L 387.837 88.474009 
L 393.1962 87.015356 
L 387.837 86.237407 
L 365.913 85.777711 
L 347.49684 87.015356 
L 365.47452 92.319549 
L 360.9018 97.623743 
z
M 409.761 99.74542 
L 431.685 101.336678 
L 453.609 97.699517 
L 454.0962 97.623743 
L 453.609 97.505872 
L 431.685 92.542884 
L 409.761 94.441227 
L 393.97572 97.623743 
z
M 431.685 91.78913 
L 453.609 87.133227 
L 454.2354 87.015356 
L 454.04748 81.711162 
L 453.609 81.614722 
L 452.5128 81.711162 
L 431.685 83.54352 
L 420.4098 87.015356 
z
M 322.065 83.277162 
L 334.422164 81.711162 
L 322.065 80.145162 
L 315.886418 81.711162 
z
" clip-path="url(#pb0b76e8c59)" style="fill: #e8a23d; fill-opacity: 0.35"/>
   </g>
   <g id="QuadContourSet_4">
    <path d="M 453.609 151.549711 
L 457.263 150.665678 
L 453.609 149.33963 
L 448.128 150.665678 
z
M 519.381 146.245517 
L 523.035 145.361485 
L 519.381 144.477453 
L 513.9 145.361485 
z
M 343.989 142.709388 
L 354.951 140.057291 
L 364.695 134.753098 
L 365.913 134.311082 
L 376.875 134.753098 
L 387.837 137.405195 
L 393.318 134.753098 
L 409.761 133.869066 
L 420.723 134.753098 
L 431.685 138.731243 
L 437.166 140.057291 
L 453.609 142.709388 
L 475.533 141.38334 
L 497.457 141.38334 
L 501.111 140.057291 
L 519.381 136.74217 
L 537.651 140.057291 
L 541.305 140.941324 
L 552.267 140.057291 
L 563.229 138.731243 
L 585.153 138.068219 
L 596.115 140.057291 
L 607.077 142.709388 
L 629.001 143.372412 
L 647.271 140.057291 
L 637.2225 134.753098 
L 650.925 131.437977 
L 669.195 134.753098 
L 661.887 140.057291 
L 672.849 140.941324 
L 676.503 140.057291 
L 676.503 134.753098 
L 694.773 130.332936 
L 694.773 129.448904 
L 694.773 124.144711 
L 694.773 118.840517 
L 694.773 118.310098 
L 683.811 113.536324 
L 681.984 108.23213 
L 694.773 103.281549 
L 694.773 102.927936 
L 694.773 97.623743 
L 694.773 92.319549 
L 694.773 88.53084 
L 691.400077 87.015356 
L 694.773 83.479227 
L 694.773 81.711162 
L 694.773 81.228963 
L 681.876529 76.406969 
L 682.245 71.102775 
L 676.503 65.798582 
L 677.547 60.494388 
L 680.5224 55.190195 
L 672.849 49.886001 
L 672.849 49.886001 
L 650.925 49.886001 
L 650.925 49.886001 
L 650.925 49.886001 
L 655.797 55.190195 
L 661.887 60.494388 
L 668.4642 65.798582 
L 663.453 71.102775 
L 650.925 74.638904 
L 643.617 76.406969 
L 629.001 79.059066 
L 620.2314 81.711162 
L 614.385 87.015356 
L 608.904 92.319549 
L 612.136385 97.623743 
L 607.077 99.612816 
L 597.681 97.623743 
L 585.153 94.971646 
L 572.625 97.623743 
L 563.229 101.601888 
L 541.305 100.27584 
L 537.318818 102.927936 
L 538.173 108.23213 
L 519.381 113.536324 
L 519.381 113.536324 
L 502.329 118.840517 
L 497.457 122.376646 
L 475.533 119.598259 
L 464.571 118.840517 
L 453.609 118.251162 
L 437.664273 113.536324 
L 431.685 110.884227 
L 424.377 113.536324 
L 426.204 118.840517 
L 409.761 120.608582 
L 401.5395 118.840517 
L 400.365 113.536324 
L 398.799 108.23213 
L 387.837 107.4161 
L 365.913 103.590961 
L 354.951 108.23213 
L 343.989 112.873299 
L 333.7578 108.23213 
L 329.625 102.927936 
L 335.2194 97.623743 
L 343.989 93.380388 
L 361.5282 97.623743 
L 365.913 100.27584 
L 376.875 97.623743 
L 378.441 92.319549 
L 365.913 89.667453 
L 343.989 91.83735 
L 333.027 87.015356 
L 331.809 81.711162 
L 334.023545 76.406969 
L 335.7675 71.102775 
L 335.2194 65.798582 
L 322.065 62.262453 
L 308.9106 60.494388 
L 322.065 58.726324 
L 327.32676 55.190195 
L 322.065 51.212049 
L 313.2954 49.886001 
L 322.065 47.764324 
L 326.17575 44.581807 
L 343.989 41.298259 
L 360.754412 44.581807 
L 365.913 47.612775 
L 374.6826 44.581807 
L 387.837 42.592735 
L 397.955769 44.581807 
L 387.837 49.886001 
L 387.837 49.886001 
L 387.837 55.190195 
L 380.247923 60.494388 
L 381.2598 65.798582 
L 387.837 71.102775 
L 387.837 71.102775 
L 387.837 71.102775 
L 409.761 68.745356 
L 431.685 65.798582 
L 431.685 65.798582 
L 445.779 60.494388 
L 453.609 56.074227 
L 459.09 55.190195 
L 475.533 53.201122 
L 497.457 49.886001 
L 497.457 49.886001 
L 519.381 46.855033 
L 535.824 44.581807 
L 541.305 43.403098 
L 551.5362 39.277614 
L 563.229 37.155936 
L 585.153 37.004388 
L 607.077 38.924001 
L 629.001 37.044269 
L 650.925 36.723743 
L 672.849 35.0836 
L 681.817909 33.97342 
L 672.849 33.97342 
L 657.5022 33.97342 
L 650.925 34.268098 
L 639.963 33.97342 
L 629.001 33.97342 
L 618.039 33.97342 
L 607.077 34.50384 
L 601.596 33.97342 
L 585.153 33.97342 
L 563.229 33.97342 
L 541.305 33.97342 
L 533.0835 33.97342 
L 519.381 35.299469 
L 501.111 33.97342 
L 497.457 33.97342 
L 493.803 33.97342 
L 475.533 36.183501 
L 453.609 38.393582 
L 449.955 39.277614 
L 431.685 40.751001 
L 417.9825 39.277614 
L 409.761 37.288541 
L 391.491 33.97342 
L 387.837 33.97342 
L 365.913 33.97342 
L 343.989 33.97342 
L 322.065 33.97342 
L 300.141 33.97342 
L 278.217 33.97342 
L 256.293 33.97342 
L 234.369 33.97342 
L 223.407 33.97342 
L 212.445 35.630981 
L 190.521 34.857453 
L 186.867 33.97342 
L 168.597 33.97342 
L 146.673 33.97342 
L 124.749 33.97342 
L 102.825 33.97342 
L 91.863 33.97342 
L 80.901 36.625517 
L 58.977 35.299469 
L 58.977 39.277614 
L 58.977 44.581807 
L 58.977 49.886001 
L 58.977 54.306162 
L 62.631 55.190195 
L 80.901 59.610356 
L 99.171 55.190195 
L 102.825 52.538098 
L 104.652 55.190195 
L 104.391 60.494388 
L 102.825 61.820436 
L 91.863 65.798582 
L 102.825 67.787654 
L 113.787 71.102775 
L 108.306 76.406969 
L 108.306 81.711162 
L 102.825 84.363259 
L 91.863 87.015356 
L 102.825 87.899388 
L 116.5275 92.319549 
L 116.5275 97.623743 
L 116.5275 102.927936 
L 121.095 108.23213 
L 121.095 113.536324 
L 116.5275 118.840517 
L 124.749 122.818662 
L 132.9705 118.840517 
L 128.403 113.536324 
L 128.403 108.23213 
L 132.9705 102.927936 
L 132.9705 97.623743 
L 135.711 92.319549 
L 132.9705 87.015356 
L 135.711 81.711162 
L 135.711 76.406969 
L 146.673 75.270356 
L 161.74575 71.102775 
L 168.597 68.892695 
L 190.521 68.450678 
L 196.002 71.102775 
L 190.521 72.428824 
L 179.559 76.406969 
L 190.521 78.396041 
L 212.445 79.059066 
L 220.6665 76.406969 
L 228.888 71.102775 
L 228.888 65.798582 
L 234.369 65.356566 
L 239.85 65.798582 
L 237.1095 71.102775 
L 238.585154 76.406969 
L 234.369 80.82713 
L 228.888 81.711162 
L 234.369 84.363259 
L 256.293 86.352332 
L 259.947 87.015356 
L 278.217 91.435517 
L 279.58725 92.319549 
L 278.217 94.971646 
L 256.293 96.297695 
L 250.812 97.623743 
L 256.293 100.27584 
L 267.255 102.927936 
L 259.947 108.23213 
L 278.217 111.547251 
L 289.179 113.536324 
L 300.141 117.514469 
L 305.622 118.840517 
L 300.141 121.492614 
L 289.179 124.144711 
L 300.141 126.796807 
L 322.065 125.028743 
L 328.155 129.448904 
L 323.283 134.753098 
L 325.719 140.057291 
z
M 386.01 129.448904 
L 387.837 128.918485 
L 389.20725 129.448904 
L 387.837 132.101001 
z
M 639.963 124.144711 
L 634.482 118.840517 
L 650.925 117.249259 
L 659.1465 118.840517 
L 656.406 124.144711 
L 650.925 125.470759 
z
M 316.584 113.536324 
L 322.065 113.005904 
L 322.9785 113.536324 
L 322.065 114.862372 
z
M 544.437 108.23213 
L 563.229 103.335951 
L 579.672 108.23213 
L 563.229 112.778582 
z
M 670.6566 97.623743 
L 672.849 96.297695 
L 674.067 97.623743 
L 672.849 100.27584 
z
M 271.768765 60.494388 
L 271.6398 55.190195 
L 265.261909 49.886001 
L 256.293 46.476162 
L 246.327545 44.581807 
L 234.369 43.357763 
L 218.129 39.277614 
L 234.369 35.741485 
L 252.639 39.277614 
L 256.293 41.635033 
L 270.909 39.277614 
L 278.217 38.098904 
L 292.833 39.277614 
L 292.551923 44.581807 
L 296.03025 49.886001 
L 284.196273 55.190195 
L 293.877 60.494388 
L 278.217 62.905385 
z
M 223.407 55.190195 
L 234.369 54.053582 
L 239.067 55.190195 
L 234.369 56.326807 
z
M 387.837 55.190195 
L 409.761 53.261397 
L 418.5306 55.190195 
L 409.761 60.494388 
z
M 100.0845 44.581807 
L 102.825 43.255759 
L 107.523 39.277614 
L 124.749 36.036162 
L 146.673 37.509549 
L 168.597 36.499227 
L 180.081 39.277614 
L 168.597 44.581807 
L 146.673 41.929711 
L 124.749 42.709739 
L 105.957 44.581807 
L 102.825 44.989822 
z
M 234.369 114.420356 
L 245.331 113.536324 
L 234.369 110.884227 
L 230.715 113.536324 
z
M 431.685 105.580033 
L 435.79575 102.927936 
L 431.685 100.27584 
L 422.289 102.927936 
z
M 409.761 87.899388 
L 410.8572 87.015356 
L 409.761 84.363259 
L 398.799 87.015356 
z
M 387.837 81.711162 
L 387.837 81.711162 
L 387.837 81.711162 
L 387.837 81.711162 
z
M 80.901 79.059066 
L 91.863 76.406969 
L 89.1225 71.102775 
L 80.901 68.450678 
L 64.458 65.798582 
L 58.977 63.146485 
L 58.977 65.798582 
L 58.977 71.102775 
L 58.977 74.512614 
L 77.247 76.406969 
z
" clip-path="url(#pb0b76e8c59)" style="fill: #c47f1d; fill-opacity: 0.35"/>
    <path d="M 409.761 120.608582 
L 426.204 118.840517 
L 424.377 113.536324 
L 431.685 110.884227 
L 437.664273 113.536324 
L 453.609 118.251162 
L 464.571 118.840517 
L 475.533 119.598259 
L 497.457 122.376646 
L 502.329 118.840517 
L 519.381 113.536324 
L 519.381 113.536324 
L 538.173 108.23213 
L 537.318818 102.927936 
L 541.305 100.27584 
L 563.229 101.601888 
L 572.625 97.623743 
L 585.153 94.971646 
L 597.681 97.623743 
L 607.077 99.612816 
L 612.136385 97.623743 
L 608.904 92.319549 
L 614.385 87.015356 
L 620.2314 81.711162 
L 629.001 79.059066 
L 643.617 76.406969 
L 650.925 74.638904 
L 663.453 71.102775 
L 668.4642 65.798582 
L 661.887 60.494388 
L 655.797 55.190195 
L 650.925 49.886001 
L 650.925 49.886001 
L 650.925 49.886001 
L 672.849 49.886001 
L 672.849 49.886001 
L 680.5224 55.190195 
L 677.547 60.494388 
L 676.503 65.798582 
L 682.245 71.102775 
L 681.876529 76.406969 
L 694.773 81.228963 
L 694.773 76.406969 
L 694.773 71.102775 
L 694.773 65.798582 
L 694.773 60.494388 
L 694.773 55.190195 
L 694.773 49.886001 
L 694.773 44.581807 
L 694.773 39.277614 
L 694.773 33.97342 
L 681.817909 33.97342 
L 672.849 35.0836 
L 650.925 36.723743 
L 629.001 37.044269 
L 607.077 38.924001 
L 585.153 37.004388 
L 563.229 37.155936 
L 551.5362 39.277614 
L 541.305 43.403098 
L 535.824 44.581807 
L 519.381 46.855033 
L 497.457 49.886001 
L 497.457 49.886001 
L 475.533 53.201122 
L 459.09 55.190195 
L 453.609 56.074227 
L 445.779 60.494388 
L 431.685 65.798582 
L 431.685 65.798582 
L 409.761 68.745356 
L 387.837 71.102775 
L 387.837 71.102775 
L 387.837 71.102775 
L 381.2598 65.798582 
L 380.247923 60.494388 
L 387.837 55.190195 
L 387.837 49.886001 
L 387.837 49.886001 
L 397.955769 44.581807 
L 387.837 42.592735 
L 374.6826 44.581807 
L 365.913 47.612775 
L 360.754412 44.581807 
L 343.989 41.298259 
L 326.17575 44.581807 
L 322.065 47.764324 
L 313.2954 49.886001 
L 322.065 51.212049 
L 327.32676 55.190195 
L 322.065 58.726324 
L 308.9106 60.494388 
L 322.065 62.262453 
L 335.2194 65.798582 
L 335.7675 71.102775 
L 334.023545 76.406969 
L 331.809 81.711162 
L 333.027 87.015356 
L 343.989 91.83735 
L 365.913 89.667453 
L 378.441 92.319549 
L 376.875 97.623743 
L 365.913 100.27584 
L 361.5282 97.623743 
L 343.989 93.380388 
L 335.2194 97.623743 
L 329.625 102.927936 
L 333.7578 108.23213 
L 343.989 112.873299 
L 354.951 108.23213 
L 365.913 103.590961 
L 387.837 107.4161 
L 398.799 108.23213 
L 400.365 113.536324 
L 401.5395 118.840517 
z
M 342.855 102.927936 
L 343.989 102.397517 
L 345.816 102.927936 
L 343.989 103.590961 
z
M 422.289 102.927936 
L 431.685 100.27584 
L 435.79575 102.927936 
L 431.685 105.580033 
z
M 441.7335 92.319549 
L 453.609 89.856888 
L 463.281353 87.015356 
L 475.533 81.976372 
L 476.2638 81.711162 
L 475.533 81.180743 
L 467.3115 76.406969 
L 475.533 73.754872 
L 482.1102 71.102775 
L 491.290875 65.798582 
L 497.457 63.411695 
L 503.4861 60.494388 
L 513.9 55.190195 
L 519.381 54.085154 
L 523.9485 55.190195 
L 541.305 58.789469 
L 563.229 58.80669 
L 582.4125 60.494388 
L 563.229 65.135557 
L 541.305 64.472533 
L 538.956 65.798582 
L 541.305 66.594211 
L 563.229 66.130094 
L 585.153 69.053428 
L 594.027 71.102775 
L 585.153 74.108485 
L 573.2775 76.406969 
L 563.229 79.64842 
L 559.190368 81.711162 
L 541.305 86.278662 
L 519.381 86.131324 
L 515.955375 87.015356 
L 501.56775 92.319549 
L 497.457 92.787566 
L 492.759 92.319549 
L 475.533 90.374678 
L 465.4845 92.319549 
L 453.609 95.453846 
z
M 398.799 87.015356 
L 409.761 84.363259 
L 410.8572 87.015356 
L 409.761 87.899388 
z
M 430.0407 87.015356 
L 431.685 86.292057 
L 435.339 87.015356 
L 431.685 88.151969 
z
M 387.837 81.711162 
L 387.837 81.711162 
L 387.837 81.711162 
L 387.837 81.711162 
z
M 430.902 71.102775 
L 431.685 70.955436 
L 433.251 71.102775 
L 431.685 71.292211 
z
M 342.67356 55.190195 
L 339.0561 49.886001 
L 343.989 47.233904 
L 349.181526 49.886001 
L 346.338 55.190195 
L 343.989 56.516243 
z
M 535.402385 49.886001 
L 541.305 48.908913 
L 546.4206 49.886001 
L 541.305 51.314053 
z
M 664.6275 44.581807 
L 655.623 39.277614 
L 672.849 37.242284 
L 688.577087 39.277614 
L 676.1376 44.581807 
L 672.849 45.00056 
z
M 694.773 118.310098 
L 694.773 113.536324 
L 694.773 108.23213 
L 694.773 103.281549 
L 681.984 108.23213 
L 683.811 113.536324 
z
M 563.229 112.778582 
L 579.672 108.23213 
L 563.229 103.335951 
L 544.437 108.23213 
z
M 694.773 88.53084 
L 694.773 87.015356 
L 694.773 83.479227 
L 691.400077 87.015356 
z
M 278.217 62.905385 
L 293.877 60.494388 
L 284.196273 55.190195 
L 296.03025 49.886001 
L 292.551923 44.581807 
L 292.833 39.277614 
L 278.217 38.098904 
L 270.909 39.277614 
L 256.293 41.635033 
L 252.639 39.277614 
L 234.369 35.741485 
L 218.129 39.277614 
L 234.369 43.357763 
L 246.327545 44.581807 
L 256.293 46.476162 
L 265.261909 49.886001 
L 271.6398 55.190195 
L 271.768765 60.494388 
z
M 232.339 39.277614 
L 234.369 38.835598 
L 236.65275 39.277614 
L 234.369 39.787633 
z
M 409.761 60.494388 
L 418.5306 55.190195 
L 409.761 53.261397 
L 387.837 55.190195 
z
M 102.825 44.989822 
L 105.957 44.581807 
L 124.749 42.709739 
L 146.673 41.929711 
L 168.597 44.581807 
L 180.081 39.277614 
L 168.597 36.499227 
L 146.673 37.509549 
L 124.749 36.036162 
L 107.523 39.277614 
L 102.825 43.255759 
L 100.0845 44.581807 
z
" clip-path="url(#pb0b76e8c59)" style="fill: #c47f1d; fill-opacity: 0.35"/>
    <path d="M 343.989 103.590961 
L 345.816 102.927936 
L 343.989 102.397517 
L 342.855 102.927936 
z
M 453.609 95.453846 
L 465.4845 92.319549 
L 475.533 90.374678 
L 492.759 92.319549 
L 497.457 92.787566 
L 501.56775 92.319549 
L 515.955375 87.015356 
L 519.381 86.131324 
L 541.305 86.278662 
L 559.190368 81.711162 
L 563.229 79.64842 
L 573.2775 76.406969 
L 585.153 74.108485 
L 594.027 71.102775 
L 585.153 69.053428 
L 563.229 66.130094 
L 541.305 66.594211 
L 538.956 65.798582 
L 541.305 64.472533 
L 563.229 65.135557 
L 582.4125 60.494388 
L 563.229 58.80669 
L 541.305 58.789469 
L 523.9485 55.190195 
L 519.381 54.085154 
L 513.9 55.190195 
L 503.4861 60.494388 
L 497.457 63.411695 
L 491.290875 65.798582 
L 482.1102 71.102775 
L 475.533 73.754872 
L 467.3115 76.406969 
L 475.533 81.180743 
L 476.2638 81.711162 
L 475.533 81.976372 
L 463.281353 87.015356 
L 453.609 89.856888 
L 441.7335 92.319549 
z
M 431.685 88.151969 
L 435.339 87.015356 
L 431.685 86.292057 
L 430.0407 87.015356 
z
M 431.685 71.292211 
L 433.251 71.102775 
L 431.685 70.955436 
L 430.902 71.102775 
z
M 343.989 56.516243 
L 346.338 55.190195 
L 349.181526 49.886001 
L 343.989 47.233904 
L 339.0561 49.886001 
L 342.67356 55.190195 
z
M 541.305 51.314053 
L 546.4206 49.886001 
L 541.305 48.908913 
L 535.402385 49.886001 
z
M 672.849 45.00056 
L 676.1376 44.581807 
L 688.577087 39.277614 
L 672.849 37.242284 
L 655.623 39.277614 
L 664.6275 44.581807 
z
M 234.369 39.787633 
L 236.65275 39.277614 
L 234.369 38.835598 
L 232.339 39.277614 
z
" clip-path="url(#pb0b76e8c59)" style="fill: #c47f1d; fill-opacity: 0.35"/>
   </g>
   <g id="QuadContourSet_5">
    <path d="M 322.065 128.52067 
L 334.1232 124.144711 
L 329.1903 118.840517 
L 329.1903 113.536324 
L 322.065 110.088598 
L 318.2283 108.23213 
L 312.1992 102.927936 
L 322.065 99.347606 
L 343.989 99.347606 
L 351.1143 97.623743 
L 343.989 95.89988 
L 322.065 94.176017 
L 319.5072 92.319549 
L 322.065 91.391316 
L 340.1523 87.015356 
L 343.989 85.158888 
L 346.5468 87.015356 
L 365.913 91.700727 
L 366.872175 92.319549 
L 373.31235 97.623743 
L 365.913 100.01063 
L 353.8548 102.927936 
L 365.913 105.845243 
L 371.83248 108.23213 
L 387.837 113.072207 
L 409.761 111.149436 
L 431.685 111.746158 
L 446.20965 108.23213 
L 446.20965 102.927936 
L 443.7432 97.623743 
L 446.20965 92.319549 
L 446.20965 87.015356 
L 431.685 82.329985 
L 430.4061 81.711162 
L 426.7521 76.406969 
L 430.91766 71.102775 
L 428.994327 65.798582 
L 430.91766 60.494388 
L 431.685 59.875566 
L 453.609 60.030271 
L 469.61352 55.190195 
L 453.609 50.350118 
L 449.7723 49.886001 
L 451.0512 44.581807 
L 453.609 43.962985 
L 457.4457 44.581807 
L 475.533 47.499114 
L 487.5912 44.581807 
L 487.5912 39.277614 
L 482.6583 33.97342 
L 475.533 33.97342 
L 468.4077 33.97342 
L 453.609 35.763586 
L 431.685 34.901654 
L 430.987418 33.97342 
L 417.534055 33.97342 
L 422.3673 39.277614 
L 426.066975 44.581807 
L 425.1078 49.886001 
L 425.2644 55.190195 
L 416.11896 60.494388 
L 415.540964 65.798582 
L 416.11896 71.102775 
L 409.761 74.179207 
L 402.0876 76.406969 
L 387.837 79.854695 
L 373.5864 76.406969 
L 372.139416 71.102775 
L 366.2784 65.798582 
L 384.5484 60.494388 
L 387.837 59.539633 
L 394.2576 55.190195 
L 389.692108 49.886001 
L 389.692108 44.581807 
L 387.837 43.123154 
L 377.2404 39.277614 
L 368.1054 33.97342 
L 365.913 33.97342 
L 348.9219 33.97342 
L 349.90848 39.277614 
L 343.989 41.067779 
L 336.58965 39.277614 
L 322.065 35.763586 
L 300.141 35.405553 
L 278.217 35.763586 
L 256.293 35.166864 
L 234.369 36.360307 
L 216.2817 39.277614 
L 234.369 42.19492 
L 249.1677 44.581807 
L 256.293 46.30567 
L 263.4183 44.581807 
L 278.217 42.791642 
L 300.141 43.149675 
L 307.54035 44.581807 
L 300.141 46.371973 
L 280.7748 49.886001 
L 278.217 50.814235 
L 266.1588 55.190195 
L 263.9664 60.494388 
L 271.0917 65.798582 
L 260.1297 71.102775 
L 278.217 75.478735 
L 278.98434 76.406969 
L 281.916675 81.711162 
L 278.217 84.098049 
L 260.1297 87.015356 
L 278.217 91.391316 
L 280.7748 92.319549 
L 280.13535 97.623743 
L 288.0828 102.927936 
L 288.0828 108.23213 
L 300.141 112.60809 
L 307.8144 113.536324 
L 314.9397 118.840517 
L 310.0068 124.144711 
z
M 385.37055 92.319549 
L 387.837 91.637582 
L 394.4142 92.319549 
L 387.837 93.274304 
z
M 293.78304 76.406969 
L 300.141 74.209517 
L 321.3342 76.406969 
L 300.141 81.534356 
z
M 324.2574 76.406969 
L 330.665954 71.102775 
L 329.4948 65.798582 
L 340.04268 60.494388 
L 343.989 59.698759 
L 347.2776 60.494388 
L 365.7303 65.798582 
L 355.53564 71.102775 
L 350.5662 76.406969 
L 343.989 77.088936 
z
M 365.40144 71.102775 
L 365.913 70.837566 
L 366.219936 71.102775 
L 365.913 71.474069 
z
M 357.36264 49.886001 
L 365.913 47.587517 
L 383.01372 49.886001 
L 365.913 52.841195 
z
M 190.521 105.845243 
L 208.6083 102.927936 
L 202.5792 97.623743 
L 209.1564 92.319549 
L 204.7716 87.015356 
L 197.6463 81.711162 
L 202.5792 76.406969 
L 190.521 73.489662 
L 184.60152 71.102775 
L 168.597 66.262699 
L 167.5008 65.798582 
L 168.597 63.942114 
L 182.8476 60.494388 
L 183.12165 55.190195 
L 184.60152 49.886001 
L 175.7223 44.581807 
L 190.521 43.388364 
L 210.91032 39.277614 
L 190.521 35.166864 
L 184.60152 33.97342 
L 168.597 33.97342 
L 152.59248 33.97342 
L 146.673 34.868503 
L 142.4448 33.97342 
L 124.749 33.97342 
L 107.0532 33.97342 
L 124.749 38.968203 
L 125.8452 39.277614 
L 127.70874 44.581807 
L 128.9772 49.886001 
L 128.0376 55.190195 
L 128.448675 60.494388 
L 128.448675 65.798582 
L 126.72216 71.102775 
L 146.673 76.274364 
L 147.152587 76.406969 
L 150.5097 81.711162 
L 146.673 83.56763 
L 139.5477 87.015356 
L 134.6148 92.319549 
L 146.673 95.236856 
L 168.597 97.391684 
L 172.4337 97.623743 
L 178.4628 102.927936 
z
M 165.3084 92.319549 
L 168.597 91.722828 
L 190.521 91.637582 
L 192.7134 92.319549 
L 190.521 93.115178 
L 168.597 92.916271 
z
M 160.9236 87.015356 
L 168.597 86.087122 
L 176.2704 87.015356 
L 168.597 87.247414 
z
M 156.401775 76.406969 
L 146.673 73.716985 
L 136.58796 71.102775 
L 146.673 65.874356 
L 161.80056 71.102775 
L 168.597 72.473025 
L 182.5344 76.406969 
L 168.597 79.77892 
z
M 144.4806 55.190195 
L 146.673 52.803307 
L 150.61932 55.190195 
L 146.673 59.963969 
z
M 142.50744 44.581807 
L 146.673 39.542824 
L 151.87995 44.581807 
L 146.673 47.94113 
z
M 541.305 101.999703 
L 553.3632 97.623743 
L 541.305 93.247783 
L 529.2468 97.623743 
z
M 563.229 89.932662 
L 575.2872 87.015356 
L 577.75365 81.711162 
L 570.3543 76.406969 
L 563.229 72.959243 
L 562.1328 71.102775 
L 548.4303 65.798582 
L 563.229 63.411695 
L 585.153 64.008416 
L 599.67765 60.494388 
L 599.4036 55.190195 
L 585.153 53.466332 
L 575.2872 49.886001 
L 563.229 45.510041 
L 541.305 45.297874 
L 522.34074 49.886001 
L 519.381 51.676166 
L 500.0148 55.190195 
L 500.0148 60.494388 
L 497.457 62.350856 
L 490.3317 65.798582 
L 497.457 67.522445 
L 519.381 69.31261 
L 523.080675 71.102775 
L 527.0544 76.406969 
L 519.381 78.263436 
L 512.2557 81.711162 
L 519.381 83.435025 
L 541.305 85.158888 
L 545.1417 87.015356 
z
M 537.13944 49.886001 
L 541.305 48.878204 
L 547.2558 49.886001 
L 541.305 51.565662 
z
" clip-path="url(#pb0b76e8c59)" style="fill: #5e5e5e; fill-opacity: 0.35"/>
    <path d="M 168.597 92.916271 
L 190.521 93.115178 
L 192.7134 92.319549 
L 190.521 91.637582 
L 168.597 91.722828 
L 165.3084 92.319549 
z
M 387.837 93.274304 
L 394.4142 92.319549 
L 387.837 91.637582 
L 385.37055 92.319549 
z
M 168.597 79.77892 
L 182.5344 76.406969 
L 168.597 72.473025 
L 161.80056 71.102775 
L 146.673 65.874356 
L 136.58796 71.102775 
L 146.673 73.716985 
L 156.401775 76.406969 
z
M 300.141 81.534356 
L 321.3342 76.406969 
L 300.141 74.209517 
L 293.78304 76.406969 
z
M 343.989 77.088936 
L 350.5662 76.406969 
L 355.53564 71.102775 
L 365.7303 65.798582 
L 347.2776 60.494388 
L 343.989 59.698759 
L 340.04268 60.494388 
L 329.4948 65.798582 
L 330.665954 71.102775 
L 324.2574 76.406969 
z
M 341.0049 65.798582 
L 343.989 64.617193 
L 348.46515 65.798582 
L 343.989 69.0474 
z
M 387.837 79.854695 
L 402.0876 76.406969 
L 409.761 74.179207 
L 416.11896 71.102775 
L 415.540964 65.798582 
L 416.11896 60.494388 
L 425.2644 55.190195 
L 425.1078 49.886001 
L 426.066975 44.581807 
L 422.3673 39.277614 
L 417.534055 33.97342 
L 409.761 33.97342 
L 401.64912 33.97342 
L 387.837 37.10621 
L 377.9712 33.97342 
L 368.1054 33.97342 
L 377.2404 39.277614 
L 387.837 43.123154 
L 389.692108 44.581807 
L 389.692108 49.886001 
L 394.2576 55.190195 
L 387.837 59.539633 
L 384.5484 60.494388 
L 366.2784 65.798582 
L 372.139416 71.102775 
L 373.5864 76.406969 
z
M 380.426688 71.102775 
L 387.837 67.367739 
L 400.18752 71.102775 
L 387.837 74.304235 
z
M 409.0563 55.190195 
L 405.629169 49.886001 
L 405.629169 44.581807 
L 409.761 41.982753 
L 413.118112 44.581807 
L 412.920635 49.886001 
L 410.4657 55.190195 
L 409.761 55.531178 
z
M 146.673 59.963969 
L 150.61932 55.190195 
L 146.673 52.803307 
L 144.4806 55.190195 
z
M 365.913 52.841195 
L 383.01372 49.886001 
L 365.913 47.587517 
L 357.36264 49.886001 
z
M 541.305 51.565662 
L 547.2558 49.886001 
L 541.305 48.878204 
L 537.13944 49.886001 
z
M 146.673 47.94113 
L 151.87995 44.581807 
L 146.673 39.542824 
L 142.50744 44.581807 
z
" clip-path="url(#pb0b76e8c59)" style="fill: #5e5e5e; fill-opacity: 0.35"/>
    <path d="M 387.837 74.304235 
L 400.18752 71.102775 
L 387.837 67.367739 
L 380.426688 71.102775 
z
M 343.989 69.0474 
L 348.46515 65.798582 
L 343.989 64.617193 
L 341.0049 65.798582 
z
M 409.761 55.531178 
L 410.4657 55.190195 
L 412.920635 49.886001 
L 413.118112 44.581807 
L 409.761 41.982753 
L 405.629169 44.581807 
L 405.629169 49.886001 
L 409.0563 55.190195 
z
M 387.837 37.10621 
L 401.64912 33.97342 
L 387.837 33.97342 
L 377.9712 33.97342 
z
" clip-path="url(#pb0b76e8c59)" style="fill: #5e5e5e; fill-opacity: 0.35"/>
   </g>
   <g id="patch_3">
    <path d="M 48.015 162.865324 
L 48.015 27.077969 
" style="fill: none; stroke: #000000; stroke-width: 0.8; stroke-linejoin: miter; stroke-linecap: square"/>
   </g>
   <g id="patch_4">
    <path d="M 48.015 162.865324 
L 705.735 162.865324 
" style="fill: none; stroke: #000000; stroke-width: 0.8; stroke-linejoin: miter; stroke-linecap: square"/>
   </g>
   <g id="text_12">
    <text style="fill: #1a1a1a; font: 700 9px 'DejaVu Sans'; text-anchor: end" x="128.638742" y="31.321324" transform="rotate(-0 128.638742 31.321324)">panels</text>
   </g>
   <g id="text_13">
    <text style="fill: #1a1a1a; font: 700 13px 'DejaVu Sans'; text-anchor: start" x="48.015" y="17.077969" transform="rotate(-0 48.015 17.077969)">H7   Where the light lives — spatial footprint of each mode (V6.5)</text>
   </g>
   <g id="line2d_21">
    <defs>
     <path id="ma42b5e1131" d="M 0 5 
C 1.326016 5 2.597899 4.473168 3.535534 3.535534 
C 4.473168 2.597899 5 1.326016 5 0 
C 5 -1.326016 4.473168 -2.597899 3.535534 -3.535534 
C 2.597899 -4.473168 1.326016 -5 0 -5 
C -1.326016 -5 -2.597899 -4.473168 -3.535534 -3.535534 
C -4.473168 -2.597899 -5 -1.326016 -5 0 
C -5 1.326016 -4.473168 2.597899 -3.535534 3.535534 
C -2.597899 4.473168 -1.326016 5 0 5 
z
" style="stroke: #1a1a1a; stroke-width: 0.8"/>
    </defs>
    <g clip-path="url(#pb0b76e8c59)">
     <use xlink:href="#ma42b5e1131" x="409.714707" y="98.358248" style="fill: #9a9a9a; stroke: #1a1a1a; stroke-width: 0.8"/>
    </g>
   </g>
   <g id="line2d_22">
    <defs>
     <path id="mccbfa9faea" d="M 0 5 
C 1.326016 5 2.597899 4.473168 3.535534 3.535534 
C 4.473168 2.597899 5 1.326016 5 0 
C 5 -1.326016 4.473168 -2.597899 3.535534 -3.535534 
C 2.597899 -4.473168 1.326016 -5 0 -5 
C -1.326016 -5 -2.597899 -4.473168 -3.535534 -3.535534 
C -4.473168 -2.597899 -5 -1.326016 -5 0 
C -5 1.326016 -4.473168 2.597899 -3.535534 3.535534 
C -2.597899 4.473168 -1.326016 5 0 5 
z
" style="stroke: #1a1a1a; stroke-width: 0.8"/>
    </defs>
    <g clip-path="url(#pb0b76e8c59)">
     <use xlink:href="#mccbfa9faea" x="413.554984" y="97.363077" style="fill: #bdbdbd; stroke: #1a1a1a; stroke-width: 0.8"/>
    </g>
   </g>
   <g id="line2d_23">
    <defs>
     <path id="mc170524e7b" d="M 0 5 
C 1.326016 5 2.597899 4.473168 3.535534 3.535534 
C 4.473168 2.597899 5 1.326016 5 0 
C 5 -1.326016 4.473168 -2.597899 3.535534 -3.535534 
C 2.597899 -4.473168 1.326016 -5 0 -5 
C -1.326016 -5 -2.597899 -4.473168 -3.535534 -3.535534 
C -4.473168 -2.597899 -5 -1.326016 -5 0 
C -5 1.326016 -4.473168 2.597899 -3.535534 3.535534 
C -2.597899 4.473168 -1.326016 5 0 5 
z
" style="stroke: #1a1a1a; stroke-width: 0.8"/>
    </defs>
    <g clip-path="url(#pb0b76e8c59)">
     <use xlink:href="#mc170524e7b" x="423.66844" y="95.014579" style="fill: #e8a23d; stroke: #1a1a1a; stroke-width: 0.8"/>
    </g>
   </g>
   <g id="line2d_24">
    <defs>
     <path id="m17a055862c" d="M 0 5 
C 1.326016 5 2.597899 4.473168 3.535534 3.535534 
C 4.473168 2.597899 5 1.326016 5 0 
C 5 -1.326016 4.473168 -2.597899 3.535534 -3.535534 
C 2.597899 -4.473168 1.326016 -5 0 -5 
C -1.326016 -5 -2.597899 -4.473168 -3.535534 -3.535534 
C -4.473168 -2.597899 -5 -1.326016 -5 0 
C -5 1.326016 -4.473168 2.597899 -3.535534 3.535534 
C -2.597899 4.473168 -1.326016 5 0 5 
z
" style="stroke: #1a1a1a; stroke-width: 0.8"/>
    </defs>
    <g clip-path="url(#pb0b76e8c59)">
     <use xlink:href="#m17a055862c" x="466.717378" y="76.767433" style="fill: #c47f1d; stroke: #1a1a1a; stroke-width: 0.8"/>
    </g>
   </g>
   <g id="line2d_25">
    <defs>
     <path id="mf0f677ae49" d="M 0 5 
C 1.326016 5 2.597899 4.473168 3.535534 3.535534 
C 4.473168 2.597899 5 1.326016 5 0 
C 5 -1.326016 4.473168 -2.597899 3.535534 -3.535534 
C 2.597899 -4.473168 1.326016 -5 0 -5 
C -1.326016 -5 -2.597899 -4.473168 -3.535534 -3.535534 
C -4.473168 -2.597899 -5 -1.326016 -5 0 
C -5 1.326016 -4.473168 2.597899 -3.535534 3.535534 
C -2.597899 4.473168 -1.326016 5 0 5 
z
" style="stroke: #1a1a1a; stroke-width: 0.8"/>
    </defs>
    <g clip-path="url(#pb0b76e8c59)">
     <use xlink:href="#mf0f677ae49" x="348.944063" y="65.166628" style="fill: #5e5e5e; stroke: #1a1a1a; stroke-width: 0.8"/>
    </g>
   </g>
   <g id="patch_5">
    <path d="M 451.256477 91.865828 
Q 431.473173 94.957692 411.689868 98.049557 
" style="fill: none; stroke: #9a9a9a; stroke-width: 0.6; stroke-linecap: round"/>
   </g>
   <g id="text_14">
    <g id="patch_6">
     <path d="M 455.8014 92.763841 
L 590.051869 92.763841 
Q 592.751869 92.763841 592.751869 90.063841 
L 592.751869 71.275497 
Q 592.751869 68.575497 590.051869 68.575497 
L 455.8014 68.575497 
Q 453.1014 68.575497 453.1014 71.275497 
L 453.1014 90.063841 
Q 453.1014 92.763841 455.8014 92.763841 
z
" style="fill: #ffffff; opacity: 0.9; stroke: #9a9a9a; stroke-width: 0.5; stroke-linejoin: miter"/>
    </g>
    <text style="fill: #1a1a1a; font: 700 9px 'DejaVu Sans'" transform="translate(455.8014 78.104247)">idle</text>
    <text style="fill: #1a1a1a; font: 700 9px 'DejaVu Sans'" transform="translate(455.8014 88.182278)">μ=(-160, -2) cm  n=40,375</text>
   </g>
   <g id="patch_7">
    <path d="M 450.85014 98.61445 
Q 433.201865 98.022293 415.553589 97.430136 
" style="fill: none; stroke: #9a9a9a; stroke-width: 0.6; stroke-linecap: round"/>
   </g>
   <g id="text_15">
    <g id="patch_8">
     <path d="M 455.8014 113.131944 
L 590.051869 113.131944 
Q 592.751869 113.131944 592.751869 110.431944 
L 592.751869 91.6436 
Q 592.751869 88.9436 590.051869 88.9436 
L 455.8014 88.9436 
Q 453.1014 88.9436 453.1014 91.6436 
L 453.1014 110.431944 
Q 453.1014 113.131944 455.8014 113.131944 
z
" style="fill: #ffffff; opacity: 0.9; stroke: #9a9a9a; stroke-width: 0.5; stroke-linejoin: miter"/>
    </g>
    <text style="fill: #1a1a1a; font: 700 9px 'DejaVu Sans'" transform="translate(455.8014 98.47235)">flow</text>
    <text style="fill: #1a1a1a; font: 700 9px 'DejaVu Sans'" transform="translate(455.8014 108.550382)">μ=(-158, -1) cm  n=28,769</text>
   </g>
   <g id="patch_9">
    <path d="M 602.142618 74.867157 
Q 513.898172 84.828812 425.653726 94.790466 
" style="fill: none; stroke: #9a9a9a; stroke-width: 0.6; stroke-linecap: round"/>
   </g>
   <g id="text_16">
    <g id="patch_10">
     <path d="M 607.077 79.185105 
L 735.065437 79.185105 
Q 737.765437 79.185105 737.765437 76.485105 
L 737.765437 57.696762 
Q 737.765437 54.996762 735.065437 54.996762 
L 607.077 54.996762 
Q 604.377 54.996762 604.377 57.696762 
L 604.377 76.485105 
Q 604.377 79.185105 607.077 79.185105 
z
" style="fill: #ffffff; opacity: 0.9; stroke: #9a9a9a; stroke-width: 0.5; stroke-linejoin: miter"/>
    </g>
    <text style="fill: #1a1a1a; font: 700 9px 'DejaVu Sans'" transform="translate(607.077 64.525512)">aware</text>
    <text style="fill: #1a1a1a; font: 700 9px 'DejaVu Sans'" transform="translate(607.077 74.603543)">μ=(-153, -0) cm  n=5,504</text>
   </g>
   <g id="patch_11">
    <path d="M 603.980635 101.929154 
Q 536.331314 89.52836 468.681992 77.127567 
" style="fill: none; stroke: #9a9a9a; stroke-width: 0.6; stroke-linecap: round"/>
   </g>
   <g id="text_17">
    <g id="patch_12">
     <path d="M 607.077 126.71068 
L 738.872156 126.71068 
Q 741.572156 126.71068 741.572156 124.01068 
L 741.572156 105.081711 
Q 741.572156 102.381711 738.872156 102.381711 
L 607.077 102.381711 
Q 604.377 102.381711 604.377 105.081711 
L 604.377 124.01068 
Q 604.377 126.71068 607.077 126.71068 
z
" style="fill: #ffffff; opacity: 0.9; stroke: #9a9a9a; stroke-width: 0.5; stroke-linejoin: miter"/>
    </g>
    <text style="fill: #1a1a1a; font: 700 9px 'DejaVu Sans'" transform="translate(607.077 111.980773)">engaged</text>
    <text style="fill: #1a1a1a; font: 700 9px 'DejaVu Sans'" transform="translate(607.077 122.129117)">μ=(-133, +9) cm  n=6,964</text>
   </g>
   <g id="patch_13">
    <path d="M 360.955576 53.660761 
Q 355.67268 58.721264 350.389785 63.781767 
" style="fill: none; stroke: #9a9a9a; stroke-width: 0.6; stroke-linecap: round"/>
   </g>
   <g id="text_18">
    <g id="patch_14">
     <path d="M 311.103 52.027634 
L 439.479562 52.027634 
Q 442.179562 52.027634 442.179562 49.327634 
L 442.179562 30.539291 
Q 442.179562 27.839291 439.479562 27.839291 
L 311.103 27.839291 
Q 308.403 27.839291 308.403 30.539291 
L 308.403 49.327634 
Q 308.403 52.027634 311.103 52.027634 
z
" style="fill: #ffffff; opacity: 0.9; stroke: #9a9a9a; stroke-width: 0.5; stroke-linejoin: miter"/>
    </g>
    <text style="fill: #1a1a1a; font: 700 9px 'DejaVu Sans'" transform="translate(311.103 37.368041)">crowd</text>
    <text style="fill: #1a1a1a; font: 700 9px 'DejaVu Sans'" transform="translate(311.103 47.446072)">μ=(-188, +14) cm  n=917</text>
   </g>
  </g>
  <g id="text_19">
   <text style="fill: #555555; font: 8px 'DejaVu Sans'; text-anchor: start" x="25.335" y="294.555646" transform="rotate(-0 25.335 294.555646)">Density of the light's recorded (x, z) position per behaviour mode across the V6.5 window (82K ticks, Mar 15–17). Idle lives at the panel centre (x=−159, z=−1); engaged and crowd pull forward (z=+8 and +14) and outward — the light physically approaches the street when it's with people.</text>
  </g>
 </g>
 <defs>
  <clipPath id="pb0b76e8c59">
   <rect x="48.015" y="27.077969" width="657.72" height="135.787355"/>
  </clipPath>
 </defs>
</svg>
